<svg id="Layer_1" height="512" viewBox="0 0 512 512" width="512" xmlns="http://www.w3.org/2000/svg" data-name="Layer 1"><g fill="#d4e1f4"><path d="m156.969 96 5.463-8.631a90.736 90.736 0 0 1 44.655-36.262 6 6 0 0 0 4.007-4.99 69.349 69.349 0 0 0 -.447-19.038 37.826 37.826 0 0 0 -10.8-4.2 69.258 69.258 0 0 1 1.245 23.235 6 6 0 0 1 -4.007 4.99 90.736 90.736 0 0 0 -44.655 36.262l-5.461 8.634a6 6 0 0 1 -5.07 2.791h10a6 6 0 0 0 5.07-2.791z"/><path d="m136.327 146.772v-46.633a1.348 1.348 0 0 1 1.345-1.346h-10a1.348 1.348 0 0 0 -1.345 1.346v46.633a1.347 1.347 0 0 0 1.345 1.345h10a1.347 1.347 0 0 1 -1.345-1.345z"/><path d="m187.742 216.238a69.554 69.554 0 0 0 -17.835-46.746 73.6 73.6 0 0 1 -12.079-17.93 6 6 0 0 0 -5.429-3.445h-10a6 6 0 0 1 5.429 3.445 73.6 73.6 0 0 0 12.079 17.93 69.554 69.554 0 0 1 17.835 46.746 4.836 4.836 0 0 0 4.831 4.83h10a4.836 4.836 0 0 1 -4.831-4.83z"/><path d="m340.239 133.033c.377.03.752.045 1.131.082.006-.058.011-.116.017-.173-.387.023-.766.058-1.148.091z"/><path d="m274.245 216.238a16.85 16.85 0 0 0 -16.83-16.831h-10a16.85 16.85 0 0 1 16.83 16.831 4.836 4.836 0 0 0 4.83 4.83h9.356c-.01-.023-.019-.046-.029-.068a4.823 4.823 0 0 1 -4.157-4.762z"/></g><path d="m76.434 324.75a5.994 5.994 0 0 0 .214.823 70.139 70.139 0 0 0 26.33 34.977l44.011 30.324c.1.073.213.142.323.208a13.5 13.5 0 0 1 6.039 7.8l7.365 32.683a5.959 5.959 0 0 0 .856 1.99l-8.037 6.151a6 6 0 0 0 -2.354 4.765v51.529a6 6 0 0 0 9.308 5.006l81.487-53.841a6 6 0 0 0 2.693-5.006v-60.05a6 6 0 0 0 -9.647-4.765l-7.952 6.086a28.384 28.384 0 0 1 -.364-3.131l-.676-11.64c-.009-.164-.026-.328-.049-.491a63.948 63.948 0 0 0 -42.464-51.655l-3.784-1.317a35.787 35.787 0 0 1 -13.462-8.443l-18.171-18.167-6.2-20.978a29.86 29.86 0 0 0 -24.935-21.8l-.8-2.679q-.021-.072-.045-.144c-3.008-9.191-12.755-15.215-22.888-14.968l-.032-.117a27.038 27.038 0 0 0 -32.464-18.521 6 6 0 0 0 -4.452 6.919zm156.235 114.182-69.488 45.912v-37.412l69.488-53.176zm-102.338-168.154c.013.053.028.1.044.158l1.293 4.375a31.928 31.928 0 0 0 -6.462-2.023l-4.156-13.865a17.834 17.834 0 0 1 9.281 11.355zm-25.631-24.119 7.977 26.617a31.868 31.868 0 0 0 -5.429 1.584l-10.317-34.482c3.612.865 6.723 3.186 7.769 6.281zm-23-15.318 14.088 47.1.97 3.131c-.159.153-.322.3-.479.455a6 6 0 0 0 .2 8.673l22.05 20.14a141.814 141.814 0 0 1 17.386 19.07 6 6 0 0 0 9.568-7.242 153.722 153.722 0 0 0 -18.862-20.688l-16.657-15.215a20.037 20.037 0 0 1 23.093 3.747l24.731 24.731a47.85 47.85 0 0 0 18 11.29l3.784 1.317a51.994 51.994 0 0 1 34.492 41.761l.661 11.387a39.994 39.994 0 0 0 2 10.354l-45.006 34.441-6.7-29.72c-.023-.105-.05-.21-.079-.313a25.45 25.45 0 0 0 -11.29-14.866l-43.85-30.216a58.052 58.052 0 0 1 -21.648-28.551l-18.843-101.411a15.053 15.053 0 0 1 12.391 10.625z" fill="#0635c9"/><path d="m451.265 209.382a27.035 27.035 0 0 0 -32.465 18.518l-.036.118c-10.133-.246-19.88 5.778-22.888 14.968q-.024.072-.045.144l-.8 2.679a29.86 29.86 0 0 0 -24.935 21.8l-6.2 20.978-18.167 18.167a35.783 35.783 0 0 1 -13.463 8.443l-3.783 1.317a63.948 63.948 0 0 0 -42.464 51.655c-.023.163-.04.327-.049.491l-.676 11.64a28.384 28.384 0 0 1 -.364 3.131l-7.952-6.086a6 6 0 0 0 -9.647 4.765v60.05a6 6 0 0 0 2.693 5.006l81.487 53.841a6 6 0 0 0 9.308-5.007v-51.532a6 6 0 0 0 -2.354-4.765l-8.037-6.151a5.959 5.959 0 0 0 .856-1.99l7.365-32.683a13.5 13.5 0 0 1 6.039-7.8c.11-.066.218-.135.323-.208l44.025-30.333a70.131 70.131 0 0 0 26.316-34.968 5.994 5.994 0 0 0 .214-.823l20.151-108.447a6 6 0 0 0 -4.452-6.918zm-43.965 37.277c1.044-3.095 4.156-5.416 7.768-6.282l-10.313 34.483a31.973 31.973 0 0 0 -5.43-1.585zm-25.633 24.119a17.834 17.834 0 0 1 9.281-11.355l-4.148 13.865a31.937 31.937 0 0 0 -6.463 2.023l1.293-4.375c.011-.053.026-.105.039-.158zm-32.85 214.066-69.488-45.912v-44.676l69.488 53.176zm75.029-162.717a58.038 58.038 0 0 1 -21.634 28.541l-43.861 30.222a25.45 25.45 0 0 0 -11.29 14.866c-.029.1-.056.208-.079.313l-6.7 29.72-45.006-34.441a39.994 39.994 0 0 0 2-10.354l.661-11.387a51.994 51.994 0 0 1 34.492-41.761l3.783-1.317a47.846 47.846 0 0 0 18-11.29l24.731-24.731a20.041 20.041 0 0 1 23.093-3.747l-16.657 15.215a153.722 153.722 0 0 0 -18.862 20.688 6 6 0 0 0 9.568 7.242 141.814 141.814 0 0 1 17.386-19.07l22.05-20.14a6 6 0 0 0 .2-8.673c-.157-.157-.32-.3-.479-.455l.986-3.186 14.072-47.043a15.05 15.05 0 0 1 12.392-10.623z" fill="#0635c9"/><path d="m207.411 88.015a6 6 0 1 0 -12 0 6.487 6.487 0 0 1 -12.973 0 6 6 0 1 0 -12 0 18.487 18.487 0 0 0 36.973 0z" fill="#1ae5be"/><path d="m214.468 216.238a4.836 4.836 0 0 1 4.83-4.831h28.117a4.836 4.836 0 0 1 4.83 4.831 16.849 16.849 0 0 0 16.83 16.83h16.566c.449.586.894 1.174 1.365 1.748a62.006 62.006 0 0 0 42.125 22.523q3.132.307 6.24.307a62.413 62.413 0 0 0 17.8-122.2 87.4 87.4 0 0 0 .713-10.967c0-.374-.011-.746-.016-1.119a27.294 27.294 0 0 0 22.078-26.754 6 6 0 0 0 -12 0 15.27 15.27 0 0 1 -11.08 14.659c-7.076-45.912-50.46-81.354-102.764-81.354a125.215 125.215 0 0 0 -17.583 1.258 50.033 50.033 0 0 0 -40.847-21.169 6 6 0 0 0 -5.737 7.757l1.08 3.528a57.324 57.324 0 0 1 2.454 19.933 102.846 102.846 0 0 0 -47.177 39.736l-3.7 5.839h-10.92a13.361 13.361 0 0 0 -13.345 13.346v46.633a13.361 13.361 0 0 0 13.345 13.345h11.028a86.942 86.942 0 0 0 12.3 17.418 57.572 57.572 0 0 1 14.741 38.7 16.849 16.849 0 0 0 16.831 16.83h15.064a16.85 16.85 0 0 0 16.832-16.827zm170.957-16.064a50.413 50.413 0 0 1 -89.142 27.031c-.863-1.052-1.666-2.137-2.434-3.241a6 6 0 0 0 -.518-.735 50.414 50.414 0 1 1 92.094-23.055zm-207.683 16.064a69.554 69.554 0 0 0 -17.835-46.746 73.6 73.6 0 0 1 -12.079-17.93 6 6 0 0 0 -5.429-3.445h-14.727a1.347 1.347 0 0 1 -1.345-1.345v-46.633a1.348 1.348 0 0 1 1.345-1.346h14.228a6 6 0 0 0 5.069-2.793l5.463-8.631a90.736 90.736 0 0 1 44.655-36.262 6 6 0 0 0 4.007-4.99 69.258 69.258 0 0 0 -1.245-23.235 38.136 38.136 0 0 1 29.893 37.188 6 6 0 0 0 12 0 49.812 49.812 0 0 0 -3.185-17.557 114.154 114.154 0 0 1 11.548-.6c50.609 0 91.782 37.04 91.782 82.568a75.465 75.465 0 0 1 -.517 8.634 62.432 62.432 0 0 0 -62.939 87.953h-9.356a4.836 4.836 0 0 1 -4.83-4.83 16.85 16.85 0 0 0 -16.83-16.831h-28.115a16.85 16.85 0 0 0 -16.83 16.831 4.836 4.836 0 0 1 -4.831 4.83h-15.066a4.836 4.836 0 0 1 -4.831-4.83z" fill="#1ae5be"/><path d="m332.635 160.671-.222 2.245a19.266 19.266 0 0 0 2.287 37.984 7.267 7.267 0 0 1 -1.333 14.473c-.032 0-.062-.01-.093-.014s-.063 0-.094 0a7.263 7.263 0 0 1 -6.428-7.934 6 6 0 1 0 -11.942-1.177 19.253 19.253 0 0 0 11.409 19.519l-.28 2.845a6 6 0 0 0 5.382 6.56c.2.02.4.029.6.029a6 6 0 0 0 5.963-5.411l.281-2.848a19.265 19.265 0 0 0 -2.283-37.98 7.27 7.27 0 1 1 7.947-6.521 6 6 0 1 0 11.942 1.177 19.246 19.246 0 0 0 -11.409-19.518l.221-2.245a6 6 0 1 0 -11.941-1.178z" fill="#1ae5be"/></svg>