<svg id="Layer_1" height="512" viewBox="0 0 512 512" width="512" xmlns="http://www.w3.org/2000/svg" data-name="Layer 1"><path d="m106.5 443.8a85.724 85.724 0 0 0 -21.983-57.62 93.893 93.893 0 0 1 -15.4-22.865 6 6 0 0 0 -5.429-3.445h-18.474a3.218 3.218 0 0 1 -3.214-3.214v-58.5a3.218 3.218 0 0 1 3.214-3.214h17.847a6 6 0 0 0 5.07-2.792l6.853-10.827a115.345 115.345 0 0 1 56.754-46.095 6 6 0 0 0 4.063-5.011 85.591 85.591 0 0 0 -.238-21.343 49.059 49.059 0 0 0 -21.846-9.58 85.376 85.376 0 0 1 2.084 30.923 6 6 0 0 1 -4.063 5.011 115.345 115.345 0 0 0 -56.754 46.1l-6.853 10.827a6 6 0 0 1 -5.07 2.792h-17.847a3.218 3.218 0 0 0 -3.214 3.21v58.5a3.218 3.218 0 0 0 3.214 3.214h18.474a6 6 0 0 1 5.429 3.445 93.893 93.893 0 0 0 15.4 22.865 85.724 85.724 0 0 1 21.983 57.619 7.594 7.594 0 0 0 7.585 7.586h18.9c.186 0 .369-.014.551-.028a7.59 7.59 0 0 1 -7.036-7.558z" fill="#d4e1f4"/><path d="m215.01 443.8a19.609 19.609 0 0 0 -19.586-19.586h-20a19.609 19.609 0 0 1 19.586 19.586 7.6 7.6 0 0 0 7.586 7.586h20a7.6 7.6 0 0 1 -7.586-7.586z" fill="#d4e1f4"/><path d="m496 176.643h-7.764v-42.384a39.307 39.307 0 0 0 -39.264-39.259h-18.913l-57.215-57.219a6 6 0 0 0 -8.485 0l-23.7 23.7-21.992-21.992a6 6 0 0 0 -8.486 0l-55.506 55.511h-38.549a39.307 39.307 0 0 0 -39.263 39.263v88h12v-88a27.294 27.294 0 0 1 27.263-27.263h232.846a27.294 27.294 0 0 1 27.264 27.263v42.384h-54.475a42.288 42.288 0 0 0 0 84.575h54.475v42.378a27.294 27.294 0 0 1 -27.264 27.263h-147.99v12h147.99a39.308 39.308 0 0 0 39.264-39.263v-42.382h7.764a6 6 0 0 0 6-6v-72.575a6 6 0 0 0 -6-6zm-127.4-126.134 44.488 44.491h-38.915l-25.029-25.03zm-54.177 1.708 42.777 42.783h-85.554zm175.577 197.001h-68.239a30.288 30.288 0 0 1 0-60.575h68.239z" fill="#0635c9"/><path d="m403.514 218.93a19.608 19.608 0 1 0 19.608-19.607 19.631 19.631 0 0 0 -19.608 19.607zm19.608-7.607a7.608 7.608 0 1 1 -7.608 7.607 7.616 7.616 0 0 1 7.608-7.607z" fill="#0635c9"/><g fill="#1ae5be"><path d="m117.715 276.948a6 6 0 0 0 -6 6 9.664 9.664 0 1 1 -19.327 0 6 6 0 0 0 -12 0 21.664 21.664 0 1 0 43.327 0 6 6 0 0 0 -6-6z"/><path d="m335.694 365.079-.382-.165a272.5 272.5 0 0 1 -29.156-14.677 194.552 194.552 0 0 0 1.305-21.544c0-.9-.015-1.788-.037-2.678a32.713 32.713 0 0 0 27.713-32.287 6 6 0 0 0 -12 0 20.689 20.689 0 0 1 -16.687 20.272c-7.967-57.66-62.174-102.408-127.651-102.408a154.876 154.876 0 0 0 -22.759 1.7 61.258 61.258 0 0 0 -50.54-26.683 6 6 0 0 0 -5.737 7.758l1.355 4.425a73.456 73.456 0 0 1 3.085 26.5 127.466 127.466 0 0 0 -59.357 49.616l-5.086 8.036h-14.546a15.231 15.231 0 0 0 -15.214 15.213v58.5a15.231 15.231 0 0 0 15.214 15.213h14.751a107.194 107.194 0 0 0 15.647 22.353 73.743 73.743 0 0 1 18.888 49.577 19.608 19.608 0 0 0 19.585 19.586h18.9a19.608 19.608 0 0 0 19.582-19.586 7.6 7.6 0 0 1 7.586-7.586h35.271a7.6 7.6 0 0 1 7.586 7.586 19.608 19.608 0 0 0 19.59 19.582h44.922a106.421 106.421 0 0 0 25.712 12.353 6 6 0 0 0 3.315.015 112.527 112.527 0 0 0 31.035-15.321c20.764-14.679 31.738-34.229 31.738-56.537v-33.3a6 6 0 0 0 -3.628-5.513zm-133.1 86.3a7.6 7.6 0 0 1 -7.586-7.586 19.609 19.609 0 0 0 -19.586-19.586h-35.269a19.609 19.609 0 0 0 -19.586 19.593 7.6 7.6 0 0 1 -7.586 7.586h-18.9a7.594 7.594 0 0 1 -7.581-7.586 85.724 85.724 0 0 0 -21.983-57.62 93.893 93.893 0 0 1 -15.4-22.865 6 6 0 0 0 -5.429-3.445h-18.474a3.218 3.218 0 0 1 -3.214-3.214v-58.5a3.218 3.218 0 0 1 3.214-3.214h17.847a6 6 0 0 0 5.07-2.792l6.853-10.827a115.345 115.345 0 0 1 56.754-46.095 6 6 0 0 0 4.063-5.011 85.376 85.376 0 0 0 -2.084-30.923 49.364 49.364 0 0 1 41.064 48.6 6 6 0 0 0 12 0 60.941 60.941 0 0 0 -4.622-23.323 144.549 144.549 0 0 1 16.64-.981c64.328 0 116.662 47.15 116.662 105.1 0 3.673-.221 9.37-.646 14.559q-7.825-5.07-15.305-10.648a6 6 0 0 0 -7.2 0 272.658 272.658 0 0 1 -55.81 32.315l-.377.163a6 6 0 0 0 -3.625 5.509v33.3c0 17.987 6.923 34.188 20.157 47.49zm124.722-47.49c0 18.405-8.88 34.065-26.395 46.546a103.9 103.9 0 0 1 -25.975 13.233 99.763 99.763 0 0 1 -21.711-10.9 5.937 5.937 0 0 0 -.992-.671c-.756-.522-1.514-1.056-2.271-1.615-16.9-12.477-25.473-28.152-25.473-46.592v-29.375a284.745 284.745 0 0 0 51.411-29.655 284.814 284.814 0 0 0 51.408 29.655z"/><path d="m269.91 380.544v31.794a6 6 0 0 0 12 0v-31.794a6 6 0 0 0 -12 0z"/><path d="m266.632 436.7a9 9 0 1 0 9-9 9.01 9.01 0 0 0 -9 9zm12 0a3 3 0 1 1 -3-3 3 3 0 0 1 3 3z"/></g></svg>