<svg id="Layer_1" height="512" viewBox="0 0 512 512" width="512" xmlns="http://www.w3.org/2000/svg" data-name="Layer 1"><path d="m375.738 466.826c-26.739-19.572-40.3-44.277-40.3-73.428v-59.098a428.46 428.46 0 0 0 78.262-44.773q-8.763-5.79-17.239-12a428.517 428.517 0 0 1 -81.02 46.773v59.1c0 29.151 13.558 53.856 40.3 73.428a152.567 152.567 0 0 0 31.334 17.472c-3.693-2.2-7.516-4.678-11.337-7.474z" fill="#d4e1f4"/><g fill="#0635c9"><path d="m450.917 164.869-206.391-89.7v-10.032l37.589-.329a6 6 0 0 0 4.721-9.634l-8.176-10.742 8.4-12.682a6 6 0 0 0 -5-9.315h-43.534a6 6 0 0 0 -6 6v46.729l-206.392 89.705a6 6 0 0 0 -3.608 5.5v34.679a6 6 0 0 0 6 6h23.814a23.949 23.949 0 0 0 18.86 36.476c.517.032 1.03.048 1.543.048a23.661 23.661 0 0 0 11.911-3.205v129.092h-5.961a6 6 0 0 0 -5.367 3.317l-5.979 11.958a5.994 5.994 0 0 0 -.633 2.683v5.959h-26.521a6 6 0 0 0 -6 6v31.592a6 6 0 0 0 6 6h285.62v-12h-279.62v-19.592h263.422v-12h-33.506v-5.959a6.007 6.007 0 0 0 -.633-2.683l-5.98-11.958a6 6 0 0 0 -5.366-3.317h-5.959v-130.053a23.922 23.922 0 0 0 37.387-20.441 23.345 23.345 0 0 0 -3.673-11.914h25.872a23.949 23.949 0 0 0 18.857 36.473q.774.048 1.542.048a23.662 23.662 0 0 0 11.912-3.205v52.268a6 6 0 0 0 12 0v-67h16.812v48.933a6 6 0 0 0 12 0v-35.16a23.923 23.923 0 0 0 37.387-20.442 23.342 23.342 0 0 0 -3.674-11.913h23.933a6 6 0 0 0 6-6v-34.681a6 6 0 0 0 -3.609-5.503zm-206.391-130.434h26.362l-4.588 6.923a6 6 0 0 0 .227 6.948l3.507 4.608-25.509.223zm168.374 197.522a11.939 11.939 0 0 1 -20.5-8.324 6 6 0 0 0 -6-6h-30.332a6 6 0 0 0 -6 6 11.939 11.939 0 0 1 -12.711 11.914 12.067 12.067 0 0 1 -11.14-11.141 11.937 11.937 0 0 1 11.913-12.706h65.835a12.211 12.211 0 0 1 12.306 11.6 11.856 11.856 0 0 1 -3.371 8.657zm-332.01.378a11.906 11.906 0 0 1 -8.945 3.212 12.068 12.068 0 0 1 -11.145-11.141 11.937 11.937 0 0 1 11.914-12.706h65.834a12.21 12.21 0 0 1 12.306 11.6 11.937 11.937 0 1 1 -23.87.34 6 6 0 0 0 -6-6h-30.333a6 6 0 0 0 -6 6 11.827 11.827 0 0 1 -3.765 8.695zm15.765-2.7h16.812v143.824h-16.816zm-17.941 167.741v-4.543l3.687-7.374h45.312l3.688 7.374v4.543zm185.4-4.543v4.543h-52.692v-4.543l3.687-7.374h45.313zm-34.754-19.374v-143.826h16.811v143.826zm50.827-141.5a11.938 11.938 0 0 1 -20.5-8.324 6 6 0 0 0 -6-6h-30.327a6 6 0 0 0 -6 6 11.939 11.939 0 0 1 -12.711 11.914 12.068 12.068 0 0 1 -11.141-11.141 11.939 11.939 0 0 1 11.914-12.71h65.835a12.211 12.211 0 0 1 12.306 11.6 11.861 11.861 0 0 1 -3.376 8.659zm-98.656-6.807a23.937 23.937 0 0 0 22.375 22.374q.774.048 1.542.048a23.667 23.667 0 0 0 11.912-3.205v129.09h-5.96a6 6 0 0 0 -5.366 3.317l-5.98 11.958a6.007 6.007 0 0 0 -.633 2.683v5.959h-56.021v-5.959a6 6 0 0 0 -.634-2.683l-5.979-11.958a6 6 0 0 0 -5.367-3.317h-5.958v-130.053a23.922 23.922 0 0 0 37.387-20.441 23.345 23.345 0 0 0 -3.673-11.914h25.871a23.758 23.758 0 0 0 -3.516 14.099zm261-26.1h-408v-24.746l204-88.666 204 88.666z"/><path d="m238.513 105.215a40.9 40.9 0 0 0 -40.4 34.842h-9.478a6 6 0 0 0 0 12h9.478a40.84 40.84 0 0 0 80.795 0h9.542a6 6 0 0 0 0-12h-9.542a40.9 40.9 0 0 0 -40.395-34.842zm0 69.684a28.842 28.842 0 1 1 28.842-28.842 28.874 28.874 0 0 1 -28.842 28.843z"/><path d="m238.513 137.447a9.571 9.571 0 1 0 9.572 9.571 9.582 9.582 0 0 0 -9.572-9.571zm0 12a2.429 2.429 0 1 1 2.429-2.429 2.431 2.431 0 0 1 -2.429 2.429z"/></g><path d="m485.846 314.848-.573-.247a416.416 416.416 0 0 1 -85.216-49.341 6 6 0 0 0 -7.2 0 416.394 416.394 0 0 1 -85.217 49.34l-.571.246a6 6 0 0 0 -3.628 5.511v63.043c0 32.724 15.633 61.463 45.21 83.111a159.36 159.36 0 0 0 44.613 22.815 6 6 0 0 0 3.315.015 167.066 167.066 0 0 0 46.1-22.772c30.616-21.645 46.8-50.4 46.8-83.169v-63.041a6 6 0 0 0 -3.633-5.511zm-8.372 68.55c0 29.009-13.946 53.629-41.451 73.176a160.275 160.275 0 0 1 -41.046 20.7 151.765 151.765 0 0 1 -39.239-20.449c-26.739-19.572-40.3-44.277-40.3-73.428v-59.097a428.517 428.517 0 0 0 81.017-46.764 428.478 428.478 0 0 0 81.019 46.764z" fill="#1ae5be"/><path d="m363.191 367.091a6 6 0 0 0 -8.822 8.135l26.042 28.238a6 6 0 0 0 8.463.358l49.313-45.168a6 6 0 0 0 -8.105-8.85l-44.9 41.129z" fill="#1ae5be"/></svg>