<svg id="Layer_1" height="512" viewBox="0 0 512 512" width="512" xmlns="http://www.w3.org/2000/svg" data-name="Layer 1"><path d="m355.928 453.522c-7.391-5.034-14.395-13.872-19.216-24.247-3.674-7.9-5.7-16.008-5.7-22.815v-73.577l66.588-32.577-9.986-4.9-76.6 37.476v73.578c0 6.807 2.022 14.91 5.7 22.815 4.821 10.375 11.825 19.213 19.216 24.247l51.689 35.218 10-6.813z" fill="#d4e1f4"/><g fill="#0635c9"><path d="m457.338 107.5-206.5-96.93a6 6 0 0 0 -5.1 0l-206.507 96.93a6 6 0 0 0 -3.45 5.431v37.93a6 6 0 0 0 6 6h24.8a27.164 27.164 0 0 0 20.281 43.039q.879.054 1.75.055a26.853 26.853 0 0 0 15.14-4.627v155.337h-8.111a6 6 0 0 0 -5.367 3.316l-7.055 14.111a6 6 0 0 0 -.634 2.684v8.111h-23.595a6 6 0 0 0 -6 6v33.346a6 6 0 0 0 6 6h247.678a6 6 0 0 0 0-12h-241.678v-21.346h240.026a6 6 0 0 0 0-12h-134.1v-8.111a6 6 0 0 0 -.634-2.684l-7.055-14.111a6 6 0 0 0 -5.367-3.316h-8.111v-156.676a27.155 27.155 0 0 0 44.118-21.961 26.582 26.582 0 0 0 -5.312-15.168h119.3a27.163 27.163 0 0 0 20.28 43.04q.879.054 1.75.055a26.847 26.847 0 0 0 15.139-4.627v111.895h12v-128.435h22v111.212a6 6 0 0 0 12 0v-96.011a27.156 27.156 0 0 0 44.119-21.961 26.589 26.589 0 0 0 -5.312-15.168h24.959a6 6 0 0 0 6-6v-37.93a6 6 0 0 0 -3.452-5.43zm-298.42 264.692v6.695h-64.333v-6.695l4.764-9.527h54.8zm-43.166-21.527v-171.877h22v171.877zm61.831-167.3a15.167 15.167 0 0 1 -26.038-10.576 6 6 0 0 0 -6-6h-35.793a6 6 0 0 0 -6 6 15.169 15.169 0 0 1 -16.146 15.136 15.336 15.336 0 0 1 -14.157-14.158 15.168 15.168 0 0 1 15.136-16.145h77.686c8.38 0 15.379 6.611 15.6 14.736a15.066 15.066 0 0 1 -4.288 11.006zm241.273 0a15.167 15.167 0 0 1 -26.039-10.575 6 6 0 0 0 -6-6h-35.793a6 6 0 0 0 -6 6 15.169 15.169 0 0 1 -16.145 15.136 15.335 15.335 0 0 1 -14.158-14.158 15.169 15.169 0 0 1 15.136-16.145h77.687c8.379 0 15.378 6.611 15.6 14.736a15.06 15.06 0 0 1 -4.288 11.004zm29.932-38.5h-401.007v-28.123l200.5-94.114 200.5 94.114z"/><path d="m248.27 43.572a47.174 47.174 0 0 0 -46.718 41.114h-12.136a6 6 0 0 0 0 12h12.136a47.1 47.1 0 0 0 93.436 0h12.212a6 6 0 0 0 0-12h-12.212a47.174 47.174 0 0 0 -46.718-41.114zm0 82.228a35.114 35.114 0 1 1 35.114-35.114 35.154 35.154 0 0 1 -35.114 35.114z"/><path d="m248.27 81.606a10.215 10.215 0 1 0 10.214 10.214 10.226 10.226 0 0 0 -10.214-10.214zm0 12a1.786 1.786 0 1 1 1.786-1.786 1.788 1.788 0 0 1 -1.786 1.786z"/><path d="m248.284 212.381a67.951 67.951 0 1 0 67.951 67.951 68.028 68.028 0 0 0 -67.951-67.951zm0 123.9a55.951 55.951 0 1 1 55.951-55.951 56.015 56.015 0 0 1 -55.951 55.953z"/><path d="m248.284 257.852a8.09 8.09 0 0 1 8.08 8.08 6 6 0 0 0 12 0 20.114 20.114 0 0 0 -14.08-19.163v-2.653a6 6 0 1 0 -12 0v2.654a20.079 20.079 0 0 0 6 39.241 8.078 8.078 0 0 1 .106 16.155c-.036 0-.07 0-.106 0s-.07 0-.106 0a8.087 8.087 0 0 1 -7.973-8.075 6 6 0 0 0 -12 0 20.116 20.116 0 0 0 14.079 19.163v3.294a6 6 0 0 0 12 0v-3.294a20.08 20.08 0 0 0 -6-39.243 8.08 8.08 0 0 1 0-16.159z"/></g><path d="m472.861 323.868-82.6-40.53a6 6 0 0 0 -5.28 0l-82.6 40.415a6 6 0 0 0 -3.363 5.389v77.318c0 8.64 2.356 18.278 6.813 27.872 5.707 12.281 14.216 22.891 23.343 29.107l55.067 37.519a6 6 0 0 0 6.756 0l55.067-37.518c16.911-11.519 30.157-36.547 30.157-56.98v-77.206a6 6 0 0 0 -3.36-5.386zm-8.642 82.592c0 16.312-11.408 37.864-24.912 47.063l-51.69 35.217-51.689-35.218c-7.391-5.034-14.395-13.872-19.216-24.247-3.674-7.9-5.7-16.008-5.7-22.815v-73.577l76.6-37.476 76.606 37.587z" fill="#1ae5be"/><path d="m356.855 385.654a6 6 0 1 0 -8.378 8.59l24.951 24.335a6 6 0 0 0 8.379 0l44.951-43.843a6 6 0 0 0 -8.379-8.59l-40.762 39.754z" fill="#1ae5be"/></svg>