<svg id="Layer_1" height="512" viewBox="0 0 512 512" width="512" xmlns="http://www.w3.org/2000/svg" data-name="Layer 1"><path d="m301.75 404.17v-42.47a394.407 394.407 0 0 0 64-35.633q-5.052-3.463-10-7.077a394.4 394.4 0 0 1 -74 42.71v42.47c0 58.488 61.685 82.071 72.647 85.8 1.977-.646 5.594-1.907 10.2-3.855-20.842-9.186-62.847-33.679-62.847-81.945z" fill="#d4e1f4"/><g fill="#0635c9"><path d="m76.25 409.1h201.583v-12h-31.191v-217.62h101.158v139.167h12v-145.167a6 6 0 0 0 -6-6h-107.158v-74.457a6 6 0 0 0 -6-6h-17.159v-39.11a6 6 0 0 0 -6-6h-48.037v-26.173a6 6 0 0 0 -12 0v26.173h-58.038a6 6 0 0 0 -6 6v39.11h-17.158a6 6 0 0 0 -6 6v310.077a6 6 0 0 0 6 6zm29.158-355.187h106.075v33.11h-106.075zm-23.158 45.11h152.392v298.077h-152.392z"/><path d="m201.907 167.48h-86.922a6 6 0 1 0 0 12h86.922a6 6 0 0 0 0-12z"/><path d="m268.182 238.625h56.043a6 6 0 0 0 0-12h-56.043a6 6 0 0 0 0 12z"/><path d="m201.907 213.8h-86.922a6 6 0 0 0 0 12h86.922a6 6 0 1 0 0-12z"/><path d="m201.907 260.116h-86.922a6 6 0 0 0 0 12h86.922a6 6 0 1 0 0-12z"/><path d="m201.907 306.434h-86.922a6 6 0 0 0 0 12h86.922a6 6 0 0 0 0-12z"/><path d="m201.907 352.752h-86.922a6 6 0 0 0 0 12h86.922a6 6 0 0 0 0-12z"/><path d="m268.182 272.591h56.043a6 6 0 0 0 0-12h-56.043a6 6 0 0 0 0 12z"/><path d="m268.182 306.557h56.043a6 6 0 0 0 0-12h-56.043a6 6 0 0 0 0 12z"/></g><path d="m354.363 502.26a5.983 5.983 0 0 0 1.631-.226 154.175 154.175 0 0 0 42.527-21.006c28.281-19.994 43.229-46.571 43.229-76.858v-46.409a6 6 0 0 0 -3.63-5.512l-.525-.226a382.346 382.346 0 0 1 -78.244-45.305 6 6 0 0 0 -7.2 0 382.316 382.316 0 0 1 -78.243 45.3l-.526.227a6 6 0 0 0 -3.631 5.512v46.413c0 30.246 14.442 56.8 41.763 76.8a147.02 147.02 0 0 0 41.166 21.049 5.993 5.993 0 0 0 1.683.241zm-72.613-98.09v-42.47a394.4 394.4 0 0 0 74-42.71 394.432 394.432 0 0 0 74 42.71v42.47c0 26.5-12.745 48.993-37.882 66.865a146.966 146.966 0 0 1 -37.468 18.931c-10.965-3.725-72.65-27.308-72.65-85.796z" fill="#1ae5be"/><path d="m388.783 379.646a6 6 0 0 0 -8.485 0l-35.757 35.754-13.341-13.334a6 6 0 0 0 -8.485 8.486l17.58 17.58a6 6 0 0 0 8.485 0l40-40a6 6 0 0 0 .003-8.486z" fill="#1ae5be"/></svg>