<svg id="Layer_1" height="512" viewBox="0 0 512 512" width="512" xmlns="http://www.w3.org/2000/svg" data-name="Layer 1"><path d="m329.791 224.246c-9.617-6.883-18.711-18.924-24.951-33.037-4.761-10.766-7.382-21.83-7.382-31.154v-88.788l-20 9.785v94.419c0 8.872 2.621 19.4 7.382 29.645 6.24 13.429 15.334 24.887 24.951 31.437l66.533 45.331 17.4-11.858z" fill="#d4e1f4"/><path d="m65.36 252.6c23.2 12.281 35.905 20.014 40.969 28.2 4.719 7.624 3.873 17.687 2.337 35.955-.267 3.161-.551 6.547-.83 10.19-2.246 29.374-.628 59.7 4.556 85.384 6.457 32 18.031 56.8 34.4 73.713 1.82 1.88 4.593 3.444 8.478 4.781a21.673 21.673 0 0 0 7.065 1.177 21.04 21.04 0 0 0 19.383-12.444 21.266 21.266 0 0 0 1.428-12.181c-.527-5.473-10.133-113.026 35.607-168.7a17.932 17.932 0 0 1 27.525.139c44.886 56.006 35.385 163.065 34.86 168.564a21.256 21.256 0 0 0 1.427 12.18c4.308 9.935 15.924 14.881 26.449 11.26 3.884-1.337 6.657-2.9 8.478-4.782 16.368-16.912 27.942-41.713 34.4-73.712 5.183-25.686 6.8-56.01 4.555-85.384-.247-3.224-.5-6.249-.73-9.094-1.869-22.7-2.642-32.091 5.328-40.889l-8.893-8.057c-11.464 12.655-10.374 25.895-8.395 49.931.233 2.823.48 5.825.725 9.024 5.906 77.24-14.524 128.045-35.606 149.829a11.6 11.6 0 0 1 -3.768 1.787 8.983 8.983 0 0 1 -12.129-10.141c.031-.164.056-.329.073-.495a380.945 380.945 0 0 0 -.064-65.261c-4.13-48.726-16.7-86.5-37.346-112.265a29.931 29.931 0 0 0 -46.162-.251c-21.059 25.633-33.889 63.41-38.134 112.278a377.1 377.1 0 0 0 -.115 65.5c.018.164.042.328.073.49a8.983 8.983 0 0 1 -12.129 10.142 11.652 11.652 0 0 1 -3.761-1.781c-21.089-21.787-41.514-72.594-35.614-149.834.277-3.61.559-6.967.822-10.1 1.693-20.131 2.715-32.282-4.09-43.276-6.552-10.584-19.911-18.909-45.559-32.487-14.149-7.49-24.954-22.52-30.424-42.32a110.228 110.228 0 0 1 1.328-61.326c6.24-19.521 17.717-35.237 33.189-45.45 18.069-11.927 40.905-16.16 67.874-12.584 23.316 3.093 52.414 19.9 71.67 31.017 3.674 2.122 6.847 3.954 9.665 5.513a6 6 0 0 0 5.45.182l44.275-20.743-5.091-10.866-41.487 19.436c-2.056-1.166-4.318-2.472-6.814-3.913-20.076-11.6-50.417-29.116-76.092-32.521-55.8-7.4-98.441 17.375-114.072 66.275-14.984 46.888.678 99.781 34.916 117.91z" fill="#0635c9"/><g fill="#1ae5be"><path d="m323.891 178.553h31.452v31.452a6 6 0 0 0 6 6h29.957a6 6 0 0 0 6-6v-31.452h31.452a6 6 0 0 0 6-6v-29.962a6 6 0 0 0 -6-6h-31.452v-31.452a6 6 0 0 0 -6-6h-29.957a6 6 0 0 0 -6 6v31.452h-31.452a6 6 0 0 0 -6 6v29.962a6 6 0 0 0 6 6zm6-29.962h31.452a6 6 0 0 0 6-6v-31.452h17.957v31.452a6 6 0 0 0 6 6h31.452v17.962h-31.452a6 6 0 0 0 -6 6v31.452h-17.957v-31.452a6 6 0 0 0 -6-6h-31.452z"/><path d="m303.035 246.471 69.91 47.632a6 6 0 0 0 6.757 0l69.909-47.632c21.072-14.352 37.578-45.539 37.578-71v-98.017a6 6 0 0 0 -3.356-5.387l-104.866-51.454a6.007 6.007 0 0 0 -5.28 0l-104.866 51.305a6 6 0 0 0 -3.363 5.39v98.163c0 10.736 2.938 22.736 8.5 34.7 7.125 15.337 17.724 28.567 29.077 36.3zm-25.577-165.419 98.862-48.37 98.869 48.511v94.278c0 21.537-14.5 48.939-32.334 61.083l-66.531 45.33-66.533-45.331c-9.617-6.55-18.711-18.008-24.951-31.437-4.761-10.244-7.382-20.773-7.382-29.645z"/></g></svg>