<svg id="Layer_1" height="512" viewBox="0 0 512 512" width="512" xmlns="http://www.w3.org/2000/svg" data-name="Layer 1"><path d="m380.944 392.6a18.638 18.638 0 0 0 -14.64-6.958 18.848 18.848 0 0 0 -9.992 2.838 18.468 18.468 0 0 1 4.632 4.12c27.047 33.748 21 94.977 20.728 97.567-.018.165-.042.329-.073.492a2.07 2.07 0 0 0 2.9 2.324 7.841 7.841 0 0 0 1.13-.467c8.387-8.788 13.469-22.009 16.178-36.37-1.566-20.424-6.632-45.785-20.863-63.546z" fill="#d4e1f4"/><path d="m310.6 490.175a203.354 203.354 0 0 1 -.13-33.973 164.85 164.85 0 0 1 -2.032-41.985c.148-1.936.3-3.735.441-5.414 2.009-23.886.414-28.316-28.184-43.455a23.571 23.571 0 0 1 -3.249-2.086c-13.224-10.1-17.639-34.973-9.641-54.319 3.644-8.816 12.146-21.876 31.018-25.242-.352-.058-.711-.131-1.058-.177-32.542-4.314-45.27 14.073-49.96 25.419-8 19.346-3.583 44.221 9.641 54.319a23.571 23.571 0 0 0 3.249 2.086c28.6 15.139 30.193 19.569 28.184 43.455-.141 1.679-.293 3.478-.441 5.414-2.03 26.553 1.695 61.009 18.2 78.3a7.824 7.824 0 0 0 1.127.466 2.07 2.07 0 0 0 2.906-2.322q-.05-.24-.071-.486z" fill="#d4e1f4"/><g fill="#0635c9"><path d="m118.021 386.563 117.379 80.052a6 6 0 0 0 6.761 0l42.929-29.278a6 6 0 1 0 -6.761-9.914l-39.553 26.977-113.995-77.751c-34.83-23.747-61.1-73.425-61.1-115.556v-155.772l175.107-85.76 175.078 85.989v155.543a111.152 111.152 0 0 1 -1.048 14.939 6 6 0 1 0 11.89 1.621 123.182 123.182 0 0 0 1.158-16.56v-159.281a6 6 0 0 0 -3.355-5.385l-181.069-88.934a6 6 0 0 0 -5.284 0l-181.111 88.697a6 6 0 0 0 -3.361 5.389v159.514c0 45.747 28.514 99.687 66.335 125.47z"/><path d="m365.463 283.177a6 6 0 0 0 11.487 3.472 96 96 0 0 0 4.412-27.614v-127.792a6 6 0 0 0 -3.355-5.385l-136.586-67.085a6 6 0 0 0 -5.284 0l-136.585 66.891a6 6 0 0 0 -3.361 5.388v127.983c0 32.111 21.6 72.961 48.148 91.062l91.061 62.103a6 6 0 0 0 6.761 0l37.534-25.6a6 6 0 1 0 -6.761-9.914l-34.154 23.294-87.677-59.8c-23.258-15.859-42.908-53.019-42.908-81.148v-124.238l130.577-63.953 130.59 64.14v124.054a84.06 84.06 0 0 1 -3.899 24.142z"/><path d="m281.069 203.5-56.249 51.52-27.978-30.339a6 6 0 0 0 -8.822 8.135l32.033 34.735a6 6 0 0 0 8.463.357l60.658-55.56a6 6 0 1 0 -8.1-8.848z"/></g><path d="m321.537 496.756a14.184 14.184 0 0 0 .974-8.028c-.353-3.731-5.178-59.775 18.557-88.667a6.884 6.884 0 0 1 10.512.047c23.262 29.026 18.522 84.908 18.175 88.624a13.994 13.994 0 0 0 13.958 16.389 14.4 14.4 0 0 0 4.693-.787 14.025 14.025 0 0 0 5.655-3.267c9.184-9.489 15.657-23.3 19.239-41.05a174.662 174.662 0 0 0 2.5-46.714c-.15-1.959-.3-3.781-.445-5.481-.836-9.945-1.122-14.476.853-17.666 2.374-3.837 9.21-7.953 20.994-14.208a33.72 33.72 0 0 0 4.893-3.176c14.953-11.626 21.745-36.294 16.518-59.99-4.862-22.035-18.9-37.265-38.5-41.787-10.1-2.329-21.521-1.792-33.948 1.6-12.079 3.293-18.675 7.383-25.054 11.338a102.974 102.974 0 0 1 -15.22 8.165c-1.341-.75-2.891-1.645-4.57-2.615-11-6.349-27.612-15.946-41.976-17.851-29.58-3.92-52.407 8.007-62.628 32.73-10.078 24.38-4.046 55.082 13.449 68.441a35.611 35.611 0 0 0 4.914 3.153c11.779 6.236 18.613 10.343 20.991 14.186 1.974 3.189 1.688 7.718.852 17.659-.144 1.708-.3 3.537-.448 5.506-.868 11.358-1.14 28.683 2.5 46.714 3.582 17.75 10.054 31.561 19.239 41.05a14.016 14.016 0 0 0 5.651 3.266 14.227 14.227 0 0 0 17.672-7.581zm-33.1-82.539c.148-1.936.3-3.735.441-5.414 2.009-23.886.414-28.316-28.184-43.455a23.571 23.571 0 0 1 -3.249-2.086c-13.224-10.1-17.639-34.973-9.641-54.319 4.69-11.346 17.418-29.733 49.96-25.419 12 1.592 27.379 10.471 37.553 16.347 3.143 1.816 5.858 3.383 7.914 4.405 9.916 4.931 24.827 11.151 39.77 8.235a6 6 0 0 0 -2.3-11.778c-5.947 1.161-12.633.441-20.545-2.269 2.706-1.5 5.062-2.964 7.275-4.337 6.166-3.823 11.491-7.125 21.886-9.958 10.5-2.861 19.947-3.357 28.1-1.481 14.912 3.439 25.658 15.35 29.482 32.68 4.13 18.722-1.1 39.327-12.166 47.932a21.923 21.923 0 0 1 -3.154 2.05c-14.547 7.721-21.691 12.223-25.571 18.49-4.144 6.694-3.533 13.972-2.607 24.987.14 1.673.291 3.464.438 5.39 2.031 26.553-1.7 61.009-18.2 78.3a7.841 7.841 0 0 1 -1.13.467 2.07 2.07 0 0 1 -2.9-2.324c.031-.163.055-.327.073-.492.27-2.59 6.319-63.819-20.728-97.567a18.882 18.882 0 0 0 -29.148-.162c-27.589 33.584-21.474 95.129-21.2 97.733q.025.246.072.489a2.07 2.07 0 0 1 -2.906 2.322 7.824 7.824 0 0 1 -1.127-.466c-16.516-17.291-20.245-51.747-18.211-78.3z" fill="#1ae5be"/></svg>