<svg id="Layer_1" height="512" viewBox="0 0 512 512" width="512" xmlns="http://www.w3.org/2000/svg" data-name="Layer 1"><path d="m345.545 429.192c-5.056-3.443-10.062-9.779-13.393-16.947a39.241 39.241 0 0 1 -3.985-15.88v-52.421l51.569-25.231-10.573-5.188-54 26.419v52.421a39.241 39.241 0 0 0 3.985 15.88c3.331 7.168 8.337 13.5 13.393 16.947l36.622 24.952 3.564-2.429z" fill="#d4e1f4"/><path d="m33.2 79.013 33.888 13.038v24.71a5.977 5.977 0 0 0 1.469 3.906v24.96a22.517 22.517 0 0 0 -14.724 16.121 28.273 28.273 0 0 0 17.57 33.2v6.407a92.85 92.85 0 0 0 57.642 85.814l.021 10.384a12.839 12.839 0 0 1 -3.734 9.039l-2.845 2.845c-15.144 4.879-23.587 7.75-25.048 8.516a31.07 31.07 0 0 0 -8.672 6.569l-19.894 8.491c-.11.047-.22.1-.328.152a52.894 52.894 0 0 0 -28.885 42.665c-.014.166-.02.332-.02.5v59.67a6 6 0 0 0 6 6h224.744v-12h-70.357c13.476-21.189 45.572-71.769 50.16-80.066a21.251 21.251 0 0 0 2.658-8.86l6.8 2.9c.727.367 1.454.762 2.162 1.175l6.05-10.362c-.983-.575-1.994-1.122-3-1.626-.107-.054-.216-.1-.326-.151l-16.6-7.086a30.144 30.144 0 0 0 -9.724-7.9c-.595-.317-2.4-1.272-27.34-8.1l-2.758-2.758a12.665 12.665 0 0 1 -3.735-9.016v-13.3a92.821 92.821 0 0 0 52.448-83.5v-6.407a28.273 28.273 0 0 0 17.571-33.2 23.231 23.231 0 0 0 -1.6-4.458 16.149 16.149 0 0 0 25.282-13.377 16.222 16.222 0 0 0 -11.024-15.352v-46.71l7.362-2.833c7.716-2.969 8.868-7.718 8.868-10.284s-1.152-7.316-8.869-10.284l-116.277-44.736c-8.036-3.092-20.627-3.091-28.661 0l-116.274 44.736c-7.717 2.968-8.868 7.718-8.868 10.284s1.152 7.316 8.868 10.284zm116.274 44.737a30.093 30.093 0 0 0 3.946 1.184 277.543 277.543 0 0 1 -74.332-12.54v-15.725zm97.541-11.35a278 278 0 0 1 -72.548 12.467 29.884 29.884 0 0 0 3.668-1.12l68.88-26.5zm-1.527 13v20.754c-12.446 1.367-46.331 3.424-79.444-9.095a292.824 292.824 0 0 0 79.444-11.659zm-164.931-.023q4.464 1.319 8.983 2.5a24.944 24.944 0 0 0 -2.727 9.9l-.88 14.468-4.734-2.43a1.222 1.222 0 0 1 -.642-.879zm22.324 203.271c1.469-.624 9.452-3.294 18.084-6.105l14.635 85.115c-15.229-23.927-36.315-57.214-39.8-63.52a8.761 8.761 0 0 1 -.839-6.992c.978-3.266 3.857-6.354 7.92-8.497zm-51.241 47.938a40.826 40.826 0 0 1 22.116-32.61l8.829-3.768a21.084 21.084 0 0 0 2.715 9.742c4.591 8.3 36.783 58.859 50.308 80.05h-83.968zm99.973 53.414-12.646-73.563a102.252 102.252 0 0 0 56.389-.252l-11.405 73.815zm81.147-101.271c3.979 2.131 6.808 5.191 7.774 8.417a8.768 8.768 0 0 1 -.847 6.978c-3.533 6.389-25.068 40.487-40.289 64.48l13.248-85.73c9.454 2.626 18.354 5.18 20.114 5.855zm-33.142-13.068 1.732 1.732-3.94 25.5a90.588 90.588 0 0 1 -60.729.242l-4.536-26.386 1.671-1.672a24.913 24.913 0 0 0 7.25-17.547l-.012-6.37a92.888 92.888 0 0 0 51.315-1.507v8.507a24.587 24.587 0 0 0 7.249 17.501zm50.164-131.193a6 6 0 0 0 -4.965 5.91v10.977a80.707 80.707 0 1 1 -161.414 0v-10.977a6 6 0 0 0 -4.965-5.91 16.257 16.257 0 0 1 -12.949-19.868 10.382 10.382 0 0 1 6.2-7.321 13.174 13.174 0 0 0 4.03 3.21l10.464 5.374a7.792 7.792 0 0 0 11.325-6.312c0-.038 0-.075.008-.113l1.275-20.932a12.962 12.962 0 0 1 3.176-7.727 292.684 292.684 0 0 0 35.033 5.171c30.362 19.341 64.829 23.357 88.173 23.357a170.18 170.18 0 0 0 27.357-1.987 5.969 5.969 0 0 0 1.921-.7 10.554 10.554 0 0 1 8.282 7.979 16.256 16.256 0 0 1 -12.95 19.866zm32.118-36.348a4.208 4.208 0 1 1 4.169-4.208 4.195 4.195 0 0 1 -4.169 4.208zm-6.855-18.865a16.136 16.136 0 0 0 -8.276 20.32 22.851 22.851 0 0 0 -9.282-4.57v-24.269a5.982 5.982 0 0 0 1.527-3.975v-24.13l16.031-6.168zm-121.263-104.347c5.339-2.053 14.7-2.054 20.044 0l113.894 43.821-6.255 2.406c-.139-.009-.277-.021-.419-.021a5.977 5.977 0 0 0 -4.323 1.846l-102.9 39.591c-5.339 2.053-14.7 2.053-20.044 0l-113.89-43.822z" fill="#0635c9"/><g fill="#1ae5be"><path d="m369.167 263.624a118.5 118.5 0 1 0 118.5 118.5 118.634 118.634 0 0 0 -118.5-118.5zm0 225a106.5 106.5 0 1 1 106.5-106.5 106.62 106.62 0 0 1 -106.5 106.5z"/><path d="m431.81 330.9-60-29.44a6 6 0 0 0 -5.28 0l-60 29.357a6 6 0 0 0 -3.363 5.389v56.165a50.646 50.646 0 0 0 5.1 20.936c4.266 9.182 10.652 17.131 17.519 21.808l40 27.254a6 6 0 0 0 6.756 0l40-27.253c12.685-8.64 22.622-27.417 22.622-42.745v-56.087a6 6 0 0 0 -3.354-5.384zm-8.643 61.468c0 11.378-7.958 26.411-17.378 32.828l-36.622 24.951-36.622-24.952c-5.056-3.443-10.062-9.779-13.393-16.947a39.241 39.241 0 0 1 -3.985-15.88v-52.424l54-26.419 54 26.5z"/><path d="m347.969 376.075a6 6 0 0 0 -8.379 8.591l18.124 17.677a6 6 0 0 0 8.379 0l32.652-31.843a6 6 0 1 0 -8.379-8.591l-28.466 27.757z"/></g></svg>