<svg id="Layer_1" height="512" viewBox="0 0 512 512" width="512" xmlns="http://www.w3.org/2000/svg" data-name="Layer 1"><path d="m395.737 436.4c-6.549-4.46-12.762-12.307-17.047-21.528-3.262-7.02-5.059-14.2-5.059-20.232v-65.7l60.207-29.458-12.026-5.9-68.181 33.359v65.7c0 6.027 1.8 13.212 5.059 20.232 4.285 9.221 10.5 17.068 17.047 21.528l46.078 31.395 8.533-5.813z" fill="#d4e1f4"/><g fill="#0635c9"><path d="m220.77 454.487a211.3 211.3 0 0 0 132-46.443 6 6 0 1 0 -7.522-9.35 196.575 196.575 0 0 1 -124.478 43.793c-109.602 0-198.77-89.167-198.77-198.769s89.168-198.769 198.77-198.769 198.769 89.167 198.769 198.769a200.241 200.241 0 0 1 -4.038 40.065 6 6 0 1 0 11.756 2.4 212.237 212.237 0 0 0 4.282-42.47c0-116.218-94.551-210.769-210.769-210.769s-210.77 94.556-210.77 210.774 94.551 210.769 210.77 210.769z"/><path d="m89.77 218.908.02 47.7a6 6 0 0 0 6 6l14.377-.01 6.323 114.246a6 6 0 0 0 5.991 5.669h59.546a6 6 0 0 0 5.992-5.691l3.189-61.872h4.1l6.029 62.145a6 6 0 0 0 5.971 5.421h31.017a6 6 0 0 0 5.976-5.458l5.637-62.166h.166l3.856 62a6 6 0 0 0 5.988 5.628h59.552a6 6 0 0 0 5.99-5.664l5.895-105.156 14.388-.01a6 6 0 0 0 6-6l-.022-38.538a43.684 43.684 0 0 0 -43.605-43.509h-.033l-37.3.026a43.685 43.685 0 0 0 -24.514 7.6 26.9 26.9 0 0 0 -23.7-14.2h-.02a26.657 26.657 0 0 0 -16.866 5.969 43.606 43.606 0 0 0 -35.046-17.729h-.031l-37.294.027a43.684 43.684 0 0 0 -43.577 43.57zm148.719 99.442-5.637 62.162h-20.09l-6.03-62.149a6 6 0 0 0 -5.971-5.421l-13.806.01-.015-20.515a31.208 31.208 0 0 1 31.125-31.089l9.032-.027h.023a31.137 31.137 0 0 1 31.132 31.046l.016 20.515-13.8.01a6 6 0 0 0 -5.979 5.458zm-15.9-119.279h.012a14.8 14.8 0 1 1 .009 29.593h-.01a14.833 14.833 0 0 1 -14.833-14.786 14.816 14.816 0 0 1 14.823-14.807zm-89.238-11.733 37.294-.027h.024a31.657 31.657 0 0 1 26.183 13.939c.411.6.8 1.227 1.164 1.86a26.8 26.8 0 0 0 24.584 37.554h.019a26.845 26.845 0 0 0 26.809-26.579c.538-.5 1.087-.982 1.654-1.438a31.222 31.222 0 0 1 19.739-6.98l37.3-.026h.025a31.683 31.683 0 0 1 31.605 31.517l.019 32.538-14.059.01a6 6 0 0 0 -5.986 5.664l-5.894 105.142h-48.237l-3.46-55.633h2.138a6 6 0 0 0 6-6l-.021-26.515a43.151 43.151 0 0 0 -43.151-43.043h-.032l-9.032.027a43.209 43.209 0 0 0 -43.1 43.1l.02 26.515a6 6 0 0 0 4.253 5.735l-2.876 55.816h-48.171l-6.323-114.25a6 6 0 0 0 -5.991-5.669l-14.057.01-.017-41.7a31.685 31.685 0 0 1 31.584-31.563z"/><path d="m151.827 163.236a34.156 34.156 0 1 0 -.022-68.312h-.026a34.156 34.156 0 1 0 .023 68.312zm-22.227-34.136a22.18 22.18 0 0 1 22.189-22.172h.017a22.156 22.156 0 1 1 .015 44.312h-.021a22.181 22.181 0 0 1 -22.2-22.14z"/><path d="m289.3 181.565a34.238 34.238 0 0 0 30.39-18.565h3.888a20.664 20.664 0 0 0 0-41.327h-11.827a33.972 33.972 0 0 0 -22.477-8.421h-.025a34.156 34.156 0 1 0 .022 68.312zm42.944-39.227a8.673 8.673 0 0 1 -8.666 8.662h-.29a34.57 34.57 0 0 0 .191-3.616 34.026 34.026 0 0 0 -2.878-13.711h2.977a8.674 8.674 0 0 1 8.663 8.665zm-65.174 5.087a22.182 22.182 0 0 1 22.19-22.172h.016a22.156 22.156 0 1 1 .016 44.312h-.017a22.181 22.181 0 0 1 -22.2-22.14z"/></g><path d="m498.643 317.911-74.185-36.4a6 6 0 0 0 -5.279 0l-74.185 36.3a6 6 0 0 0 -3.363 5.39v69.442c0 7.85 2.136 16.594 6.177 25.289 5.17 11.127 12.887 20.745 21.173 26.389l49.457 33.7a6 6 0 0 0 6.755 0l49.456-33.7c15.337-10.452 27.351-33.152 27.351-51.685v-69.336a6 6 0 0 0 -3.357-5.389zm-8.643 74.725c0 14.475-10.123 33.6-22.106 41.761l-46.079 31.394-46.078-31.391c-6.549-4.46-12.762-12.307-17.047-21.528-3.262-7.02-5.059-14.2-5.059-20.232v-65.7l68.181-33.359 68.188 33.456z" fill="#1ae5be"/><path d="m394.615 373.511a6 6 0 0 0 -8.379 8.591l22.409 21.856a6 6 0 0 0 8.378 0l40.377-39.376a6 6 0 0 0 -8.379-8.591l-36.182 35.29z" fill="#1ae5be"/></svg>