<svg id="Layer_1" height="512" viewBox="0 0 512 512" width="512" xmlns="http://www.w3.org/2000/svg" data-name="Layer 1"><path d="m346.249 436.76c-8.88-6.049-17.282-16.639-23.052-29.056-4.4-9.47-6.823-19.194-6.823-27.383v-87.513l91.486-44.763 71.494 35.08v-.187l-91.494-44.893-91.486 44.763v87.513c0 8.189 2.423 17.913 6.823 27.383 5.77 12.417 14.172 23.007 23.052 29.056l61.615 41.98 2.661-1.813z" fill="#d4e1f4"/><path d="m159.412 159.246a15.37 15.37 0 0 1 -30.739 0 6 6 0 1 0 -12 0 27.37 27.37 0 0 0 54.739 0 6 6 0 0 0 -12 0z" fill="#0635c9"/><path d="m453.847 167.952a6 6 0 0 0 -6 6 30.412 30.412 0 0 1 -26.837 30.16c-9.629-78.66-83.2-140.033-172.263-140.033a208.081 208.081 0 0 0 -32.091 2.5 81.4 81.4 0 0 0 -67.912-36.579 6 6 0 0 0 -5.737 7.758l1.85 6.036a102.379 102.379 0 0 1 4.2 38.311 171.686 171.686 0 0 0 -81.212 67.339l-7.582 11.98h-21.047a18.591 18.591 0 0 0 -18.57 18.57v79.806a18.592 18.592 0 0 0 18.57 18.57h21.458a143.631 143.631 0 0 0 21.635 31.217 102.788 102.788 0 0 1 26.328 69.1 24.564 24.564 0 0 0 24.535 24.535h25.782a24.563 24.563 0 0 0 24.534-24.535 12.549 12.549 0 0 1 12.535-12.535h48.119a12.549 12.549 0 0 1 12.535 12.535 24.563 24.563 0 0 0 24.534 24.535h15.213a6 6 0 0 0 0-12h-15.213a12.549 12.549 0 0 1 -12.534-12.535 24.563 24.563 0 0 0 -24.535-24.535h-48.119a24.563 24.563 0 0 0 -24.535 24.535 12.549 12.549 0 0 1 -12.534 12.535h-25.782a12.549 12.549 0 0 1 -12.535-12.535 114.764 114.764 0 0 0 -29.423-77.139 130.239 130.239 0 0 1 -21.365-31.729 6 6 0 0 0 -5.43-3.445h-25.2a6.577 6.577 0 0 1 -6.57-6.57v-79.81a6.577 6.577 0 0 1 6.57-6.57h24.345a6 6 0 0 0 5.07-2.792l9.349-14.771a159.55 159.55 0 0 1 78.571-63.787 6 6 0 0 0 4.074-5.014 114.319 114.319 0 0 0 -3.645-44.574 69.525 69.525 0 0 1 61.183 68.935 6 6 0 0 0 12 0 80.914 80.914 0 0 0 -7.3-33.632 198.515 198.515 0 0 1 25.882-1.71c88.964 0 161.342 65.3 161.342 145.574a133.145 133.145 0 0 1 -1.775 21.67 6 6 0 1 0 11.839 1.959 145.159 145.159 0 0 0 1.936-23.629c0-1.865-.049-3.72-.12-5.569a42.431 42.431 0 0 0 37.878-42.132 6 6 0 0 0 -6.001-6z" fill="#0635c9"/><g fill="#1ae5be"><path d="m385.227 225.974-97.49 47.7a6 6 0 0 0 -3.363 5.389v91.258c0 10.042 2.746 21.259 7.94 32.44 6.656 14.323 16.562 26.684 27.178 33.917l64.993 44.281a6 6 0 0 0 6.757 0l64.993-44.281c19.693-13.414 35.119-42.562 35.119-66.357v-91.121a6 6 0 0 0 -3.354-5.388l-97.49-47.835a6.007 6.007 0 0 0 -5.283-.003zm94.127 144.347c0 19.563-13.681 45.408-29.875 56.439l-61.615 41.98-61.615-41.98c-8.88-6.049-17.282-16.639-23.052-29.056-4.4-9.47-6.823-19.194-6.823-27.383v-87.513l91.486-44.763 91.494 44.893z"/><path d="m350.8 346.538a6 6 0 1 0 -8.379 8.59l29.448 28.722a6 6 0 0 0 8.379 0l53.057-51.75a6 6 0 1 0 -8.379-8.59l-48.865 47.66z"/></g></svg>