<svg id="Layer_1" height="512" viewBox="0 0 512 512" width="512" xmlns="http://www.w3.org/2000/svg" data-name="Layer 1"><path d="m293.154 130.72a108.867 108.867 0 0 1 98.72-108.256c-3.294-.3-6.628-.464-10-.464a108.719 108.719 0 1 0 0 217.438c3.372 0 6.706-.162 10-.464a108.865 108.865 0 0 1 -98.72-108.254z" fill="#d4e1f4"/><g fill="#0635c9"><path d="m112.983 266.859a6 6 0 0 0 -6 6v24.616a59.135 59.135 0 0 1 -53.05 58.749v-126.1a6 6 0 0 0 -12 0v132.4a6 6 0 0 0 6 6 71.131 71.131 0 0 0 71.05-71.051v-24.614a6 6 0 0 0 -6-6z"/><path d="m275.866 273.354h-56.885a7.782 7.782 0 0 1 -6.345-3.269l-44.371-62.279a27.736 27.736 0 0 0 -22.547-11.621h-96.126a40.231 40.231 0 0 0 -40.186 40.185v259.63a6 6 0 0 0 6 6h108.419a6 6 0 0 0 6-6v-24.891a48.184 48.184 0 0 0 49.216 17.591 6 6 0 0 0 4.488-7.2 48.291 48.291 0 0 0 -52.592-37.055 85.2 85.2 0 0 1 83.96-71.412 5.956 5.956 0 0 0 1.006-.084h55.372a27.715 27.715 0 0 0 27.684-27.683v-48.819a23.119 23.119 0 0 0 -23.093-23.093zm-120.188 188.254a36.044 36.044 0 0 1 14.093 16.312 36.364 36.364 0 0 1 -34.945-21.776 36.047 36.047 0 0 1 20.852 5.464zm131.281-165.161v17.929l-33.48-29.022h22.387a11.106 11.106 0 0 1 11.093 11.093zm-169.134 161.653v2.93h-96.419v-19.62h97.858a97.286 97.286 0 0 0 -1.439 16.69zm-96.419 31.9v-16.969h96.419v16.969zm249.869-129.056h-96.482a88.071 88.071 0 0 1 -46.826-13.46 6 6 0 1 0 -6.373 10.168 100.05 100.05 0 0 0 47.078 15.106 97.539 97.539 0 0 0 -46.507 56.652h-100.759v-193.04a28.217 28.217 0 0 1 28.186-28.185h96.126a15.712 15.712 0 0 1 12.773 6.584l44.371 62.279a19.79 19.79 0 0 0 16.119 8.306h17.482l-.563.646 49.872 43.233 1.183-1.364v17.393a15.7 15.7 0 0 1 -15.68 15.682z"/><path d="m147.346 242.925a14.547 14.547 0 1 0 14.546 14.547 14.562 14.562 0 0 0 -14.546-14.547zm0 17.093a2.547 2.547 0 1 1 2.546-2.546 2.549 2.549 0 0 1 -2.546 2.546z"/></g><path d="m381.874 10a120.719 120.719 0 1 0 120.72 120.72 120.856 120.856 0 0 0 -120.72-120.72zm0 229.438a108.719 108.719 0 1 1 108.72-108.718 108.843 108.843 0 0 1 -108.72 108.718z" fill="#1ae5be"/><path d="m381.927 45.042h-.161a86.565 86.565 0 0 0 -86.41 86.522 6 6 0 0 0 11.8 1.525c.732-2.775 2.578-7.674 4.277-9.6a14.77 14.77 0 0 1 10.08-4.045h.069a14.2 14.2 0 0 1 9.928 4.014 14.771 14.771 0 0 1 4.1 10.116 6 6 0 0 0 12 0 13.874 13.874 0 0 1 14.158-14.13h.07a14.2 14.2 0 0 1 9.928 4.014 14.771 14.771 0 0 1 4.1 10.116v59.344a11.481 11.481 0 0 1 -22.962 0v-7.218a6 6 0 0 0 -12 0v7.218a23.481 23.481 0 0 0 46.962 0v-59.346a13.874 13.874 0 0 1 14.157-14.128h.07a14.19 14.19 0 0 1 9.928 4.015 14.76 14.76 0 0 1 4.1 10.115 6 6 0 0 0 12 0 13.875 13.875 0 0 1 14.226-14.13 14.2 14.2 0 0 1 9.918 4c1.71 1.9 3.545 6.756 4.312 9.64a6 6 0 0 0 11.8-1.527v-.108a86.467 86.467 0 0 0 -86.465-86.411zm60.335 62.4a26.505 26.505 0 0 0 -18.427 7.448c-.087.082-.173.168-.256.255q-.761.808-1.446 1.655-.685-.848-1.447-1.655c-.053-.057-.108-.113-.164-.167a26.1 26.1 0 0 0 -18.392-7.536h-.13a26.5 26.5 0 0 0 -18.426 7.448c-.088.082-.173.167-.256.254q-.76.81-1.446 1.655-.687-.847-1.447-1.655c-.054-.057-.109-.114-.164-.168a26.146 26.146 0 0 0 -18.519-7.536 26.511 26.511 0 0 0 -18.426 7.446c-.089.084-.174.17-.258.258q-.761.808-1.446 1.654-.685-.846-1.446-1.654c-.054-.057-.108-.114-.164-.168a26.106 26.106 0 0 0 -18.392-7.536h-.127a26.119 26.119 0 0 0 -10.9 2.347 74.6 74.6 0 0 1 71.187-52.745h.1.053a74.58 74.58 0 0 1 71.256 52.719 26.867 26.867 0 0 0 -10.917-2.317z" fill="#1ae5be"/></svg>