<svg id="Layer_1" height="512" viewBox="0 0 512 512" width="512" xmlns="http://www.w3.org/2000/svg" data-name="Layer 1"><path d="m195.146 386.318c-27.292-18.608-49.5-60.6-49.5-93.6v-142.765l140.516-68.818-30.162-14.816-150.35 73.634v142.76c0 33.006 22.2 75 49.5 93.6l100.85 68.787 12.668-8.641z" fill="#d4e1f4"/><g fill="#0635c9"><path d="m248.368 207.992h-.009a6 6 0 0 0 -6 5.991l-.026 18.341a42.533 42.533 0 0 1 -36.53 42l.131-92.227a6 6 0 0 0 -6-6.009 6 6 0 0 0 -6 5.991l-.14 98.651a6 6 0 0 0 5.991 6.008h.08a54.47 54.47 0 0 0 54.468-54.392l.026-18.346a6 6 0 0 0 -5.991-6.008z"/><path d="m369.727 213.005-42.389-.061a4.222 4.222 0 0 1 -1.161-.163 4.288 4.288 0 0 1 -2.317-1.636l-33-46.453a22.2 22.2 0 0 0 -18.032-9.326l-71.624-.1h-.045a31.508 31.508 0 0 0 -31.472 31.426l-.223 150.549a29.035 29.035 0 0 1 -28.993 28.95 6 6 0 1 0 0 12 40.9 40.9 0 0 0 30.473-13.617l79.287.1-.035 87.687a6 6 0 1 0 12 0l.027-66.091a42.217 42.217 0 0 0 42.366 14.61l3.045-.7a6 6 0 0 0 4.5-7.2l-.7-3.045a42.338 42.338 0 0 0 -49.2-32.01v-5.892a61.859 61.859 0 0 1 61.856-61.77h.1a6.082 6.082 0 0 0 .815-.062l41.184.059h.033a22.183 22.183 0 0 0 22.156-22.125l.052-36.371a18.758 18.758 0 0 0 -18.703-18.759zm-70.812 176.718a30.349 30.349 0 0 1 -32.515-20.323 30.354 30.354 0 0 1 32.515 20.323zm77.521-157.973-.015 10.009-19.293-16.772 12.581.018a6.744 6.744 0 0 1 6.727 6.745zm-197.978 120.833a40.627 40.627 0 0 0 2.826-11.568l69.769.1a75.056 75.056 0 0 0 -.812 10.911v.651zm187.77-74.319h-.015l-71.89-.1a64.092 64.092 0 0 1 -34.065-9.844 6 6 0 0 0 -6.387 10.159 76.053 76.053 0 0 0 30.985 11.073 74.442 74.442 0 0 0 -12.908 10.275 73.507 73.507 0 0 0 -18.048 29.291l-72.419-.1.211-142.306a19.492 19.492 0 0 1 19.472-19.444h.027l71.624.1a10.176 10.176 0 0 1 8.267 4.276l33 46.452a16.274 16.274 0 0 0 13.246 6.85l11.7.017-.093.107 37.114 32.265.355-.408-.016 11.2a10.169 10.169 0 0 1 -10.16 10.137z"/><path d="m273.992 191.785h-.013a10.778 10.778 0 0 0 -.016 21.555h.016a10.778 10.778 0 0 0 .013-21.555zm-.014 12a1.223 1.223 0 0 1 0-2.445 1.223 1.223 0 1 1 0 2.445z"/></g><path d="m97.012 130.822a6 6 0 0 0 -3.362 5.389v146.5c0 36.5 24.555 82.941 54.736 103.519l104.233 71.09a6 6 0 0 0 6.762 0l104.232-71.088c14.721-10.036 28.491-26.269 38.776-45.708 10.293-19.455 15.961-39.985 15.961-57.811v-146.284a6 6 0 0 0 -3.35-5.386l-156.354-76.792a6.011 6.011 0 0 0 -5.285 0zm309.338 9.344v142.547c0 33.006-22.2 75-49.5 93.6l-100.85 68.787-100.854-68.782c-27.292-18.608-49.5-60.6-49.5-93.6v-142.765l150.354-73.634z" fill="#1ae5be"/><path d="m449.739 104.472-191.093-93.858a6.011 6.011 0 0 0 -5.285 0l-191.093 93.586a6 6 0 0 0 -3.362 5.389v179.059c0 44.226 29.75 100.492 66.318 125.424l127.4 86.885a6 6 0 0 0 6.762 0l127.394-86.885c17.817-12.147 34.5-31.818 46.966-55.388 12.48-23.589 19.353-48.461 19.353-70.036v-178.791a6 6 0 0 0 -3.36-5.385zm-8.645 184.176c0 40.729-27.4 92.546-61.079 115.51l-124.015 84.579-124.016-84.579c-33.678-22.964-61.078-74.781-61.078-115.51v-175.315l185.094-90.65 185.1 90.912z" fill="#1ae5be"/></svg>