<svg id="Layer_1" height="512" viewBox="0 0 512 512" width="512" xmlns="http://www.w3.org/2000/svg" data-name="Layer 1"><path d="m255.054 372.638a114.151 114.151 0 0 1 104-113.557c-3.3-.288-6.63-.443-10-.443a114 114 0 1 0 0 228c3.37 0 6.7-.156 10-.444a114.151 114.151 0 0 1 -104-113.556z" fill="#d4e1f4"/><g fill="#0635c9"><path d="m42.37 175.75a6 6 0 0 0 -5.424 5.972v55.778a6 6 0 0 0 5.424 5.973l37.041 3.57a155.883 155.883 0 0 0 18.864 44.8l-23.593 28.49a6 6 0 0 0 .379 8.069l39.344 39.345a6 6 0 0 0 8.07.379l28.532-23.626a159.5 159.5 0 0 0 44.756 18.9l3.57 37.042a6 6 0 0 0 5.973 5.424h26.85a6 6 0 1 0 0-12h-21.4l-3.461-35.912a6 6 0 0 0 -4.705-5.289 147.592 147.592 0 0 1 -48.815-20.593 6 6 0 0 0 -7.08.421l-27.668 22.907-31.619-31.621 22.911-27.667a6 6 0 0 0 .371-7.155 143.3 143.3 0 0 1 -20.543-48.739 6 6 0 0 0 -5.289-4.7l-35.912-3.462v-44.885l35.912-3.462a6 6 0 0 0 5.289-4.7 147.638 147.638 0 0 1 20.593-48.819 6 6 0 0 0 -.421-7.079l-22.911-27.667 31.619-31.62 27.667 22.912a6 6 0 0 0 7.156.371 143.272 143.272 0 0 1 48.739-20.544 6 6 0 0 0 4.705-5.288l3.461-35.913h44.881l3.464 35.913a6 6 0 0 0 4.705 5.288 147.567 147.567 0 0 1 48.814 20.594 6 6 0 0 0 7.08-.421l27.64-22.89 31.171 31.571-22.934 27.694a6 6 0 0 0 -.371 7.155 143.279 143.279 0 0 1 20.543 48.739 6 6 0 0 0 5.289 4.7l35.912 3.462v44.888l-35.422 3.455a6 6 0 0 0 -5.281 4.7 139.073 139.073 0 0 1 -3.836 14.087 6 6 0 0 0 11.4 3.757c1.2-3.628 2.258-7.32 3.175-11.023l36.55-3.566a6 6 0 0 0 5.417-5.972v-55.771a6 6 0 0 0 -5.424-5.972l-37.041-3.571a155.831 155.831 0 0 0 -18.864-44.8l23.588-28.489a6 6 0 0 0 -.352-8.042l-38.846-39.348a6 6 0 0 0 -8.1-.405l-28.529 23.632a159.46 159.46 0 0 0 -44.756-18.9l-3.57-37.043a6 6 0 0 0 -5.973-5.425h-55.779a6 6 0 0 0 -5.973 5.425l-3.57 37.041a155.805 155.805 0 0 0 -44.8 18.863l-28.488-23.588a6 6 0 0 0 -8.07.378l-39.344 39.343a6 6 0 0 0 -.379 8.069l23.629 28.534a159.445 159.445 0 0 0 -18.9 44.755z"/><path d="m329.991 259.268a6 6 0 0 0 7.923-3.037 114.618 114.618 0 1 0 -104.714 67.982c3.114 0 6.256-.127 9.339-.376a6 6 0 1 0 -.967-11.961c-2.763.224-5.58.337-8.372.337a102.516 102.516 0 1 1 93.76-60.868 6 6 0 0 0 3.031 7.923z"/><path d="m273.755 177.066-53.685 52.413-27.932-27.271a6 6 0 1 0 -8.383 8.585l32.124 31.364a6 6 0 0 0 8.383 0l57.876-56.505a6 6 0 0 0 -8.383-8.586z"/></g><path d="m475.054 372.638a126 126 0 1 0 -126 126 126.143 126.143 0 0 0 126-126zm-240 0a114 114 0 1 1 114 114 114.129 114.129 0 0 1 -114-114z" fill="#1ae5be"/><path d="m355.054 375.551a14.289 14.289 0 0 1 14.582-14.551h.072a14.615 14.615 0 0 1 10.226 4.137 15.2 15.2 0 0 1 4.226 10.416 6 6 0 0 0 12 0 14.291 14.291 0 0 1 14.582-14.553h.072a14.621 14.621 0 0 1 10.216 4.127c1.762 1.951 3.648 6.939 4.433 9.9a6 6 0 0 0 11.8-1.526v-.11a88.158 88.158 0 0 0 -88.158-88.1h-.165a88.16 88.16 0 0 0 -88.1 88.218 6 6 0 0 0 11.8 1.53c.782-2.945 2.647-7.886 4.4-9.867a15.21 15.21 0 0 1 10.383-4.172h.07a14.625 14.625 0 0 1 10.229 4.137 15.2 15.2 0 0 1 4.225 10.417 6 6 0 1 0 12 0 14.293 14.293 0 0 1 14.582-14.554h.071a14.631 14.631 0 0 1 10.228 4.136 15.211 15.211 0 0 1 4.226 10.418v60.593a11.85 11.85 0 0 1 -23.7 0v-7.371a6 6 0 0 0 -12 0v7.371a23.85 23.85 0 0 0 47.7 0zm-26.426-26.551h-.128a26.944 26.944 0 0 0 -18.728 7.568c-.087.083-.173.169-.256.257q-.829.88-1.57 1.805-.74-.924-1.568-1.805c-.054-.056-.108-.113-.164-.168a26.939 26.939 0 0 0 -30.187-5.138 76.273 76.273 0 0 1 72.919-54.233h.107a.477.477 0 0 1 .054 0 76.276 76.276 0 0 1 72.957 54.187 26.423 26.423 0 0 0 -11.351-2.473 26.944 26.944 0 0 0 -18.728 7.568c-.088.083-.173.169-.256.257q-.828.88-1.569 1.805-.741-.924-1.569-1.805c-.054-.056-.109-.113-.164-.168a26.532 26.532 0 0 0 -18.689-7.657h-.132a26.942 26.942 0 0 0 -18.727 7.568c-.088.083-.174.168-.257.257q-.828.879-1.567 1.8-.741-.923-1.569-1.8c-.054-.057-.109-.114-.166-.169a26.536 26.536 0 0 0 -18.692-7.656z" fill="#1ae5be"/></svg>