<svg id="Layer_1" height="512" viewBox="0 0 512 512" width="512" xmlns="http://www.w3.org/2000/svg" data-name="Layer 1"><path d="m266.042 18.248c-5.678-.508-11.4-.78-17.161-.78-.05 0-.1 0-.142 0h-.28c-102.84.075-188.574 82.918-206.19 191.731.134-.165.269-.327.406-.488.1-.113.2-.224.3-.33 10.818-11.324 23.825-17.9 37.886-19.228 22.86-92.942 96.266-162.9 185.181-170.905z" fill="#d4e1f4"/><path d="m256.144 10h-.433a226.13 226.13 0 0 0 -225.982 226.279 6 6 0 0 0 11.8 1.527c1.594-6.034 7.266-23.285 14.359-30.949 9.959-9.314 22.11-14.252 35.176-14.149a49.191 49.191 0 0 1 34.6 14.107c9.289 9.909 14.2 22 14.2 34.962a6 6 0 0 0 12 0c0-12.946 4.894-25.015 14.153-34.914 9.9-9.26 21.97-14.154 34.943-14.154a49.1 49.1 0 0 1 34.84 14.107c9.289 9.909 14.2 22 14.2 34.961v162.346a41.823 41.823 0 0 1 -83.646 0v-19.746a6 6 0 0 0 -12 0v19.746a53.823 53.823 0 0 0 107.646 0v-162.346c0-12.948 4.893-25.014 14.153-34.909 9.9-9.26 21.968-14.154 34.943-14.154h.241a49.191 49.191 0 0 1 34.6 14.108c9.289 9.908 14.2 21.994 14.2 34.961a6 6 0 1 0 12 0c0-12.945 4.893-25.014 14.154-34.914 9.9-9.261 21.968-14.154 34.941-14.154h.242a49.189 49.189 0 0 1 34.6 14.106c7.115 7.641 12.8 24.943 14.4 30.984a6 6 0 0 0 11.8-1.528v-.289a226.132 226.132 0 0 0 -226.13-225.988zm208.586 188.511c-.053-.057-.108-.113-.164-.168a61.1 61.1 0 0 0 -43.066-17.63h-.3c-16.116 0-31.079 6.065-43.27 17.54-.088.083-.174.169-.257.257a65.9 65.9 0 0 0 -11.54 16.693 65.918 65.918 0 0 0 -11.533-16.692c-.054-.057-.109-.114-.164-.168a61.1 61.1 0 0 0 -43.067-17.63h-.3c-16.117 0-31.08 6.065-43.27 17.54-.088.083-.173.168-.256.256a65.9 65.9 0 0 0 -11.543 16.691 65.932 65.932 0 0 0 -11.54-16.693c-.054-.057-.108-.113-.164-.168a61.1 61.1 0 0 0 -43.066-17.63h-.3c-16.117 0-31.079 6.065-43.272 17.54-.088.083-.174.169-.257.257a65.936 65.936 0 0 0 -11.536 16.694 65.915 65.915 0 0 0 -11.54-16.693c-.054-.057-.108-.113-.164-.168a61.1 61.1 0 0 0 -43.061-17.631h-.3c-16.117 0-31.08 6.065-43.272 17.54-.088.083-.174.169-.257.258a37.566 37.566 0 0 0 -2.841 3.427 214.246 214.246 0 0 1 211.285-179.933h.285a.578.578 0 0 1 .144 0 214.242 214.242 0 0 1 211.428 179.938 37.573 37.573 0 0 0 -2.842-3.427z" fill="#0635c9"/><g fill="#1ae5be"><path d="m478.913 312.752-88.108-43.232a5.994 5.994 0 0 0 -5.28 0l-88.108 43.109a6 6 0 0 0 -3.363 5.39v82.475c0 9.159 2.5 19.381 7.23 29.561 6.06 13.038 15.085 24.3 24.762 30.886l58.738 40.02a6 6 0 0 0 6.756 0l58.739-40.021c17.939-12.218 31.992-38.769 31.992-60.447v-82.354a6 6 0 0 0 -3.358-5.387zm-8.642 87.739c0 17.515-12.249 40.655-26.748 50.53l-55.361 37.718-55.362-37.718c-7.941-5.409-15.461-14.894-20.634-26.026-3.942-8.483-6.113-17.185-6.113-24.5v-78.735l82.1-40.172 82.113 40.29z"/><path d="m355.07 378.584a6 6 0 0 0 -8.379 8.59l26.615 25.957a6 6 0 0 0 8.379 0l47.948-46.766a6 6 0 0 0 -8.379-8.59l-43.754 42.68z"/></g></svg>