<svg id="Layer_1" height="512" viewBox="0 0 512 512" width="512" xmlns="http://www.w3.org/2000/svg" data-name="Layer 1"><path d="m155.884 479.775c-26.073-19.084-39.293-43.17-39.293-71.588v-57.622a418.591 418.591 0 0 0 76.225-43.6q-8.773-5.778-17.253-11.986a418.467 418.467 0 0 1 -78.972 45.584v57.622c0 28.418 13.22 52.5 39.293 71.588a148.807 148.807 0 0 0 30.816 17.145c-3.529-2.102-7.174-4.477-10.816-7.143z" fill="#d4e1f4"/><g fill="#0635c9"><path d="m374.27 407.606v-6.015a6 6 0 0 0 -12 0v6.015a6 6 0 0 0 12 0z"/><path d="m220.113 61.125a114.177 114.177 0 0 0 -21.9 62.407h-7.407a6 6 0 0 0 -6 6v25.487a6 6 0 0 0 6 6h12.163l.712 10.321a22.647 22.647 0 0 0 -14.591 16.135 28.453 28.453 0 0 0 17.823 33.468 94.174 94.174 0 0 0 48.547 77.88v21.659l-10.729 4.58 4.711 11.037 11.694-4.991a96.159 96.159 0 0 0 79.917 0l11.191 4.777v43.665h-91.709v12h121.788v62.069h-148.4v12h187.49a6 6 0 0 0 6-6v-73.642c0-.166-.007-.333-.02-.5a53.283 53.283 0 0 0 -29.1-42.978c-.108-.055-.217-.1-.328-.152l-51.234-21.867v-21.907a94.168 94.168 0 0 0 48.094-77.646 28.456 28.456 0 0 0 17.771-33.451 22.656 22.656 0 0 0 -14.53-16.112l.713-10.345h12.606a6 6 0 0 0 6-6v-25.487a6 6 0 0 0 -6-6h-7.4a113.841 113.841 0 0 0 -21.915-62.5 103.459 103.459 0 0 0 -50.758-37.008l.769-7.407a6 6 0 0 0 -5.966-6.617h-50.041a6 6 0 0 0 -5.968 6.619l.769 7.408a103.4 103.4 0 0 0 -50.762 37.098zm144.131 279.88 8.052 3.436v35.108h-8.052zm51.165 45.229v67.384h-21.086v-68.069a6 6 0 0 0 -6-6h-4.023v-29.986l8.784 3.749a41.215 41.215 0 0 1 22.325 32.922zm-80.68-65.444a84.16 84.16 0 0 1 -67.269 0v-16.39a94.089 94.089 0 0 0 67.269-.173zm66.209-130.46a16.439 16.439 0 0 1 -13.057 20.086 6 6 0 0 0 -4.954 5.908v.141a82.06 82.06 0 1 1 -164.12 0v-.133a6 6 0 0 0 -4.965-5.91 16.439 16.439 0 0 1 -13.1-20.093 10.512 10.512 0 0 1 6.317-7.429 13.211 13.211 0 0 0 4.069 3.253l10.552 5.418a7.808 7.808 0 0 0 11.345-6.323l1.937-24.229h129.096c.975 4.212 2.137 8.392 3.5 12.477l5.316 15.946a7.775 7.775 0 0 0 5.48 5.1 7.888 7.888 0 0 0 1.939.243 7.776 7.776 0 0 0 5.313-2.1l7.416-6.922a15.089 15.089 0 0 0 2.192-2.589 10.487 10.487 0 0 1 5.724 7.156zm-185.938-29.311h7.931l-1.36 17-4.953-2.543a1.288 1.288 0 0 1 -.693-1.05zm170.786 13.961a3.018 3.018 0 0 1 -.955 2.006l-2.641 2.465-3.25-9.749c-.95-2.853-1.794-5.756-2.54-8.683h10.349zm19.6-25.961h-33.85a5.972 5.972 0 0 0 -5.533 0h-136.651c-.031 0-.062 0-.093 0h-32.453v-13.487h208.577zm-126.486-114.853a6 6 0 0 0 4.427-6.418l-.6-5.748h36.73l-.6 5.748a6 6 0 0 0 4.427 6.418 84.679 84.679 0 0 1 13.375 4.813v9.378a53.909 53.909 0 0 1 -34.517 50.291 53.763 53.763 0 0 1 -36.618-51.048v-8.61a84.244 84.244 0 0 1 13.376-4.824zm-25.376 11.489v1.945a65.736 65.736 0 0 0 45.51 62.663l1.364.443a6 6 0 0 0 3.807-.032 65.914 65.914 0 0 0 44.46-62.312v-2.729a94.009 94.009 0 0 1 23.764 22.544 101.722 101.722 0 0 1 19.539 55.355h-181.736a102.045 102.045 0 0 1 19.533-55.275 94.1 94.1 0 0 1 23.759-22.602z"/><path d="m290.437 74.641h23.633a6 6 0 0 0 0-12h-23.633a6 6 0 1 0 0 12z"/><path d="m290.437 52.853h23.633a6 6 0 0 0 0-12h-23.633a6 6 0 0 0 0 12z"/></g><path d="m262.906 331.117-.559-.24a406.526 406.526 0 0 1 -83.184-48.165 6 6 0 0 0 -7.2 0 406.5 406.5 0 0 1 -83.184 48.165l-.559.24a6 6 0 0 0 -3.629 5.512v61.558c0 32 15.286 60.1 44.205 81.272a155.749 155.749 0 0 0 43.609 22.3 6 6 0 0 0 3.315.015 163.323 163.323 0 0 0 45.056-22.257c29.936-21.164 45.759-49.288 45.759-81.33v-61.558a6 6 0 0 0 -3.629-5.512zm-8.371 67.07c0 28.276-13.6 52.277-40.411 71.335a156.384 156.384 0 0 1 -40.006 20.187 147.976 147.976 0 0 1 -38.234-19.934c-26.073-19.084-39.293-43.17-39.293-71.588v-57.622a418.467 418.467 0 0 0 78.972-45.584 418.583 418.583 0 0 0 78.972 45.584z" fill="#1ae5be"/><path d="m143.182 382.167a6 6 0 1 0 -8.822 8.135l25.43 27.575a6 6 0 0 0 8.463.357l48.155-44.107a6 6 0 0 0 -8.106-8.85l-43.744 40.069z" fill="#1ae5be"/></svg>