<svg id="Layer_1" height="512" viewBox="0 0 512 512" width="512" xmlns="http://www.w3.org/2000/svg" data-name="Layer 1"><path d="m314.156 386.845a97.565 97.565 0 0 1 82.411-96.256 97.411 97.411 0 1 0 0 192.512 97.565 97.565 0 0 1 -82.411-96.256z" fill="#d4e1f4"/><path d="m433.006 88.9a5.778 5.778 0 0 0 -.063-.621c-.009-.055-.015-.11-.025-.165a6.158 6.158 0 0 0 -.189-.757c-.009-.026-.02-.051-.029-.077a5.986 5.986 0 0 0 -.268-.657c-.023-.048-.046-.1-.07-.144a5.985 5.985 0 0 0 -.4-.67c-.02-.029-.043-.057-.064-.086a5.918 5.918 0 0 0 -.441-.544c-.024-.027-.043-.057-.067-.084l-57.017-60.672a27.647 27.647 0 0 0 -20.068-8.679h-252.474a27.7 27.7 0 0 0 -19.726 8.322l-59.381 60.954a5.98 5.98 0 0 0 -1.687 4.267c0 .1-.016.2-.016.3v64.053a6.043 6.043 0 0 0 .682 2.776 50.841 50.841 0 0 0 44.773 27.565v201.781a16.79 16.79 0 0 0 16.77 16.771h195.343v-12h-54.658v-95.848a6 6 0 0 0 -6-6h-72.731a6 6 0 0 0 -6 6v95.848h-55.954a4.776 4.776 0 0 1 -4.77-4.771v-203.062a50.753 50.753 0 0 0 28.539-18.043 50.82 50.82 0 0 0 40 19.325 50.822 50.822 0 0 0 39.992-19.317 51.066 51.066 0 0 0 80.005.008 51.062 51.062 0 0 0 80 0 50.743 50.743 0 0 0 28.556 18.043v100.72h12v-99.44a50.852 50.852 0 0 0 44.784-27.6 6 6 0 0 0 .67-2.757v-64.432c0-.037 0-.072 0-.108-.007-.066-.012-.131-.016-.199zm-281.806 211.785h60.727v89.848h-60.727zm214.429-268.043 47.52 50.565h-63.834l-40.834-55.463h45.824a15.6 15.6 0 0 1 11.324 4.898zm-245.4 50.565 44.162-55.463h38.952l-20.23 55.463zm95.887-55.463h18.455l23.131 55.463h-61.812zm54.588 55.463-23.128-55.463h46l40.834 55.463zm-180.004-50.767a15.63 15.63 0 0 1 11.131-4.7h47.224l-44.162 55.467h-63.65zm-23.679 139.551a38.358 38.358 0 0 1 -34-19.863v-56.921h68.456v56.06a38.373 38.373 0 0 1 -34.456 20.724zm79.993-.01a38.322 38.322 0 0 1 -33.537-19.081v-57.693h67.7v56.58a38.351 38.351 0 0 1 -34.163 20.194zm79.993.011a38.331 38.331 0 0 1 -33.834-19.615v-57.17h67.7v57.12a38.335 38.335 0 0 1 -33.866 19.665zm80 0a38.334 38.334 0 0 1 -34.139-20.153v-56.632h67.7v57.667a38.323 38.323 0 0 1 -33.559 19.126zm80.007.008a38.384 38.384 0 0 1 -34.45-20.713v-56.08h68.455v56.923a38.349 38.349 0 0 1 -34.003 19.87z" fill="#0635c9"/><g fill="#1ae5be"><path d="m381.567 277.434a109.411 109.411 0 1 0 109.412 109.411 109.535 109.535 0 0 0 -109.412-109.411zm0 206.822a97.411 97.411 0 1 1 97.412-97.411 97.521 97.521 0 0 1 -97.412 97.411z"/><path d="m381.613 314.117h-.141a76.446 76.446 0 0 0 -76.31 76.411 6 6 0 0 0 11.8 1.532c.627-2.357 2.171-6.479 3.55-8.067a12.174 12.174 0 0 1 8.28-3.312 11.685 11.685 0 0 1 8.2 3.284 12.172 12.172 0 0 1 3.373 8.318 6 6 0 0 0 12 0 11.38 11.38 0 0 1 11.635-11.602h.057a11.664 11.664 0 0 1 8.142 3.284 12.168 12.168 0 0 1 3.373 8.318v44.924a10.367 10.367 0 0 1 -20.734 0v-7.742a6 6 0 0 0 -12 0v7.742a22.367 22.367 0 0 0 44.734 0v-44.924a11.38 11.38 0 0 1 11.63-11.6h.058a11.663 11.663 0 0 1 8.142 3.284 12.168 12.168 0 0 1 3.373 8.318 6 6 0 1 0 12 0 11.38 11.38 0 0 1 11.63-11.6h.058a11.656 11.656 0 0 1 8.129 3.273c1.388 1.554 2.953 5.725 3.583 8.095a5.962 5.962 0 0 0 6.574 4.377 6.045 6.045 0 0 0 5.229-6 76.361 76.361 0 0 0 -76.36-76.312zm52.874 54.566a24.153 24.153 0 0 0 -16.745 6.716c-.088.083-.173.169-.256.257q-.368.39-.716.791-.348-.4-.716-.791c-.054-.057-.108-.113-.164-.167a23.569 23.569 0 0 0 -16.6-6.806 24.385 24.385 0 0 0 -16.75 6.717c-.088.082-.173.167-.256.255q-.368.392-.716.791-.348-.4-.716-.791c-.054-.058-.109-.114-.165-.169a23.576 23.576 0 0 0 -16.605-6.805 23.874 23.874 0 0 0 -16.745 6.716c-.088.083-.174.169-.257.258q-.368.39-.716.79-.348-.4-.716-.791c-.053-.057-.108-.113-.164-.168a23.572 23.572 0 0 0 -16.6-6.805 23.269 23.269 0 0 0 -8.468 1.5 64.473 64.473 0 0 1 61.065-44.064h.091a.235.235 0 0 1 .046 0 64.454 64.454 0 0 1 61.093 44.031 23.636 23.636 0 0 0 -8.224-1.465z"/></g></svg>