<svg id="Layer_1" height="512" viewBox="0 0 512 512" width="512" xmlns="http://www.w3.org/2000/svg" data-name="Layer 1"><path d="m289.155 353.439a20.285 20.285 0 0 1 -19.155-13.693l-19.209-53.194h-27.225l26.434 73.194a20.285 20.285 0 0 0 19.157 13.693h138.319l3.594-20z" fill="#d4e1f4"/><g fill="#0635c9"><path d="m91.914 374.851 112.652 76.831a6 6 0 0 0 6.762 0l41.206-28.1 57.354-39.184-6.77-9.909-57.349 39.182-37.822 25.8-109.272-74.534c-33.368-22.751-58.531-70.345-58.531-110.709v-149.354l167.82-82.191 167.788 82.41v149.135c0 5.478-.39 21.314-1 25.823l11.891 1.621c.779-5.716 1.114-22.8 1.114-27.444v-152.873a6 6 0 0 0 -3.357-5.385l-173.787-85.356a6.009 6.009 0 0 0 -5.284 0l-173.824 85.129a6 6 0 0 0 -3.361 5.389v153.1c0 43.975 27.416 95.831 63.77 120.619z"/><path d="m329.307 279.192 11.486 3.473c2.786-9.219 4.244-22.277 4.244-30.412v-122.653a6 6 0 0 0 -3.354-5.386l-131.09-64.383a6.009 6.009 0 0 0 -5.284 0l-131.09 64.2a6 6 0 0 0 -3.362 5.389v122.833c0 30.89 20.779 70.185 46.317 87.6l87.392 59.6a6 6 0 0 0 6.7.04l39.864-26.488-6.641-9.994-36.5 24.253-84.056-57.329c-22.267-15.18-41.078-50.754-41.078-77.682v-119.091l125.088-61.262 125.094 61.44v118.913c0 7.076-1.308 18.923-3.73 26.939z"/><path d="m248.375 198.77-53.808 49.285-26.689-28.941a6 6 0 0 0 -8.822 8.135l30.744 33.337a6 6 0 0 0 8.464.357l58.216-53.324a6 6 0 1 0 -8.105-8.849z"/></g><path d="m406.523 472.008a29.993 29.993 0 1 0 -29.993 29.992 30.026 30.026 0 0 0 29.993-29.992zm-47.985 0a17.993 17.993 0 1 1 17.992 17.992 18.012 18.012 0 0 1 -17.992-17.992z" fill="#1ae5be"/><path d="m317.3 472.008a29.993 29.993 0 1 0 -29.99 29.992 30.026 30.026 0 0 0 29.99-29.992zm-47.985 0a17.993 17.993 0 1 1 17.995 17.992 18.013 18.013 0 0 1 -17.993-17.992z" fill="#1ae5be"/><path d="m477.856 229.764h-17.6a32.1 32.1 0 0 0 -31.838 27.136l-3.171 17.649h-210.226a6 6 0 0 0 -5.644 8.038l29.308 81.158a32.266 32.266 0 0 0 30.47 21.691h136.165l-1.869 10.4c-.008.041-.014.082-.02.123a20.156 20.156 0 0 1 -20 17.081h-97.21a6 6 0 0 0 0 12h97.211a32.1 32.1 0 0 0 31.84-27.141l24.967-138.932q.012-.061.021-.123a20.154 20.154 0 0 1 20-17.082h17.6a6 6 0 0 0 0-12zm-70.38 143.675h-138.321a20.285 20.285 0 0 1 -19.155-13.693l-26.432-73.194h199.522z" fill="#1ae5be"/></svg>