<svg id="Layer_1" height="512" viewBox="0 0 512 512" width="512" xmlns="http://www.w3.org/2000/svg" data-name="Layer 1"><g fill="#d4e1f4"><path d="m256.751 446.331v-121.183a8.524 8.524 0 0 1 8.514-8.514h-10a8.524 8.524 0 0 0 -8.514 8.514v121.183a8.524 8.524 0 0 0 8.514 8.514h10a8.524 8.524 0 0 1 -8.514-8.514z"/><path d="m308.807 429.445a31.45 31.45 0 0 0 -5 .406 31.474 31.474 0 0 1 25.817 24.994h10a31.448 31.448 0 0 0 -30.817-25.4z"/><path d="m289.407 460.845a19.417 19.417 0 0 1 14.4-18.723 19.4 19.4 0 1 0 0 37.445 19.417 19.417 0 0 1 -14.4-18.722z"/><path d="m435.258 460.845a19.417 19.417 0 0 1 14.4-18.723 19.4 19.4 0 1 0 0 37.445 19.417 19.417 0 0 1 -14.4-18.722z"/></g><path d="m76.334 399.442 117.375 80.052a6 6 0 0 0 6.762 0l42.929-29.279a6 6 0 1 0 -6.761-9.914l-39.549 26.973-113.99-77.747c-34.835-23.746-61.1-73.427-61.1-115.556v-155.771l175.107-85.762 175.073 85.99v155.543a122.545 122.545 0 0 1 -4.634 32.3 6 6 0 1 0 11.572 3.177 134.52 134.52 0 0 0 5.062-35.473v-159.285a6 6 0 0 0 -3.355-5.385l-181.069-88.934a6 6 0 0 0 -5.284 0l-181.111 88.7a6 6 0 0 0 -3.361 5.386v159.514c0 45.747 28.518 99.688 66.334 125.471z" fill="#0635c9"/><path d="m320.338 305.781a6 6 0 0 0 11.124 4.5c5.373-13.281 8.213-26.548 8.213-38.369v-127.791a6 6 0 0 0 -3.355-5.385l-136.585-67.085a6 6 0 0 0 -5.284 0l-136.585 66.9a6 6 0 0 0 -3.361 5.389v127.973c0 32.111 21.6 72.961 48.147 91.061l91.057 62.1a6 6 0 0 0 6.762 0l43.661-29.774a6 6 0 1 0 -6.762-9.914l-40.28 27.471-87.677-59.8c-23.259-15.857-42.908-53.015-42.908-81.144v-124.24l130.581-63.954 130.589 64.14v124.054c0 10.293-2.537 22.004-7.337 33.868z" fill="#0635c9"/><path d="m239.382 216.374-56.248 51.52-27.979-30.339a6 6 0 1 0 -8.821 8.135l32.033 34.735a6 6 0 0 0 8.463.357l60.658-55.56a6 6 0 1 0 -8.106-8.848z" fill="#0635c9"/><path d="m501.915 393.79a5.844 5.844 0 0 0 -.247-.983c-.015-.046-.032-.091-.049-.136a5.934 5.934 0 0 0 -.441-.932c-.024-.042-.05-.083-.075-.124a6.021 6.021 0 0 0 -.639-.855c-.017-.018-.027-.04-.044-.058l-37.386-40.735a20.567 20.567 0 0 0 -15.113-6.642h-40.421v-18.177a20.537 20.537 0 0 0 -20.513-20.514h-131.722a20.538 20.538 0 0 0 -20.514 20.514v121.183a20.538 20.538 0 0 0 20.514 20.514h12.724a31.4 31.4 0 0 0 61.635 0h84.216a31.4 31.4 0 0 0 61.635 0h6.011a20.537 20.537 0 0 0 20.514-20.514v-51.572a5.95 5.95 0 0 0 -.062-.817c-.007-.051-.015-.101-.023-.152zm-53.994-38.465a8.538 8.538 0 0 1 6.273 2.757l28.155 30.677h-74.849v-33.434zm-201.17 91.006v-121.183a8.524 8.524 0 0 1 8.514-8.514h131.725a8.524 8.524 0 0 1 8.513 8.514v129.7h-65.879a31.4 31.4 0 0 0 -61.635 0h-12.724a8.524 8.524 0 0 1 -8.514-8.517zm52.056 33.913a19.4 19.4 0 1 1 19.4-19.4 19.421 19.421 0 0 1 -19.4 19.4zm145.85 0a19.4 19.4 0 1 1 19.4-19.4 19.421 19.421 0 0 1 -19.4 19.4zm45.343-33.913a8.524 8.524 0 0 1 -8.514 8.514h-6.011a31.4 31.4 0 0 0 -61.635 0h-6.34v-54.086h82.5z" fill="#1ae5be"/></svg>