<?xml version="1.0" encoding="UTF-8" standalone="no"?>
<!DOCTYPE svg PUBLIC "-//W3C//DTD SVG 1.1//EN" "http://www.w3.org/Graphics/SVG/1.1/DTD/svg11.dtd">
<svg version="1.1" xmlns="http://www.w3.org/2000/svg" xmlns:xlink="http://www.w3.org/1999/xlink" preserveAspectRatio="xMidYMid meet" viewBox="0 0 1200 800" width="1200" height="800"><defs><path d="M432.09 517.72C443.33 484.77 473.9 462.31 508.6 451.76C517.62 449.02 527.31 447.77 535.43 443.09C554.84 431.9 560.75 407.03 561.3 385.25C564.38 263.41 685.93 246.93 709.27 249.09C801.84 257.65 789.37 329.55 843.46 369.68C878.41 395.61 933.21 354.46 971.87 374.65C1004.68 391.79 1004.57 440.29 1034.56 461.66C1056.09 477 1072.72 455.84 1109.37 488.5C1156.53 530.54 1169.23 646.44 1103.91 712.78C1043.09 713.04 556.55 715.13 495.73 715.39C473.34 711.6 387.93 647.22 432.09 517.72" id="cABkKTnDA"></path><path d="M957.53 658.85C976.24 627.37 997.85 597.6 1022.01 570.08C1025.64 581.75 1031.81 592.63 1039.98 601.72C1043.5 590.71 1028.81 574.26 1033.85 563.85C1035.97 559.5 1110.81 517.72 1168.21 507.84C1164.8 549.85 1156.46 590.27 1137.56 632.43C1130.14 628.1 1117.34 629.27 1109.92 624.95C1115.06 636.59 1124.78 641.63 1128.4 648.52C1099.3 681.17 1057.18 715.94 1043.48 720.93C1014.84 731.37 983.79 724.31 955.89 714.97C941.01 709.99 937.33 709.03 941.84 693.48C945.34 681.39 951.12 669.63 957.53 658.85" id="b5HIkmhgkZ"></path><path d="M977.54 718.72C1019.74 650 1074.35 589.45 1138.41 540.45C1140.1 539.15 1138.43 536.24 1136.71 537.55C1072.18 586.91 1017.17 647.79 974.65 717.03C973.52 718.87 976.41 720.55 977.54 718.72" id="m3ntSG5SR5"></path><path d="M979.33 651.21C987.42 660.86 991.94 672.18 992.75 684.74C992.8 685.56 993.48 686.54 994.43 686.42C1015.93 683.66 1037.52 682.97 1059.16 684.34C1061.31 684.48 1061.3 681.13 1059.16 680.99C1039.5 679.74 1020.45 681.22 1000.86 682.28C996.45 682.51 996.61 682.91 995.55 678.87C994.5 674.88 993.98 670.93 992.52 667.02C990.02 660.29 986.29 654.32 981.7 648.84C980.31 647.19 977.95 649.57 979.33 651.21" id="bWQgZDrtV"></path><path d="M1013.65 609.08C1020.29 620.45 1024.43 632.64 1026.02 645.71C1026.13 646.6 1026.7 647.4 1027.69 647.39C1045.33 647.03 1062.9 647.81 1080.43 649.72C1082.58 649.96 1082.56 646.61 1080.43 646.37C1071.68 645.42 1062.91 644.69 1054.11 644.29C1049.71 644.1 1045.3 643.98 1040.9 643.93C1038.21 643.91 1032.21 645.07 1030.01 643.42C1026.93 641.12 1026.44 629.93 1025.06 625.83C1022.9 619.38 1019.97 613.27 1016.54 607.38C1015.46 605.53 1012.56 607.21 1013.65 609.08" id="a1FPUiZqf"></path><path d="M1057.78 568.67C1062.16 578.57 1064.88 588.79 1066.02 599.53C1066.13 600.59 1067 601.48 1068.13 601.15C1087.81 595.44 1107.75 590.96 1127.97 587.73C1130.1 587.39 1129.2 584.16 1127.08 584.49C1106.86 587.73 1086.92 592.21 1067.25 597.92C1067.95 598.46 1068.66 599 1069.36 599.53C1068.17 588.17 1065.3 577.43 1060.68 566.99C1059.8 565.02 1056.92 566.72 1057.78 568.67" id="b7IovzYmV"></path><path d="M898.44 440.2C900.55 417.01 903.8 393.34 914.63 372.74C925.47 352.12 945.34 334.89 968.56 333.17C991.37 331.49 1017.18 345.45 1029.26 364.87C1041.34 384.3 1040.73 408.27 1038.23 431C1035.59 455.11 1027.2 478.17 1018.89 500.96C994.37 568.13 971.73 616.84 930.45 675.23C887.97 735.33 839.18 727.07 862.93 696.47C910.15 616.03 890.26 529.76 898.44 440.2" id="pmlDDrPk6"></path><path d="M878.31 724.46C902.86 687.97 919.49 645.66 934.32 604.49C953.08 552.42 968.3 498.72 977.8 444.17C982.36 418 985.61 391.48 985.7 364.88C985.71 362.73 982.36 362.72 982.35 364.88C982.19 415.53 971.57 466.18 958.71 514.95C945.35 565.57 928.56 615.63 907.13 663.42C897.96 683.86 887.95 704.15 875.42 722.76C874.22 724.56 877.12 726.24 878.31 724.46" id="fFc45xJDr"></path><path d="M935.48 374.76C947.83 396.92 959.33 419.81 976.73 438.54C977.23 439.08 978.13 439.16 978.76 438.8C996.23 428.9 1015.47 422.72 1031.97 410.97C1033.71 409.72 1032.04 406.82 1030.28 408.07C1021.82 414.09 1012.53 418.86 1003.23 423.41C995.98 426.95 987.84 432.21 980.07 434.34C977.18 435.13 979.34 435.4 977.16 434.08C975.35 432.99 972.93 429.2 971.61 427.56C966.9 421.66 962.68 415.38 958.71 408.96C951.46 397.27 945.07 385.08 938.37 373.08C937.33 371.19 934.44 372.88 935.48 374.76" id="afWuFrwXw"></path><path d="M911.68 444.02C929.71 458 944.2 476.49 960.11 492.72C961.23 493.85 962.97 496.4 964.64 496.83C968.62 497.86 977.06 491.19 980.44 489.3C995.85 480.7 1010.04 470.45 1022.6 458.04C1024.14 456.52 1021.77 454.15 1020.23 455.67C1008.56 467.22 995.43 476.87 981.19 485.03C977.74 487 967.87 494.08 964.99 492.87C962.62 491.87 959.78 487.53 958.05 485.7C943.94 470.77 930.34 454.29 914.04 441.66C912.36 440.35 909.98 442.71 911.68 444.02" id="ab2i7YtFM"></path><path d="M532.23 696.68C509.49 687.9 461.47 667.38 475.25 652.75C481.53 648.66 489.36 647.01 496.77 648.2C500.79 643.24 493.08 637.37 487.06 635.23C471 629.55 409.41 610.12 425.93 592.63C431.34 586.14 453.43 588.22 452.38 587.26C434.29 570.85 424.15 560.77 410 539C401.02 525.2 393.33 497.78 408.97 492.93C419 492.71 427.03 501.03 432.7 509.31C438.38 517.58 447.76 532.5 457.88 542.04C457.41 534.62 453.63 495.31 474.91 504.28C488.21 509.89 494.2 549.09 505.47 563.52C506.98 565.44 509.42 567.54 511.56 566.35C512.88 565.61 513.3 563.96 513.94 562.59C517.81 554.37 531.14 556.19 536.57 563.47C541.99 570.76 542.17 580.51 543.3 589.52C544.45 598.53 547.71 608.57 556.04 612.19C557.24 606.98 558.55 601.52 562.16 597.58C565.77 593.64 572.46 591.97 576.48 595.49C578.42 597.18 579.38 599.7 580.25 602.13C594.32 641.74 623 691.76 639.35 728.92C636.14 726.45 550.02 703.54 532.23 696.68" id="b2ca8ESZSi"></path><path d="M417.84 524.52C480.22 603.92 559.51 667.69 638.16 730.11C639.84 731.43 642.22 729.08 640.53 727.74C561.88 665.32 482.59 601.55 420.21 522.15C418.88 520.45 416.53 522.84 417.84 524.52" id="bqzR2Cjm5"></path><path d="M443.18 603.71C460.72 607.79 478.96 609.86 496.98 609.9C497.97 609.91 498.99 608.82 498.6 607.78C490.35 586.57 481.14 564.19 477.8 541.59C477.48 539.46 474.26 540.37 474.57 542.48C477.91 565.08 487.11 587.46 495.36 608.67C495.9 607.97 496.44 607.26 496.98 606.55C479.25 606.51 461.33 604.5 444.07 600.48C441.97 599.99 441.08 603.22 443.18 603.71" id="b6O8tsqCIW"></path><path d="M493.78 664.27C505.16 665.48 516.47 667.13 527.92 667.69C537.9 668.17 549.35 668.68 558.53 664.04C559.35 663.63 559.55 662.5 559.14 661.75C545.38 637.01 538.67 608.73 527.41 582.84C526.55 580.86 523.66 582.57 524.52 584.53C535.79 610.43 542.47 638.68 556.24 663.44C556.44 662.68 556.64 661.91 556.85 661.15C547.08 666.07 534.13 664.8 523.59 664.08C513.61 663.39 503.72 661.98 493.78 660.92C491.64 660.69 491.65 664.04 493.78 664.27" id="b4Xm735bBX"></path><path d="M678.29 652.81C659.84 641.13 641.66 632.64 623.21 620.95C598.65 605.4 445.49 517.72 457.11 388.5C459.17 365.61 472.08 338.3 494.35 332.62C560.21 315.81 560.08 399.09 563.55 417.07C571.49 458.24 593 495.8 619.57 528.24C646.14 560.67 677.77 588.52 709.07 616.41C715.9 622.5 723.33 630.05 722.43 639.16C722.1 642.48 720.66 645.57 719.22 648.59C711.03 665.94 691.03 660.88 678.29 652.81" id="b1myIhzWaK"></path><path d="M496.82 353.91C494.85 379.18 497.86 402.16 506.66 425.83C513.81 445.1 522.59 463.77 532.81 481.61C556.54 523.03 587.93 559.84 624.3 590.7C647.74 610.59 673.18 627.94 699.91 643.08C701.78 644.14 703.48 641.25 701.6 640.19C618.8 593.31 549 522.78 513.24 433.65C509.06 423.22 504.8 412.45 502.36 401.45C498.93 385.94 498.94 369.69 500.17 353.91C500.34 351.77 496.99 351.78 496.82 353.91" id="c4AaxS78o2"></path><path d="M466.72 386.06C478.3 397.57 490.18 408.17 504.18 416.68C505.13 417.26 506.33 416.7 506.64 415.68C511.62 399.62 519.48 383.71 530.36 370.81C531.74 369.18 529.39 366.8 528 368.44C516.72 381.82 508.58 398.13 503.42 414.79C504.23 414.46 505.05 414.13 505.87 413.79C492.13 405.43 480.45 394.99 469.08 383.69C467.55 382.16 465.18 384.53 466.72 386.06" id="b1mpoGveky"></path><path d="M474.92 444.93C485.31 449.98 495.56 455.32 505.92 460.43C510.78 462.83 515.66 465.25 520.63 467.43C522.51 468.25 525.15 469.94 527.28 469.69C528 469.6 528.71 469.24 528.89 468.46C533.06 451.14 537.49 433.65 543.77 416.96C544.53 414.94 541.3 414.06 540.54 416.07C536.34 427.26 533.13 438.82 530.05 450.36C528.86 454.82 527.71 459.29 526.6 463.77C526.33 464.83 526.08 465.89 525.81 466.95C525.74 467.21 527.6 467.16 526.05 466.05C523.47 464.2 519.33 463.19 516.42 461.82C511.73 459.59 507.07 457.28 502.42 454.96C493.81 450.67 485.26 446.24 476.61 442.04C474.68 441.11 472.98 443.99 474.92 444.93" id="b2B74zcaZi"></path><path d="M498.41 499.22C516.99 507.25 536.16 514.6 555.88 519.34C556.75 519.54 557.7 519.06 557.94 518.16C562.38 501.57 564.27 484.53 565.38 467.42C565.53 465.28 562.17 465.29 562.03 467.42C560.94 484.24 559.07 500.97 554.71 517.27C555.39 516.88 556.08 516.5 556.77 516.1C537.34 511.43 518.41 504.24 500.1 496.33C498.14 495.48 496.43 498.37 498.41 499.22" id="a680sBk6P"></path><path d="M489.78 575.56C486.64 557.95 485.86 538.37 496.06 523.67C504.54 511.45 519.28 504.86 533.97 502.55C545.18 500.78 680.29 489.81 685.23 494.73C689.81 499.28 703.99 507.66 709.67 531.27C716.48 559.59 737.13 680.41 731.31 705.71C715.19 709.73 561.07 710.51 537.1 710.72C536.11 701.75 494.89 604.27 489.78 575.56" id="bgtFyMSAg"></path><path d="M752.14 456.38C789.54 464.89 804.25 543.21 809.94 562.24C816.16 583.04 825.07 603.03 836.37 621.57C842.05 630.9 848.48 642.53 842.94 651.95C839.44 657.89 832.11 660.54 825.22 660.86C811.51 661.51 798.26 654.6 788.48 644.98C778.69 635.35 771.85 623.17 765.54 610.98C746.82 574.9 735.84 547.58 727.3 507.84C726.83 505.66 723.29 449.81 752.14 456.38" id="aGobRp3na"></path><path d="M833.5 669.04C838.28 673.91 858.67 676.4 860.35 675.23C858.58 664.61 848.14 670.64 846.85 662.45C850.02 660.24 853.79 660.91 856.9 660.91C859.61 660.9 862.15 663.32 863.3 666.24C865.03 670.64 864.39 672.01 865.06 676.71C865.73 681.33 870.43 684.72 870.44 681.77C870.44 676.35 870.45 667.98 870.46 662.57C871.79 667.38 872.74 682.6 879.23 681.17C880.81 673.88 877.44 667.47 877.41 660.01C879.25 666.34 879.23 681.17 885.72 679.07C885.98 672.27 883.46 665.4 883.73 658.59C885.19 664.59 887.49 677.59 891.08 675.5C892.16 668.96 890.38 662.03 888.96 655.55C888.11 651.61 888.32 647.79 885.45 644.95C883.69 643.21 858.84 638.39 848.53 638.99C842.03 639.38 833.76 638.38 829.67 641.63C813.74 654.29 828.14 663.58 833.5 669.04" id="a1Kf5RaPgt"></path><path d="M582.44 532.45C590.96 573.83 619.05 579.12 624.28 621.04C627.77 649.02 616.07 683.68 608.12 710.72C672.76 712.99 738.22 711.81 785.99 709.75C784.24 670.57 768.6 618.54 772.22 579.5C774.3 557.11 779.24 536.34 776.07 514.08C772.9 491.82 763.29 459.58 752.14 456.38C730.46 450.15 712.25 444.53 687.28 441.82C676.37 440.64 644.36 437.3 616.74 441.19C599.38 443.64 584.68 446.88 578.45 449.41C537.25 466.12 575.08 496.65 582.44 532.45" id="g3m8ty200B"></path><path d="M689.34 487.61C693.42 487.31 710.94 456 709.61 452.12C704.9 441.36 696.2 452.22 693.4 444.25C691.15 437.87 702.22 408.84 696 401.4C692.29 396.96 655.2 383.21 648.62 395.76C645.52 401.67 633.88 428.2 633.88 435.09C633.88 439.11 677.9 488.45 689.34 487.61" id="cnCX5aFm7"></path><path d="M722.58 641.63C724.96 644.42 729.23 653.96 731.88 662.02C732.77 664.68 734.02 673.16 734.02 673.16C727.3 676.41 724.9 660.07 722.58 655.47C721.89 660.52 722.87 679.37 721.1 679.2C714.61 677.59 715.31 663.43 715.79 656.65C715.21 661.15 713.95 665.23 712.63 669.58C711.28 674.01 709.68 678.18 707.57 680.35C703.4 679.66 706.19 666.63 706.94 660.81C704.56 670.82 698.46 681.17 698.46 681.17C694.26 681.17 694.63 675.12 695.97 671.69C697.32 668.24 700.65 664.04 698.68 660.9C699.09 663.93 692.96 668.27 690.03 669.08C687.1 669.9 678.89 667.05 675.97 666.22C661.99 662.24 629.61 663.66 633.93 648.09C636.89 637.42 650.51 628.61 660.33 630.1C668.96 631.41 680.99 641.63 690.71 641.63C708.12 641.63 715.61 638.97 722.58 641.63" id="b15mepQplH"></path><path d="M677.15 633.55C659.62 623.62 586.62 591.58 585.99 589.98C583.55 583.81 618.26 525.59 620.45 508.42C622.63 491.24 622.3 476.2 610.01 464C593.67 447.78 578.45 449.41 578.45 449.41C567.11 453.39 564.11 457.13 558.3 462.75C550.08 470.72 545.34 481.53 540.79 492.04C527.37 523.05 513.89 554.26 505.96 587.11C503.78 596.09 502.08 605.76 505.39 614.39C507.61 620.19 511.93 624.97 516.72 628.93C536.05 644.93 562.39 648.78 587.27 652.01C613.07 655.38 639.84 662.87 665.64 666.22C670.95 666.92 682.71 636.69 677.15 633.55" id="b9Z37n6Fp"></path><path d="M616.63 443.08C616.61 449.93 622.06 456.45 624.92 462.68C629.76 473.23 634.6 483.77 639.44 494.31C645.65 486.2 651.85 478.09 658.04 469.98C666.82 479.67 677.84 487.33 689.99 492.19C695.75 484.73 701.52 477.28 707.29 469.83C709.63 476.85 712.74 483.61 716.55 489.96C719.91 473.5 722.8 454.74 712.72 441.3C707.94 434.93 700.51 430.61 692.6 429.61C689.58 439.66 696.4 450.04 696.33 460.52C696.26 469.05 691.7 476.8 687.26 484.08C681.48 480.43 675.92 476.44 670.61 472.15C667.95 470 665.28 467.66 663.91 464.53C662.74 461.86 662.61 458.75 661.07 456.28C659.47 453.73 656.66 452.27 654.35 450.32C644.91 442.34 638.9 426.83 638.9 418.07C631.58 418.07 616.67 429.93 616.63 443.08" id="f18nm2Xu4c"></path><path d="M689.98 500.09C699.27 543.66 707.95 587.97 705.34 632.75C705.22 634.91 708.57 634.9 708.69 632.75C711.31 587.69 702.56 543.05 693.21 499.19C692.76 497.09 689.53 497.98 689.98 500.09" id="bGq0eWxOO"></path><path d="M707.57 372.01C706.45 378.94 706.82 386.47 710.67 392.34C714.51 398.2 722.59 401.63 728.89 398.54C736.99 394.57 737.78 383.45 736.79 374.49C736.16 368.83 735.19 362.94 731.76 358.39C720.32 343.22 709.4 360.57 707.57 372.01" id="hbrdB9NAOX"></path><path d="M653.29 402.09C660.28 416.36 673.89 427.73 689.62 430.01C695.85 430.91 702.58 430.3 707.78 426.74C711.25 424.36 713.78 420.85 716.03 417.29C726.06 401.41 731.88 382.9 732.73 364.14C733.4 349.34 729.97 332.67 717.67 324.4C708.33 318.11 696.24 318.22 684.98 318.56C679.19 318.74 673.17 318.97 668.01 321.61C662.64 324.36 658.87 329.39 655.32 334.26C642.42 351.95 643.7 382.52 653.29 402.09" id="aXPrXXLpi"></path><path d="M688.1 408.13C692.91 412.66 699.83 414.1 706 411.59C707.97 410.78 707.1 407.55 705.11 408.36C700.03 410.42 694.5 409.55 690.47 405.77C688.9 404.29 686.52 406.66 688.1 408.13" id="a5jcChd5Ml"></path><path d="M680.65 341.93C681.61 343.77 681.63 345.93 682.2 347.91C683.42 352.18 687.36 355.54 691.77 356.06C696.18 356.58 700.8 354.24 702.98 350.37C703.75 349.01 704.27 347.44 705.46 346.44C708.14 344.17 712.34 346.1 714.66 348.73C716.98 351.35 718.47 355.46 721.89 356.22C731.76 358.39 734.02 351.49 735.56 345.12C737.05 349.6 747.42 347.94 750.57 344.43C753.73 340.91 753.23 335.17 750.51 331.31C747.79 327.44 743.38 325.14 738.95 323.49C737.33 322.89 735.63 322.32 734.35 321.15C729.74 316.95 733.65 309.25 732.26 303.17C730.71 296.38 721.63 293.09 715.51 296.43C710.96 298.92 708.04 304.08 703.1 305.69C702.95 304.56 687.06 298.39 686.88 302.63C686.88 302.63 680.1 297.92 669.42 300.6C664.23 301.91 659.41 306.65 659.38 312C654.53 310.98 653.57 311.07 648.82 312.48C644.07 313.89 639.77 317.8 639.27 322.72C639.09 324.49 639.39 326.31 638.98 328.03C637.92 332.5 632.43 334.06 631.1 338C629.17 343.75 631.7 348.99 632.5 355.08C633.82 365.03 631.76 373.71 644.51 372.93C652.97 372.4 659.69 376.56 662.54 369.63C663.9 366.34 671.78 324.81 680.65 341.93" id="e1qFqfUlaD"></path><path d="M627.38 367.24C626.27 374.17 627.19 383.37 631.04 389.23C634.88 395.1 642.96 398.52 649.26 395.44C657.36 391.47 658.14 380.35 657.15 371.39C656.53 365.73 655.55 359.84 652.13 355.29C640.69 340.13 629.23 355.8 627.38 367.24" id="d1ew2sYkxU"></path><path d="M645.98 355.33C646.22 341.06 649.49 324.87 661.73 315.94C670.35 309.65 687.18 303.52 703.1 305.69C703.1 305.69 698.74 301.66 694.25 300.93C681.22 298.8 667.97 302.56 657.4 310.33C643.4 320.63 639.18 338.83 638.9 355.33C638.82 359.89 645.9 359.89 645.98 355.33" id="b3TxRnDozu"></path><path d="M642.19 383.32C645.01 400.97 659.99 416.54 678.05 418.19C680.19 418.39 680.18 415.03 678.05 414.84C661.41 413.32 647.99 398.5 645.42 382.43C645.08 380.31 641.86 381.21 642.19 383.32" id="ah52bc4ll"></path><path d="M691.57 415.24C691.57 419.58 688.05 423.11 683.69 423.11C679.35 423.11 675.82 419.58 675.82 415.24C675.82 410.89 679.35 407.36 683.69 407.36C688.05 407.36 691.57 410.89 691.57 415.24" id="aTrT8aiDJ"></path><path d="M708.02 389.35C708.43 392.58 709.97 395.67 712.38 398.07C713.11 398.79 713.96 399.6 713.87 400.57C713.7 402.25 711.16 402.55 709.35 402.24C705.67 401.62 702.1 400.45 698.83 398.81C698.53 398.67 698.24 398.52 698.02 398.3C697.64 397.94 697.49 397.43 697.41 396.93C696.92 394.03 698.43 391.21 699.38 388.4C700.44 385.24 700.11 369.61 705.5 370.77C711.57 372.08 707.56 385.75 708.02 389.35" id="b2skG4CmVh"></path><path d="M630.6 378.38C630.66 381.95 631.04 385.92 633.71 388.31C636.76 391.03 642.27 390.1 644.25 386.51C645.2 384.79 645.36 382.75 645.48 380.78C645.79 375.65 645.98 370.45 644.87 365.43C643.94 361.24 641.41 356.71 637.16 356.16C630.4 355.3 630.53 374.38 630.6 378.38" id="acxXMqqK"></path><path d="M693.52 374.7C693.52 377.5 692.13 379.78 690.42 379.78C688.71 379.78 687.33 377.5 687.33 374.7C687.33 371.9 688.71 369.63 690.42 369.63C692.13 369.63 693.52 371.9 693.52 374.7" id="c2iMWUAD4"></path><path d="M722.78 376.08C722.78 378.88 721.39 381.15 719.68 381.15C717.97 381.15 716.58 378.88 716.58 376.08C716.58 373.27 717.97 371 719.68 371C721.39 371 722.78 373.27 722.78 376.08" id="lHAXMB2fF"></path><path d="M682.18 364.47C684.75 361.86 688.33 361.1 691.76 362.34C693.79 363.07 694.67 359.84 692.65 359.11C688.14 357.49 683.15 358.7 679.82 362.11C678.31 363.65 680.67 366.02 682.18 364.47" id="bRN8KwpPT"></path><path d="M717.86 363.63C720.44 363.88 722.77 364.83 724.88 366.32C726.64 367.56 728.32 364.66 726.57 363.43C723.96 361.59 721.02 360.59 717.86 360.28C715.72 360.07 715.74 363.42 717.86 363.63" id="a1gnhe9mQc"></path><path d="M1128.01 727.15C728.39 727.15 506.39 727.15 461.99 727.15C453.97 727.15 447.48 720.66 447.48 712.64C447.48 712.47 447.48 711.15 447.48 710.99C447.48 702.97 453.97 696.47 461.99 696.47C528.59 696.47 1061.4 696.47 1128.01 696.47C1136.02 696.47 1142.52 702.97 1142.52 710.99C1142.52 711.15 1142.52 712.47 1142.52 712.64C1142.52 720.66 1136.02 727.15 1128.01 727.15" id="a1QdsGiBSd"></path><path d="M1107.63 727.15L482.37 727.15C482.37 727.85 482.37 728.24 482.37 728.31C482.37 739.59 491.5 748.72 502.78 748.72C561.22 748.72 1028.77 748.72 1087.22 748.72C1098.49 748.72 1107.63 739.59 1107.63 728.31C1107.63 728.24 1107.63 727.85 1107.63 727.15" id="k42tRgxn3Z"></path><path d="M1009.38 632.75C868.62 632.75 790.41 632.75 774.77 632.75C765.65 632.75 758.53 624.84 759.5 615.76C760.94 602.25 772.47 494.19 773.92 480.69C774.75 472.88 781.34 466.95 789.19 466.95C812.65 466.95 1000.34 466.95 1023.81 466.95C1032.93 466.95 1040.05 474.87 1039.08 483.95C1037.63 497.46 1026.1 605.51 1024.66 619.02C1023.83 626.83 1017.24 632.75 1009.38 632.75" id="b2aodhIPMS"></path><path d="M1018.23 632.75C877.47 632.75 799.26 632.75 783.62 632.75C774.49 632.75 767.38 624.84 768.35 615.76C769.79 602.25 781.32 494.19 782.77 480.69C783.6 472.88 790.19 466.95 798.04 466.95C821.5 466.95 1009.19 466.95 1032.65 466.95C1041.78 466.95 1048.9 474.87 1047.93 483.95C1046.48 497.46 1034.95 605.51 1033.51 619.02C1032.68 626.83 1026.09 632.75 1018.23 632.75" id="adLM1D4oW"></path><path d="M911.74 563.85C902.46 563.85 897.3 563.85 896.27 563.85C890.44 563.85 885.72 568.58 885.72 574.41C885.72 581.91 885.72 619.46 885.72 687.03L922.3 687.03C922.3 619.46 922.3 581.91 922.3 574.41C922.3 568.58 917.58 563.85 911.74 563.85" id="gDOYg1w3a"></path><path d="M961.24 687.03L843.23 687.03L843.23 696.47L961.24 696.47L961.24 687.03" id="a22iobMUW4"></path><path d="M858.58 687.03L719.68 687.03L719.68 696.47L858.58 696.47L858.58 687.03" id="a1qVhlMAue"></path><path d="M663.21 675.23C655.33 675.23 650.96 675.23 650.08 675.23C641.16 675.23 633.93 682.46 633.93 691.38C633.93 694.2 636.21 696.47 639.02 696.47C642.54 696.47 670.75 696.47 674.27 696.47C677.09 696.47 679.36 694.2 679.36 691.38C679.36 682.46 672.14 675.23 663.21 675.23" id="a2ROuDff7"></path><path d="M887.31 170.25C885.93 161.02 880.19 152.99 878.04 143.9C873.82 126.04 884.06 107.56 881.83 89.34C878.78 64.27 850.08 47.06 825.46 52.73C815.23 55.09 808.83 57.28 799.03 55.17C770.22 48.95 749.05 62.59 743.29 78.22C729.44 115.85 750.44 121.84 755.85 153.37C758.14 166.66 737.44 188.45 763.71 219.47C772.57 229.93 786.29 236.06 799.98 238.45C797.05 245.05 792.93 252.63 788.22 256.35C788.22 256.35 806.97 251.15 818.41 240.03C851.25 240.52 896.18 229.26 887.31 170.25" id="b9j9mtDZC"></path><path d="M840.98 177.58C835.67 170.98 832.72 167.32 832.13 166.59C829.63 163.47 825.06 162.97 821.94 165.49C821.67 165.7 819.54 167.42 819.27 167.63C817.71 168.89 815.42 168.64 814.17 167.08C813.44 166.17 809.78 161.63 803.2 153.45L801.88 151.82C795.3 143.64 791.64 139.09 790.91 138.19C789.66 136.62 789.9 134.34 791.47 133.08C791.73 132.86 793.86 131.15 794.13 130.94C797.25 128.43 797.74 123.86 795.24 120.74C794.35 119.65 787.27 110.85 786.38 109.75C783.88 106.63 779.31 106.14 776.19 108.65C775.9 108.88 773.58 110.76 773.29 110.99C765.71 117.09 764.5 128.19 770.61 135.77C771.06 136.34 773.36 139.19 777.49 144.33L790.74 160.79L792.05 162.42L805.3 178.88C809.43 184.01 811.73 186.86 812.19 187.43C818.29 195.02 829.38 196.21 836.97 190.11C837.26 189.88 839.59 188.01 839.88 187.77C843 185.26 843.49 180.7 840.98 177.58" id="fONJqr3y7"></path><path d="M830.71 152.52C830.61 152.52 830.51 152.51 830.41 152.49C829.5 152.33 828.89 151.46 829.06 150.55C830.29 143.62 829.24 138.04 825.95 133.96C820.32 127.01 809.86 126.56 809.76 126.55C808.83 126.53 808.1 125.75 808.14 124.83C808.17 123.9 809.03 123.17 809.86 123.21C810.35 123.22 821.93 123.69 828.53 131.83C832.49 136.7 833.77 143.19 832.35 151.13C832.21 151.95 831.5 152.52 830.71 152.52" id="dzMd1Quft"></path><path d="M841.24 151.96C841.19 151.96 841.14 151.96 841.08 151.96C840.17 151.87 839.49 151.05 839.57 150.13C842.4 120.22 813.64 116.52 812.41 116.37C811.49 116.27 810.83 115.44 810.94 114.52C811.05 113.6 811.89 112.95 812.79 113.05C813.13 113.08 846.04 117.24 842.91 150.45C842.83 151.31 842.1 151.96 841.24 151.96" id="eYzEM3Sb6"></path><path d="M851.67 150.17C850.75 150.17 850.01 149.43 850 148.51C849.77 114.31 817.6 106.84 816.23 106.54C815.33 106.34 814.75 105.44 814.95 104.55C815.15 103.64 816.05 103.07 816.94 103.26C817.3 103.34 853.11 111.58 853.35 148.48C853.35 149.41 852.61 150.16 851.69 150.17C851.68 150.17 851.67 150.17 851.67 150.17" id="bcxOBC7tG"></path><path d="M1147.35 175.68C1137.89 165.62 1123.36 162.65 1110.91 156.69C1092.69 147.97 1078.65 132.59 1065.72 117.07C1051.65 100.18 1033.91 78.71 1010.04 78.37C985.1 78.03 959.9 93.41 944.14 111.74C926.32 132.46 916.78 159.3 913.1 186.37C910.38 206.39 910.85 227.57 919.69 245.74C921.94 250.35 924.83 254.72 928.21 258.66C924.31 265.64 918.49 274.1 911.64 277.92C911.64 277.92 929.95 277.41 941.69 270.21C949.45 275 958.28 277.73 967.43 277.29C982.58 276.56 997.63 267.66 1012.15 272.05C1019.4 274.23 1025.26 279.47 1031.36 283.95C1054.45 300.96 1086.26 308.34 1112.43 296.65C1143.12 282.94 1158.47 246.85 1158.71 213.24C1158.81 199.83 1156.53 185.45 1147.35 175.68" id="baZRPgCHC"></path><path d="M1090.92 252.7L964.67 252.7L964.67 160.95L1090.92 160.95L1090.92 252.7" id="g2S0z9hxn"></path><path d="M975.19 170.63C973.81 170.63 972.68 169.51 972.68 168.12C972.68 166.9 972.68 157.15 972.68 155.93C972.68 154.55 973.81 153.42 975.19 153.42C976.58 153.42 977.7 154.55 977.7 155.93C977.7 157.15 977.7 166.9 977.7 168.12C977.7 169.51 976.58 170.63 975.19 170.63" id="d4KuXRjyOE"></path><path d="M990.22 170.63C988.83 170.63 987.71 169.51 987.71 168.12C987.71 166.9 987.71 157.15 987.71 155.93C987.71 154.55 988.83 153.42 990.22 153.42C991.61 153.42 992.73 154.55 992.73 155.93C992.73 157.15 992.73 166.9 992.73 168.12C992.73 169.51 991.61 170.63 990.22 170.63" id="d1rHCBneI3"></path><path d="M1005.25 170.63C1003.87 170.63 1002.74 169.51 1002.74 168.12C1002.74 166.9 1002.74 157.15 1002.74 155.93C1002.74 154.55 1003.87 153.42 1005.25 153.42C1006.64 153.42 1007.77 154.55 1007.77 155.93C1007.77 157.15 1007.77 166.9 1007.77 168.12C1007.77 169.51 1006.64 170.63 1005.25 170.63" id="bGMMzwmIh"></path><path d="M1020.29 170.63C1018.9 170.63 1017.77 169.51 1017.77 168.12C1017.77 166.9 1017.77 157.15 1017.77 155.93C1017.77 154.55 1018.9 153.42 1020.29 153.42C1021.67 153.42 1022.8 154.55 1022.8 155.93C1022.8 157.15 1022.8 166.9 1022.8 168.12C1022.8 169.51 1021.67 170.63 1020.29 170.63" id="hadhoGJv6"></path><path d="M1035.31 170.63C1033.93 170.63 1032.8 169.51 1032.8 168.12C1032.8 166.9 1032.8 157.15 1032.8 155.93C1032.8 154.55 1033.93 153.42 1035.31 153.42C1036.7 153.42 1037.83 154.55 1037.83 155.93C1037.83 157.15 1037.83 166.9 1037.83 168.12C1037.83 169.51 1036.7 170.63 1035.31 170.63" id="hgX3TZQK8"></path><path d="M1050.34 170.63C1048.95 170.63 1047.83 169.51 1047.83 168.12C1047.83 166.9 1047.83 157.15 1047.83 155.93C1047.83 154.55 1048.95 153.42 1050.34 153.42C1051.73 153.42 1052.85 154.55 1052.85 155.93C1052.85 157.15 1052.85 166.9 1052.85 168.12C1052.85 169.51 1051.73 170.63 1050.34 170.63" id="cMMdMnpOI"></path><path d="M1065.37 170.63C1063.99 170.63 1062.86 169.51 1062.86 168.12C1062.86 166.9 1062.86 157.15 1062.86 155.93C1062.86 154.55 1063.99 153.42 1065.37 153.42C1066.76 153.42 1067.89 154.55 1067.89 155.93C1067.89 157.15 1067.89 166.9 1067.89 168.12C1067.89 169.51 1066.76 170.63 1065.37 170.63" id="aKPMH1DyV"></path><path d="M1080.4 170.63C1079.01 170.63 1077.89 169.51 1077.89 168.12C1077.89 166.9 1077.89 157.15 1077.89 155.93C1077.89 154.55 1079.01 153.42 1080.4 153.42C1081.79 153.42 1082.91 154.55 1082.91 155.93C1082.91 157.15 1082.91 166.9 1082.91 168.12C1082.91 169.51 1081.79 170.63 1080.4 170.63" id="a3hg5685X"></path><path d="M1013.46 194.74L1000.63 194.74L1000.63 181.92L1013.46 181.92L1013.46 194.74" id="a4dWenBq2h"></path><path d="M1033.57 194.74L1020.74 194.74L1020.74 181.92L1033.57 181.92L1033.57 194.74" id="c1JbGZa0"></path><path d="M1053.68 194.74L1040.85 194.74L1040.85 181.92L1053.68 181.92L1053.68 194.74" id="bCILjagVW"></path><path d="M1073.79 194.74L1060.96 194.74L1060.96 181.92L1073.79 181.92L1073.79 194.74" id="c6YM6y4Y6"></path><path d="M993.35 213.24L980.53 213.24L980.53 200.41L993.35 200.41L993.35 213.24" id="b6Qw8LMui"></path><path d="M1013.46 213.24L1000.63 213.24L1000.63 200.41L1013.46 200.41L1013.46 213.24" id="b6fxuzMLNw"></path><path d="M1033.57 213.24L1020.74 213.24L1020.74 200.41L1033.57 200.41L1033.57 213.24" id="e4f9Ul6I1"></path><path d="M1053.68 213.24L1040.85 213.24L1040.85 200.41L1053.68 200.41L1053.68 213.24" id="eQhv3aNeB"></path><path d="M1073.79 213.24L1060.96 213.24L1060.96 200.41L1073.79 200.41L1073.79 213.24" id="fdueHTf6"></path><path d="M993.35 231.72L980.53 231.72L980.53 218.9L993.35 218.9L993.35 231.72" id="c3yDWPBZDR"></path><path d="M1013.46 231.72L1000.63 231.72L1000.63 218.9L1013.46 218.9L1013.46 231.72" id="a2I6306OR"></path><path d="M1033.57 231.72L1020.74 231.72L1020.74 218.9L1033.57 218.9L1033.57 231.72" id="b1VK5hRzA"></path><path d="M1053.68 231.72L1040.85 231.72L1040.85 218.9L1053.68 218.9L1053.68 231.72" id="bpe5n1Pmm"></path><path d="M508.07 152.87C474.44 177.36 433.25 152.7 411.13 200.18C402 219.76 405.62 238.83 414.8 259.78C425.46 284.11 440.61 293.7 462.52 294.8C475.17 295.44 485.79 289.94 498.09 282.4C507.03 287.86 519.12 293.64 530.3 293.7C530.3 293.7 520.52 286.62 517.4 270.56C522.06 267.85 527.05 265.15 532.5 262.56C566.68 246.32 578.88 260.96 599.51 235.98C633.22 195.15 578.15 101.84 508.07 152.87" id="hTP1KZGt"></path><path d="M544.71 175.78C552.58 203.75 556.96 219.3 557.83 222.41C558.4 224.44 557.96 226.5 556.84 228.11C555.98 229.32 554.71 230.26 553.18 230.7C544.75 233.07 477.29 252.05 468.86 254.42C467.33 254.86 465.75 254.73 464.39 254.12C462.59 253.36 461.14 251.81 460.57 249.77C459.25 245.11 448.76 207.8 447.44 203.14C446.87 201.11 447.3 199.03 448.43 197.44C449.3 196.23 450.57 195.3 452.1 194.88C460.53 192.51 528 173.52 536.43 171.15C537.96 170.72 539.53 170.86 540.89 171.43C542.7 172.22 544.13 173.74 544.71 175.78" id="ehhJG6VKu"></path><path d="M516.85 208.77C540.85 220.38 554.17 226.82 556.84 228.11C555.98 229.32 554.71 230.26 553.18 230.7C552.9 230.78 551.49 231.17 548.96 231.88L513.13 214.56C509.94 219.52 508.17 222.28 507.81 222.83C507.33 223.55 506.65 224.05 505.86 224.27C505.1 224.49 504.23 224.42 503.46 224.05C502.87 223.76 499.92 222.34 494.6 219.78L473.08 253.23L464.39 254.12L488.42 216.77C464.43 205.18 451.1 198.73 448.43 197.44C449.3 196.23 450.57 195.3 452.1 194.88C452.38 194.8 453.79 194.4 456.31 193.69L503.71 216.6L532.21 172.34C534.74 171.62 536.15 171.23 536.43 171.15C537.96 170.72 539.53 170.86 540.89 171.43C539.29 173.92 531.28 186.37 516.85 208.77" id="icgqMVXSa"></path><path d="M715.63 143.71C712.11 137.83 706.21 132.98 705.31 126.19C704.88 122.9 704.9 119.36 706.21 116.32C714.34 97.36 708.53 75.94 691.58 63.25C678.09 53.16 659.95 50.78 645.07 57.62C622.55 67.98 609.63 87.92 620.81 119.91C623.94 128.86 628.11 137.78 628.14 147.26C628.16 154.58 622.97 172.54 638.46 188.95C647.8 198.83 659.59 202.92 671.85 202.21C673.35 206.72 674.84 214.58 673.18 226.12C673.18 226.12 688.11 213.62 689.28 198.19C725.72 185.63 721.07 152.75 715.63 143.71" id="d2ZMPK5Ta1"></path><path d="M661.8 155.87C658.5 155.87 655.82 158.54 655.82 161.85C655.82 165.15 658.5 167.83 661.8 167.83C665.1 167.83 667.78 165.15 667.78 161.85C667.78 158.54 665.1 155.87 661.8 155.87" id="d5nPUg34yf"></path><path d="M677.91 101.58C673.85 97.52 668.39 95.49 661.52 95.49C655 95.49 649.72 97.5 645.71 101.51C643.8 103.42 642.31 105.53 641.24 107.83C639.42 111.74 641.74 116.51 645.61 117.06C648.05 117.4 650.41 115.91 651.42 113.39C652.19 111.46 653.18 109.91 654.41 108.74C656.45 106.78 658.99 105.8 662.03 105.8C665.18 105.8 667.69 106.74 669.54 108.62C671.4 110.49 672.33 112.75 672.33 115.39C672.33 117.28 671.81 119.01 670.75 120.59C670.07 121.58 667.99 123.69 664.5 126.89C661.01 130.11 658.68 133 657.52 135.57C657.01 136.69 656.62 139.31 656.34 141.91C655.97 145.49 658.46 148.62 661.63 148.62C664.25 148.62 666.51 146.45 666.88 143.52C667.02 142.4 667.22 141.52 667.5 140.87C668.11 139.42 669.68 137.51 672.2 135.14C677.08 130.54 680.27 126.91 681.76 124.25C683.25 121.58 683.99 118.76 683.99 115.77C683.99 110.38 681.96 105.65 677.91 101.58" id="fECxSoxuA"></path></defs><g><g><g><use xlink:href="#cABkKTnDA" opacity="1" fill="#e8e1ff" fill-opacity="1"></use><g><use xlink:href="#cABkKTnDA" opacity="1" fill-opacity="0" stroke="#000000" stroke-width="1" stroke-opacity="0"></use></g></g><g><use xlink:href="#b5HIkmhgkZ" opacity="1" fill="#d3beff" fill-opacity="1"></use><g><use xlink:href="#b5HIkmhgkZ" opacity="1" fill-opacity="0" stroke="#000000" stroke-width="1" stroke-opacity="0"></use></g></g><g><use xlink:href="#m3ntSG5SR5" opacity="1" fill="#ffffff" fill-opacity="1"></use><g><use xlink:href="#m3ntSG5SR5" opacity="1" fill-opacity="0" stroke="#000000" stroke-width="1" stroke-opacity="0"></use></g></g><g><use xlink:href="#bWQgZDrtV" opacity="1" fill="#ffffff" fill-opacity="1"></use><g><use xlink:href="#bWQgZDrtV" opacity="1" fill-opacity="0" stroke="#000000" stroke-width="1" stroke-opacity="0"></use></g></g><g><use xlink:href="#a1FPUiZqf" opacity="1" fill="#ffffff" fill-opacity="1"></use><g><use xlink:href="#a1FPUiZqf" opacity="1" fill-opacity="0" stroke="#000000" stroke-width="1" stroke-opacity="0"></use></g></g><g><use xlink:href="#b7IovzYmV" opacity="1" fill="#ffffff" fill-opacity="1"></use><g><use xlink:href="#b7IovzYmV" opacity="1" fill-opacity="0" stroke="#000000" stroke-width="1" stroke-opacity="0"></use></g></g><g><use xlink:href="#pmlDDrPk6" opacity="1" fill="#b7a5ef" fill-opacity="1"></use><g><use xlink:href="#pmlDDrPk6" opacity="1" fill-opacity="0" stroke="#000000" stroke-width="1" stroke-opacity="0"></use></g></g><g><use xlink:href="#fFc45xJDr" opacity="1" fill="#ffffff" fill-opacity="1"></use><g><use xlink:href="#fFc45xJDr" opacity="1" fill-opacity="0" stroke="#000000" stroke-width="1" stroke-opacity="0"></use></g></g><g><use xlink:href="#afWuFrwXw" opacity="1" fill="#ffffff" fill-opacity="1"></use><g><use xlink:href="#afWuFrwXw" opacity="1" fill-opacity="0" stroke="#000000" stroke-width="1" stroke-opacity="0"></use></g></g><g><use xlink:href="#ab2i7YtFM" opacity="1" fill="#ffffff" fill-opacity="1"></use><g><use xlink:href="#ab2i7YtFM" opacity="1" fill-opacity="0" stroke="#000000" stroke-width="1" stroke-opacity="0"></use></g></g><g><use xlink:href="#b2ca8ESZSi" opacity="1" fill="#b7a5ef" fill-opacity="1"></use><g><use xlink:href="#b2ca8ESZSi" opacity="1" fill-opacity="0" stroke="#000000" stroke-width="1" stroke-opacity="0"></use></g></g><g><use xlink:href="#bqzR2Cjm5" opacity="1" fill="#ffffff" fill-opacity="1"></use><g><use xlink:href="#bqzR2Cjm5" opacity="1" fill-opacity="0" stroke="#000000" stroke-width="1" stroke-opacity="0"></use></g></g><g><use xlink:href="#b6O8tsqCIW" opacity="1" fill="#ffffff" fill-opacity="1"></use><g><use xlink:href="#b6O8tsqCIW" opacity="1" fill-opacity="0" stroke="#000000" stroke-width="1" stroke-opacity="0"></use></g></g><g><use xlink:href="#b4Xm735bBX" opacity="1" fill="#ffffff" fill-opacity="1"></use><g><use xlink:href="#b4Xm735bBX" opacity="1" fill-opacity="0" stroke="#000000" stroke-width="1" stroke-opacity="0"></use></g></g><g><use xlink:href="#b1myIhzWaK" opacity="1" fill="#d3beff" fill-opacity="1"></use><g><use xlink:href="#b1myIhzWaK" opacity="1" fill-opacity="0" stroke="#000000" stroke-width="1" stroke-opacity="0"></use></g></g><g><use xlink:href="#c4AaxS78o2" opacity="1" fill="#ffffff" fill-opacity="1"></use><g><use xlink:href="#c4AaxS78o2" opacity="1" fill-opacity="0" stroke="#000000" stroke-width="1" stroke-opacity="0"></use></g></g><g><use xlink:href="#b1mpoGveky" opacity="1" fill="#ffffff" fill-opacity="1"></use><g><use xlink:href="#b1mpoGveky" opacity="1" fill-opacity="0" stroke="#000000" stroke-width="1" stroke-opacity="0"></use></g></g><g><use xlink:href="#b2B74zcaZi" opacity="1" fill="#ffffff" fill-opacity="1"></use><g><use xlink:href="#b2B74zcaZi" opacity="1" fill-opacity="0" stroke="#000000" stroke-width="1" stroke-opacity="0"></use></g></g><g><use xlink:href="#a680sBk6P" opacity="1" fill="#ffffff" fill-opacity="1"></use><g><use xlink:href="#a680sBk6P" opacity="1" fill-opacity="0" stroke="#000000" stroke-width="1" stroke-opacity="0"></use></g></g><g><use xlink:href="#bgtFyMSAg" opacity="1" fill="#363b8c" fill-opacity="1"></use><g><use xlink:href="#bgtFyMSAg" opacity="1" fill-opacity="0" stroke="#000000" stroke-width="1" stroke-opacity="0"></use></g></g><g><use xlink:href="#aGobRp3na" opacity="1" fill="#da6f2b" fill-opacity="1"></use><g><use xlink:href="#aGobRp3na" opacity="1" fill-opacity="0" stroke="#000000" stroke-width="1" stroke-opacity="0"></use></g></g><g><use xlink:href="#a1Kf5RaPgt" opacity="1" fill="#ffbb8e" fill-opacity="1"></use><g><use xlink:href="#a1Kf5RaPgt" opacity="1" fill-opacity="0" stroke="#000000" stroke-width="1" stroke-opacity="0"></use></g></g><g><use xlink:href="#g3m8ty200B" opacity="1" fill="#ed7d2b" fill-opacity="1"></use><g><use xlink:href="#g3m8ty200B" opacity="1" fill-opacity="0" stroke="#000000" stroke-width="1" stroke-opacity="0"></use></g></g><g><use xlink:href="#cnCX5aFm7" opacity="1" fill="#eaa27c" fill-opacity="1"></use><g><use xlink:href="#cnCX5aFm7" opacity="1" fill-opacity="0" stroke="#000000" stroke-width="1" stroke-opacity="0"></use></g></g><g><use xlink:href="#b15mepQplH" opacity="1" fill="#ffbb8e" fill-opacity="1"></use><g><use xlink:href="#b15mepQplH" opacity="1" fill-opacity="0" stroke="#000000" stroke-width="1" stroke-opacity="0"></use></g></g><g><use xlink:href="#b9Z37n6Fp" opacity="1" fill="#da6f2b" fill-opacity="1"></use><g><use xlink:href="#b9Z37n6Fp" opacity="1" fill-opacity="0" stroke="#000000" stroke-width="1" stroke-opacity="0"></use></g></g><g><use xlink:href="#f18nm2Xu4c" opacity="1" fill="#da6f2b" fill-opacity="1"></use><g><use xlink:href="#f18nm2Xu4c" opacity="1" fill-opacity="0" stroke="#000000" stroke-width="1" stroke-opacity="0"></use></g></g><g><use xlink:href="#bGq0eWxOO" opacity="1" fill="#da6f2b" fill-opacity="1"></use><g><use xlink:href="#bGq0eWxOO" opacity="1" fill-opacity="0" stroke="#000000" stroke-width="1" stroke-opacity="0"></use></g></g><g><use xlink:href="#hbrdB9NAOX" opacity="1" fill="#4b4df8" fill-opacity="1"></use><g><use xlink:href="#hbrdB9NAOX" opacity="1" fill-opacity="0" stroke="#000000" stroke-width="1" stroke-opacity="0"></use></g></g><g><use xlink:href="#aXPrXXLpi" opacity="1" fill="#ffbb8e" fill-opacity="1"></use><g><use xlink:href="#aXPrXXLpi" opacity="1" fill-opacity="0" stroke="#000000" stroke-width="1" stroke-opacity="0"></use></g></g><g><use xlink:href="#a5jcChd5Ml" opacity="1" fill="#e38e63" fill-opacity="1"></use><g><use xlink:href="#a5jcChd5Ml" opacity="1" fill-opacity="0" stroke="#000000" stroke-width="1" stroke-opacity="0"></use></g></g><g><use xlink:href="#e1qFqfUlaD" opacity="1" fill="#000000" fill-opacity="1"></use><g><use xlink:href="#e1qFqfUlaD" opacity="1" fill-opacity="0" stroke="#000000" stroke-width="1" stroke-opacity="0"></use></g></g><g><use xlink:href="#d1ew2sYkxU" opacity="1" fill="#4b4df8" fill-opacity="1"></use><g><use xlink:href="#d1ew2sYkxU" opacity="1" fill-opacity="0" stroke="#000000" stroke-width="1" stroke-opacity="0"></use></g></g><g><use xlink:href="#b3TxRnDozu" opacity="1" fill="#4b4df8" fill-opacity="1"></use><g><use xlink:href="#b3TxRnDozu" opacity="1" fill-opacity="0" stroke="#000000" stroke-width="1" stroke-opacity="0"></use></g></g><g><use xlink:href="#ah52bc4ll" opacity="1" fill="#4b4df8" fill-opacity="1"></use><g><use xlink:href="#ah52bc4ll" opacity="1" fill-opacity="0" stroke="#000000" stroke-width="1" stroke-opacity="0"></use></g></g><g><use xlink:href="#aTrT8aiDJ" opacity="1" fill="#4a4ff0" fill-opacity="1"></use><g><use xlink:href="#aTrT8aiDJ" opacity="1" fill-opacity="0" stroke="#000000" stroke-width="1" stroke-opacity="0"></use></g></g><g><use xlink:href="#b2skG4CmVh" opacity="1" fill="#e28d60" fill-opacity="1"></use><g><use xlink:href="#b2skG4CmVh" opacity="1" fill-opacity="0" stroke="#000000" stroke-width="1" stroke-opacity="0"></use></g></g><g><use xlink:href="#acxXMqqK" opacity="1" fill="#7579ff" fill-opacity="1"></use><g><use xlink:href="#acxXMqqK" opacity="1" fill-opacity="0" stroke="#000000" stroke-width="1" stroke-opacity="0"></use></g></g><g><use xlink:href="#c2iMWUAD4" opacity="1" fill="#000000" fill-opacity="1"></use><g><use xlink:href="#c2iMWUAD4" opacity="1" fill-opacity="0" stroke="#000000" stroke-width="1" stroke-opacity="0"></use></g></g><g><use xlink:href="#lHAXMB2fF" opacity="1" fill="#000000" fill-opacity="1"></use><g><use xlink:href="#lHAXMB2fF" opacity="1" fill-opacity="0" stroke="#000000" stroke-width="1" stroke-opacity="0"></use></g></g><g><use xlink:href="#bRN8KwpPT" opacity="1" fill="#000000" fill-opacity="1"></use><g><use xlink:href="#bRN8KwpPT" opacity="1" fill-opacity="0" stroke="#000000" stroke-width="1" stroke-opacity="0"></use></g></g><g><use xlink:href="#a1gnhe9mQc" opacity="1" fill="#000000" fill-opacity="1"></use><g><use xlink:href="#a1gnhe9mQc" opacity="1" fill-opacity="0" stroke="#000000" stroke-width="1" stroke-opacity="0"></use></g></g><g><use xlink:href="#a1QdsGiBSd" opacity="1" fill="#b7a5ef" fill-opacity="1"></use><g><use xlink:href="#a1QdsGiBSd" opacity="1" fill-opacity="0" stroke="#000000" stroke-width="1" stroke-opacity="0"></use></g></g><g><use xlink:href="#k42tRgxn3Z" opacity="1" fill="#d3beff" fill-opacity="1"></use><g><use xlink:href="#k42tRgxn3Z" opacity="1" fill-opacity="0" stroke="#000000" stroke-width="1" stroke-opacity="0"></use></g></g><g><use xlink:href="#b2aodhIPMS" opacity="1" fill="#4b4df9" fill-opacity="1"></use><g><use xlink:href="#b2aodhIPMS" opacity="1" fill-opacity="0" stroke="#000000" stroke-width="1" stroke-opacity="0"></use></g></g><g><use xlink:href="#adLM1D4oW" opacity="1" fill="#363b8c" fill-opacity="1"></use><g><use xlink:href="#adLM1D4oW" opacity="1" fill-opacity="0" stroke="#000000" stroke-width="1" stroke-opacity="0"></use></g></g><g><use xlink:href="#gDOYg1w3a" opacity="1" fill="#4b4df8" fill-opacity="1"></use><g><use xlink:href="#gDOYg1w3a" opacity="1" fill-opacity="0" stroke="#000000" stroke-width="1" stroke-opacity="0"></use></g></g><g><use xlink:href="#a22iobMUW4" opacity="1" fill="#363d85" fill-opacity="1"></use><g><use xlink:href="#a22iobMUW4" opacity="1" fill-opacity="0" stroke="#000000" stroke-width="1" stroke-opacity="0"></use></g></g><g><use xlink:href="#a1qVhlMAue" opacity="1" fill="#494ef6" fill-opacity="1"></use><g><use xlink:href="#a1qVhlMAue" opacity="1" fill-opacity="0" stroke="#000000" stroke-width="1" stroke-opacity="0"></use></g></g><g><use xlink:href="#a2ROuDff7" opacity="1" fill="#4b4df8" fill-opacity="1"></use><g><use xlink:href="#a2ROuDff7" opacity="1" fill-opacity="0" stroke="#000000" stroke-width="1" stroke-opacity="0"></use></g></g><g><use xlink:href="#b9j9mtDZC" opacity="1" fill="#d3beff" fill-opacity="1"></use><g><use xlink:href="#b9j9mtDZC" opacity="1" fill-opacity="0" stroke="#000000" stroke-width="1" stroke-opacity="0"></use></g></g><g><use xlink:href="#fONJqr3y7" opacity="1" fill="#4b4df8" fill-opacity="1"></use><g><use xlink:href="#fONJqr3y7" opacity="1" fill-opacity="0" stroke="#000000" stroke-width="1" stroke-opacity="0"></use></g></g><g><use xlink:href="#dzMd1Quft" opacity="1" fill="#ffffff" fill-opacity="1"></use><g><use xlink:href="#dzMd1Quft" opacity="1" fill-opacity="0" stroke="#000000" stroke-width="1" stroke-opacity="0"></use></g></g><g><use xlink:href="#eYzEM3Sb6" opacity="1" fill="#ffffff" fill-opacity="1"></use><g><use xlink:href="#eYzEM3Sb6" opacity="1" fill-opacity="0" stroke="#000000" stroke-width="1" stroke-opacity="0"></use></g></g><g><use xlink:href="#bcxOBC7tG" opacity="1" fill="#ffffff" fill-opacity="1"></use><g><use xlink:href="#bcxOBC7tG" opacity="1" fill-opacity="0" stroke="#000000" stroke-width="1" stroke-opacity="0"></use></g></g><g><use xlink:href="#baZRPgCHC" opacity="1" fill="#fec279" fill-opacity="1"></use><g><use xlink:href="#baZRPgCHC" opacity="1" fill-opacity="0" stroke="#000000" stroke-width="1" stroke-opacity="0"></use></g></g><g><use xlink:href="#g2S0z9hxn" opacity="1" fill="#ffffff" fill-opacity="1"></use><g><use xlink:href="#g2S0z9hxn" opacity="1" fill-opacity="0" stroke="#000000" stroke-width="1" stroke-opacity="0"></use></g></g><g><use xlink:href="#d4KuXRjyOE" opacity="1" fill="#4b4df8" fill-opacity="1"></use><g><use xlink:href="#d4KuXRjyOE" opacity="1" fill-opacity="0" stroke="#000000" stroke-width="1" stroke-opacity="0"></use></g></g><g><use xlink:href="#d1rHCBneI3" opacity="1" fill="#4b4df8" fill-opacity="1"></use><g><use xlink:href="#d1rHCBneI3" opacity="1" fill-opacity="0" stroke="#000000" stroke-width="1" stroke-opacity="0"></use></g></g><g><use xlink:href="#bGMMzwmIh" opacity="1" fill="#4b4df8" fill-opacity="1"></use><g><use xlink:href="#bGMMzwmIh" opacity="1" fill-opacity="0" stroke="#000000" stroke-width="1" stroke-opacity="0"></use></g></g><g><use xlink:href="#hadhoGJv6" opacity="1" fill="#4b4df8" fill-opacity="1"></use><g><use xlink:href="#hadhoGJv6" opacity="1" fill-opacity="0" stroke="#000000" stroke-width="1" stroke-opacity="0"></use></g></g><g><use xlink:href="#hgX3TZQK8" opacity="1" fill="#4b4df8" fill-opacity="1"></use><g><use xlink:href="#hgX3TZQK8" opacity="1" fill-opacity="0" stroke="#000000" stroke-width="1" stroke-opacity="0"></use></g></g><g><use xlink:href="#cMMdMnpOI" opacity="1" fill="#4b4df8" fill-opacity="1"></use><g><use xlink:href="#cMMdMnpOI" opacity="1" fill-opacity="0" stroke="#000000" stroke-width="1" stroke-opacity="0"></use></g></g><g><use xlink:href="#aKPMH1DyV" opacity="1" fill="#4b4df8" fill-opacity="1"></use><g><use xlink:href="#aKPMH1DyV" opacity="1" fill-opacity="0" stroke="#000000" stroke-width="1" stroke-opacity="0"></use></g></g><g><use xlink:href="#a3hg5685X" opacity="1" fill="#4b4df8" fill-opacity="1"></use><g><use xlink:href="#a3hg5685X" opacity="1" fill-opacity="0" stroke="#000000" stroke-width="1" stroke-opacity="0"></use></g></g><g><use xlink:href="#a4dWenBq2h" opacity="1" fill="#d1beff" fill-opacity="1"></use><g><use xlink:href="#a4dWenBq2h" opacity="1" fill-opacity="0" stroke="#000000" stroke-width="1" stroke-opacity="0"></use></g></g><g><use xlink:href="#c1JbGZa0" opacity="1" fill="#d3beff" fill-opacity="1"></use><g><use xlink:href="#c1JbGZa0" opacity="1" fill-opacity="0" stroke="#000000" stroke-width="1" stroke-opacity="0"></use></g></g><g><use xlink:href="#bCILjagVW" opacity="1" fill="#d3beff" fill-opacity="1"></use><g><use xlink:href="#bCILjagVW" opacity="1" fill-opacity="0" stroke="#000000" stroke-width="1" stroke-opacity="0"></use></g></g><g><use xlink:href="#c6YM6y4Y6" opacity="1" fill="#f9c47f" fill-opacity="1"></use><g><use xlink:href="#c6YM6y4Y6" opacity="1" fill-opacity="0" stroke="#000000" stroke-width="1" stroke-opacity="0"></use></g></g><g><use xlink:href="#b6Qw8LMui" opacity="1" fill="#fec279" fill-opacity="1"></use><g><use xlink:href="#b6Qw8LMui" opacity="1" fill-opacity="0" stroke="#000000" stroke-width="1" stroke-opacity="0"></use></g></g><g><use xlink:href="#b6fxuzMLNw" opacity="1" fill="#d2beff" fill-opacity="1"></use><g><use xlink:href="#b6fxuzMLNw" opacity="1" fill-opacity="0" stroke="#000000" stroke-width="1" stroke-opacity="0"></use></g></g><g><use xlink:href="#e4f9Ul6I1" opacity="1" fill="#d3bffc" fill-opacity="1"></use><g><use xlink:href="#e4f9Ul6I1" opacity="1" fill-opacity="0" stroke="#000000" stroke-width="1" stroke-opacity="0"></use></g></g><g><use xlink:href="#eQhv3aNeB" opacity="1" fill="#d3beff" fill-opacity="1"></use><g><use xlink:href="#eQhv3aNeB" opacity="1" fill-opacity="0" stroke="#000000" stroke-width="1" stroke-opacity="0"></use></g></g><g><use xlink:href="#fdueHTf6" opacity="1" fill="#ffc172" fill-opacity="1"></use><g><use xlink:href="#fdueHTf6" opacity="1" fill-opacity="0" stroke="#000000" stroke-width="1" stroke-opacity="0"></use></g></g><g><use xlink:href="#c3yDWPBZDR" opacity="1" fill="#fec279" fill-opacity="1"></use><g><use xlink:href="#c3yDWPBZDR" opacity="1" fill-opacity="0" stroke="#000000" stroke-width="1" stroke-opacity="0"></use></g></g><g><use xlink:href="#a2I6306OR" opacity="1" fill="#d3beff" fill-opacity="1"></use><g><use xlink:href="#a2I6306OR" opacity="1" fill-opacity="0" stroke="#000000" stroke-width="1" stroke-opacity="0"></use></g></g><g><use xlink:href="#b1VK5hRzA" opacity="1" fill="#d3bffc" fill-opacity="1"></use><g><use xlink:href="#b1VK5hRzA" opacity="1" fill-opacity="0" stroke="#000000" stroke-width="1" stroke-opacity="0"></use></g></g><g><use xlink:href="#bpe5n1Pmm" opacity="1" fill="#d3bffc" fill-opacity="1"></use><g><use xlink:href="#bpe5n1Pmm" opacity="1" fill-opacity="0" stroke="#000000" stroke-width="1" stroke-opacity="0"></use></g></g><g><use xlink:href="#hTP1KZGt" opacity="1" fill="#feb483" fill-opacity="1"></use><g><use xlink:href="#hTP1KZGt" opacity="1" fill-opacity="0" stroke="#000000" stroke-width="1" stroke-opacity="0"></use></g></g><g><use xlink:href="#ehhJG6VKu" opacity="1" fill="#ffffff" fill-opacity="1"></use><g><use xlink:href="#ehhJG6VKu" opacity="1" fill-opacity="0" stroke="#000000" stroke-width="1" stroke-opacity="0"></use></g></g><g><use xlink:href="#icgqMVXSa" opacity="1" fill="#a5adfe" fill-opacity="1"></use><g><use xlink:href="#icgqMVXSa" opacity="1" fill-opacity="0" stroke="#000000" stroke-width="1" stroke-opacity="0"></use></g></g><g><use xlink:href="#d2ZMPK5Ta1" opacity="1" fill="#a5adfe" fill-opacity="1"></use><g><use xlink:href="#d2ZMPK5Ta1" opacity="1" fill-opacity="0" stroke="#000000" stroke-width="1" stroke-opacity="0"></use></g></g><g><use xlink:href="#d5nPUg34yf" opacity="1" fill="#ffffff" fill-opacity="1"></use><g><use xlink:href="#d5nPUg34yf" opacity="1" fill-opacity="0" stroke="#000000" stroke-width="1" stroke-opacity="0"></use></g></g><g><use xlink:href="#fECxSoxuA" opacity="1" fill="#ffffff" fill-opacity="1"></use><g><use xlink:href="#fECxSoxuA" opacity="1" fill-opacity="0" stroke="#000000" stroke-width="1" stroke-opacity="0"></use></g></g></g></g></svg>