<svg xmlns="http://www.w3.org/2000/svg" xmlns:xlink="http://www.w3.org/1999/xlink" width="779" height="680" viewBox="0 0 779 680">
    <defs>
        <ellipse id="a" cx="339.279" cy="339.753" rx="339.003" ry="339.501"/>
        <path id="b" d="M.26.05h78.638v67.591H.26z"/>
        <path id="d" d="M.577.29h.29v.288h-.29z"/>
        <path id="f" d="M.315.454h49.452v93.783H.315z"/>
        <path id="h" d="M.577 491.372h792.92V.578H.578z"/>
    </defs>
    <g fill="none" fill-rule="evenodd">
        <use fill="#EAF5ED" transform="translate(46.721)" xlink:href="#a"/>
        <g transform="translate(0 113)">
            <path fill="#FEFEFE" d="M65.882 142.514h57.139L105.03 33.386H16.7L.578 142.514h57.138v323.54H30.269c-8.73 0-15.81 7.086-15.81 15.828h94.68v-15.829H65.882V142.514z"/>
            <path fill="#CBCBCB" d="M631.019 407.692v61.459h14.219l11.298-62.972M165.417 403.444v65.707H151.2L139.9 406.179"/>
            <path fill="#E97F6F" d="M673.455 190.378l-1.303-15.604-5.001-11.924-9.13 2.393 9.144 10.759.611 5.849c.32 3.056.56 6.252 2.443 8.817.457.622 1.11 1.238 1.94 1.179.749-.054 1.359-.709 1.296-1.469"/>
            <path fill="#F39262" d="M686.515 190.193l-3.183-15.331-6.408-11.229-8.774 3.483 10.382 9.57 2.033 8.87c.49 2.135 1.73 4.545 3.548 5.845.294.209.62.39.976.44.894.12 1.603-.8 1.426-1.648"/>
            <path fill="#FAA92E" d="M353.105 146.761l.005.015.032.03-.037-.045"/>
            <path fill="#272361" d="M372.285 149.21c.131.095.219.148.219.148s-.056-.055-.22-.148"/>
            <path fill="#F79E68" d="M371.27 174.096l130.985-11.974-39.406-20.377-88.986-6.026z"/>
            <path fill="#F39262" d="M286.77 53.074l.064.763-11.82 9.254c.762 7.465-1.422 12.966-4.1 16.3 1.637 8.98.542 6.832 6.94 13.335 5.972 6.072 19.045 33.257 19.028 33.33l9.536.891L319.3 82.653l-32.53-29.579z"/>
            <path fill="#F05D59" d="M395.018 131.69l-31.04-13.978-53.6-23.04-14.502 19.707-21.345-42.647-9.817 8.497-44.563 3.187c-4.098.323-8.118 1.389-11.778 3.263-9.271 4.747-18.198 13.546-22.465 21.885-9.949 19.444-23.483 42.06-25.936 47.074h225.541l11.466-16.139c1.885-2.652.952-6.364-1.961-7.809"/>
            <path fill="#303146" d="M305.875 89.265l1.257 2.478c.367-.475.653-.842.852-1.095l-2.109-1.383zM308.29 90.27c-.018.015-.13.155-.306.378l.174.114.132-.492z"/>
            <path fill="#303146" d="M308.158 90.762l-.174-.115c-.199.254-.485.621-.852 1.096l.499.983.527-1.964z"/>
            <path fill="#6B1835" d="M339.282 39.292s8.013-2.915 6.869-10.141c-1.145-7.225-1.046-6.884-1.161-8.629-.114-1.745-9.742-9.915-9.742-9.915l-13.663 2.808"/>
            <path fill="#F79E68" d="M336.209 64.479l2.582-2.701a9.763 9.763 0 0 0 2.697-6.711l1.148-9.67a24.048 24.048 0 0 0-3.178-16.555l-3.958-6.487-44.167-5.29-6.849 50.926c-.383 2.845 4.849 11.64 6.417 14.044l3.13 4.803a24.147 24.147 0 0 0 16.868 10.73l5.066.711a6.728 6.728 0 0 0 7.567-5.54l.5-2.934 5.25-11.032 1.611.13c2.035.346 4.364-1.659 4.327-3.724l.989-10.7z"/>
            <path fill="#F79E68" d="M334.43 46.872l-20.804-5.692a7.278 7.278 0 0 0-2.56-.7c-.997 1.362-6.104 8.637-7.378 9.793l-4.497 4.08a3.461 3.461 0 0 1-4.049.44l-6.84-.31c-.794 1.966-1.703 3.975-2.784 5.819l-1.034 7.689c-.383 2.845 4.849 11.64 6.417 14.044l3.13 4.803a24.148 24.148 0 0 0 16.868 10.73l5.066.712a6.728 6.728 0 0 0 7.567-5.54l.5-2.935 5.25-11.032 1.611.13c2.034.346 4.364-1.659 4.326-3.724l.99-10.7 2.582-2.701a9.756 9.756 0 0 0 2.696-6.71l1.148-9.671c.293-1.719.392-3.45.31-5.167-3.42 3.888-8.515 6.642-8.515 6.642"/>
            <g transform="translate(267.361 .528)">
                <mask id="c" fill="#fff">
                    <use xlink:href="#b"/>
                </mask>
                <path fill="#6B1835" d="M77.024 18.113c-2.801-5.806-7.32-12.196-13.958-13.782-2.77-.66-5.365.046-8.132.187a27.94 27.94 0 0 1-8.477-.865c-2.733-.715-5.343-1.841-8.056-2.629-7.383-2.141-16.16-.745-22.2 4.112-4.146 3.336-6.263 8.361-8.418 13.077-1.078 2.36-2.237 4.632-3.58 6.851-1.425 2.354-3.133 4.578-3.636 7.358-.56 3.091-.32 6.255.443 9.384l-.003.003 6.715 25.832.377-.32c4.568-.342 7.718-3.56 10.058-7.547l1.622-12.063c1.483 1.692 3.262 2.996 5.394 3.566 9.94 2.662 16.48-7.114 18.323-11.2.261-.578.811-2.135 1.426-3.75 4.499 1.04 15.492 1.96 19.432-2.096 5.83-6.002 4.336-7.808 6.463-8.015l1.28 2.099a23.974 23.974 0 0 1 2.4 5.3l4.216-2.487c.454-5.158.143-9.219-1.689-13.015" mask="url(#c)"/>
            </g>
            <path fill="#BC9FAC" d="M662.909 155.638H139.242c-10.189 0-18.448 8.27-18.448 18.47v173.957h561.059V174.108c-.496-10.2-8.756-18.47-18.944-18.47"/>
            <path fill="#708092" d="M309.768 320.615c4.783 0 8.94 2.675 11.062 6.613h3.23c2.122-3.938 6.28-6.613 11.061-6.613h26.88c-10.207-20.047-38.345-81.446-24.544-124.794 1.535-4.819-3.345-9.253-8.351-7.607l-59.427 21.372a7.341 7.341 0 0 1-3.694.232l-63.688-13.814c-4.658-.906-8.733 3.087-7.628 7.483 3.939 15.679 3.517 47.522-4.82 70.18-7.745 21.05-7.431 38.098-6.414 46.948h126.333z"/>
            <path fill="#F2AAB3" d="M424.08 228.958c1.21-3.8-2.637-7.295-6.584-5.997l-33.331 10.961a58.717 58.717 0 0 1-28.76 2.008l-37.879-6.828c-3.672-.714-6.885 2.434-6.014 5.9 3.106 12.36 2.773 37.463-3.8 55.325-3.798 10.323-5.137 19.423-5.414 26.507H438.4c-9.539-21.162-23.374-59.443-14.32-87.876"/>
            <path fill="#F79E68" d="M692.166 194.097l-3.184-15.331-6.407-11.228-8.774 3.482 10.381 9.57 2.034 8.87c.49 2.136 1.73 4.546 3.548 5.845.294.21.62.39.976.439.894.122 1.603-.799 1.426-1.647"/>
            <path fill="#F79E68" d="M697.946 190.859c-.01-.021-5.706-13.764-5.706-13.764a4.782 4.782 0 0 0-.781-1.274l-11.016-12.895-30.493-18.865a8.508 8.508 0 0 0-2.869-1.119l-.113-.021-2.204 12.717h3.854c2.066.49 3.817 2.13 4.253 4.455.63 3.367 2.67 6.307 5.402 8.37l.38.288a14.858 14.858 0 0 1 4.334 5.211l6.501 11.45c.675 1.187 2.073 1.838 3.38 1.45a2.885 2.885 0 0 0 1.944-3.604l-4.356-14.41 17.12 10.24 3.657 8.33c.834 1.902 2.359 3.839 4.157 4.906.622.37 1.34.545 2 .162.586-.341.816-.998.556-1.627"/>
            <path fill="#E97F6F" d="M499.495 141.383l.15.02c.01.018-.046.01-.15-.02"/>
            <path fill="#F39262" d="M777.294 319.097c-.828-.203-1.744-.2-2.592-.321-.897-.128-1.793-.303-2.64-.637-2.24-.887-4.34-2.342-6.37-3.63-5.946-3.77-11.477-8.166-17.557-11.728-.664-.39-8.344-6.878-15.468-13.092l-8.65 3.98a15.236 15.236 0 0 1-1.963 9.443l-.026.043c-.924 1.56-2.177 2.92-3.003 4.534-.805 1.571-1.232 3.363-1.026 5.129.014.068.021.128.024.183.317 2.202 1.747 4.434 5.86 5.343.91.25 1.864.44 2.79.609 3.51.643 7.157 1.236 10.561 2.307 3.153.992 6.268 2.097 9.276 3.478 2.9 1.331 6.186 2.043 9.37 2.203 1.145.058 2.263-.067 3.412.136 1.39.247 2.663.962 4.066 1.143.48.061.977.048 1.441-.094.407-.125.815-.29 1.25-.27 1.113.052 2.3.489 3.313-.182.543-.358.78-.998 1.537-.94.558.043 1.07.307 1.619.397.54.089 1.144.044 1.56-.313.373-.321.42-.882.807-1.184.329-.257.787-.223 1.154-.4.489-.235.93-.591 1.132-1.11a1.91 1.91 0 0 0 .1-.916c-.007-.066-.099-.612-.054-.628.035-.012.07-.022.103-.035.153-.064.298-.147.432-.243.272-.194.49-.468.61-.781.369-.969-.009-2.164-1.068-2.424"/>
            <path fill="#F79E68" d="M769.436 322.908c-.867-.213-1.824-.21-2.711-.337-.938-.133-1.875-.317-2.76-.665-2.344-.928-4.54-2.45-6.662-3.796-6.218-3.943-12.002-8.54-18.36-12.266-.646-.377-7.637-6.272-14.604-12.323l-10.507 4.835a15.92 15.92 0 0 1-2.19 7.88c-.967 1.63-2.277 3.053-3.141 4.742-.842 1.642-1.289 3.516-1.073 5.363.015.071.022.135.025.191.332 2.303 1.827 4.637 6.129 5.588.95.26 1.95.46 2.918.637 3.67.672 7.483 1.293 11.043 2.412 3.298 1.038 6.555 2.193 9.7 3.637 3.033 1.393 6.47 2.137 9.8 2.304 1.197.061 2.365-.07 3.566.143 1.455.257 2.785 1.006 4.253 1.194.501.065 1.022.051 1.507-.098.426-.13.853-.303 1.308-.282 1.163.054 2.404.51 3.465-.19.566-.375.815-1.044 1.606-.983.584.045 1.119.322 1.693.415.565.092 1.197.045 1.631-.328.39-.335.44-.922.845-1.237.343-.27.823-.235 1.207-.418.51-.247.973-.62 1.183-1.16.122-.312.14-.63.105-.96-.008-.069-.104-.64-.057-.656.037-.013.074-.023.109-.038.16-.066.311-.152.45-.253.285-.204.513-.49.638-.817.387-1.013-.008-2.263-1.116-2.534"/>
            <path fill="#E3AB27" d="M683.453 225.615c-8.771-10.859-24.272-13.606-33.99-5.831l-82.005 52.176-1.4 24.96 11.83 14.456 1.844 5.916s.683 1.807 2.29 4.279h29.559l53.67-58.2 57.147 37.843 17.197-7.848-56.142-67.75z"/>
            <path fill="#1D1D2A" d="M419.645 67.786l.772 4.713a47.679 47.679 0 0 1-7.218 33.914l-2.502 3.802c-8.921 13.56-7.694 31.417 3 43.625l14.857 16.962h43.337l21.247-106.58-73.493 3.564z"/>
            <path fill="#006C56" d="M647.081 142.942l-105.09-19.008-30.436 6.62c-5.174-4.087-8.855-7.147-8.855-7.147l-52.47 1.265c-3.738 0-6.348 3.71-5.083 7.233.475 1.325 1.046 4.126 1.569 8.75l-27.758 8.67a24.102 24.102 0 0 0-17.535 17.208l-22.755 72.095-44.347 63.192 14.374 10.419 42.386-37.373c9.152-8.07 16.303-16.21 20.337-27.732 1.081-3.09 3.93-11.912 5.15-14.82l-2.062 20.246 8.09 4.986h87.116l16.894-17.636c-.2-6.201-4.435-12.89 0-17.225l16.457-11.859s-6.216-32.363-8.299-49.851l109.641-3.268 2.676-14.765z"/>
            <path fill="#F79E68" d="M429.52 91.16c-.92-1.573-1.453-3.354-1.718-5.152-.138-.933-1.056-14.691.1-14.912l44.808-.75 11.088 30.69-7.605 13.685a19.177 19.177 0 0 1-12.097 9.288l-8.209 2.058a10.678 10.678 0 0 1-11.482-4.436l-5.33-7.995c-.317-.566-2.568-3.771-4.863-6.93a14.918 14.918 0 0 1-2.74-10.564c.224-1.849-.77-3.126-1.698-4.565a10.96 10.96 0 0 1-.255-.416"/>
            <path fill="#1D1D2A" d="M510.343 149.344c5.108-5.284 8.256-12.478 8.256-20.411 0-5.542-1.464-11.216-4.628-15.808-3.175-4.607-7.813-8.006-10.766-12.789a33.612 33.612 0 0 1-4.813-14.035c-.41-3.846-.203-7.7-.897-11.523a49.128 49.128 0 0 0-3.144-10.422c-2.838-6.68-7.07-12.801-12.385-17.745a39.232 39.232 0 0 0-2.515-2.149c-12.26-9.613-30.262-9.548-42.181.772-3.324 2.878-6.339 4.794-10.278 6.72-6.465 3.158-9.344 10.911-6.752 17.846l.063.17s15.72 12.01 37.083 6.744l6.407-1.58 1.175 4.398c1.25 4.678 8.426 17.26-1.856 35.26-.144.252-2.244 3.906-2.603 8.417a29.524 29.524 0 0 0-.561 5.724c0 16.215 13.13 29.36 29.326 29.36 7.816 0 14.912-3.067 20.169-8.058.098.324.13.61.078.853-.05.227.288-.513.822-1.744"/>
            <path fill="#FEFEFE" d="M602.256 271.412l-26.41-69.161c-3.811-9.98-13.067-16.921-23.72-17.537-1.82-.106-17.43-2.43-17.43-2.43l-19.08 15.102a22.128 22.128 0 0 0-6.646 16.538l.978 57.488s32.784 34.321 34.845 40.57l58.969-27.264-1.506-13.306z"/>
            <path fill="#231F20" d="M641.763 176.446c-2.634-.81-5.736-1.775-5.878-1.518-.61.104-1.17.466-1.492 1.051-3.202 5.81-13.31 24.133-21.126 38.09l12.754-2.275 17.173-31.851a2.444 2.444 0 0 0-1.43-3.497"/>
            <path fill="#F79E68" d="M628.408 222.456l.46-.341c1.791-1.323 1.212-4.496-1.267-5.195l.346-.225a2.699 2.699 0 0 0 1.027-3.267 2.691 2.691 0 0 0-2.685-1.682l-13.022 2.324c1.303-2.328 2.667-4.773 4.057-7.265a1.236 1.236 0 0 0-1.081-.041l-7.643 3.355a4.267 4.267 0 0 0-2.04 1.878l-3.386 6.261a4.538 4.538 0 0 0-.53 1.795v-.016l-.955 7.033c-.68 3.564-.715 9.943-3.1 12.733l-23.162 23.2-7.969 8.957-26.477-32.157-11.972 26.75 40.81 44.295 60.012-87.022a2.565 2.565 0 0 0-1.423-1.37"/>
            <path fill="#FAC439" d="M669.661 220.796c-7.778-10.695-19.167-15.6-29.283-11.548-3.414 1.367-6.334 3.738-8.554 6.673l-60.052 79.39-17.959 9.125c.813 5.456 2.563 9.83 4.97 13.344h75.97l18.631-58.917 53.98 49.328 27.634-12.824-65.337-74.571z"/>
            <path fill="#F39262" d="M527.474 186.749l-.043-.023c-.008.029.011.031.043.023M543.064 153.91l-7.801 12.482c.312.166-2.364 16.719-5.354 19.297l24.98 5.892c-1-14.089-1.057-17.497 1.282-17.485l8.357 2.477-21.464-22.664z"/>
            <path fill="#F79E68" d="M573.718 140.625c.409-2.53 1.396-4.794 1.662-7.357.258-2.487-.518-4.955-.99-7.366-.325-1.658-.03-3.12-.658-4.701l-8.058-3.359-27.953 29.078 3.646 16.548a10.16 10.16 0 0 0 6.317 6.99l11.417 4.893c7.218 3.239 11.51-.51 10.87-4.838-.018-.113-.05-.282-.093-.488a2.35 2.35 0 0 1 1.381-2.643l1.03-.435c.079-.029.157-.06.232-.098l.008-.004a1.889 1.889 0 0 0 .3-3.164c.504-.334 1.023-.675 1.06-.702.364-.281.733-.52 1.01-.9.387-.53.562-1.274.334-1.902a2.783 2.783 0 0 0-.366-.663l-.552-1.01a1.023 1.023 0 0 1 .53-1.474l2.014-.8c1.79-1.128 2.234-2.48.95-3.96-2.46-2.837-4.745-7.588-4.09-11.645"/>
            <path fill="#E97F6F" d="M82.569 180.016c-.076.098.06-.121 0 0"/>
            <path fill="#FEFEFE" d="M277.758 165.01l-.002-.01.002.01"/>
            <path fill="#9E8780" d="M277.687 164.686c-.002-.011-.002-.01 0 0"/>
            <path fill="#C04B27" d="M318.714 161.068l.005.005-.005-.005z"/>
            <path fill="#BB90A6" d="M650.796 243.107c-17.152 0-31.056 13.921-31.056 31.093v41.719l-436.833-.294v-41.727c0-17.173-13.905-31.093-31.057-31.093s-31.057 13.92-31.057 31.093V394.5c0 7.118 5.764 12.888 12.873 12.888h153.3v.303H668.98c7.11 0 12.872-5.77 12.872-12.888V274.2c0-17.172-13.904-31.093-31.056-31.093"/>
            <path fill="#708092" d="M642.28 413.742c-4.624-2.574-12.492-7.28-13.876-8.856l-25.479-25.767c-1.94-1.705-3.87-6.61-4.76-9.036l-1.962-4.055-31.89-3.737 8.559 13.26c1.382 1.915 2.296 4.27 3.025 6.5.947 2.894.79 5.376.619 8.376-.213 3.747.634 7.84 2.574 11.084 1.435 2.396 3.906 3.395 6.308 4.607 4.604 2.322 9.297 4.193 13.724 6.863a106.684 106.684 0 0 1 12.507 8.843c4.349 3.563 10.259 5.053 15.785 4.162 3.292-.53 6.315-2.12 9.113-3.886l6.359-3.935a.777.777 0 0 0 .127-.078c.115-.087.234-.222.372-.445l.017-.03c.81-1.345.25-3.106-1.122-3.87"/>
            <path fill="#656FAE" d="M602.883 364.92l-51.005-120.675-.434-1.027c-7.928-12.768-19.575-15.66-33.973-9.58l-57.473 20.815a51.368 51.368 0 0 1-17.453 3.07l-28.04-4.963-.377 1.69c-.918 4.107-2.254 8.103-3.886 11.98-9.02 21.434-8.465 40.397-.2 49.689h125.631l31.17 63.825a8.47 8.47 0 0 0 10.942 2.071l19.612-5.694c3.648-1.06 6.292-4.409 6.152-8.208a8.472 8.472 0 0 0-.666-2.994"/>
            <g transform="translate(0 490.793)">
                <mask id="e" fill="#fff">
                    <use xlink:href="#d"/>
                </mask>
            </g>
            <g transform="translate(492.569 397.134)">
                <mask id="g" fill="#fff">
                    <use xlink:href="#f"/>
                </mask>
                <path fill="#708092" d="M49.277 89.494l-6.49-10.176c-1.45-2.29-3.353-5.247-3.755-7.928L32.36 42.66a15.53 15.53 0 0 1-.22-7.632L38.568.454H8.989l.543 18.115c-.62 2.34-1.784 14.289-3.358 16.128-4.985 5.826-5.056 7.06-5.671 9.828-.904 4.07 1.626 7.569 3.827 10.717 3.561 5.093 6.475 10.635 8.905 16.35 1.169 2.747 1.936 5.66 3.076 8.431 2.629 6.388 6.115 14.215 14.159 14.215 0 0 6.87 0 6.872-.017 3.398.005 7.166.01 9.333.017 2.436.005 3.913-2.688 2.602-4.744" mask="url(#g)"/>
            </g>
            <path fill="#5B69A3" d="M547.034 301.663a49.328 49.328 0 0 0-2.433-9.8c-3.769-10.435-10.89-18.783-19.807-22.86 0 0-.916.221-.919.223-.14.063-.288.131-.443.203l-.037.017a45.621 45.621 0 0 0-1.671.826l-.348.183-.392.21-.323.176c-.179.098-.363.201-.55.307l-.216.122c-.262.15-.531.307-.806.47l-.218.132a44.6 44.6 0 0 0-.654.4 52.185 52.185 0 0 0-.938.595l-.25.162c-.3.197-.604.4-.914.61l-.02.014c-.329.225-.664.46-1.001.702l-.17.122c-.276.198-.553.402-.834.611l-.256.193c-.268.202-.538.41-.81.623l-.234.183a60.47 60.47 0 0 0-2.13 1.766l-.196.172c-.29.254-.58.514-.873.779l-.289.265c-.275.255-.552.515-.829.78l-.266.255a61.532 61.532 0 0 0-2.173 2.216l-.257.281a57.52 57.52 0 0 0-1.924 2.196l-.303.362a63.01 63.01 0 0 0-1.04 1.298l-.012.016a61.03 61.03 0 0 0-1.038 1.376c-.1.137-.2.277-.299.416a59.48 59.48 0 0 0-1.767 2.587l-.309.478a63.61 63.61 0 0 0-.968 1.573 161.903 161.903 0 0 0-1.38 2.375l-.494.866c-3.571 6.29-6.717 12.207-12.103 16.746-1.16.977-2.427 1.887-3.948 3.029h16.578l.65 105.312a13.4 13.4 0 0 0 11.43 13.177l5.11.758c7.207 1.068 13.946-3.826 15.165-11.02l17.678-104.304c.171-1.45.27-2.89.316-4.317l.074-.491c.54-4.583.453-9.076-.159-13.371"/>
            <path fill="#54447F" d="M496.756 315.919l-.106.013h.12v-.013z"/>
            <path fill="#FEFEFE" d="M292.853 359.392l-.552-.34c.2.037.384.154.552.34l28.383 17.465-18.692-55.65c-2.789-7.598-19.074-12.896-27.06-14.155l-42.454-9.48-31.608 7.332c-8.442 1.888-14.664 6.749-17.453 14.346l-25.005 63.177 26.966 11.696-11.201 35.139 102.957 28.877 1.476-7.11c6.693 1.217 19.271-85.434 13.691-91.637"/>
            <path fill="#F39262" d="M281.397 293.827l-47.07-22.29-1.297 26.034 2.123 11.486c3.018 16.325 26.416 16.233 29.305-.116l1.584-8.964 2.998-3.35 12.357-2.8z"/>
            <path fill="#F79E68" d="M284.805 285.956c-.394-1.095-1.189-1.923-1.712-2.953-1.066-2.098 1.012-2.214 1.725-3.758a2.664 2.664 0 0 0 .055-2.092c-.355-.887-1.535-1.773-2.673-2.12.606-.681 1.527-1.01 1.635-2.123.09-.928-.401-1.838-1.205-2.307-2.12-1.237-2.115-3.025-1.574-3.817l.803-1.189c1.202-1.435.594-3.63-1.174-4.24-3.447-1.272-6.754-2.516-8.626-5.901-1.614-2.92-1.293-5.165-2.611-8.17-1.485-3.38-4.517-8.306-7.389-10.629a22.81 22.81 0 0 0-2.832-1.941c.022-.01.044-.02.066-.028-7.87-4.756-18.386-4.904-27.29-2.242-7.65 2.287-14.115 7.018-18.432 13.264l23.425 34.924.046-4.542 6.582 5.355c1.507 1.087 4.551.506 6.307-.1l6.132 7.336a13.23 13.23 0 0 0 9.52 4.733l13.374.64a8.764 8.764 0 0 0 3.593-.587c1.807-.723 2.591-2.74 2.682-4.559a7.647 7.647 0 0 0-.427-2.954"/>
            <path fill="#1D1D2A" d="M258.085 227.376l-15.48-1.365a29.928 29.928 0 0 0-15.66 2.87c-4.572 2.224-8.105 5.91-11.326 9.757-3.492 4.17-6.668 8.673-8.823 13.693a31.65 31.65 0 0 0-2.483 9.934c-.72 8.906 2.496 17.767 9.672 23.935 4.63 3.978 13.35 9.03 19.045 11.37 1.406-.386 2.714-1.095 3.759-2.114 3.018-2.943 4.63-7.282 4.547-11.316-.066-3.198-1.715-6.159-4.294-8.048l-.626-.458c-2.328-1.608-3.716-3.646-3.142-6.2l.037-.162c.742-3.296 4.272-5.13 7.392-3.841 1.217.503 2.224.973 2.605 1.05 17.166 3.507 22.743-22.832 20.197-26.42 1.603 2.217 3.02 4.744 3.895 6.74.332.755.56 1.463.741 2.146a13.838 13.838 0 0 0 2.407-8.065c-.124-6.915-5.573-12.876-12.463-13.506"/>
            <path fill="#46558C" d="M292.61 406.827c13.575-6.739 28.943 1.515 33.3 17.883 3.596 13.51 1.16 25.155-12.07 29.78l-109.106 27.056a11.367 11.367 0 0 1-13.239-6.697l-2.283-5.522c-2.295-5.554.118-11.938 5.512-14.579l97.887-47.92z"/>
            <path fill="#F79E68" d="M253.52 438.624c-.548-1.145-1.359-2.157-2.414-2.861l-.02-.014-17.742-6.512a10.141 10.141 0 0 1-2.424-1.287c-7.562-5.431-42.152-32.838-44.99-33.828l-20.589-8.929-5.854 18.246a5.72 5.72 0 0 0 2.67 6.832l69.375 38.947 32.574 11.53c-.022-.029-8.308-17.357-10.586-22.124"/>
            <path fill="#5B69A3" d="M319.447 458.498l-13.935-1.235a16.867 16.867 0 0 0-4.42.389l-16.634 4.124c-3.677-3.758-9.029-7.042-12.78-8.824l-54.05-25.668-37.803-17.954c-.422-.2-.844-.386-1.269-.558-.163-.067-.326-.12-.488-.183-.262-.1-.523-.201-.785-.29-.209-.071-.418-.13-.627-.194-.216-.066-.431-.137-.647-.196-.24-.066-.48-.119-.72-.176-.184-.044-.368-.093-.553-.132-.266-.056-.532-.1-.798-.145-.157-.027-.314-.06-.47-.083-.29-.043-.58-.074-.87-.105-.131-.014-.263-.033-.394-.044-.312-.028-.621-.044-.931-.058-.109-.004-.218-.013-.327-.016-.329-.01-.657-.008-.985-.001-.087 0-.175 0-.262.002-.346.01-.69.032-1.034.06-.068.005-.136.008-.203.014-.36.032-.718.076-1.074.126-.05.007-.1.012-.15.02-.372.055-.743.121-1.11.196l-.1.019c-.38.079-.76.17-1.135.269l-.06.016c-.386.103-.77.218-1.15.342l-.03.01c-.386.128-.77.266-1.151.416l-.01.004c-.77.303-1.527.65-2.267 1.04-6.258 3.3-11.299 9.643-13.396 18.087-1.588 6.396-.188 13.105 2.935 16.708 5.413 6.245 21.345 12.087 27.058 15.607l49.299 11.917 34.736 9.233a14.35 14.35 0 0 0 3.24.541l.01.106h46.964a5.777 5.777 0 0 0 3.8-2.05l7.337-8.974a6.792 6.792 0 0 0 1.505-3.391l.543-4c.377-2.774-1.877-5.102-4.809-4.969"/>
            <path fill="#F39262" d="M335.424 302.62l-20.404-5.82a6.09 6.09 0 0 0-3.419.027l-26.211 7.481a1.153 1.153 0 0 0-.62 1.779c1.032 1.444 2.39 2.89 3.808 2.84l18.944-4.175c1.22 1.073 11.551 9.686 14.681 10.92 2.408.948 4.98 1.164 7.542.983 1.963-.138 4.05-.81 6.044-.701l6.897-8.07-7.262-5.264z"/>
            <path fill="#59122F" d="M349.66 481.806l-28.424-64.319-41.13 64.326h9.46s55.796.004 60.094-.007"/>
            <path fill="#6B1835" d="M417.687 475.292c-8.828-2.295-17.252-6.788-23.219-13.696-6.232-7.217-9.34-16.392-12.96-25.056-3.958-9.472-9.666-16.64-16.694-24.063l-13.406-14.164-18.026-19.044a23.947 23.947 0 0 1-9.092-18.37l-.135-7.757-.488-27.921c-.08-4.662-3-10.843-6.562-14.006a3.213 3.213 0 0 1-.614-.72l-2.482-4.064a3.087 3.087 0 0 0-.966-.99c-4.175-2.683-12.41-3.698-16.775-1.926l-4.584 1.86a10.344 10.344 0 0 1-9.794-1.09l-10.162-7.062c-2.326-1.616-5.522-.066-5.696 2.763l-1.356 7.96c0 .01-.16.819-.405 2.058a16.777 16.777 0 0 0 4.662 15.182l10.871 10.74s.393.394.943 1.106c.283.352.529.693.741 1.032 1.79 2.684 4.084 7.637 1.92 13.388-.18.483-.402 1.05-.653 1.69-4.254 10.861-20.129 38.341-6.728 75.097l7.564 32.509c3.147 13.53-11.835 10.55-12.532 17.185l-.326 2.537a1.251 1.251 0 0 0 1.24 1.412h6.987l.026.04h9.353a7.078 7.078 0 0 0 6.756-4.978l7.884-25.351 30.215 13.966s.548 5.239-14.33 5.239c-10.065 0-12.81 5.32-13.548 8.565-.287 1.259.696 2.452 1.985 2.453 5.566.009 20.876.03 39.192.053 14.142.017 25.281-7.562 31.299-18.028-.788 1.37 11.42 9.448 12.76 10.236 4.8 2.824 10.09 5.047 15.531 6.275 7.053 1.593 14.622 2.094 22.154 1.978l11.578.014a2.41 2.41 0 0 0 2.414-2.414 2.412 2.412 0 0 0-2.377-2.413l-3.093-.044c-6.433.016-12.857-.566-19.072-2.181"/>
            <path fill="#6B1835" d="M304.212 477.934l-.326 2.536a1.251 1.251 0 0 0 1.24 1.412h6.987l.027.04h.01l-2.007-9.149c-2.893 1.31-5.641 2.408-5.93 5.16"/>
            <path fill="#4F1129" d="M307.762 310.414l8.425-2.818c4.143 1.69 7.04 5.598 7.244 10.072l.004.097.605 15.72c.198 5.131-3.796 9.45-8.92 9.649-6.026.232-10.672-5.258-9.452-11.171l2.094-21.549z"/>
            <path fill="#F79E68" d="M360.01 407.4l-1.167-6.103a2.85 2.85 0 0 0-.31-.85l-3.726-10.023a4.206 4.206 0 0 0-.413-.821l-5.47-8.412c-1.488-2.29-8.57-5.479-15.041-7.62l-6.928-2.118c.247.48.077.053 0 0 0 0 8.474 16.105 8.735 16.506a14.265 14.265 0 0 1 1.912 4.445l2.37 9.853c.255 1.058 1.2 1.852 2.286 1.81a2.254 2.254 0 0 0 2.17-2.351l-.04-10.819 15.622 16.504z"/>
            <mask id="i" fill="#fff">
                <use xlink:href="#h"/>
            </mask>
            <path fill="#D7444A" d="M48.575 466.053h94.679v-15.828h-94.68z" mask="url(#i)"/>
            <path fill="#EF4E50" d="M143.254 466.053h67.136v-15.828h-67.136z" mask="url(#i)"/>
            <path fill="#AF2D3E" d="M61.8 481.881h94.678v-15.828H61.8z" mask="url(#i)"/>
            <path fill="#D7444A" d="M156.478 481.881h67.137v-15.828h-67.137z" mask="url(#i)"/>
            <path fill="#BF8A70" d="M99.502 376.172L7.887 386.484l7.655-12.178H97.77zM143.254 450.224h-94.68l-40.687-63.74h94.678z" mask="url(#i)"/>
            <path fill="#BF8A70" d="M104.944 386.484H10.266l7.008-10.312h82.228z" mask="url(#i)"/>
            <path fill="#D2A289" d="M145.633 450.224h-94.68l-40.687-63.74h94.678z" mask="url(#i)"/>
            <path fill="#F39262" d="M324.392 305.158l-22.028 1.347c-1.712.075-2.587 2.035-1.665 3.46 1.074 1.661 3.99 2.368 5.798 2.605 3.005.394 6.177-.52 9.1.535 3.082 1.113 5.712 3.058 8.984 3.846 2.514.607 9.205.693 11.762.444 7.016-.682 11.96-5.44 11.96-5.44l-10.912-7.91-13 1.113zM348.303 311.955a.771.771 0 0 0 .082-.085l-.082.085z" mask="url(#i)"/>
            <path fill="#6B1835" d="M573.701 113.048c-3.757-4.101-9.096-5.239-14.343-6.117-5.369-.899-10.579-1.911-15.958-2.545a28.237 28.237 0 0 0-2.004-.22c-.087-.006-.176-.009-.264-.014-.103-.007-.21-.016-.31-.017a28.042 28.042 0 0 0-1.484-.043c-16.2 0-29.74 14.554-27.754 30.858.301 2.474.945 4.916.947 7.408.002 4.846-3.424 7.624-6.608 10.717-.714.694-1.726 1.96-2.225 2.822-3.345 5.794-2.377 12.546.883 18.14.45.772 1.173 2.812 2.037 5.137a12.035 12.035 0 0 0 14.017 7.523c4.478-1.046 7.313-1.41 11.788-.355l5.002 1.12c3.616.853 7.272-1.737 7.392-5.455.268-8.298 5.378-9.262 4.492-16.415-.828-6.686-5.503-9.829-5.503-9.829-.003-.008-1.818-1.854-1.818-1.854a6.687 6.687 0 0 1-1.93-4.67l1.483-.065c13.628 1.018 26.66-5.93 31.975-17.508.389-.848.73-1.706 1.02-2.57.156-.419.305-.84.452-1.262.317 1.495.578 3.007.463 4.526.633-.649 1.058-1.16 1.142-1.44.006 0 .254-.686.254-.686 2.135-5.884 1.128-12.521-3.146-17.186" mask="url(#i)"/>
            <path fill="#F79E68" d="M169.828 190.424c6.64 1.857 14.073 1.134 20.695-2.946l84.53-31.84h34.631c-1.023-1.39-2.146-2.7-2.502-2.887l-12.467-8.195a6.437 6.437 0 0 0-3.113-1.044l-17.85-1.176c-1.181-.084-12.615 3.643-17.92 5.386-1.759.577-3.57.962-5.412 1.15l-57.786 5.904-32.662.862-1.614 17.881c-.69 7.652 4.079 14.837 11.47 16.905M299.062 63.667c-.555-1.406-2.395-6.86-1.824-13.015.27-2.897-2.278-6.423-5.005-7.427-4.271-1.574-8.78 1.666-8.658 6.22l2.504 16.347a5.185 5.185 0 0 0 3.811 4.865c1.61.44 1.26-.251 2.556-1.305l5.912-4.804" mask="url(#i)"/>
        </g>
    </g>
</svg>
