<?xml version="1.0" encoding="UTF-8" standalone="no" ?>
<!DOCTYPE svg PUBLIC "-//W3C//DTD SVG 1.1//EN" "http://www.w3.org/Graphics/SVG/1.1/DTD/svg11.dtd">
<svg xmlns="http://www.w3.org/2000/svg" xmlns:xlink="http://www.w3.org/1999/xlink" version="1.1" width="520" height="280" viewBox="0 0 520 280" xml:space="preserve">
<desc>Created with Fabric.js 4.6.0</desc>
<defs>
</defs>
<g transform="matrix(0.03 0 0 -0.03 256.46 134.21)" id="T0w3a0mM6c5Pn1VL2Xhap"  >
<path style="stroke: none; stroke-width: 1; stroke-dasharray: none; stroke-linecap: butt; stroke-dashoffset: 0; stroke-linejoin: miter; stroke-miterlimit: 4; fill: rgb(235,243,250); fill-rule: nonzero; opacity: 1;" vector-effect="non-scaling-stroke"  transform=" translate(-6710.46, -5504.06)" d="M 608.22249 1655.06796 C 608.22249 1655.06796 -1100.84951 3490.01796 319.19249 5476.67796 C 1579.15249 7239.38796 3048.1424899999997 7118.9079600000005 4125.94249 6403.58796 C 4584.93249 6098.91796 5908.43249 6366.03796 7034.81249 8159.64796 C 8571.00249 10605.607960000001 13895.80249 9122.13796 12924.90249 5358.93796 C 12455.102490000001 3537.79796 14354.80249 3471.5879600000003 13386.80249 1651.1979600000004 L 608.2224900000001 1655.0679600000003" stroke-linecap="round" />
</g>
<g transform="matrix(0.02 0 0 -0.02 183.78 97.21)" id="UaDVhX6dDGJuA-q3-CHVm"  >
<path style="stroke: none; stroke-width: 1; stroke-dasharray: none; stroke-linecap: butt; stroke-dashoffset: 0; stroke-linejoin: miter; stroke-miterlimit: 4; fill: rgb(238,152,73); fill-rule: nonzero; opacity: 1;" vector-effect="non-scaling-stroke"  transform=" translate(-11238.91, -11454.98)" d="M 13839.37909 11386.72764 L 11170.57909 8854.52764 L 8638.43909 11523.32764 L 11307.17909 14055.42764 L 13839.379089999999 11386.727640000001" stroke-linecap="round" />
</g>
<g transform="matrix(0.02 0 0 -0.02 204.23 77.81)" id="nAZEM3aaOFkZthkMTaR6Q"  >
<path style="stroke: none; stroke-width: 1; stroke-dasharray: none; stroke-linecap: butt; stroke-dashoffset: 0; stroke-linejoin: miter; stroke-miterlimit: 4; fill: rgb(229,134,56); fill-rule: nonzero; opacity: 1;" vector-effect="non-scaling-stroke"  transform=" translate(-12304.53, -12466.08)" d="M 13839.37909 11386.72764 L 13301.87909 10876.72764 L 10769.679090000001 13545.52764 L 11307.179090000001 14055.42764 L 13839.379090000002 11386.727640000001" stroke-linecap="round" />
</g>
<g transform="matrix(0.02 0 0 -0.02 153.62 148.63)" id="_I50ez5s4keWItCrgFxwV"  >
<path style="stroke: none; stroke-width: 1; stroke-dasharray: none; stroke-linecap: butt; stroke-dashoffset: 0; stroke-linejoin: miter; stroke-miterlimit: 4; fill: rgb(134,209,205); fill-rule: nonzero; opacity: 1;" vector-effect="non-scaling-stroke"  transform=" translate(-9667.62, -8776.18)" d="M 11085.07909 10957.42764 L 11848.879089999999 7358.72764 L 8250.139089999999 6594.92764 L 7486.359089999999 10193.627639999999 L 11085.07909 10957.427639999998" stroke-linecap="round" />
</g>
<g transform="matrix(0.02 0 0 -0.02 147.76 121.05)" id="C4uBwAjo67xZic1D1Ancs"  >
<path style="stroke: none; stroke-width: 1; stroke-dasharray: none; stroke-linecap: butt; stroke-dashoffset: 0; stroke-linejoin: miter; stroke-miterlimit: 4; fill: rgb(118,192,191); fill-rule: nonzero; opacity: 1;" vector-effect="non-scaling-stroke"  transform=" translate(-9362.62, -10213.13)" d="M 11085.07909 10957.42764 L 11238.879089999999 10232.62764 L 7640.189089999998 9468.827640000001 L 7486.359089999998 10193.62764 L 11085.079089999997 10957.42764" stroke-linecap="round" />
</g>
<g transform="matrix(0.03 0 0 -0.03 402.19 125.67)" id="WaI0qxj1lyNz8CFjv9gJ2"  >
<path style="stroke: none; stroke-width: 1; stroke-dasharray: none; stroke-linecap: butt; stroke-dashoffset: 0; stroke-linejoin: miter; stroke-miterlimit: 4; fill: rgb(89,157,173); fill-rule: nonzero; opacity: 1;" vector-effect="non-scaling-stroke"  transform=" translate(-13032.09, -6765.65)" d="M 12194.03275 6804.39034 C 12194.03275 6804.39034 11971.13275 7224.89034 12305.13275 7385.02034 C 12305.13275 7385.02034 12540.43275 7463.81034 12706.93275 7415.63034 C 12706.93275 7415.63034 12377.43275 7068.22034 12445.93275 7010.89034 C 12514.23275 6953.56034 12785.23275 7424.49034 12785.23275 7424.49034 C 12785.23275 7424.49034 13266.73275 7364.16034 13401.93275 7257.16034 C 13401.93275 7257.16034 12924.83275 7018.090340000001 13005.33275 6979.37034 C 13085.73275 6940.65034 13593.73275 7166.36034 13593.73275 7166.36034 C 13593.73275 7166.36034 14015.632749999999 6993.03034 13932.032749999998 6730.7103400000005 C 13848.432749999998 6468.40034 13678.73275 6419.760340000001 13613.832749999998 6441.810340000001 C 13549.032749999998 6463.860340000001 13193.832749999998 6699.640340000001 13173.132749999997 6647.110340000001 C 13152.432749999996 6594.590340000001 13346.232749999997 6364.050340000001 13508.232749999997 6318.940340000001 C 13508.232749999997 6318.940340000001 13122.232749999997 6047.420340000001 12938.832749999998 6192.070340000001 C 12755.432749999998 6336.780340000001 12773.032749999998 6496.760340000001 12658.032749999998 6584.090340000001 C 12543.132749999999 6671.430340000001 12433.632749999999 6695.890340000001 12473.132749999999 6624.310340000001 C 12512.632749999999 6552.730340000001 12731.432749999998 6442.550340000001 12775.532749999998 6296.480340000001 C 12819.73275 6150.340340000001 12865.832749999998 6048.170340000001 12660.332749999998 6128.020340000001 C 12454.832749999998 6207.880340000001 12144.232749999997 6441.200340000001 12169.132749999997 6622.810340000001 C 12194.032749999997 6804.390340000001 12194.032749999997 6804.390340000001 12194.032749999997 6804.390340000001" stroke-linecap="round" />
</g>
<g transform="matrix(0.03 0 0 -0.03 394.95 127.86)" id="vq8k8-UxUV7uoK-hI-k1_"  >
<path style="stroke: none; stroke-width: 1; stroke-dasharray: none; stroke-linecap: butt; stroke-dashoffset: 0; stroke-linejoin: miter; stroke-miterlimit: 4; fill: rgb(89,157,173); fill-rule: nonzero; opacity: 1;" vector-effect="non-scaling-stroke"  transform=" translate(-13016.03, -6814.07)" d="M 13972.68463 6899.27418 C 13972.68463 6899.27418 12769.38463 7219.124180000001 12423.28463 6932.30418 C 12423.28463 6932.30418 12323.98463 6768.09418 12105.28463 6647.43418 L 12059.38463 6576.38418 C 12059.38463 6576.38418 12319.584630000001 6750.82418 12397.88463 6747.30418 C 12397.88463 6747.30418 12376.98463 7203.83418 13972.68463 6899.27418" stroke-linecap="round" />
</g>
<g transform="matrix(0.02 0 0 -0.02 365.15 139.05)" id="vgLnH2tjKbxBBx5OpOHfB"  >
<path style="stroke: none; stroke-width: 1; stroke-dasharray: none; stroke-linecap: butt; stroke-dashoffset: 0; stroke-linejoin: miter; stroke-miterlimit: 4; fill: rgb(89,157,173); fill-rule: nonzero; opacity: 1;" vector-effect="non-scaling-stroke"  transform=" translate(-13327.91, -7154.56)" d="M 13508.99224 7418.30876 C 13508.99224 7418.30876 13169.89224 7268.73876 13063.292239999999 6889.06876 L 13114.99224 6872.48876 C 13114.99224 6872.48876 13297.19224 7248.838760000001 13499.99224 7366.46876 C 13702.792239999999 7484.02876 13508.99224 7418.30876 13508.99224 7418.30876" stroke-linecap="round" />
</g>
<g transform="matrix(0.03 0 0 -0.03 375.94 66.35)" id="aDPVtvIOchb0CLjXBy8-m"  >
<path style="stroke: none; stroke-width: 1; stroke-dasharray: none; stroke-linecap: butt; stroke-dashoffset: 0; stroke-linejoin: miter; stroke-miterlimit: 4; fill: rgb(134,209,205); fill-rule: nonzero; opacity: 1;" vector-effect="non-scaling-stroke"  transform=" translate(-12176.17, -8915.58)" d="M 11000.60635 8151.85209 C 11000.60635 8151.85209 10185.20635 8577.06209 10541.30635 9197.70209 C 10541.30635 9197.70209 10829.60635 9580.87209 11147.506350000001 9686.66209 C 11147.506350000001 9686.66209 11003.506350000001 8772.67209 11175.206350000002 8756.38209 C 11346.906350000003 8740.092089999998 11262.206350000002 9786.42209 11262.206350000002 9786.42209 C 11262.206350000002 9786.42209 12094.906350000003 10217.92209 12427.306350000003 10195.72209 C 12427.306350000003 10195.72209 11929.806350000003 9292.57209 12100.306350000003 9319.05209 C 12270.706350000002 9345.532089999999 12832.106350000002 10261.22209 12832.106350000002 10261.22209 C 12832.106350000002 10261.22209 13693.406350000001 10447.42209 13847.706350000002 9938.32209 C 14002.006350000001 9429.202089999999 13785.106350000002 9165.88209 13657.706350000002 9129.98209 C 13530.406350000003 9094.08209 12706.706350000002 9080.25209 12731.306350000003 8973.962089999999 C 12755.806350000003 8867.672089999998 13317.006350000003 8713.14209 13624.206350000002 8818.612089999999 C 13624.206350000002 8818.612089999999 13307.206350000002 7963.682089999998 12856.806350000003 7993.082089999999 C 12406.406350000003 8022.482089999999 12259.206350000002 8296.352089999998 11980.506350000003 8309.462089999999 C 11701.806350000003 8322.56209 11500.906350000003 8241.672089999998 11642.106350000004 8170.952089999999 C 11783.406350000003 8100.242089999999 12252.406350000003 8164.572089999999 12482.606350000004 7980.362089999999 C 12712.806350000004 7796.152089999999 12898.106350000004 7683.942089999999 12483.606350000004 7585.982089999999 C 12069.206350000004 7488.012089999998 11319.106350000004 7519.192089999999 11159.906350000003 7835.522089999999 C 11000.606350000004 8151.8520899999985 11000.606350000004 8151.8520899999985 11000.606350000004 8151.8520899999985" stroke-linecap="round" />
</g>
<g transform="matrix(0.03 0 0 -0.03 374.74 78.45)" id="RFnfcA36CUt4pzlVLMkd6"  >
<path style="stroke: none; stroke-width: 1; stroke-dasharray: none; stroke-linecap: butt; stroke-dashoffset: 0; stroke-linejoin: miter; stroke-miterlimit: 4; fill: rgb(107,183,191); fill-rule: nonzero; opacity: 1;" vector-effect="non-scaling-stroke"  transform=" translate(-12553.25, -8778.92)" d="M 13922.49677 10104.07258 C 13922.49677 10104.07258 11621.696769999999 9282.58258 11381.196769999999 8433.90258 C 11381.196769999999 8433.90258 11403.496769999998 8058.08258 11183.996769999998 7619.712579999999 L 11188.896769999998 7453.77258 C 11188.896769999998 7453.77258 11415.496769999998 8025.22258 11545.996769999998 8106.62258 C 11545.996769999998 8106.62258 11004.296769999997 8821.282580000001 13922.496769999998 10104.07258" stroke-linecap="round" />
</g>
<g transform="matrix(0.02 0 0 -0.02 336.35 124.97)" id="0JDMkQTTijkXPlarO682w"  >
<path style="stroke: none; stroke-width: 1; stroke-dasharray: none; stroke-linecap: butt; stroke-dashoffset: 0; stroke-linejoin: miter; stroke-miterlimit: 4; fill: rgb(107,183,191); fill-rule: nonzero; opacity: 1;" vector-effect="non-scaling-stroke"  transform=" translate(-13181.59, -8361.93)" d="M 13232.42344 9015.31861 C 13232.42344 9015.31861 12827.72344 8358.99861 13092.72344 7582.62861 L 13200.92344 7615.12861 C 13200.92344 7615.12861 13069.32344 8475.05861 13278.123440000001 8915.748609999999 C 13487.02344 9356.418609999999 13232.42344 9015.318609999998 13232.42344 9015.318609999998" stroke-linecap="round" />
</g>
<g transform="matrix(0.02 0 0 -0.02 242.07 197.62)" id="RdF4yQdH0Z8OOLKelmYJ2"  >
<path style="stroke: none; stroke-width: 1; stroke-dasharray: none; stroke-linecap: butt; stroke-dashoffset: 0; stroke-linejoin: miter; stroke-miterlimit: 4; fill: rgb(89,157,173); fill-rule: nonzero; opacity: 1;" vector-effect="non-scaling-stroke"  transform=" translate(-14276.25, -6223.69)" d="M 15776.07909 6862.22764 C 15776.07909 6862.22764 15764.77909 7869.62764 14981.879089999999 7829.42764 C 14981.879089999999 7829.42764 14464.679089999998 7737.72764 14203.679089999998 7479.62764 C 14203.679089999998 7479.62764 15168.079089999997 7167.22764 15098.779089999998 6991.3276399999995 C 15029.579089999997 6815.527639999999 14049.379089999999 7416.92764 14049.379089999999 7416.92764 C 14049.379089999999 7416.92764 13214.979089999999 6817.3276399999995 13071.879089999999 6481.52764 C 13071.879089999999 6481.52764 14200.879089999999 6519.92764 14090.479089999999 6366.52764 C 13980.07909 6213.127640000001 12807.17909 6118.627640000001 12807.17909 6118.627640000001 C 12807.17909 6118.627640000001 12198.17909 5369.427640000001 12619.07909 4966.227640000001 C 13040.07909 4563.127640000001 13404.879089999999 4644.427640000001 13503.07909 4751.127640000001 C 13601.27909 4857.727640000001 14023.17909 5655.627640000001 14114.77909 5578.927640000001 C 14206.47909 5502.227640000001 14079.27909 4877.32764 13823.87909 4629.527640000001 C 13823.87909 4629.527640000001 14816.27909 4515.427640000001 15010.87909 4969.927640000001 C 15205.47909 5424.527640000001 15010.87909 5704.227640000001 15136.27909 5983.027640000001 C 15261.57909 6261.727640000001 15440.27909 6417.927640000001 15439.27909 6244.927640000001 C 15438.37909 6071.82764 15142.97909 5645.527640000001 15208.77909 5329.227640000001 C 15274.67909 5013.027640000001 15292.47909 4776.327640000001 15593.57909 5132.727640000001 C 15894.77909 5489.127640000001 16236.27909 6237.427640000001 16006.17909 6549.827640000001 C 15776.07909 6862.227640000001 15776.07909 6862.227640000001 15776.07909 6862.227640000001" stroke-linecap="round" />
</g>
<g transform="matrix(0.02 0 0 -0.02 253.8 200.59)" id="6JohvfO7oC7u4KrPKZvBh"  >
<path style="stroke: none; stroke-width: 1; stroke-dasharray: none; stroke-linecap: butt; stroke-dashoffset: 0; stroke-linejoin: miter; stroke-miterlimit: 4; fill: rgb(89,157,173); fill-rule: nonzero; opacity: 1;" vector-effect="non-scaling-stroke"  transform=" translate(-11168.46, -5905.7)" d="M 9313.40885 5121.25112 C 9313.40885 5121.25112 11141.208849999999 6852.521119999999 12033.30885 6677.75112 C 12033.30885 6677.75112 12368.208849999999 6482.06112 12873.30885 6479.33112 L 13023.50885 6397.4011199999995 C 13023.50885 6397.4011199999995 12392.70885 6455.681119999999 12257.20885 6373.75112 C 12257.20885 6373.75112 11853.00885 7204.79112 9313.40885 5121.25112" stroke-linecap="round" />
</g>
<g transform="matrix(0.02 0 0 -0.02 297.51 194.46)" id="tO5DL4nWdXc87Y2lYaOhG"  >
<path style="stroke: none; stroke-width: 1; stroke-dasharray: none; stroke-linecap: butt; stroke-dashoffset: 0; stroke-linejoin: miter; stroke-miterlimit: 4; fill: rgb(89,157,173); fill-rule: nonzero; opacity: 1;" vector-effect="non-scaling-stroke"  transform=" translate(-12597.71, -5851.23)" d="M 12116.85493 6098.56797 C 12116.85493 6098.56797 12746.85493 6150.95797 13216.05493 5669.27797 L 13152.15493 5602.22797 C 13152.15493 5602.22797 12572.354930000001 6017.4179699999995 12172.754930000001 6028.13797 C 11773.05493 6038.94797 12116.854930000001 6098.56797 12116.854930000001 6098.56797" stroke-linecap="round" />
</g>
<g transform="matrix(0.02 0 0 -0.02 245.76 111.68)" id="z84Tac_L8mxKE8TwitoqW"  >
<path style="stroke: none; stroke-width: 1; stroke-dasharray: none; stroke-linecap: butt; stroke-dashoffset: 0; stroke-linejoin: miter; stroke-miterlimit: 4; fill: rgb(134,209,205); fill-rule: nonzero; opacity: 1;" vector-effect="non-scaling-stroke"  transform=" translate(-14468.71, -10701)" d="M 15329.97909 10141.52764 C 15329.97909 10141.52764 15927.27909 10453.02764 15666.37909 10907.727640000001 C 15666.37909 10907.727640000001 15455.27909 11188.427640000002 15222.27909 11265.927640000002 C 15222.27909 11265.927640000002 15327.87909 10596.327640000001 15202.07909 10584.427640000002 C 15076.27909 10572.427640000002 15138.27909 11339.027640000002 15138.27909 11339.027640000002 C 15138.27909 11339.027640000002 14528.27909 11655.127640000002 14284.67909 11638.827640000001 C 14284.67909 11638.827640000001 14649.17909 10977.227640000001 14524.37909 10996.62764 C 14399.47909 11016.02764 13988.17909 11686.827640000001 13988.17909 11686.827640000001 C 13988.17909 11686.827640000001 13357.17909 11823.227640000001 13244.17909 11450.227640000001 C 13131.07909 11077.327640000001 13290.07909 10884.427640000002 13383.37909 10858.12764 C 13476.67909 10831.827640000001 14080.079090000001 10821.62764 14062.079090000001 10743.827640000001 C 14044.079090000001 10665.927640000002 13632.97909 10552.727640000001 13407.87909 10630.027640000002 C 13407.87909 10630.027640000002 13640.17909 10003.627640000002 13970.079090000001 10025.227640000003 C 14300.079090000001 10046.727640000003 14407.97909 10247.327640000003 14612.079090000001 10256.927640000004 C 14816.179090000001 10266.527640000004 14963.37909 10207.327640000003 14859.97909 10155.527640000004 C 14756.47909 10103.727640000005 14412.87909 10150.827640000003 14244.27909 10015.927640000004 C 14075.57909 9880.927640000004 13939.77909 9798.727640000003 14243.47909 9726.927640000004 C 14547.079090000001 9655.127640000004 15096.679090000001 9678.027640000004 15213.27909 9909.727640000003 C 15329.97909 10141.527640000002 15329.97909 10141.527640000002 15329.97909 10141.527640000002" stroke-linecap="round" />
</g>
<g transform="matrix(0.02 0 0 -0.02 246.37 117.73)" id="suGp6SbuV7LhodalVY9Dg"  >
<path style="stroke: none; stroke-width: 1; stroke-dasharray: none; stroke-linecap: butt; stroke-dashoffset: 0; stroke-linejoin: miter; stroke-miterlimit: 4; fill: rgb(107,183,191); fill-rule: nonzero; opacity: 1;" vector-effect="non-scaling-stroke"  transform=" translate(-14500.03, -10385.83)" d="M 13530.47909 11324.12764 C 13530.47909 11324.12764 15159.679090000001 10742.42764 15329.97909 10141.52764 C 15329.97909 10141.52764 15314.179090000001 9875.42764 15469.579090000001 9565.02764 L 15466.079090000001 9447.52764 C 15466.079090000001 9447.52764 15305.679090000001 9852.12764 15213.279090000002 9909.727640000001 C 15213.279090000002 9909.727640000001 15596.879090000002 10415.827640000001 13530.479090000003 11324.12764" stroke-linecap="round" />
</g>
<g transform="matrix(0.02 0 0 -0.02 265.56 140.99)" id="FEW83S_Wi5KbJYU8nrn3Y"  >
<path style="stroke: none; stroke-width: 1; stroke-dasharray: none; stroke-linecap: butt; stroke-dashoffset: 0; stroke-linejoin: miter; stroke-miterlimit: 4; fill: rgb(107,183,191); fill-rule: nonzero; opacity: 1;" vector-effect="non-scaling-stroke"  transform=" translate(-15500.07, -9173.94)" d="M 15469.57909 9565.02764 C 15469.57909 9565.02764 15711.879089999999 9172.227640000001 15553.27909 8707.52764 L 15488.47909 8727.02764 C 15488.47909 8727.02764 15567.179090000001 9241.62764 15442.27909 9505.42764 C 15317.27909 9769.12764 15469.57909 9565.02764 15469.57909 9565.02764" stroke-linecap="round" />
</g>
<g transform="matrix(0.02 0 0 -0.02 295.98 44.87)" id="vnCAm49p8iqyEa70xgyLJ"  >
<path style="stroke: none; stroke-width: 1; stroke-dasharray: none; stroke-linecap: butt; stroke-dashoffset: 0; stroke-linejoin: miter; stroke-miterlimit: 4; fill: rgb(238,152,73); fill-rule: nonzero; opacity: 1;" vector-effect="non-scaling-stroke"  transform=" translate(-12796.44, -13271.75)" d="M 12552.25875 12911.19771 L 12497.05875 12956.79771 C 12438.35875 13005.59771 12430.05875 13093.09771 12478.85875 13151.897710000001 L 12862.158749999999 13614.097710000002 C 12910.85875 13672.897710000001 12998.35875 13681.097710000002 13057.158749999999 13632.297710000003 L 13136.058749999998 13566.897710000003 C 13147.558749999998 13557.297710000003 13149.158749999999 13540.297710000003 13139.658749999999 13528.697710000002 C 13130.058749999998 13517.197710000002 13112.958749999998 13515.597710000002 13101.458749999998 13525.197710000002 L 13022.558749999998 13590.597710000002 C 12986.758749999999 13620.197710000002 12933.558749999998 13615.297710000003 12903.858749999998 13579.497710000001 L 12520.658749999997 13117.29771 C 12490.958749999996 13081.497710000001 12495.958749999996 13028.19771 12531.758749999997 12998.59771 L 12586.858749999998 12952.89771 C 12622.558749999998 12923.197709999999 12675.858749999998 12928.197709999999 12705.458749999998 12963.99771 L 12959.958749999998 13270.797709999999 C 12969.458749999998 13282.297709999999 12986.558749999998 13283.89771 12998.158749999999 13274.39771 C 13009.658749999999 13264.797709999999 13011.258749999999 13247.697709999999 13001.658749999999 13236.197709999999 L 12747.258749999999 12929.39771 C 12698.45875 12870.59771 12610.95875 12862.39771 12552.258749999999 12911.197709999999" stroke-linecap="round" />
</g>
<g transform="matrix(0.02 0 0 -0.02 292.17 51)" id="t1XLy7FJMvIdyHjj4cesw"  >
<path style="stroke: none; stroke-width: 1; stroke-dasharray: none; stroke-linecap: butt; stroke-dashoffset: 0; stroke-linejoin: miter; stroke-miterlimit: 4; fill: rgb(238,152,73); fill-rule: nonzero; opacity: 1;" vector-effect="non-scaling-stroke"  transform=" translate(-12543.96, -12903.8)" d="M 12119.77659 12353.22734 L 12021.47659 12434.62734 C 11930.37659 12510.32734 11922.07659 12651.32734 12003.07659 12749.027339999999 L 12576.176590000001 13440.12734 C 12585.676590000001 13451.62734 12602.676590000001 13453.22734 12614.176590000001 13443.72734 C 12625.57659 13434.22734 12627.176590000001 13417.22734 12617.676590000001 13405.72734 L 12044.57659 12714.527339999999 C 11982.57659 12639.72734 11987.676590000001 12532.827339999998 12055.97659 12476.22734 L 12154.176590000001 12394.72734 C 12222.47659 12338.12734 12328.47659 12352.92734 12390.57659 12427.72734 L 13043.276590000001 13215.027339999999 C 13105.376590000002 13289.827339999998 13100.276590000001 13396.72734 13031.976590000002 13453.427339999998 C 13020.476590000002 13462.927339999998 13018.876590000002 13479.927339999998 13028.376590000002 13491.327339999998 C 13037.876590000002 13502.827339999998 13054.876590000002 13504.427339999998 13066.376590000002 13494.927339999998 C 13157.576590000002 13419.327339999998 13165.876590000002 13278.327339999998 13084.776590000001 13180.62734 L 12432.07659 12393.32734 C 12351.07659 12295.62734 12210.97659 12277.62734 12119.776590000001 12353.22734" stroke-linecap="round" />
</g>
<g transform="matrix(0.02 0 0 -0.02 150.55 61)" id="p7sIKtVWWYzY-JrEdxUl3"  >
<path style="stroke: none; stroke-width: 1; stroke-dasharray: none; stroke-linecap: butt; stroke-dashoffset: 0; stroke-linejoin: miter; stroke-miterlimit: 4; fill: rgb(134,209,205); fill-rule: nonzero; opacity: 1;" vector-effect="non-scaling-stroke"  transform=" translate(-9507.63, -13341.98)" d="M 9783.32909 12960.92764 L 9717.93909 12921.22764 C 9648.12909 12878.92764 9556.90909 12901.32764 9514.60909 12971.127639999999 L 9182.069089999999 13519.82764 C 9139.75909 13589.627639999999 9162.129089999999 13680.82764 9231.93909 13723.127639999999 L 9325.59909 13779.927639999998 C 9339.27909 13788.227639999997 9357.09909 13783.827639999998 9365.38909 13770.127639999999 C 9373.679090000001 13756.427639999998 9369.30909 13738.627639999999 9355.62909 13730.32764 L 9261.96909 13673.627639999999 C 9219.47909 13647.82764 9205.86909 13592.32764 9231.61909 13549.82764 L 9564.14909 13001.127639999999 C 9589.89909 12958.72764 9645.419090000001 12945.027639999998 9687.89909 12970.82764 L 9753.29909 13010.42764 C 9795.78909 13036.22764 9809.409090000001 13091.72764 9783.64909 13134.22764 L 9562.909090000001 13498.42764 C 9554.61909 13512.12764 9558.989090000001 13529.92764 9572.669090000001 13538.22764 C 9586.349090000002 13546.527639999998 9604.159090000001 13542.127639999999 9612.449090000002 13528.42764 L 9833.199090000002 13164.22764 C 9875.509090000001 13094.42764 9853.139090000002 13003.22764 9783.329090000001 12960.92764" stroke-linecap="round" />
</g>
<g transform="matrix(0.02 0 0 -0.02 154.84 66.35)" id="uEMo0KdavmItz7F-xfCyT"  >
<path style="stroke: none; stroke-width: 1; stroke-dasharray: none; stroke-linecap: butt; stroke-dashoffset: 0; stroke-linejoin: miter; stroke-miterlimit: 4; fill: rgb(134,209,205); fill-rule: nonzero; opacity: 1;" vector-effect="non-scaling-stroke"  transform=" translate(-9731.49, -13063.09)" d="M 10151.37909 12417.32764 L 10034.17909 12346.32764 C 9925.33909 12280.32764 9779.28909 12321.52764 9708.61909 12438.127639999999 L 9208.67909 13263.027639999998 C 9200.389089999999 13276.72764 9204.75909 13294.527639999998 9218.43909 13302.827639999998 C 9232.11909 13311.127639999997 9249.93909 13306.727639999997 9258.22909 13293.127639999997 L 9758.169090000001 12468.127639999997 C 9812.289090000002 12378.927639999996 9922.62909 12346.427639999996 10004.14909 12395.827639999998 L 10121.37909 12466.927639999998 C 10202.87909 12516.327639999998 10225.17909 12629.127639999999 10171.079090000001 12718.427639999998 L 9601.609090000002 13658.027639999998 C 9547.489090000001 13747.327639999998 9437.149090000003 13779.72764 9355.629090000002 13730.327639999998 C 9341.939090000002 13722.027639999998 9324.129090000002 13726.427639999998 9315.839090000001 13740.127639999997 C 9307.54909 13753.827639999998 9311.919090000001 13771.627639999997 9325.599090000002 13779.927639999996 C 9434.439090000002 13845.827639999996 9580.47909 13804.627639999997 9651.159090000001 13688.027639999997 L 10220.579090000001 12748.427639999996 C 10291.279090000002 12631.827639999996 10260.279090000002 12483.327639999996 10151.37909 12417.327639999996" stroke-linecap="round" />
</g>
<g transform="matrix(0.03 0 0 -0.03 412.74 207.54)" id="-mQ5E7or29o8u1wL2T1jk"  >
<path style="stroke: none; stroke-width: 1; stroke-dasharray: none; stroke-linecap: butt; stroke-dashoffset: 0; stroke-linejoin: miter; stroke-miterlimit: 4; fill: rgb(229,134,56); fill-rule: nonzero; opacity: 1;" vector-effect="non-scaling-stroke"  transform=" translate(-12380.94, -3575.83)" d="M 14115.73989 1812.84889 L 10646.23989 1812.84889 C 10605.23989 1812.84889 10571.73989 1846.36889 10571.73989 1887.28889 L 10571.73989 5264.36889 C 10571.73989 5305.348889999999 10605.23989 5338.81889 10646.23989 5338.81889 L 14115.73989 5338.81889 C 14156.63989 5338.81889 14190.13989 5305.348889999999 14190.13989 5264.36889 L 14190.13989 1887.2888899999998 C 14190.13989 1846.3688899999997 14156.63989 1812.8488899999998 14115.73989 1812.8488899999998" stroke-linecap="round" />
</g>
<g transform="matrix(0.03 0 0 -0.03 408.28 207.01)" id="cPpCUEpiJCglGQgce6RZt"  >
<path style="stroke: none; stroke-width: 1; stroke-dasharray: none; stroke-linecap: butt; stroke-dashoffset: 0; stroke-linejoin: miter; stroke-miterlimit: 4; fill: rgb(249,221,191); fill-rule: nonzero; opacity: 1;" vector-effect="non-scaling-stroke"  transform=" translate(-12345.57, -3625.77)" d="M 14097.61682 1922.89476 L 10593.61682 1922.89476 C 10553.21682 1922.89476 10520.016819999999 1956.02476 10520.016819999999 1996.4247599999999 L 10520.016819999999 5255.11476 C 10520.016819999999 5295.57476 10553.21682 5328.64476 10593.61682 5328.64476 L 14097.61682 5328.64476 C 14138.016819999999 5328.64476 14171.11682 5295.57476 14171.11682 5255.11476 L 14171.11682 1996.4247600000003 C 14171.11682 1956.0247600000002 14138.016819999999 1922.8947600000004 14097.61682 1922.8947600000004" stroke-linecap="round" />
</g>
<g transform="matrix(0.03 0 0 -0.03 399.36 207.54)" id="eeA4ulR51khxWGyKiIChb"  >
<path style="stroke: none; stroke-width: 1; stroke-dasharray: none; stroke-linecap: butt; stroke-dashoffset: 0; stroke-linejoin: miter; stroke-miterlimit: 4; fill: rgb(238,152,73); fill-rule: nonzero; opacity: 1;" vector-effect="non-scaling-stroke"  transform=" translate(-12272.97, -3674.33)" d="M 14132.02283 5409.37434 L 14132.02283 1939.34434 C 14132.02283 1897.2343400000002 14097.62283 1862.7843400000002 14055.52283 1862.7843400000002 L 10490.42283 1862.7843400000002 C 10448.42283 1862.7843400000002 10413.92283 1897.2343400000002 10413.92283 1939.34434 L 10413.92283 5409.37434 C 10413.92283 5451.4243400000005 10448.42283 5485.87434 10490.42283 5485.87434 L 14055.52283 5485.87434 C 14097.62283 5485.87434 14132.02283 5451.4243400000005 14132.02283 5409.37434" stroke-linecap="round" />
</g>
<g transform="matrix(0.03 0 0 -0.03 437.56 207.55)" id="9HJwNxXXAeDOlxtDJZ3E8"  >
<path style="stroke: none; stroke-width: 1; stroke-dasharray: none; stroke-linecap: butt; stroke-dashoffset: 0; stroke-linejoin: miter; stroke-miterlimit: 4; fill: rgb(198,84,71); fill-rule: nonzero; opacity: 1;" vector-effect="non-scaling-stroke"  transform=" translate(-13949.98, -3781.51)" d="M 14068.78149 5645.89052 L 14068.78149 1917.12052 L 13831.181489999999 1917.12052 L 13831.181489999999 5645.89052 L 14068.78149 5645.89052" stroke-linecap="round" />
</g>
<g transform="matrix(0.03 0 0 -0.03 324.1 172.23)" id="Jlya0wu4_qDDedZqxu_Uf"  >
<path style="stroke: none; stroke-width: 1; stroke-dasharray: none; stroke-linecap: butt; stroke-dashoffset: 0; stroke-linejoin: miter; stroke-miterlimit: 4; fill: rgb(219,175,143); fill-rule: nonzero; opacity: 1;" vector-effect="non-scaling-stroke"  transform=" translate(-11278.16, -5621.37)" d="M 13791.80951 2154.65491 L 8764.50951 2154.65491 L 8764.50951 9088.09491 L 13791.80951 9088.09491 L 13791.80951 2154.65491" stroke-linecap="round" />
</g>
<g transform="matrix(0.03 0 0 -0.03 320.77 172.23)" id="i-HHimuk8sCgJfhWoqLnJ"  >
<path style="stroke: none; stroke-width: 1; stroke-dasharray: none; stroke-linecap: butt; stroke-dashoffset: 0; stroke-linejoin: miter; stroke-miterlimit: 4; fill: rgb(239,203,171); fill-rule: nonzero; opacity: 1;" vector-effect="non-scaling-stroke"  transform=" translate(-11237.98, -5666.38)" d="M 13771.73254 2171.90812 L 8704.23254 2171.90812 L 8704.23254 9160.85812 L 13771.73254 9160.85812 L 13771.73254 2171.908120000001" stroke-linecap="round" />
</g>
<g transform="matrix(0.02 0 0 -0.02 320.77 172.23)" id="q6JNPpyPjcxwHMTnmzvUo"  >
<path style="stroke: none; stroke-width: 1; stroke-dasharray: none; stroke-linecap: butt; stroke-dashoffset: 0; stroke-linejoin: miter; stroke-miterlimit: 4; fill: rgb(235,243,250); fill-rule: nonzero; opacity: 1;" vector-effect="non-scaling-stroke"  transform=" translate(-11482.79, -5789.86)" d="M 13716.64148 2709.0385 L 9248.941480000001 2709.0385 L 9248.941480000001 8870.6885 L 13716.641480000002 8870.6885 L 13716.641480000002 2709.0385000000006" stroke-linecap="round" />
</g>
<g transform="matrix(0.02 0 0 -0.02 320.77 90.63)" id="Lz6L_ymmvBtYFN5YftK1J"  >
<path style="stroke: none; stroke-width: 1; stroke-dasharray: none; stroke-linecap: butt; stroke-dashoffset: 0; stroke-linejoin: miter; stroke-miterlimit: 4; fill: rgb(238,152,73); fill-rule: nonzero; opacity: 1;" vector-effect="non-scaling-stroke"  transform=" translate(-12436.81, -9804.28)" d="M 13397.80726 9379.47882 L 11475.90726 9379.47882 C 11418.60726 9379.47882 11371.60726 9426.39882 11371.60726 9483.73882 L 11371.60726 10124.88882 C 11371.60726 10182.18882 11418.60726 10229.08882 11475.90726 10229.08882 L 13397.80726 10229.08882 C 13455.107259999999 10229.08882 13502.00726 10182.188820000001 13502.00726 10124.88882 L 13502.00726 9483.73882 C 13502.00726 9426.39882 13455.10726 9379.47882 13397.80726 9379.47882" stroke-linecap="round" />
</g>
<g transform="matrix(0.02 0 0 -0.02 320.77 102.39)" id="i3ChHad-ngU3Xuhr5FtBa"  >
<path style="stroke: none; stroke-width: 1; stroke-dasharray: none; stroke-linecap: butt; stroke-dashoffset: 0; stroke-linejoin: miter; stroke-miterlimit: 4; fill: rgb(216,232,253); fill-rule: nonzero; opacity: 1;" vector-effect="non-scaling-stroke"  transform=" translate(-11482.79, -8581.87)" d="M 13716.64148 8572.4585 L 9248.941480000001 8572.4585 L 9248.941480000001 8591.2885 L 13716.641480000002 8591.2885 L 13716.641480000002 8572.4585" stroke-linecap="round" />
</g>
<g transform="matrix(0.02 0 0 -0.02 320.77 110.49)" id="KGAcYHcpgLstQg7vynJE5"  >
<path style="stroke: none; stroke-width: 1; stroke-dasharray: none; stroke-linecap: butt; stroke-dashoffset: 0; stroke-linejoin: miter; stroke-miterlimit: 4; fill: rgb(216,232,253); fill-rule: nonzero; opacity: 1;" vector-effect="non-scaling-stroke"  transform=" translate(-11482.79, -8258.06)" d="M 13716.64148 8248.6485 L 9248.941480000001 8248.6485 L 9248.941480000001 8267.4785 L 13716.641480000002 8267.4785 L 13716.641480000002 8248.6485" stroke-linecap="round" />
</g>
<g transform="matrix(0.02 0 0 -0.02 320.77 118.59)" id="FlVU2yqbDEup6pKVBiMYR"  >
<path style="stroke: none; stroke-width: 1; stroke-dasharray: none; stroke-linecap: butt; stroke-dashoffset: 0; stroke-linejoin: miter; stroke-miterlimit: 4; fill: rgb(216,232,253); fill-rule: nonzero; opacity: 1;" vector-effect="non-scaling-stroke"  transform=" translate(-11482.79, -7934.26)" d="M 13716.64148 7924.8485 L 9248.941480000001 7924.8485 L 9248.941480000001 7943.6785 L 13716.641480000002 7943.6785 L 13716.641480000002 7924.8485" stroke-linecap="round" />
</g>
<g transform="matrix(0.02 0 0 -0.02 320.77 126.69)" id="0OHV9uqyB5bAauJCgiJN9"  >
<path style="stroke: none; stroke-width: 1; stroke-dasharray: none; stroke-linecap: butt; stroke-dashoffset: 0; stroke-linejoin: miter; stroke-miterlimit: 4; fill: rgb(216,232,253); fill-rule: nonzero; opacity: 1;" vector-effect="non-scaling-stroke"  transform=" translate(-11482.79, -7610.45)" d="M 13716.64148 7601.0385 L 9248.941480000001 7601.0385 L 9248.941480000001 7619.8685 L 13716.641480000002 7619.8685 L 13716.641480000002 7601.0385" stroke-linecap="round" />
</g>
<g transform="matrix(0.02 0 0 -0.02 320.77 134.79)" id="wvY9nAaUpq1lH-q0_xCJt"  >
<path style="stroke: none; stroke-width: 1; stroke-dasharray: none; stroke-linecap: butt; stroke-dashoffset: 0; stroke-linejoin: miter; stroke-miterlimit: 4; fill: rgb(216,232,253); fill-rule: nonzero; opacity: 1;" vector-effect="non-scaling-stroke"  transform=" translate(-11482.79, -7286.63)" d="M 13716.64148 7277.1885 L 9248.941480000001 7277.1885 L 9248.941480000001 7296.0685 L 13716.641480000002 7296.0685 L 13716.641480000002 7277.1885" stroke-linecap="round" />
</g>
<g transform="matrix(0.02 0 0 -0.02 320.77 142.89)" id="X73UREsnfkZ-GagZ1lahQ"  >
<path style="stroke: none; stroke-width: 1; stroke-dasharray: none; stroke-linecap: butt; stroke-dashoffset: 0; stroke-linejoin: miter; stroke-miterlimit: 4; fill: rgb(216,232,253); fill-rule: nonzero; opacity: 1;" vector-effect="non-scaling-stroke"  transform=" translate(-11482.79, -6962.81)" d="M 13716.64148 6953.4085 L 9248.941480000001 6953.4085 L 9248.941480000001 6972.2085 L 13716.641480000002 6972.2085 L 13716.641480000002 6953.4085" stroke-linecap="round" />
</g>
<g transform="matrix(0.02 0 0 -0.02 320.77 150.99)" id="XTHOCfTyQRRb3WYITdACW"  >
<path style="stroke: none; stroke-width: 1; stroke-dasharray: none; stroke-linecap: butt; stroke-dashoffset: 0; stroke-linejoin: miter; stroke-miterlimit: 4; fill: rgb(216,232,253); fill-rule: nonzero; opacity: 1;" vector-effect="non-scaling-stroke"  transform=" translate(-11482.79, -6639.03)" d="M 13716.64148 6629.6285 L 9248.941480000001 6629.6285 L 9248.941480000001 6648.4285 L 13716.641480000002 6648.4285 L 13716.641480000002 6629.6285" stroke-linecap="round" />
</g>
<g transform="matrix(0.02 0 0 -0.02 320.77 159.09)" id="X6_HvjYMOt4HtFrTodkuv"  >
<path style="stroke: none; stroke-width: 1; stroke-dasharray: none; stroke-linecap: butt; stroke-dashoffset: 0; stroke-linejoin: miter; stroke-miterlimit: 4; fill: rgb(216,232,253); fill-rule: nonzero; opacity: 1;" vector-effect="non-scaling-stroke"  transform=" translate(-11482.79, -6315.21)" d="M 13716.64148 6305.7785 L 9248.941480000001 6305.7785 L 9248.941480000001 6324.6485 L 13716.641480000002 6324.6485 L 13716.641480000002 6305.7785" stroke-linecap="round" />
</g>
<g transform="matrix(0.02 0 0 -0.02 320.77 167.19)" id="8RlCrwR_HtB9TnErTJqIU"  >
<path style="stroke: none; stroke-width: 1; stroke-dasharray: none; stroke-linecap: butt; stroke-dashoffset: 0; stroke-linejoin: miter; stroke-miterlimit: 4; fill: rgb(216,232,253); fill-rule: nonzero; opacity: 1;" vector-effect="non-scaling-stroke"  transform=" translate(-11482.79, -5991.39)" d="M 13716.64148 5981.9885 L 9248.941480000001 5981.9885 L 9248.941480000001 6000.788500000001 L 13716.641480000002 6000.788500000001 L 13716.641480000002 5981.9885" stroke-linecap="round" />
</g>
<g transform="matrix(0.02 0 0 -0.02 320.77 176.01)" id="lvedLneX1SRuh8c_aXNRW"  >
<path style="stroke: none; stroke-width: 1; stroke-dasharray: none; stroke-linecap: butt; stroke-dashoffset: 0; stroke-linejoin: miter; stroke-miterlimit: 4; fill: rgb(216,232,253); fill-rule: nonzero; opacity: 1;" vector-effect="non-scaling-stroke"  transform=" translate(-11482.79, -5638.99)" d="M 13716.64148 5629.5885 L 9248.941480000001 5629.5885 L 9248.941480000001 5648.3885 L 13716.641480000002 5648.3885 L 13716.641480000002 5629.5885" stroke-linecap="round" />
</g>
<g transform="matrix(0.02 0 0 -0.02 320.77 184.11)" id="jSQIbGy8o-tiLlzi5YxG_"  >
<path style="stroke: none; stroke-width: 1; stroke-dasharray: none; stroke-linecap: butt; stroke-dashoffset: 0; stroke-linejoin: miter; stroke-miterlimit: 4; fill: rgb(216,232,253); fill-rule: nonzero; opacity: 1;" vector-effect="non-scaling-stroke"  transform=" translate(-11482.79, -5315.21)" d="M 13716.64148 5305.8085 L 9248.941480000001 5305.8085 L 9248.941480000001 5324.6085 L 13716.641480000002 5324.6085 L 13716.641480000002 5305.8085" stroke-linecap="round" />
</g>
<g transform="matrix(0.02 0 0 -0.02 320.77 192.21)" id="uxf8vbY9H0XpYF8vCX9KW"  >
<path style="stroke: none; stroke-width: 1; stroke-dasharray: none; stroke-linecap: butt; stroke-dashoffset: 0; stroke-linejoin: miter; stroke-miterlimit: 4; fill: rgb(216,232,253); fill-rule: nonzero; opacity: 1;" vector-effect="non-scaling-stroke"  transform=" translate(-11482.79, -4991.39)" d="M 13716.64148 4981.9585 L 9248.941480000001 4981.9585 L 9248.941480000001 5000.8285 L 13716.641480000002 5000.8285 L 13716.641480000002 4981.9585" stroke-linecap="round" />
</g>
<g transform="matrix(0.02 0 0 -0.02 320.77 200.31)" id="T6UIQKKqP2pJutkyqvAgf"  >
<path style="stroke: none; stroke-width: 1; stroke-dasharray: none; stroke-linecap: butt; stroke-dashoffset: 0; stroke-linejoin: miter; stroke-miterlimit: 4; fill: rgb(216,232,253); fill-rule: nonzero; opacity: 1;" vector-effect="non-scaling-stroke"  transform=" translate(-11482.79, -4667.57)" d="M 13716.64148 4658.1685 L 9248.941480000001 4658.1685 L 9248.941480000001 4676.9685 L 13716.641480000002 4676.9685 L 13716.641480000002 4658.1685" stroke-linecap="round" />
</g>
<g transform="matrix(0.02 0 0 -0.02 320.77 208.41)" id="q06kX82Bvqw-OCfvqWFs0"  >
<path style="stroke: none; stroke-width: 1; stroke-dasharray: none; stroke-linecap: butt; stroke-dashoffset: 0; stroke-linejoin: miter; stroke-miterlimit: 4; fill: rgb(216,232,253); fill-rule: nonzero; opacity: 1;" vector-effect="non-scaling-stroke"  transform=" translate(-11482.79, -4343.79)" d="M 13716.64148 4334.3885 L 9248.941480000001 4334.3885 L 9248.941480000001 4353.1885 L 13716.641480000002 4353.1885 L 13716.641480000002 4334.3885" stroke-linecap="round" />
</g>
<g transform="matrix(0.02 0 0 -0.02 320.77 216.51)" id="cRWyKAbryzltlz723nnlD"  >
<path style="stroke: none; stroke-width: 1; stroke-dasharray: none; stroke-linecap: butt; stroke-dashoffset: 0; stroke-linejoin: miter; stroke-miterlimit: 4; fill: rgb(216,232,253); fill-rule: nonzero; opacity: 1;" vector-effect="non-scaling-stroke"  transform=" translate(-11482.79, -4019.97)" d="M 13716.64148 4010.5385 L 9248.941480000001 4010.5385 L 9248.941480000001 4029.4085 L 13716.641480000002 4029.4085 L 13716.641480000002 4010.5385" stroke-linecap="round" />
</g>
<g transform="matrix(0.02 0 0 -0.02 320.77 224.61)" id="1Fc3EP4FvdvAMnS_IZPR_"  >
<path style="stroke: none; stroke-width: 1; stroke-dasharray: none; stroke-linecap: butt; stroke-dashoffset: 0; stroke-linejoin: miter; stroke-miterlimit: 4; fill: rgb(216,232,253); fill-rule: nonzero; opacity: 1;" vector-effect="non-scaling-stroke"  transform=" translate(-11482.79, -3696.15)" d="M 13716.64148 3686.7485 L 9248.941480000001 3686.7485 L 9248.941480000001 3705.5485000000003 L 13716.641480000002 3705.5485000000003 L 13716.641480000002 3686.7485" stroke-linecap="round" />
</g>
<g transform="matrix(0.02 0 0 -0.02 320.77 232.71)" id="5FcYi09qlaYAwo3qB3zpi"  >
<path style="stroke: none; stroke-width: 1; stroke-dasharray: none; stroke-linecap: butt; stroke-dashoffset: 0; stroke-linejoin: miter; stroke-miterlimit: 4; fill: rgb(216,232,253); fill-rule: nonzero; opacity: 1;" vector-effect="non-scaling-stroke"  transform=" translate(-11482.79, -3372.33)" d="M 13716.64148 3362.8985 L 9248.941480000001 3362.8985 L 9248.941480000001 3381.7684999999997 L 13716.641480000002 3381.7684999999997 L 13716.641480000002 3362.8985" stroke-linecap="round" />
</g>
<g transform="matrix(0.02 0 0 -0.02 320.77 240.81)" id="IpAR4OUVIp_rg-0DY5hc9"  >
<path style="stroke: none; stroke-width: 1; stroke-dasharray: none; stroke-linecap: butt; stroke-dashoffset: 0; stroke-linejoin: miter; stroke-miterlimit: 4; fill: rgb(216,232,253); fill-rule: nonzero; opacity: 1;" vector-effect="non-scaling-stroke"  transform=" translate(-11482.79, -3048.55)" d="M 13716.64148 3039.1085 L 9248.941480000001 3039.1085 L 9248.941480000001 3057.9885 L 13716.641480000002 3057.9885 L 13716.641480000002 3039.1085" stroke-linecap="round" />
</g>
<g transform="matrix(0.02 0 0 -0.02 125.09 181.39)" id="_toGPgIhMgjJJfuLrR2ZI"  >
<path style="stroke: none; stroke-width: 1; stroke-dasharray: none; stroke-linecap: butt; stroke-dashoffset: 0; stroke-linejoin: miter; stroke-miterlimit: 4; fill: rgb(255,178,125); fill-rule: nonzero; opacity: 1;" vector-effect="non-scaling-stroke"  transform=" translate(-8181.21, -7069.01)" d="M 8051.44909 7118.12764 C 8082.42909 7140.027639999999 8152.66909 7188.12764 8156.31909 7177.42764 C 8158.94909 7169.72764 8155.20909 7156.62764 8146.76909 7142.92764 C 8189.25909 7158.8276399999995 8232.40909 7169.22764 8334.42909 7149.62764 C 8354.85909 7145.72764 8373.37909 7134.12764 8384.61909 7116.62764 C 8395.01909 7100.42764 8398.909090000001 7080.12764 8372.87909 7063.92764 C 8320.81909 7031.62764 8335.909090000001 7051.02764 8263.55909 7003.8276399999995 C 8191.199090000001 6956.727639999999 8102.609090000001 6944.727639999999 8049.6790900000005 6977.727639999999 L 7978.649090000001 6989.627639999999 L 7969.83909 7106.427639999999 C 7969.83909 7106.427639999999 8010.31909 7111.227639999999 8051.44909 7118.127639999999" stroke-linecap="round" />
</g>
<g transform="matrix(0.02 0 0 -0.02 91.02 159.36)" id="ZbdEmVk4ecVYKK4XQWbBP"  >
<path style="stroke: none; stroke-width: 1; stroke-dasharray: none; stroke-linecap: butt; stroke-dashoffset: 0; stroke-linejoin: miter; stroke-miterlimit: 4; fill: rgb(255,178,125); fill-rule: nonzero; opacity: 1;" vector-effect="non-scaling-stroke"  transform=" translate(-6406.06, -8217.04)" d="M 6190.14909 8098.02764 C 6190.14909 8098.02764 6357.59909 7899.42764 6570.84909 7982.52764 C 6570.84909 7982.52764 6616.71909 8093.42764 6617.36909 8175.22764 C 6617.43909 8185.32764 6617.56909 8195.02764 6617.72909 8204.32764 C 6618.85909 8296.42764 6621.96909 8348.127639999999 6621.96909 8348.127639999999 C 6621.96909 8348.127639999999 6621.909089999999 8348.127639999999 6621.749089999999 8348.127639999999 C 6612.0490899999995 8352.22764 6295.76909 8482.027639999998 6296.029089999999 8471.22764 C 6301.459089999999 8222.22764 6190.149089999999 8098.027639999999 6190.149089999999 8098.027639999999" stroke-linecap="round" />
</g>
<g transform="matrix(0.02 0 0 -0.02 92.34 157.59)" id="Hr_7xs5zfK-Pr2VMJrmL7"  >
<path style="stroke: none; stroke-width: 1; stroke-dasharray: none; stroke-linecap: butt; stroke-dashoffset: 0; stroke-linejoin: miter; stroke-miterlimit: 4; fill: rgb(237,151,93); fill-rule: nonzero; opacity: 1;" vector-effect="non-scaling-stroke"  transform=" translate(-6474.77, -8309.25)" d="M 6327.77909 8411.82764 C 6358.28909 8355.32764 6462.93909 8244.72764 6617.72909 8204.32764 C 6618.85909 8296.42764 6621.96909 8348.127639999999 6621.96909 8348.127639999999 C 6621.96909 8348.127639999999 6621.909089999999 8348.127639999999 6621.749089999999 8348.127639999999 C 6612.999089999999 8350.527639999998 6318.709089999999 8428.527639999998 6327.779089999999 8411.82764" stroke-linecap="round" />
</g>
<g transform="matrix(0.02 0 0 -0.02 92.57 151.18)" id="w0e4kyWoz9czdaIOJFcoQ"  >
<path style="stroke: none; stroke-width: 1; stroke-dasharray: none; stroke-linecap: butt; stroke-dashoffset: 0; stroke-linejoin: miter; stroke-miterlimit: 4; fill: rgb(255,178,125); fill-rule: nonzero; opacity: 1;" vector-effect="non-scaling-stroke"  transform=" translate(-6486.73, -8643.11)" d="M 6688.20909 8357.72764 C 6688.20909 8357.72764 6332.519090000001 8274.027639999998 6283.849090000001 8496.32764 C 6235.1790900000005 8718.627639999999 6156.49909 8857.627639999999 6381.53909 8920.42764 C 6606.57909 8983.22764 6669.41909 8908.02764 6703.7190900000005 8837.82764 C 6738.0090900000005 8767.52764 6779.479090000001 8385.127639999999 6688.20909 8357.72764" stroke-linecap="round" />
</g>
<g transform="matrix(0.02 0 0 -0.02 91.97 148.63)" id="PHO2liJtVQIcHpHhpdZmj"  >
<path style="stroke: none; stroke-width: 1; stroke-dasharray: none; stroke-linecap: butt; stroke-dashoffset: 0; stroke-linejoin: miter; stroke-miterlimit: 4; fill: rgb(169,69,61); fill-rule: nonzero; opacity: 1;" vector-effect="non-scaling-stroke"  transform=" translate(-6455.6, -8776.16)" d="M 6296.01909 8435.82764 C 6291.15909 8432.72764 6214.629089999999 8409.127639999999 6069.67909 8697.92764 C 6046.92909 8743.22764 6031.42909 8841.32764 6084.46909 8927.92764 C 6137.499089999999 9014.62764 6325.56909 9082.72764 6481.80909 9112.32764 C 6638.05909 9142.02764 6675.56909 9054.02764 6712.36909 8965.72764 C 6750.98909 8872.92764 6862.53909 8796.627639999999 6862.53909 8796.627639999999 C 6727.79909 8721.32764 6565.51909 8828.927639999998 6509.29909 8811.22764 C 6453.07909 8793.527639999998 6433.2190900000005 8704.92764 6429.0090900000005 8676.527639999998 C 6424.78909 8648.127639999999 6418.309090000001 8624.527639999998 6347.609090000001 8649.927639999998 C 6276.909090000001 8675.327639999998 6315.639090000001 8549.727639999997 6326.959090000001 8525.727639999997 C 6326.959090000001 8525.727639999997 6336.569090000001 8461.827639999998 6296.019090000002 8435.827639999998" stroke-linecap="round" />
</g>
<g transform="matrix(0.02 0 0 -0.02 67.05 256.46)" id="KCQ_JIwPclcZI92uH0hIR"  >
<path style="stroke: none; stroke-width: 1; stroke-dasharray: none; stroke-linecap: butt; stroke-dashoffset: 0; stroke-linejoin: miter; stroke-miterlimit: 4; fill: rgb(44,58,100); fill-rule: nonzero; opacity: 1;" vector-effect="non-scaling-stroke"  transform=" translate(-5157.48, -3157.88)" d="M 5379.73909 2891.92764 L 5164.35909 2891.92764 C 5119.20909 2891.92764 5069.03909 2937.1276399999997 5056.47909 3019.82764 C 5043.919089999999 3102.62764 4951.10909 3147.82764 4931.01909 3215.52764 C 4910.92909 3283.32764 5013.8390899999995 3378.7276399999996 5013.8390899999995 3378.7276399999996 L 5031.0490899999995 3400.8276399999995 L 5048.949089999999 3423.8276399999995 L 5219.5490899999995 3383.7276399999996 C 5219.5490899999995 3383.7276399999996 5223.75909 3343.1276399999997 5226.39909 3291.3276399999995 C 5228.21909 3254.0276399999993 5229.21909 3210.8276399999995 5227.0890899999995 3172.9276399999994 C 5222.069089999999 3082.6276399999992 5252.38909 2985.3276399999995 5332.63909 2967.7276399999996 C 5412.959089999999 2950.1276399999997 5379.73909 2891.9276399999994 5379.73909 2891.9276399999994" stroke-linecap="round" />
</g>
<g transform="matrix(0.02 0 0 -0.02 94.24 258.58)" id="9OnwqR4HVU7KeWjxvnQLy"  >
<path style="stroke: none; stroke-width: 1; stroke-dasharray: none; stroke-linecap: butt; stroke-dashoffset: 0; stroke-linejoin: miter; stroke-miterlimit: 4; fill: rgb(44,58,100); fill-rule: nonzero; opacity: 1;" vector-effect="non-scaling-stroke"  transform=" translate(-6574.07, -3047.31)" d="M 6879.09909 2891.92764 L 6308.18909 2891.92764 C 6302.72909 2892.92764 6298.5890899999995 2894.1276399999997 6296.06909 2895.42764 C 6257.95909 2914.52764 6269.88909 3060.42764 6274.46909 3105.52764 C 6275.34909 3113.82764 6275.97909 3118.7276399999996 6275.97909 3118.7276399999996 C 6275.97909 3118.7276399999996 6476.71909 3279.3276399999995 6504.35909 3156.3276399999995 C 6505.23909 3152.5276399999993 6506.23909 3148.7276399999996 6507.30909 3145.0276399999993 L 6507.30909 3145.0276399999993 C 6542.14909 3029.9276399999994 6697.94909 2977.727639999999 6787.92909 2963.1276399999992 C 6856.68909 2951.9276399999994 6874.51909 2911.9276399999994 6879.09909 2891.9276399999994" stroke-linecap="round" />
</g>
<g transform="matrix(0.02 0 0 -0.02 89.71 227.47)" id="SFnoAt82k4tOSHkyX4UFQ"  >
<path style="stroke: none; stroke-width: 1; stroke-dasharray: none; stroke-linecap: butt; stroke-dashoffset: 0; stroke-linejoin: miter; stroke-miterlimit: 4; fill: rgb(43,71,139); fill-rule: nonzero; opacity: 1;" vector-effect="non-scaling-stroke"  transform=" translate(-6338.1, -4668.59)" d="M 6764.02909 6184.12764 C 6764.02909 6184.12764 6733.54909 5803.72764 6697.70909 5346.527639999999 C 6649.0090900000005 4725.3276399999995 6590.43909 3962.4276399999994 6584.639090000001 3817.8276399999995 C 6574.62909 3566.9276399999994 6534.4290900000005 3165.4276399999994 6534.4290900000005 3165.4276399999994 C 6534.4290900000005 3165.4276399999994 6439.11909 3070.0276399999993 6248.36909 3110.2276399999996 C 6248.36909 3110.2276399999996 6078.37909 3683.3276399999995 6029.82909 4289.727639999999 C 6029.07909 4299.627639999999 6028.31909 4309.727639999999 6027.56909 4319.727639999999 C 5982.39909 4937.027639999999 5912.16909 6236.8276399999995 5912.16909 6236.8276399999995 L 6764.02909 6184.12764" stroke-linecap="round" />
</g>
<g transform="matrix(0.02 0 0 -0.02 89.71 216.05)" id="yUXTJP2Iqnb-nBaUytaWG"  >
<path style="stroke: none; stroke-width: 1; stroke-dasharray: none; stroke-linecap: butt; stroke-dashoffset: 0; stroke-linejoin: miter; stroke-miterlimit: 4; fill: rgb(35,56,98); fill-rule: nonzero; opacity: 1;" vector-effect="non-scaling-stroke"  transform=" translate(-6338.1, -5263.28)" d="M 6764.02909 6184.12764 C 6764.02909 6184.12764 6733.54909 5803.72764 6697.70909 5346.527639999999 L 6029.82909 4289.727639999999 C 6029.07909 4299.627639999999 6028.31909 4309.727639999999 6027.56909 4319.727639999999 C 5982.39909 4937.027639999999 5912.16909 6236.8276399999995 5912.16909 6236.8276399999995 L 6764.02909 6184.12764" stroke-linecap="round" />
</g>
<g transform="matrix(0.02 0 0 -0.02 79.76 224.24)" id="BxQCToIHCVT2m5Swso493"  >
<path style="stroke: none; stroke-width: 1; stroke-dasharray: none; stroke-linecap: butt; stroke-dashoffset: 0; stroke-linejoin: miter; stroke-miterlimit: 4; fill: rgb(43,71,139); fill-rule: nonzero; opacity: 1;" vector-effect="non-scaling-stroke"  transform=" translate(-5819.31, -4836.63)" d="M 6624.79909 6138.92764 C 6624.79909 6138.92764 6075.2590900000005 4761.3276399999995 5713.91909 4113.92764 C 5352.56909 3466.52764 5239.649090000001 3285.82764 5239.649090000001 3285.82764 C 5239.649090000001 3285.82764 5032.639090000001 3368.62764 5013.819090000001 3425.12764 C 5013.819090000001 3425.12764 5151.989090000001 4675.02764 5393.979090000001 4979.627640000001 C 5530.70909 5151.82764 5691.329090000001 5668.427640000001 5698.859090000001 5849.127640000001 C 5706.389090000001 6029.82764 5747.789090000001 6387.427640000001 5747.789090000001 6387.427640000001 L 6624.799090000001 6138.927640000001" stroke-linecap="round" />
</g>
<g transform="matrix(0.02 0 0 -0.02 69.43 197.34)" id="Y1OMO09LR54YVneLbNns3"  >
<path style="stroke: none; stroke-width: 1; stroke-dasharray: none; stroke-linecap: butt; stroke-dashoffset: 0; stroke-linejoin: miter; stroke-miterlimit: 4; fill: rgb(255,178,125); fill-rule: nonzero; opacity: 1;" vector-effect="non-scaling-stroke"  transform=" translate(-5281.42, -6238.46)" d="M 5371.54909 6389.22764 L 5365.74909 6300.62764 C 5365.74909 6300.62764 5424.1790900000005 6143.22764 5260.45909 6062.527639999999 C 5260.45909 6062.527639999999 5190.37909 6034.227639999999 5187.53909 6088.8276399999995 C 5184.68909 6143.3276399999995 5193.65909 6122.8276399999995 5187.9690900000005 6199.727639999999 C 5182.269090000001 6276.527639999999 5212.479090000001 6349.127639999999 5263.28909 6373.527639999999 L 5304.98909 6421.727639999999 L 5371.54909 6389.227639999999" stroke-linecap="round" />
</g>
<g transform="matrix(0.02 0 0 -0.02 79.05 179.02)" id="38dPgBSE6koxUiynpAlUU"  >
<path style="stroke: none; stroke-width: 1; stroke-dasharray: none; stroke-linecap: butt; stroke-dashoffset: 0; stroke-linejoin: miter; stroke-miterlimit: 4; fill: rgb(30,61,112); fill-rule: nonzero; opacity: 1;" vector-effect="non-scaling-stroke"  transform=" translate(-5782.37, -7192.61)" d="M 5307.60909 6324.72764 C 5368.43909 6305.22764 5378.17909 6309.62764 5378.17909 6309.62764 C 5378.17909 6309.62764 5674.23909 6848.62764 5704.21909 6898.027639999999 C 5734.209089999999 6947.3276399999995 6332.7990899999995 7502.427639999999 6332.7990899999995 7502.427639999999 L 6178.96909 8076.027639999999 C 6178.96909 8076.027639999999 5498.14909 7194.427639999999 5424.629089999999 7067.927639999999 C 5303.13909 6858.827639999999 5231.949089999999 6373.327639999999 5231.949089999999 6373.327639999999 C 5231.949089999999 6373.327639999999 5259.8390899999995 6340.127639999999 5307.609089999999 6324.727639999998" stroke-linecap="round" />
</g>
<g transform="matrix(0.02 0 0 -0.02 88.83 181.5)" id="V8-QX0SXIoxdIziP6oF3O"  >
<path style="stroke: none; stroke-width: 1; stroke-dasharray: none; stroke-linecap: butt; stroke-dashoffset: 0; stroke-linejoin: miter; stroke-miterlimit: 4; fill: rgb(42,78,150); fill-rule: nonzero; opacity: 1;" vector-effect="non-scaling-stroke"  transform=" translate(-6292.11, -7063.63)" d="M 6880.04909 7277.22764 C 6877.90909 7159.42764 6871.069090000001 7026.92764 6861.82909 6892.42764 C 6861.26909 6884.52764 6860.69909 6876.52764 6860.139090000001 6868.52764 C 6854.239090000001 6785.22764 6847.82909 6701.72764 6840.479090000001 6620.22764 C 6837.539090000001 6587.62764 6834.399090000001 6555.32764 6831.12909 6523.62764 L 6830.62909 6519.3276399999995 C 6830.36909 6507.527639999999 6828.9290900000005 6494.62764 6827.60909 6482.8276399999995 C 6797.59909 6177.8276399999995 6766.13909 5936.8276399999995 6760.2990899999995 5933.12764 C 6753.329089999999 5928.527639999999 6745.47909 5926.12764 6736.879089999999 5927.12764 C 6656.879089999999 5937.22764 6418.199089999999 5919.027639999999 6222.789089999999 5961.527639999999 C 6057.899089999999 5996.3276399999995 5915.919089999999 6062.3276399999995 5765.46909 6151.227639999999 C 5745.499089999999 6163.027639999999 5699.97909 6194.3276399999995 5703.67909 6217.627639999999 C 5707.329089999999 6243.327639999999 5714.039089999999 6280.427639999999 5722.579089999999 6327.127639999999 C 5752.21909 6489.327639999999 5803.399089999999 6768.427639999999 5820.859089999999 7095.127639999999 C 5824.249089999999 7155.927639999999 5829.209089999999 7216.027639999998 5835.609089999999 7275.127639999999 C 5852.379089999999 7429.027639999998 5879.249089999999 7575.227639999999 5915.299089999999 7705.027639999998 C 5982.299089999999 7946.327639999999 6124.029089999998 8127.027639999998 6247.549089999999 8199.327639999998 C 6263.679089999999 8208.327639999998 6307.249089999998 8157.127639999998 6386.989089999998 8105.927639999998 C 6460.649089999998 8058.727639999998 6530.4590899999985 8080.227639999998 6605.8790899999985 8086.827639999998 L 6679.989089999998 7978.827639999998 C 6760.359089999998 7885.427639999998 6845.949089999998 7761.0276399999975 6869.309089999998 7584.227639999997 C 6871.069089999998 7571.127639999997 6872.569089999998 7557.227639999997 6873.829089999998 7542.5276399999975 C 6880.289089999998 7470.5276399999975 6881.869089999998 7379.327639999998 6880.049089999999 7277.227639999997" stroke-linecap="round" />
</g>
<g transform="matrix(0.02 0 0 -0.02 94.87 177.47)" id="51UBsCqUfpXmZk-Lzw_Hr"  >
<path style="stroke: none; stroke-width: 1; stroke-dasharray: none; stroke-linecap: butt; stroke-dashoffset: 0; stroke-linejoin: miter; stroke-miterlimit: 4; fill: rgb(30,61,112); fill-rule: nonzero; opacity: 1;" vector-effect="non-scaling-stroke"  transform=" translate(-6606.78, -7273.23)" d="M 6880.04909 7277.22764 C 6877.90909 7159.42764 6871.069090000001 7026.92764 6861.82909 6892.42764 C 6861.26909 6884.52764 6860.69909 6876.52764 6860.139090000001 6868.52764 C 6403.189090000001 7154.52764 6332.79909 7677.92764 6332.79909 7677.92764 C 6557.599090000001 7668.12764 6736.189090000001 7616.42764 6873.82909 7542.52764 C 6880.28909 7470.52764 6881.86909 7379.32764 6880.04909 7277.22764" stroke-linecap="round" />
</g>
<g transform="matrix(0.02 0 0 -0.02 104.05 173.88)" id="PeQdGmVHuBLu-k0njb45o"  >
<path style="stroke: none; stroke-width: 1; stroke-dasharray: none; stroke-linecap: butt; stroke-dashoffset: 0; stroke-linejoin: miter; stroke-miterlimit: 4; fill: rgb(42,78,150); fill-rule: nonzero; opacity: 1;" vector-effect="non-scaling-stroke"  transform=" translate(-7085.21, -7460.25)" d="M 8034.58909 7051.92764 C 8039.29909 7119.62764 8004.19909 7130.92764 8004.19909 7130.92764 C 8004.19909 7130.92764 7315.24909 7255.8276399999995 7256.67909 7274.22764 C 7198.10909 7292.62764 6697.30909 7813.62764 6697.30909 7813.62764 C 6697.30909 7813.62764 6505.34909 8030.12764 6348.169089999999 7982.3276399999995 C 6211.579089999999 7940.727639999999 6158.18909 7834.227639999999 6140.01909 7732.727639999999 C 6118.35909 7611.727639999999 6174.10909 7490.027639999999 6278.84909 7425.8276399999995 C 6513.959089999999 7281.62764 6984.659089999999 6997.527639999999 7095.51909 6965.027639999999 C 7342.249089999999 6892.62764 8005.13909 6959.227639999999 8005.13909 6959.227639999999 C 8005.13909 6959.227639999999 8030.879089999999 6998.627639999999 8034.5890899999995 7051.927639999999" stroke-linecap="round" />
</g>
<g transform="matrix(0.02 0 0 -0.02 173.18 230.82)" id="hOJcW-gCk0y8rGJ1DJ-_j"  >
<path style="stroke: none; stroke-width: 1; stroke-dasharray: none; stroke-linecap: butt; stroke-dashoffset: 0; stroke-linejoin: miter; stroke-miterlimit: 4; fill: rgb(252,236,219); fill-rule: nonzero; opacity: 1;" vector-effect="non-scaling-stroke"  transform=" translate(-10687.04, -4494.08)" d="M 13423.97909 2892.42764 L 7950.109090000001 2892.42764 L 7950.109090000001 6095.72764 L 13423.97909 6095.72764 L 13423.97909 2892.42764" stroke-linecap="round" />
</g>
<g transform="matrix(0.02 0 0 -0.02 122.65 203.98)" id="JiyQbCiCyfTooSehTrTym"  >
<path style="stroke: none; stroke-width: 1; stroke-dasharray: none; stroke-linecap: butt; stroke-dashoffset: 0; stroke-linejoin: miter; stroke-miterlimit: 4; fill: rgb(238,152,73); fill-rule: nonzero; opacity: 1;" vector-effect="non-scaling-stroke"  transform=" translate(-8054.11, -5892.28)" d="M 8237.39909 5847.22764 L 7870.829090000001 5847.22764 C 7850.399090000001 5847.22764 7833.689090000001 5863.92764 7833.689090000001 5884.42764 L 7833.689090000001 5900.22764 C 7833.689090000001 5920.62764 7850.399090000001 5937.32764 7870.829090000001 5937.32764 L 8237.39909 5937.32764 C 8257.81909 5937.32764 8274.53909 5920.627640000001 8274.53909 5900.22764 L 8274.53909 5884.42764 C 8274.53909 5863.92764 8257.81909 5847.22764 8237.39909 5847.22764" stroke-linecap="round" />
</g>
<g transform="matrix(0.02 0 0 -0.02 122.65 207.28)" id="AoaMhi1QC7ZHEx7ckD_en"  >
<path style="stroke: none; stroke-width: 1; stroke-dasharray: none; stroke-linecap: butt; stroke-dashoffset: 0; stroke-linejoin: miter; stroke-miterlimit: 4; fill: rgb(238,152,73); fill-rule: nonzero; opacity: 1;" vector-effect="non-scaling-stroke"  transform=" translate(-8054.11, -5720.08)" d="M 8237.39909 5675.02764 L 7870.829090000001 5675.02764 C 7850.399090000001 5675.02764 7833.689090000001 5691.72764 7833.689090000001 5712.22764 L 7833.689090000001 5728.02764 C 7833.689090000001 5748.42764 7850.399090000001 5765.127640000001 7870.829090000001 5765.127640000001 L 8237.39909 5765.127640000001 C 8257.81909 5765.127640000001 8274.53909 5748.427640000001 8274.53909 5728.02764 L 8274.53909 5712.22764 C 8274.53909 5691.72764 8257.81909 5675.02764 8237.39909 5675.02764" stroke-linecap="round" />
</g>
<g transform="matrix(0.02 0 0 -0.02 122.65 216.19)" id="64b61mdSkd7UNodoP62PE"  >
<path style="stroke: none; stroke-width: 1; stroke-dasharray: none; stroke-linecap: butt; stroke-dashoffset: 0; stroke-linejoin: miter; stroke-miterlimit: 4; fill: rgb(238,152,73); fill-rule: nonzero; opacity: 1;" vector-effect="non-scaling-stroke"  transform=" translate(-8054.11, -5256.08)" d="M 8237.39909 5211.02764 L 7870.829090000001 5211.02764 C 7850.399090000001 5211.02764 7833.689090000001 5227.72764 7833.689090000001 5248.127640000001 L 7833.689090000001 5264.02764 C 7833.689090000001 5284.42764 7850.399090000001 5301.127640000001 7870.829090000001 5301.127640000001 L 8237.39909 5301.127640000001 C 8257.81909 5301.127640000001 8274.53909 5284.427640000001 8274.53909 5264.02764 L 8274.53909 5248.127640000001 C 8274.53909 5227.727640000001 8257.81909 5211.02764 8237.39909 5211.02764" stroke-linecap="round" />
</g>
<g transform="matrix(0.02 0 0 -0.02 122.65 219.49)" id="LTH_jyob952lqlMEWov_O"  >
<path style="stroke: none; stroke-width: 1; stroke-dasharray: none; stroke-linecap: butt; stroke-dashoffset: 0; stroke-linejoin: miter; stroke-miterlimit: 4; fill: rgb(238,152,73); fill-rule: nonzero; opacity: 1;" vector-effect="non-scaling-stroke"  transform=" translate(-8054.11, -5083.88)" d="M 8237.39909 5038.82764 L 7870.829090000001 5038.82764 C 7850.399090000001 5038.82764 7833.689090000001 5055.52764 7833.689090000001 5075.927640000001 L 7833.689090000001 5091.82764 C 7833.689090000001 5112.22764 7850.399090000001 5128.927640000001 7870.829090000001 5128.927640000001 L 8237.39909 5128.927640000001 C 8257.81909 5128.927640000001 8274.53909 5112.227640000001 8274.53909 5091.82764 L 8274.53909 5075.927640000001 C 8274.53909 5055.527640000001 8257.81909 5038.82764 8237.39909 5038.82764" stroke-linecap="round" />
</g>
<g transform="matrix(0.02 0 0 -0.02 122.65 228.4)" id="gVPxa6c_VoKjftNHUeOzt"  >
<path style="stroke: none; stroke-width: 1; stroke-dasharray: none; stroke-linecap: butt; stroke-dashoffset: 0; stroke-linejoin: miter; stroke-miterlimit: 4; fill: rgb(238,152,73); fill-rule: nonzero; opacity: 1;" vector-effect="non-scaling-stroke"  transform=" translate(-8054.11, -4619.83)" d="M 8237.39909 4574.72764 L 7870.829090000001 4574.72764 C 7850.399090000001 4574.72764 7833.689090000001 4591.52764 7833.689090000001 4611.92764 L 7833.689090000001 4627.72764 C 7833.689090000001 4648.12764 7850.399090000001 4664.92764 7870.829090000001 4664.92764 L 8237.39909 4664.92764 C 8257.81909 4664.92764 8274.53909 4648.12764 8274.53909 4627.72764 L 8274.53909 4611.92764 C 8274.53909 4591.52764 8257.81909 4574.72764 8237.39909 4574.72764" stroke-linecap="round" />
</g>
<g transform="matrix(0.02 0 0 -0.02 122.65 231.71)" id="LFoPxZgUA8YACK8FX_6o8"  >
<path style="stroke: none; stroke-width: 1; stroke-dasharray: none; stroke-linecap: butt; stroke-dashoffset: 0; stroke-linejoin: miter; stroke-miterlimit: 4; fill: rgb(238,152,73); fill-rule: nonzero; opacity: 1;" vector-effect="non-scaling-stroke"  transform=" translate(-8054.11, -4447.63)" d="M 8237.39909 4402.52764 L 7870.829090000001 4402.52764 C 7850.399090000001 4402.52764 7833.689090000001 4419.32764 7833.689090000001 4439.72764 L 7833.689090000001 4455.52764 C 7833.689090000001 4475.92764 7850.399090000001 4492.72764 7870.829090000001 4492.72764 L 8237.39909 4492.72764 C 8257.81909 4492.72764 8274.53909 4475.92764 8274.53909 4455.52764 L 8274.53909 4439.72764 C 8274.53909 4419.32764 8257.81909 4402.52764 8237.39909 4402.52764" stroke-linecap="round" />
</g>
<g transform="matrix(0.02 0 0 -0.02 122.65 240.61)" id="LhHTyOC7Wuuo3G1GGbOxR"  >
<path style="stroke: none; stroke-width: 1; stroke-dasharray: none; stroke-linecap: butt; stroke-dashoffset: 0; stroke-linejoin: miter; stroke-miterlimit: 4; fill: rgb(238,152,73); fill-rule: nonzero; opacity: 1;" vector-effect="non-scaling-stroke"  transform=" translate(-8054.11, -3983.58)" d="M 8237.39909 3938.52764 L 7870.829090000001 3938.52764 C 7850.399090000001 3938.52764 7833.689090000001 3955.2276399999996 7833.689090000001 3975.6276399999997 L 7833.689090000001 3991.52764 C 7833.689090000001 4011.92764 7850.399090000001 4028.6276399999997 7870.829090000001 4028.6276399999997 L 8237.39909 4028.6276399999997 C 8257.81909 4028.6276399999997 8274.53909 4011.92764 8274.53909 3991.52764 L 8274.53909 3975.6276399999997 C 8274.53909 3955.2276399999996 8257.81909 3938.52764 8237.39909 3938.52764" stroke-linecap="round" />
</g>
<g transform="matrix(0.02 0 0 -0.02 122.65 243.92)" id="jdvB3o-6fClElAZVk_DJp"  >
<path style="stroke: none; stroke-width: 1; stroke-dasharray: none; stroke-linecap: butt; stroke-dashoffset: 0; stroke-linejoin: miter; stroke-miterlimit: 4; fill: rgb(238,152,73); fill-rule: nonzero; opacity: 1;" vector-effect="non-scaling-stroke"  transform=" translate(-8054.11, -3811.38)" d="M 8237.39909 3766.32764 L 7870.829090000001 3766.32764 C 7850.399090000001 3766.32764 7833.689090000001 3783.02764 7833.689090000001 3803.42764 L 7833.689090000001 3819.32764 C 7833.689090000001 3839.72764 7850.399090000001 3856.42764 7870.829090000001 3856.42764 L 8237.39909 3856.42764 C 8257.81909 3856.42764 8274.53909 3839.72764 8274.53909 3819.32764 L 8274.53909 3803.42764 C 8274.53909 3783.02764 8257.81909 3766.32764 8237.39909 3766.32764" stroke-linecap="round" />
</g>
<g transform="matrix(0.02 0 0 -0.02 122.65 252.82)" id="UVotk-UZRVQHflEd7kvBc"  >
<path style="stroke: none; stroke-width: 1; stroke-dasharray: none; stroke-linecap: butt; stroke-dashoffset: 0; stroke-linejoin: miter; stroke-miterlimit: 4; fill: rgb(238,152,73); fill-rule: nonzero; opacity: 1;" vector-effect="non-scaling-stroke"  transform=" translate(-8054.11, -3347.38)" d="M 8237.39909 3302.32764 L 7870.829090000001 3302.32764 C 7850.399090000001 3302.32764 7833.689090000001 3319.02764 7833.689090000001 3339.42764 L 7833.689090000001 3355.22764 C 7833.689090000001 3375.72764 7850.399090000001 3392.42764 7870.829090000001 3392.42764 L 8237.39909 3392.42764 C 8257.81909 3392.42764 8274.53909 3375.72764 8274.53909 3355.22764 L 8274.53909 3339.42764 C 8274.53909 3319.02764 8257.81909 3302.32764 8237.39909 3302.32764" stroke-linecap="round" />
</g>
<g transform="matrix(0.02 0 0 -0.02 122.65 256.13)" id="5eHOl0ix5O4BBaxy-7Qg6"  >
<path style="stroke: none; stroke-width: 1; stroke-dasharray: none; stroke-linecap: butt; stroke-dashoffset: 0; stroke-linejoin: miter; stroke-miterlimit: 4; fill: rgb(238,152,73); fill-rule: nonzero; opacity: 1;" vector-effect="non-scaling-stroke"  transform=" translate(-8054.11, -3175.18)" d="M 8237.39909 3130.12764 L 7870.829090000001 3130.12764 C 7850.399090000001 3130.12764 7833.689090000001 3146.82764 7833.689090000001 3167.22764 L 7833.689090000001 3183.0276400000002 C 7833.689090000001 3203.5276400000002 7850.399090000001 3220.22764 7870.829090000001 3220.22764 L 8237.39909 3220.22764 C 8257.81909 3220.22764 8274.53909 3203.5276400000002 8274.53909 3183.0276400000002 L 8274.53909 3167.22764 C 8274.53909 3146.82764 8257.81909 3130.12764 8237.39909 3130.12764" stroke-linecap="round" />
</g>
<g transform="matrix(0.02 0 0 -0.02 224.7 226.25)" id="5kHzN2Qy8aK43dafJ3d00"  >
<path style="stroke: none; stroke-width: 1; stroke-dasharray: none; stroke-linecap: butt; stroke-dashoffset: 0; stroke-linejoin: miter; stroke-miterlimit: 4; fill: rgb(255,164,18); fill-rule: nonzero; opacity: 1;" vector-effect="non-scaling-stroke"  transform=" translate(-13370.93, -4731.88)" d="M 15210.37909 6571.32764 L 15210.37909 2892.4276400000003 L 11531.47909 2892.4276400000003 L 11531.47909 6571.32764 L 15210.37909 6571.32764" stroke-linecap="round" />
</g>
<g transform="matrix(0.02 0 0 -0.02 237.29 226.25)" id="kRYR16GwbDKv7hwDU_M_v"  >
<path style="stroke: none; stroke-width: 1; stroke-dasharray: none; stroke-linecap: butt; stroke-dashoffset: 0; stroke-linejoin: miter; stroke-miterlimit: 4; fill: rgb(255,185,62); fill-rule: nonzero; opacity: 1;" vector-effect="non-scaling-stroke"  transform=" translate(-14026.88, -4731.88)" d="M 15673.77909 6571.32764 L 15673.77909 5876.02764 C 15673.77909 5876.02764 15694.37909 4588.42764 15740.47909 4148.52764 C 15827.37909 3318.12764 16081.679090000001 2892.4276400000003 16081.679090000001 2892.4276400000003 L 12392.97909 2892.4276400000003 C 12392.97909 2892.4276400000003 12080.679090000001 3356.7276400000005 11994.97909 4093.8276400000004 C 11943.47909 4536.427640000001 11994.97909 5876.02764 11994.97909 5876.02764 L 11994.97909 6571.32764 L 15673.77909 6571.32764" stroke-linecap="round" />
</g>
<g transform="matrix(0.02 0 0 -0.02 233.59 197.62)" id="B83Dcy1962E4PhK05t7To"  >
<path style="stroke: none; stroke-width: 1; stroke-dasharray: none; stroke-linecap: butt; stroke-dashoffset: 0; stroke-linejoin: miter; stroke-miterlimit: 4; fill: rgb(255,175,40); fill-rule: nonzero; opacity: 1;" vector-effect="non-scaling-stroke"  transform=" translate(-13834.38, -6223.68)" d="M 15673.77909 6571.32764 L 15673.77909 5876.02764 L 11994.97909 5876.02764 L 11994.97909 6571.32764 L 15673.77909 6571.32764" stroke-linecap="round" />
</g>
<g transform="matrix(0.03 0 0 -0.03 260 262.05)" id="VwbLHV-VCweAhrEcHyRHK"  >
<path style="stroke: none; stroke-width: 1; stroke-dasharray: none; stroke-linecap: butt; stroke-dashoffset: 0; stroke-linejoin: miter; stroke-miterlimit: 4; fill: rgb(46,53,82); fill-rule: nonzero; opacity: 1;" vector-effect="non-scaling-stroke"  transform=" translate(-6808.46, -1654.02)" d="M 14340.26041 1634.28758 L -723.3695899999984 1634.28758 C -732.7095899999985 1634.28758 -740.3495899999984 1641.95758 -740.3495899999984 1651.30758 L -740.3495899999984 1656.78758 C -740.3495899999984 1666.1375799999998 -732.7095899999985 1673.74758 -723.3695899999984 1673.74758 L 14340.26041 1673.74758 C 14349.66041 1673.74758 14357.26041 1666.13758 14357.26041 1656.78758 L 14357.26041 1651.30758 C 14357.26041 1641.95758 14349.66041 1634.28758 14340.26041 1634.28758" stroke-linecap="round" />
</g>
<g transform="matrix(0.02 0 0 -0.02 298.72 164.24)" id="qTXQashTzd6sX4B6PVSld"  >
<path style="stroke: none; stroke-width: 1; stroke-dasharray: none; stroke-linecap: butt; stroke-dashoffset: 0; stroke-linejoin: miter; stroke-miterlimit: 4; fill: rgb(255,178,125); fill-rule: nonzero; opacity: 1;" vector-effect="non-scaling-stroke"  transform=" translate(-12991.49, -7486.7)" d="M 13134.22784 7363.05263 L 13095.12784 7436.8626300000005 C 13095.12784 7436.8626300000005 13114.62784 7568.492630000001 12949.62784 7651.80263 C 12949.62784 7651.80263 12889.427839999998 7676.34263 12855.32784 7627.16263 C 12824.02784 7581.84263 12915.02784 7590.0226299999995 12910.12784 7512.55263 C 12905.32784 7435.17263 12942.027839999999 7389.66263 12993.32784 7364.46263 L 13035.52784 7315.48263 L 13134.227840000001 7363.05263" stroke-linecap="round" />
</g>
<g transform="matrix(0.02 0 0 -0.02 315.92 172.36)" id="RDQLk1vmDoplrxb80rCHC"  >
<path style="stroke: none; stroke-width: 1; stroke-dasharray: none; stroke-linecap: butt; stroke-dashoffset: 0; stroke-linejoin: miter; stroke-miterlimit: 4; fill: rgb(35,56,98); fill-rule: nonzero; opacity: 1;" vector-effect="non-scaling-stroke"  transform=" translate(-12626.95, -6470.36)" d="M 13410.49854 6881.63987 C 13410.49854 6881.63987 13281.29854 6247.18987 12569.89854 6039.85987 C 12347.89854 5975.14987 11843.39854 6706.22987 11843.39854 6706.22987 C 11843.39854 6706.22987 11861.19854 6773.59987 11972.29854 6758.14987 C 11972.29854 6758.14987 12463.39854 6432.98987 12525.29854 6397.629870000001 C 12580.098539999999 6366.309870000001 12940.99854 6800.5398700000005 13105.49854 6870.65987 C 13269.99854 6940.679870000001 13410.49854 6881.63987 13410.49854 6881.63987" stroke-linecap="round" />
</g>
<g transform="matrix(0.02 0 0 -0.02 298.28 162.97)" id="q6FizK5jnJBKfliYfZ9Yv"  >
<path style="stroke: none; stroke-width: 1; stroke-dasharray: none; stroke-linecap: butt; stroke-dashoffset: 0; stroke-linejoin: miter; stroke-miterlimit: 4; fill: rgb(198,84,71); fill-rule: nonzero; opacity: 1;" vector-effect="non-scaling-stroke"  transform=" translate(-12806, -7453.48)" d="M 13174.19794 7469.58838 L 13152.39794 7327.54838 L 12437.79794 7437.36838 L 12459.59794 7579.40838 L 13174.19794 7469.58838" stroke-linecap="round" />
</g>
<g transform="matrix(0.02 0 0 -0.02 289.29 161.84)" id="I9XkfUR5v2u4cTgHYC8mg"  >
<path style="stroke: none; stroke-width: 1; stroke-dasharray: none; stroke-linecap: butt; stroke-dashoffset: 0; stroke-linejoin: miter; stroke-miterlimit: 4; fill: rgb(255,178,125); fill-rule: nonzero; opacity: 1;" vector-effect="non-scaling-stroke"  transform=" translate(-12938.29, -7852.64)" d="M 12845.68947 7879.24061 L 13008.089469999999 7778.36061 L 13030.889469999998 7926.91061 L 12845.689469999998 7879.24061" stroke-linecap="round" />
</g>
<g transform="matrix(0.02 0 0 -0.02 306.45 164.17)" id="WGWSfbJC26_wzVV_w9uLC"  >
<path style="stroke: none; stroke-width: 1; stroke-dasharray: none; stroke-linecap: butt; stroke-dashoffset: 0; stroke-linejoin: miter; stroke-miterlimit: 4; fill: rgb(255,178,125); fill-rule: nonzero; opacity: 1;" vector-effect="non-scaling-stroke"  transform=" translate(-13137.13, -7359.71)" d="M 13185.44495 7373.59446 L 13178.64495 7328.97446 C 13174.34495 7301.444460000001 13148.74495 7282.59446 13121.14495 7286.84446 L 13088.24495 7291.83446 L 13110.04495 7433.17446 L 13145.844949999999 7427.72446 C 13171.744949999998 7423.75446 13189.44495 7399.55446 13185.44495 7373.59446" stroke-linecap="round" />
</g>
<g transform="matrix(0.02 0 0 -0.02 349.69 256.53)" id="qHFjbpq4w5zt-b5QPhPWO"  >
<path style="stroke: none; stroke-width: 1; stroke-dasharray: none; stroke-linecap: butt; stroke-dashoffset: 0; stroke-linejoin: miter; stroke-miterlimit: 4; fill: rgb(35,56,98); fill-rule: nonzero; opacity: 1;" vector-effect="non-scaling-stroke"  transform=" translate(-13367.74, -2559.67)" d="M 13484.25002 2736.00689 C 13484.25002 2736.00689 13567.65002 2659.88689 13551.45002 2605.75689 C 13535.150020000001 2551.62689 13459.85002 2515.5168900000003 13449.650020000001 2449.46689 C 13439.45002 2383.3268900000003 13398.750020000001 2347.21689 13362.05002 2347.21689 C 13325.45002 2347.21689 13187.45002 2347.21689 13187.45002 2347.21689 C 13187.45002 2347.21689 13160.55002 2393.79689 13225.650020000001 2407.7468900000003 C 13290.750020000001 2421.7868900000003 13315.250020000001 2499.5268900000005 13311.250020000001 2571.67689 C 13307.150020000001 2643.81689 13317.350020000002 2739.9768900000004 13317.350020000002 2739.9768900000004 L 13455.750020000001 2772.1168900000002 L 13484.250020000001 2736.00689" stroke-linecap="round" />
</g>
<g transform="matrix(0.02 0 0 -0.02 322.47 258.49)" id="4MxQF8_p0csEOFsrS3BQ4"  >
<path style="stroke: none; stroke-width: 1; stroke-dasharray: none; stroke-linecap: butt; stroke-dashoffset: 0; stroke-linejoin: miter; stroke-miterlimit: 4; fill: rgb(35,56,98); fill-rule: nonzero; opacity: 1;" vector-effect="non-scaling-stroke"  transform=" translate(-13094.18, -2654.79)" d="M 13355.41766 2721.40067 C 13355.41766 2721.40067 13371.41766 2535.62067 13332.217659999998 2516.31067 L 12829.717659999998 2517.35067 C 12829.717659999998 2517.35067 12829.717659999998 2575.37067 12910.317659999999 2588.2406699999997 C 12991.01766 2601.1106699999996 13132.91766 2648.3406699999996 13156.91766 2753.58067 C 13180.817659999999 2858.83067 13355.41766 2721.40067 13355.41766 2721.40067" stroke-linecap="round" />
</g>
<g transform="matrix(0.02 0 0 -0.02 327.04 227.74)" id="HFueRFrUDsdt537Qx8u-o"  >
<path style="stroke: none; stroke-width: 1; stroke-dasharray: none; stroke-linecap: butt; stroke-dashoffset: 0; stroke-linejoin: miter; stroke-miterlimit: 4; fill: rgb(238,152,73); fill-rule: nonzero; opacity: 1;" vector-effect="non-scaling-stroke"  transform=" translate(-13060.84, -3974.82)" d="M 12697.29227 5248.68388 C 12697.29227 5248.68388 12723.29227 4928.923879999999 12753.89227 4544.60388 C 12795.49227 4022.5238799999997 12845.39227 3381.3038799999995 12850.39227 3259.7638799999995 C 12858.89227 3048.8138799999997 12893.29227 2711.3838799999994 12893.29227 2711.3838799999994 C 12893.29227 2711.3838799999994 12974.59227 2631.2738799999993 13137.39227 2665.0038799999993 C 13137.39227 2665.0038799999993 13282.49227 3146.6938799999994 13323.99227 3656.3838799999994 C 13324.592270000001 3664.7538799999993 13325.192270000001 3673.123879999999 13325.89227 3681.583879999999 C 13364.39227 4200.423879999999 13424.39227 5292.923879999999 13424.39227 5292.923879999999 L 12697.29227 5248.68388" stroke-linecap="round" />
</g>
<g transform="matrix(0.02 0 0 -0.02 327.04 216.51)" id="U7OLfasj61NJzW7WdoaEG"  >
<path style="stroke: none; stroke-width: 1; stroke-dasharray: none; stroke-linecap: butt; stroke-dashoffset: 0; stroke-linejoin: miter; stroke-miterlimit: 4; fill: rgb(229,134,56); fill-rule: nonzero; opacity: 1;" vector-effect="non-scaling-stroke"  transform=" translate(-13060.84, -4474.65)" d="M 12697.29227 5248.68388 C 12697.29227 5248.68388 12723.29227 4928.923879999999 12753.89227 4544.60388 L 13323.99227 3656.3838799999994 C 13324.592270000001 3664.7538799999993 13325.192270000001 3673.123879999999 13325.89227 3681.583879999999 C 13364.39227 4200.423879999999 13424.39227 5292.923879999999 13424.39227 5292.923879999999 L 12697.29227 5248.68388" stroke-linecap="round" />
</g>
<g transform="matrix(0.02 0 0 -0.02 336.99 224.57)" id="D2yPHrEAlnTvEiTVpprpm"  >
<path style="stroke: none; stroke-width: 1; stroke-dasharray: none; stroke-linecap: butt; stroke-dashoffset: 0; stroke-linejoin: miter; stroke-miterlimit: 4; fill: rgb(238,152,73); fill-rule: nonzero; opacity: 1;" vector-effect="non-scaling-stroke"  transform=" translate(-12896.96, -3931.14)" d="M 12240.30931 4976.54836 C 12240.30931 4976.54836 12688.20931 3870.73836 12982.909310000001 3350.98836 C 13277.409310000001 2831.3183599999998 13369.509310000001 2686.2883599999996 13369.509310000001 2686.2883599999996 C 13369.509310000001 2686.2883599999996 13538.30931 2752.7683599999996 13553.609310000002 2798.0383599999996 C 13553.609310000002 2798.0383599999996 13441.009310000001 3801.4083599999994 13243.609310000002 4045.9383599999996 C 13132.209310000002 4184.1183599999995 13001.309310000002 4598.88836 12995.109310000002 4743.91836 C 12989.009310000001 4888.948359999999 12955.209310000002 5175.988359999999 12955.209310000002 5175.988359999999 L 12240.309310000002 4976.54836" stroke-linecap="round" />
</g>
<g transform="matrix(0.02 0 0 -0.02 329.79 156.77)" id="Y-Wky1aCtB3kopDJvmUcg"  >
<path style="stroke: none; stroke-width: 1; stroke-dasharray: none; stroke-linecap: butt; stroke-dashoffset: 0; stroke-linejoin: miter; stroke-miterlimit: 4; fill: rgb(255,178,125); fill-rule: nonzero; opacity: 1;" vector-effect="non-scaling-stroke"  transform=" translate(-13175.91, -7129.06)" d="M 13425.9632 6991.3172 C 13425.9632 6991.3172 13108.7632 6838.2772 12925.8632 6895.037200000001 C 12925.8632 6895.037200000001 12970.9632 6951.807200000001 13049.663199999999 6994.057200000001 C 13043.3632 7030.757200000001 13038.463199999998 7062.597200000001 13035.663199999999 7089.6572000000015 C 13027.8632 7151.967200000002 13027.8632 7187.307200000001 13027.8632 7187.307200000001 L 13150.2632 7283.587200000001 L 13266.3632 7375.6972000000005 C 13257.163199999999 7116.627200000001 13425.9632 6991.3172 13425.9632 6991.3172" stroke-linecap="round" />
</g>
<g transform="matrix(0.02 0 0 -0.02 328.72 179.33)" id="uGQExYu9EIsKYrOeL1rkG"  >
<path style="stroke: none; stroke-width: 1; stroke-dasharray: none; stroke-linecap: butt; stroke-dashoffset: 0; stroke-linejoin: miter; stroke-miterlimit: 4; fill: rgb(43,71,139); fill-rule: nonzero; opacity: 1;" vector-effect="non-scaling-stroke"  transform=" translate(-12994.74, -6063.12)" d="M 12541.17167 5166.23376 C 12546.67167 5161.41376 12552.971669999999 5158.71376 12560.07167 5158.71376 C 12628.17167 5160.06376 12826.57167 5122.38376 12994.371669999999 5139.533759999999 C 13136.371669999999 5153.223759999999 13261.671669999998 5194.363759999999 13396.07167 5253.25376 C 13414.17167 5261.453759999999 13455.27167 5283.42376 13454.57167 5302.59376 C 13453.871669999999 5324.56376 13451.77167 5355.40376 13448.971669999999 5395.203759999999 C 13443.371669999999 5473.523759999999 13435.471669999999 5584.703759999999 13432.971669999999 5716.59376 C 13431.07167 5814.34376 13432.07167 5923.42376 13439.17167 6038.9137599999995 C 13439.67167 6046.68376 13440.07167 6054.46376 13440.37167 6062.313759999999 C 13442.47167 6104.643759999999 13443.37167 6147.313759999999 13443.37167 6189.053759999999 C 13444.071670000001 6323.383759999999 13434.37167 6451.553759999999 13414.87167 6566.033759999998 C 13380.77167 6764.833759999999 13316.67167 6920.463759999999 13222.071670000001 6989.663759999999 C 13209.47167 6999.293759999999 13131.47167 6961.613759999998 13059.071670000001 6926.633759999999 C 12992.97167 6894.443759999999 12926.87167 6890.983759999999 12864.171670000002 6903.313759999999 L 12801.571670000001 6848.483759999999 C 12725.671670000002 6779.283759999999 12642.071670000001 6683.983759999999 12605.271670000002 6540.013759999999 C 12574.571670000001 6417.923759999999 12556.471670000003 6197.243759999999 12546.671670000002 5968.283759999998 C 12541.871670000002 5864.113759999998 12538.371670000002 5759.843759999999 12536.97167 5660.4937599999985 L 12536.97167 5657.113759999998 C 12536.27167 5646.803759999998 12536.27167 5636.4937599999985 12536.27167 5626.183759999998 C 12532.87167 5371.873759999998 12536.27167 5169.613759999998 12541.17167 5166.233759999998" stroke-linecap="round" />
</g>
<g transform="matrix(0.02 0 0 -0.02 329.16 155.48)" id="kEb8918J3vo3MluYRLkO-"  >
<path style="stroke: none; stroke-width: 1; stroke-dasharray: none; stroke-linecap: butt; stroke-dashoffset: 0; stroke-linejoin: miter; stroke-miterlimit: 4; fill: rgb(237,152,95); fill-rule: nonzero; opacity: 1;" vector-effect="non-scaling-stroke"  transform=" translate(-13276.45, -7256.78)" d="M 13397.89667 7347.6216 C 13397.89667 7347.6216 13316.99667 7200.0616 13162.89667 7158.8616 C 13154.99667 7221.7816 13154.99667 7257.4616000000005 13154.99667 7257.4616000000005 L 13278.59667 7354.6916 L 13397.89667 7347.6216" stroke-linecap="round" />
</g>
<g transform="matrix(0.02 0 0 -0.02 328.61 149.89)" id="jIcB9t5lOnx8Ab2wdVQtV"  >
<path style="stroke: none; stroke-width: 1; stroke-dasharray: none; stroke-linecap: butt; stroke-dashoffset: 0; stroke-linejoin: miter; stroke-miterlimit: 4; fill: rgb(255,178,125); fill-rule: nonzero; opacity: 1;" vector-effect="non-scaling-stroke"  transform=" translate(-13152.82, -7451.59)" d="M 13001.04614 7207.53159 C 13001.04614 7207.53159 13304.34614 7157.91159 13332.84614 7344.41159 C 13361.24614 7530.82159 13419.54614 7649.99159 13227.146139999999 7689.601589999999 C 13034.646139999999 7729.12159 12986.046139999999 7663.591589999999 12961.24614 7603.62159 C 12936.34614 7543.6515899999995 12922.84614 7225.24159 13001.046139999999 7207.53159" stroke-linecap="round" />
</g>
<g transform="matrix(0.02 0 0 -0.02 328.66 147.1)" id="2n64EpwUQeLwXkPkESzSS"  >
<path style="stroke: none; stroke-width: 1; stroke-dasharray: none; stroke-linecap: butt; stroke-dashoffset: 0; stroke-linejoin: miter; stroke-miterlimit: 4; fill: rgb(44,58,100); fill-rule: nonzero; opacity: 1;" vector-effect="non-scaling-stroke"  transform=" translate(-13114.38, -7552.8)" d="M 13401.4632 7688.08085 C 13404.1632 7691.24085 13410.5632 7693.71085 13424.6632 7694.48085 C 13424.6632 7694.48085 13413.363200000002 7701.56085 13398.263200000001 7701.90085 C 13395.363200000002 7721.51085 13384.863200000002 7756.22085 13351.1632 7764.58085 C 13351.1632 7764.58085 13369.263200000001 7754.94085 13371.6632 7734.1308500000005 C 13332.5632 7774.220850000001 13248.9632 7803.470850000001 13017.263200000001 7785.140850000001 C 12711.863200000002 7761.00085 12812.463200000002 7565.530850000001 12852.0632 7542.160850000001 C 12891.5632 7518.870850000001 12991.0632 7582.750850000001 13064.763200000001 7576.950850000001 C 13138.363200000002 7571.070850000001 13152.363200000002 7464.640850000001 13177.363200000002 7450.050850000001 C 13202.363200000002 7435.4708500000015 13192.563200000002 7461.310850000002 13226.363200000002 7476.580850000001 C 13260.1632 7491.840850000001 13263.463200000002 7435.810850000001 13253.6632 7399.390850000002 C 13243.863200000002 7362.980850000002 13290.263200000001 7314.870850000001 13290.263200000001 7314.870850000001 C 13290.263200000001 7314.870850000001 13290.263200000001 7314.870850000001 13337.263200000001 7365.450850000001 C 13384.1632 7416.020850000001 13428.463200000002 7630.170850000001 13407.1632 7675.800850000001 C 13405.263200000001 7679.890850000002 13403.363200000002 7683.900850000002 13401.4632 7688.080850000001" stroke-linecap="round" />
</g>
<g transform="matrix(0.02 0 0 -0.02 299.79 164.14)" id="CXjuZaY_wl1TX-hWXMITM"  >
<path style="stroke: none; stroke-width: 1; stroke-dasharray: none; stroke-linecap: butt; stroke-dashoffset: 0; stroke-linejoin: miter; stroke-miterlimit: 4; fill: rgb(255,178,125); fill-rule: nonzero; opacity: 1;" vector-effect="non-scaling-stroke"  transform=" translate(-13066.66, -7504.82)" d="M 13117.11161 7453.37503 C 13117.11161 7453.37503 13128.71161 7498.67503 13097.11161 7519.11503 C 13065.71161 7539.5550299999995 13036.81161 7595.03503 13023.51161 7587.49503 C 12996.01161 7571.95503 13038.51161 7523.54503 13030.71161 7463.16503 C 13028.01161 7441.9750300000005 13077.21161 7386.59503 13117.11161 7453.37503" stroke-linecap="round" />
</g>
<g transform="matrix(0.02 0 0 -0.02 336.68 180.21)" id="67InRFzZcrY9IRIDAxnL3"  >
<path style="stroke: none; stroke-width: 1; stroke-dasharray: none; stroke-linecap: butt; stroke-dashoffset: 0; stroke-linejoin: miter; stroke-miterlimit: 4; fill: rgb(35,56,98); fill-rule: nonzero; opacity: 1;" vector-effect="non-scaling-stroke"  transform=" translate(-13357.15, -6030.1)" d="M 13445.27365 5721.81047 C 13443.37365 5819.6504700000005 13444.37365 5928.830470000001 13451.47365 6044.43047 C 13451.87365 6052.21047 13452.37365 6059.990470000001 13452.67365 6067.85047 C 13424.17365 6209.08047 13381.07365 6334.320470000001 13317.57365 6338.38047 C 13317.57365 6338.38047 13128.57365 6041.30047 13445.273650000001 5721.81047" stroke-linecap="round" />
</g>
<g transform="matrix(0.02 0 0 -0.02 342.16 202.15)" id="KytVBiZP1_SAZX_pQh-NW"  >
<path style="stroke: none; stroke-width: 1; stroke-dasharray: none; stroke-linecap: butt; stroke-dashoffset: 0; stroke-linejoin: miter; stroke-miterlimit: 4; fill: rgb(255,178,125); fill-rule: nonzero; opacity: 1;" vector-effect="non-scaling-stroke"  transform=" translate(-13399.35, -4989.18)" d="M 13494.43011 5133.11029 C 13494.43011 5133.11029 13478.830109999999 4982.12029 13461.830109999999 4953.63029 C 13444.830109999999 4925.05029 13372.230109999999 4833.80029 13341.330109999999 4815.89029 C 13310.43011 4797.97029 13360.230109999999 4936.13029 13353.93011 4962.96029 C 13347.730109999999 4989.87029 13328.53011 4913.96029 13314.93011 4912.13029 C 13301.330109999999 4910.38029 13304.830109999999 4978.71029 13304.330109999999 5003.54029 C 13303.830109999999 5028.45029 13370.53011 5089.86029 13394.130109999998 5142.78029 C 13417.630109999998 5195.7702899999995 13494.430109999998 5133.11029 13494.430109999998 5133.11029" stroke-linecap="round" />
</g>
<g transform="matrix(0.02 0 0 -0.02 338.93 179.56)" id="8HYzYXfjJ9FKvORXBfhK8"  >
<path style="stroke: none; stroke-width: 1; stroke-dasharray: none; stroke-linecap: butt; stroke-dashoffset: 0; stroke-linejoin: miter; stroke-miterlimit: 4; fill: rgb(43,71,139); fill-rule: nonzero; opacity: 1;" vector-effect="non-scaling-stroke"  transform=" translate(-13155.57, -5923.32)" d="M 12938.20347 6841.18225 C 12938.20347 6841.18225 13123.70347 6753.38225 13212.60347 6618.372249999999 C 13350.50347 6408.96225 13510.40347 5645.782249999999 13513.30347 5575.09225 C 13516.30347 5504.40225 13396.70347 5005.452249999999 13396.70347 5005.452249999999 C 13396.70347 5005.452249999999 13275.30347 5013.47225 13244.00347 5074.742249999999 C 13244.00347 5074.742249999999 13268.303469999999 5587.412249999999 13252.90347 5620.312249999999 C 13237.50347 5653.302249999999 12747.00347 6308.012249999999 12802.10347 6447.732249999999 C 12857.30347 6587.452249999999 12938.20347 6841.182249999999 12938.20347 6841.182249999999" stroke-linecap="round" />
</g>
</svg>