<svg id="Layer_1" height="512" viewBox="0 0 512 512" width="512" xmlns="http://www.w3.org/2000/svg" data-name="Layer 1"><path d="m69.5 440.312c-8.167-5.563-15.9-15.312-21.216-26.755-4.053-8.722-6.284-17.671-6.284-25.198v-80.846l74.349-36.378-9.986-4.9-84.363 41.278v80.846c0 7.527 2.231 16.476 6.284 25.2 5.316 11.441 13.049 21.19 21.216 26.753l56.867 38.745 10-6.814z" fill="#d4e1f4"/><g fill="#0635c9"><path d="m163.692 163.207h192.821a6 6 0 1 0 0-12h-192.821a6 6 0 0 0 0 12z"/><path d="m163.692 224.745h192.821a6 6 0 1 0 0-12h-192.821a6 6 0 0 0 0 12z"/><path d="m163.692 276.027h192.821a6 6 0 0 0 0-12h-192.821a6 6 0 0 0 0 12z"/><path d="m502 359.138a31.641 31.641 0 1 0 -37.641 31.062v58.443h-44.411v-352.975a6 6 0 0 0 -6-6h-55.538v-63.984a6 6 0 0 0 -6-6h-184.61a6 6 0 0 0 -6 6v63.984h-55.543a6 6 0 0 0 -6 6v163.886h12v-157.886h295.691v346.975h-59.794v-28.668a6 6 0 0 0 -6-6h-29.9v-91.1a6 6 0 0 0 -6-6h-92.306a6 6 0 0 0 -6 6v91.1h-20.666v12h148.872v22.668h-182.975a6 6 0 0 0 0 12h342.821a6 6 0 0 0 0-12h-19.641v-58.443a31.689 31.689 0 0 0 25.641-31.062zm-328.2-327.454h172.61v57.984h-172.61zm46.153 297.194h34.147v84.739h12v-84.739h34.154v85.1h-80.306zm230.77 30.26a19.641 19.641 0 1 1 19.641 19.64 19.664 19.664 0 0 1 -19.646-19.64z"/></g><path d="m199.377 298.508-90.367-44.341a6 6 0 0 0 -5.28 0l-90.367 44.212a6 6 0 0 0 -3.363 5.39v84.59c0 9.37 2.56 19.832 7.4 30.254 6.2 13.347 15.44 24.87 25.343 31.616l60.245 41.046a6 6 0 0 0 6.756 0l60.245-41.046c18.362-12.506 32.744-39.683 32.744-61.87v-84.459a6 6 0 0 0 -3.356-5.392zm-8.643 89.851c0 18.008-12.593 41.8-27.5 51.953l-56.867 38.745-56.867-38.745c-8.167-5.563-15.9-15.312-21.216-26.755-4.053-8.722-6.284-17.671-6.284-25.198v-80.846l84.363-41.278 84.371 41.4z" fill="#1ae5be"/><path d="m72.319 366a6 6 0 0 0 -8.379 8.59l27.3 26.623a6 6 0 0 0 8.379 0l49.178-47.965a6 6 0 0 0 -8.379-8.59l-44.991 43.879z" fill="#1ae5be"/></svg>