<svg id="Layer_1" height="512" viewBox="0 0 512 512" width="512" xmlns="http://www.w3.org/2000/svg" data-name="Layer 1"><path d="m367.416 201.524c-7.134-4.859-13.9-13.4-18.555-23.419-3.548-7.635-5.5-15.458-5.5-22.026v-71.179l75.032-38.221-19-8-74.034 36.221v71.176c0 6.568 1.954 14.391 5.5 22.026 4.658 10.024 11.421 18.56 18.555 23.419l49.986 34.055 1.661-1.132z" fill="#d4e1f4"/><g fill="#0635c9"><path d="m59.367 297.755a31.039 31.039 0 0 0 43.158.661q3.8 1.11 7.63 1.926a5.954 5.954 0 0 0 1.167 1.7l157.578 157.58c.056.056.115.106.17.162.026.024.051.049.077.072a89.329 89.329 0 0 0 126.09-126.57l-157.578-157.581a5.966 5.966 0 0 0 -1.78-1.21q-.813-3.779-1.9-7.53a31.005 31.005 0 0 0 -32.592-50.624 106 106 0 0 0 -138.495.086 5.925 5.925 0 0 0 -.469.417q-2.657 2.327-5.178 4.841a106 106 0 0 0 -5.319 144.184 30.953 30.953 0 0 0 7.441 31.886zm280.8-2.575-18.267 39.736-59.8 10.739 17.833-110.708zm-84.285 63.783.043-.008 59.875-10.755-44.5 96.838-75.329-75.318zm130.875 92.174a77.426 77.426 0 0 1 -106.362 2.844l68.82-149.753 37.542 37.543a77.42 77.42 0 0 1 -.003 109.366zm-117.295-226.659-19.881 123.422-63.945 11.482-56.736-56.735c1.171.039 2.341.062 3.51.062a106.2 106.2 0 0 0 105.784-109.5zm-231.25-29.463a93.525 93.525 0 0 1 12.917-45.971q.075 1.111.208 2.228c1.5 12.5 10.419 22.548 23.282 26.223a37.173 37.173 0 0 0 10.207 1.443 33.383 33.383 0 0 0 26.24-12.243 21.822 21.822 0 0 0 4.186-18.346 23.3 23.3 0 0 0 -12.214-15.958c-7.918-4.032-16.9-2.959-22.875 2.735-5.953 5.668-7.4 14.195-3.786 22.252a6 6 0 1 0 10.947-4.914c-1.494-3.328-1.077-6.561 1.114-8.648 1.784-1.7 5.125-2.783 9.157-.731a11.5 11.5 0 0 1 5.926 7.791 9.834 9.834 0 0 1 -1.818 8.313c-5.374 6.7-14.709 9.364-23.788 6.767-8.255-2.357-13.736-8.381-14.663-16.111-1.273-10.623 3.338-19.058 7.613-24.41a93.431 93.431 0 0 1 59.7-22.783q.828-.014 1.656-.014a93.455 93.455 0 0 1 63.908 25.1 6 6 0 0 0 6.789.961 18.948 18.948 0 0 1 21.974 3.539 19.022 19.022 0 0 1 0 26.867 17.966 17.966 0 0 1 -1.5 1.341 6 6 0 0 0 -1.958 6.579 94.031 94.031 0 0 1 -118.834 118.846 6 6 0 0 0 -6.546 1.916 19.292 19.292 0 0 1 -1.33 1.482 19 19 0 0 1 -30.44-21.912 6 6 0 0 0 -.973-6.766 93.5 93.5 0 0 1 -25.099-65.576z"/><path d="m87.761 245a10.995 10.995 0 0 0 7.779-18.772 11 11 0 1 0 -7.779 18.772zm.708-11.7a1 1 0 0 1 -1.414 1.414zm-1.414 0a1 1 0 0 1 1.413 0l-1.414 1.414a1 1 0 0 1 .001-1.414z"/><path d="m169.622 163.139a11 11 0 0 0 7.779-18.773 11 11 0 1 0 -7.778 18.774zm-.706-11.7a1 1 0 0 1 1.414 0 1 1 0 0 1 0 1.413 1.046 1.046 0 0 1 -1.414 0 1 1 0 0 1 0-1.414z"/><path d="m156.234 263.347a41.987 41.987 0 0 0 29.7-71.68 6 6 0 0 0 -8.485 8.486 30 30 0 1 1 -42.426 42.426 6 6 0 0 0 -8.486 8.486 41.871 41.871 0 0 0 29.697 12.282z"/></g><path d="m482.445 66.079-80-39.253a6 6 0 0 0 -5.28 0l-80 39.142a6 6 0 0 0 -3.363 5.389v74.887c0 8.4 2.288 17.758 6.616 27.072 5.541 11.925 13.805 22.228 22.672 28.269l53.333 36.337a6 6 0 0 0 6.757 0l53.333-36.337c16.424-11.187 29.289-35.5 29.289-55.341v-74.778a6 6 0 0 0 -3.357-5.387zm-8.645 80.162c0 15.744-11.011 36.545-24.046 45.423l-49.954 34.036-49.956-34.036c-7.131-4.857-13.89-13.389-18.545-23.407-3.547-7.631-5.5-15.449-5.5-22.016v-71.141l74-36.2 74 36.31z" fill="#1ae5be"/><path d="m370.14 125.954a6 6 0 1 0 -8.379 8.59l24.166 23.568a6 6 0 0 0 8.379 0l43.536-42.462a6 6 0 1 0 -8.379-8.589l-39.347 38.376z" fill="#1ae5be"/></svg>