<svg id="Layer_1" height="512" viewBox="0 0 512 512" width="512" xmlns="http://www.w3.org/2000/svg" data-name="Layer 1"><g fill="#0635c9"><path d="m408.8 111.871v-26.964a6 6 0 0 0 -3.45-5.431l-146.8-68.908a6.01 6.01 0 0 0 -5.1 0l-146.8 68.908a6 6 0 0 0 -3.45 5.431v26.964a6 6 0 0 0 6 6h14.545a21.034 21.034 0 0 0 17.4 30.594q.681.042 1.355.042a20.865 20.865 0 0 0 9.025-2.049v105.718h-4.033a6 6 0 0 0 -5.366 3.317l-5.026 10.032a6 6 0 0 0 -.633 2.683v4.031h-15.035a6 6 0 0 0 -6 6v23.705a6 6 0 0 0 6 6h269.136a6 6 0 0 0 6-6v-23.705a6 6 0 0 0 -6-6h-16.315v-4.031a5.992 5.992 0 0 0 -.634-2.683l-5.019-10.032a6 6 0 0 0 -5.367-3.317h-4.031v-106.395a21.032 21.032 0 0 0 31.362-18.909 20.431 20.431 0 0 0 -2.395-9h14.631a6 6 0 0 0 6-6.001zm-260.135 22.183a9 9 0 0 1 -6.783 2.434 9.145 9.145 0 0 1 -8.441-8.441 9.05 9.05 0 0 1 9.03-9.635h55.229a9.27 9.27 0 0 1 9.357 8.789 9.047 9.047 0 1 1 -18.091.258 6 6 0 0 0 -6-6h-25.447a6 6 0 0 0 -6 6 8.967 8.967 0 0 1 -2.854 6.595zm14.854-.595h12.169v118.717h-12.169zm-15.048 136.165 2.723-5.448h36.817l2.724 5.449v2.614h-42.264zm236.1 26.32h-257.139v-11.705h257.136zm-22.315-26.32v2.615h-42.267v-2.615l2.724-5.448h36.816zm-27.216-17.448v-118.717h12.169v118.717zm40.978-118.408a9.048 9.048 0 0 1 -15.534-6.309 6 6 0 0 0 -6-6h-25.447a6 6 0 0 0 -6 6 9.048 9.048 0 0 1 -9.637 9.029 9.142 9.142 0 0 1 -8.44-8.441 9.05 9.05 0 0 1 9.029-9.635h55.227a9.27 9.27 0 0 1 9.356 8.789 8.989 8.989 0 0 1 -2.557 6.567zm-83.032-4.978a21.048 21.048 0 0 0 19.674 19.675c.454.028.905.042 1.356.042a20.858 20.858 0 0 0 9.024-2.049v105.718h-4.032a6 6 0 0 0 -5.366 3.317l-5.016 10.032a5.992 5.992 0 0 0 -.634 2.683v4.031h-105.257v-4.031a6 6 0 0 0 -.633-2.684l-5.017-10.032a6 6 0 0 0 -5.366-3.316h-4.031v-106.395a21.032 21.032 0 0 0 31.362-18.909 20.432 20.432 0 0 0 -2.4-9h78.607a20.91 20.91 0 0 0 -2.274 10.918zm103.814-22.919h-281.6v-17.152l140.8-66.091 140.8 66.091z"/><path d="m255.989 33.866a35.278 35.278 0 0 0 -34.706 29.228h-7.133a6 6 0 0 0 0 12h7.133a35.22 35.22 0 0 0 69.412 0h7.188a6 6 0 1 0 0-12h-7.183a35.277 35.277 0 0 0 -34.711-29.228zm0 58.455a23.228 23.228 0 1 1 23.228-23.227 23.254 23.254 0 0 1 -23.228 23.227z"/><path d="m255.989 60.9a9 9 0 1 0 9 9 9.005 9.005 0 0 0 -9-9zm0 12a3 3 0 1 1 3-3 3.007 3.007 0 0 1 -3 3z"/><path d="m256 153.871a50.041 50.041 0 1 0 50.041 50.041 50.1 50.1 0 0 0 -50.041-50.041zm0 88.081a38.041 38.041 0 1 1 38.041-38.04 38.083 38.083 0 0 1 -38.041 38.04z"/><path d="m256 189.665a4.014 4.014 0 0 1 4.009 4.01 6 6 0 0 0 12 0 16.025 16.025 0 0 0 -10.009-14.832v-.677a6 6 0 0 0 -12 0v.677a16 16 0 0 0 6 30.841 4.007 4.007 0 0 1 .045 8.014c-.015 0-.03 0-.045 0s-.03 0-.045 0a4.011 4.011 0 0 1 -3.964-4 6 6 0 0 0 -12 0 16.027 16.027 0 0 0 10.009 14.827v1.132a6 6 0 1 0 12 0v-1.132a16 16 0 0 0 -6-30.841 4.01 4.01 0 0 1 0-8.019z"/></g><path d="m95.063 352.686 42.851 138.818 13.04-.055-45.933-148.806-47.529.203 1.259 9.994z" fill="#d4e1f4"/><path d="m135.607 378.336a53.634 53.634 0 0 0 19.623-11.21l11.914-10.7a74.889 74.889 0 0 1 77.718-7.8l5.041 2.212a64.179 64.179 0 0 0 27.891 6.066l48.79-.208a29.786 29.786 0 0 1 15.732 4.414 30.3 30.3 0 0 0 -25.775-14.372l-48.79.208a64.165 64.165 0 0 1 -27.891-6.066l-5.04-2.211a74.89 74.89 0 0 0 -77.718 7.8l-11.915 10.7a53.628 53.628 0 0 1 -19.623 11.211l23.944 77.35 5.812-3.709z" fill="#d4e1f4"/><path d="m163.917 500.728a6.244 6.244 0 0 0 .9-5.442l-11.624-37.611 35.6-22.75a21.189 21.189 0 0 1 15.421-2.072c.125.031.25.05.376.073l73.4 13.189a95.456 95.456 0 0 0 58.941-8.58 5.929 5.929 0 0 0 .732-.435l126.483-87.64a6 6 0 0 0 1.71-8.048 35.349 35.349 0 0 0 -47.19-12.691l-1.777.969c-8.974-10.5-24.206-14.451-35.8-8.512l-.133.07-4.774 2.6a39.326 39.326 0 0 0 -44.737-3.848l-27.3 14.8-36.445.155a52.081 52.081 0 0 1 -22.661-4.891l-5.039-2.317a86.851 86.851 0 0 0 -90.347 9.262c-.131.1-.257.229-.38.339l-12.1 10.879a41.634 41.634 0 0 1 -15.157 8.674l-6.843-22.08a5.975 5.975 0 0 0 -5.757-4.2l-58.748.251a5.96 5.96 0 0 0 -5.928 6.713l20.266 160.727a6.206 6.206 0 0 0 5.979 5.478l88.122-.376a6.237 6.237 0 0 0 4.81-2.686zm222.7-168.9c6.23-3.149 14.047-.786 19.286 3.849l-47.332 25.8-2.271 1.21a42.222 42.222 0 0 0 -6.129-11.017zm-49.323-1.15c.048-.026.1-.053.142-.08a27.27 27.27 0 0 1 26.924-.318l-23.26 12.662a42.1 42.1 0 0 0 -14.207-6.549zm-192.1 26.49 11.915-10.7a74.893 74.893 0 0 1 77.718-7.8l5.04 2.211a64.165 64.165 0 0 0 27.891 6.066l48.79-.208a30.5 30.5 0 0 1 29.717 24.042l-34.691-1.321a212.141 212.141 0 0 0 -38.573 2 6.019 6.019 0 0 0 1.7 11.917 200.344 200.344 0 0 1 36.386-1.83l41.625 1.709c.091 0 .181.007.272.007a6 6 0 0 0 5.974-6.025c0-.781-.032-1.556-.077-2.327l5.392-2.872 60.146-32.78a23.369 23.369 0 0 1 27.7 3.943l-120.935 83.789a83.371 83.371 0 0 1 -51.09 7.308l-73.2-13.157a33.141 33.141 0 0 0 -24.134 3.381c-.094.053-.186.109-.277.166l-32.972 21.042-23.944-77.35a53.628 53.628 0 0 0 19.62-11.211zm-68.941 134.6-18.761-148.922 47.529-.2 45.933 148.806z" fill="#1ae5be"/><path d="m92.532 469.13a17.75 17.75 0 1 0 17.674-17.83 17.769 17.769 0 0 0 -17.674 17.83zm17.725-5.826a5.75 5.75 0 1 1 -5.725 5.774 5.757 5.757 0 0 1 5.725-5.778z" fill="#1ae5be"/></svg>