<svg id="Layer_1" height="512" viewBox="0 0 512 512" width="512" xmlns="http://www.w3.org/2000/svg" data-name="Layer 1"><path d="m274 35.639c-5.088-.417-10.215-.64-15.376-.64-.044 0-.086 0-.127 0h-.251c-92.138.062-168.946 68.041-184.735 157.332.121-.136.242-.269.364-.4.086-.093.175-.184.266-.271a55.552 55.552 0 0 1 33.944-15.778c20.485-76.268 86.252-133.675 165.915-140.243z" fill="#d4e1f4"/><path d="m256.122 24h-.369a194.25 194.25 0 0 0 -194.123 194.378 6 6 0 0 0 11.8 1.528c1.347-5.1 6.124-19.646 12.054-26.076a42.309 42.309 0 0 1 29.265-11.843h.2a41.2 41.2 0 0 1 28.967 11.8 42.3 42.3 0 0 1 11.893 29.291 6 6 0 0 0 12 0 40.474 40.474 0 0 1 41.123-41.093 41.2 41.2 0 0 1 29.17 11.8 42.3 42.3 0 0 1 11.898 29.295v96.264a6 6 0 1 0 12 0v-96.264a40.482 40.482 0 0 1 41.323-41.09 41.207 41.207 0 0 1 28.969 11.8 42.3 42.3 0 0 1 11.894 29.289 6 6 0 1 0 12 0 40.472 40.472 0 0 1 41.12-41.092h.2a41.207 41.207 0 0 1 28.965 11.8c5.952 6.405 10.745 21.006 12.093 26.111a6 6 0 0 0 11.8-1.527v-.248c-.064-107.067-87.186-194.123-194.242-194.123zm179.013 161.484c-.054-.057-.109-.113-.164-.168a53.115 53.115 0 0 0 -37.433-15.326 54.217 54.217 0 0 0 -37.86 15.237c-.088.083-.174.169-.257.257a57.609 57.609 0 0 0 -9.235 12.924 57.682 57.682 0 0 0 -9.237-12.924c-.053-.057-.108-.113-.164-.168a53.111 53.111 0 0 0 -37.432-15.326h-.261a54.109 54.109 0 0 0 -37.6 15.236c-.088.083-.173.168-.256.256a57.633 57.633 0 0 0 -9.236 12.918 57.686 57.686 0 0 0 -9.235-12.924q-.081-.086-.165-.168a53.115 53.115 0 0 0 -37.431-15.325 54.264 54.264 0 0 0 -37.861 15.236c-.088.083-.174.169-.257.257a57.71 57.71 0 0 0 -9.237 12.925 57.637 57.637 0 0 0 -9.235-12.925c-.054-.057-.108-.113-.164-.168a53.11 53.11 0 0 0 -37.432-15.325h-.26a54.115 54.115 0 0 0 -37.6 15.235c-.089.083-.175.17-.258.258-.132.14-.26.28-.39.424a182.368 182.368 0 0 1 179.354-149.9h.165.129a182.368 182.368 0 0 1 179.4 149.91c-.123-.145-.256-.286-.388-.426z" fill="#0635c9"/><g fill="#1ae5be"><path d="m256 316a86 86 0 1 0 86 86 86.1 86.1 0 0 0 -86-86zm0 160a74 74 0 1 1 74-74 74.083 74.083 0 0 1 -74 74z"/><path d="m298 372.33-56.164 56.163-27.836-27.839a6 6 0 1 0 -8.484 8.484l32.084 32.082a6 6 0 0 0 8.484 0l60.406-60.406a6 6 0 1 0 -8.49-8.484z"/></g></svg>