<svg id="Layer_1" height="512" viewBox="0 0 512 512" width="512" xmlns="http://www.w3.org/2000/svg" data-name="Layer 1"><path d="m380.382 210.732a12.1 12.1 0 0 1 12.087-12.086h-20a12.087 12.087 0 1 0 0 24.173h20a12.1 12.1 0 0 1 -12.087-12.087z" fill="#d4e1f4"/><path d="m325.008 403.686v-168.892a17.583 17.583 0 0 1 17.563-17.563h-20a17.583 17.583 0 0 0 -17.563 17.563v168.892a17.583 17.583 0 0 0 17.563 17.563h20a17.583 17.583 0 0 1 -17.563-17.563z" fill="#d4e1f4"/><g fill="#0635c9"><path d="m85.9 210.581a22.233 22.233 0 0 0 .159 44.466h.169a22.233 22.233 0 0 0 -.161-44.466zm10.4 22.157a10.233 10.233 0 1 1 -10.308-10.157h.076a10.245 10.245 0 0 1 10.226 10.157z"/><path d="m26 175.406h.052l18.771-.162c-8.193 6.71-13.375 17.5-13.284 29.849a6.107 6.107 0 0 0 .053.753l9.684 72.223a21.686 21.686 0 0 0 17.9 20.748l.169 22.9a13.832 13.832 0 0 0 13.828 13.73h.1l23.781-.175a13.833 13.833 0 0 0 13.729-13.933l-.165-22.53 188.434-1.389a6 6 0 0 0 -.043-12h-.045l-235.964 1.743h-.072a9.674 9.674 0 0 1 -9.661-9.592 6.107 6.107 0 0 0 -.053-.753l-9.679-72.177c.054-14.791 10.078-23.9 20.193-24.592a5.941 5.941 0 0 0 .946.084h.044l295.482-2.177c.044 0 .088.007.132.007h.2c8.894 0 16.579 5.739 20.08 15.01a6 6 0 0 0 11.227-4.24 36.267 36.267 0 0 0 -11.61-15.933l19.214-.148a6 6 0 0 0 5.946-6.334 58.409 58.409 0 0 0 -2.911-14.117c-3.441-10.079-14.071-16.5-27.116-16.434-7.722.056-21.54.109-28.025.132l-12.757-23.099c-9-15.865-22.089-34.044-43.636-34.044h-.282l-155.917 1.144c-17.686.131-33.282 12.463-43.928 34.731l-12.961 23.369c-6.484.035-20.5.112-28.277.169-13.03.1-23.578 6.7-26.872 16.832a58.418 58.418 0 0 0 -2.7 14.159 6 6 0 0 0 6 6.245zm72.783 146.026a1.791 1.791 0 0 1 -.527 1.3 1.819 1.819 0 0 1 -1.29.547l-23.78.175a1.71 1.71 0 0 1 -1.3-.527 1.8 1.8 0 0 1 -.546-1.291l-.166-22.536 27.444-.2zm160.151-154.732a26.508 26.508 0 0 1 25.843-21.735h.2a26.476 26.476 0 0 1 25.967 21.353zm116.516-18.93h.192c7.569 0 13.777 3.326 15.48 8.313a45.08 45.08 0 0 1 1.3 4.626l-31.257.242-7.217-13.072c6.927-.029 15.845-.068 21.502-.109zm-274.05-27.478c.061-.109.118-.22.171-.332 4.96-10.424 15.878-27.931 33.262-28.059l155.917-1.149h.195c12.144 0 22.084 8.38 33.163 27.905l26.154 47.373-27.179.2a38.458 38.458 0 0 0 -38.1-33.263h-.29a38.52 38.52 0 0 0 -37.9 33.824l-171.886 1.267zm-67.281 38.421c1.644-5.054 7.892-8.487 15.548-8.543 5.639-.042 14.563-.093 21.513-.132l-7.232 13.039-31.058.269a45.306 45.306 0 0 1 1.229-4.633z"/><path d="m161.456 267.979a6 6 0 0 0 6 5.956h.045l91.953-.678a6 6 0 0 0 -.043-12h-.045l-91.953.678a6 6 0 0 0 -5.957 6.044z"/><path d="m171.7 239.357h.045a6 6 0 0 0 5.956-6.045l-.11-14.958a6 6 0 0 0 -6-5.956h-.045a6 6 0 0 0 -5.956 6.044l.11 14.959a6 6 0 0 0 6 5.956z"/><path d="m143.884 212.6h-.045a6 6 0 0 0 -5.956 6.044l.11 14.959a6 6 0 0 0 6 5.956h.045a6 6 0 0 0 5.956-6.044l-.11-14.959a6 6 0 0 0 -6-5.956z"/><path d="m282.373 211.582a6 6 0 0 0 -5.956 6.044l.11 14.959a6 6 0 0 0 6 5.956h.045a6 6 0 0 0 5.956-6.045l-.11-14.959a6.02 6.02 0 0 0 -6.045-5.955z"/><path d="m199.406 239.153h.045a6 6 0 0 0 5.956-6.045l-.11-14.959a6 6 0 0 0 -12 .089l.11 14.959a6 6 0 0 0 5.999 5.956z"/><path d="m227.112 238.949h.045a6 6 0 0 0 5.956-6.044l-.113-14.959a6 6 0 0 0 -6-5.956h-.045a6 6 0 0 0 -5.955 6.044l.109 14.959a6 6 0 0 0 6.003 5.956z"/><path d="m254.819 238.745h.045a6 6 0 0 0 5.956-6.045l-.11-14.959a6 6 0 0 0 -6-5.955h-.045a6 6 0 0 0 -5.956 6.044l.11 14.959a6 6 0 0 0 6 5.956z"/></g><path d="m462.437 205.231h-26.452a24.124 24.124 0 0 0 -23.446-18.585h-40.07a24.124 24.124 0 0 0 -23.446 18.585h-26.452a29.6 29.6 0 0 0 -29.563 29.563v168.892a29.6 29.6 0 0 0 29.563 29.563h139.866a29.6 29.6 0 0 0 29.563-29.563v-168.892a29.6 29.6 0 0 0 -29.563-29.563zm-89.968-6.585h40.07a12.087 12.087 0 1 1 0 24.173h-40.07a12.087 12.087 0 1 1 0-24.173zm107.531 205.04a17.583 17.583 0 0 1 -17.563 17.563h-139.866a17.583 17.583 0 0 1 -17.563-17.563v-168.892a17.583 17.583 0 0 1 17.563-17.563h26.709a24.124 24.124 0 0 0 23.189 17.588h40.07a24.125 24.125 0 0 0 23.189-17.588h26.709a17.583 17.583 0 0 1 17.563 17.563z" fill="#1ae5be"/><path d="m392.5 260.223a59.017 59.017 0 1 0 59.017 59.017 59.084 59.084 0 0 0 -59.017-59.017zm0 106.033a47.017 47.017 0 1 1 47.017-47.016 47.07 47.07 0 0 1 -47.017 47.016z" fill="#1ae5be"/><path d="m416.586 299.689-30.988 29.6-15.837-15.837a6 6 0 1 0 -8.485 8.486l19.984 19.982a6 6 0 0 0 8.386.1l35.229-33.649a6 6 0 0 0 -8.289-8.678z" fill="#1ae5be"/></svg>