<svg id="Layer_1" height="512" viewBox="0 0 512 512" width="512" xmlns="http://www.w3.org/2000/svg" data-name="Layer 1"><path d="m411.588 120.874a6 6 0 0 0 6.843-5.019 92.207 92.207 0 0 0 -25.823-78.955 91.9 91.9 0 0 0 -145.838 21.46 91.833 91.833 0 1 0 -145.839 108.388l141.6 141.6a6 6 0 0 0 8.486 0l27.128-27.129a6 6 0 0 0 -8.485-8.485l-22.89 22.883-137.353-137.353a79.82 79.82 0 1 1 131.7-83.084 6 6 0 0 0 11.314 0 79.828 79.828 0 0 1 131.7-29.8 80.168 80.168 0 0 1 22.448 68.649 6 6 0 0 0 5.009 6.845z" fill="#0635c9"/><g fill="#1ae5be"><path d="m434.968 147.536a115.655 115.655 0 0 0 -222.383.035 33.409 33.409 0 0 0 0 63.532 115.654 115.654 0 0 0 222.383.035 33.416 33.416 0 0 0 0-63.6zm-6.056 52.794a6 6 0 0 0 -4.654 4.42 103.648 103.648 0 0 1 -200.959-.021 6 6 0 0 0 -4.635-4.417 21.4 21.4 0 0 1 0-41.95 6 6 0 0 0 4.635-4.417 103.648 103.648 0 0 1 200.959-.021 6 6 0 0 0 4.654 4.42 21.409 21.409 0 0 1 0 41.986z"/><path d="m375.113 169.979a16.723 16.723 0 1 0 16.724 16.721 16.741 16.741 0 0 0 -16.724-16.721zm0 21.446a4.723 4.723 0 1 1 4.724-4.724 4.729 4.729 0 0 1 -4.724 4.724z"/><path d="m272.532 166.443a16.724 16.724 0 1 0 16.723 16.724 16.743 16.743 0 0 0 -16.723-16.724zm0 21.447a4.724 4.724 0 1 1 4.723-4.723 4.729 4.729 0 0 1 -4.723 4.723z"/><path d="m354.83 214.5a6 6 0 0 0 -6 6 25.008 25.008 0 1 1 -50.015 0 6 6 0 0 0 -12 0 37.008 37.008 0 1 0 74.015 0 6 6 0 0 0 -6-6z"/><path d="m281.439 124.346a5.982 5.982 0 0 0 4.243-1.757l20.974-20.974a6 6 0 0 0 -8.485-8.486l-20.971 20.971a6 6 0 0 0 4.242 10.243z"/><path d="m307.449 122.588a6 6 0 0 0 8.486 0l20.974-20.974a6 6 0 0 0 -8.486-8.486l-20.974 20.972a6 6 0 0 0 0 8.488z"/></g><path d="m95.063 352.686 42.851 138.818 13.04-.055-45.933-148.806-47.529.203 1.259 9.994z" fill="#d4e1f4"/><path d="m135.607 378.336a53.634 53.634 0 0 0 19.623-11.21l11.914-10.7a74.889 74.889 0 0 1 77.718-7.8l5.041 2.212a64.179 64.179 0 0 0 27.891 6.066l48.79-.208a29.786 29.786 0 0 1 15.732 4.414 30.3 30.3 0 0 0 -25.775-14.372l-48.79.208a64.165 64.165 0 0 1 -27.891-6.066l-5.04-2.211a74.89 74.89 0 0 0 -77.718 7.8l-11.915 10.7a53.628 53.628 0 0 1 -19.623 11.211l23.944 77.35 5.812-3.709z" fill="#d4e1f4"/><path d="m163.917 500.728a6.244 6.244 0 0 0 .9-5.442l-11.624-37.611 35.6-22.75a21.189 21.189 0 0 1 15.421-2.072c.125.031.25.05.376.073l73.4 13.189a95.456 95.456 0 0 0 58.941-8.58 5.929 5.929 0 0 0 .732-.435l126.483-87.64a6 6 0 0 0 1.71-8.048 35.349 35.349 0 0 0 -47.19-12.691l-1.777.969c-8.974-10.5-24.206-14.451-35.8-8.512l-.133.07-4.774 2.6a39.326 39.326 0 0 0 -44.737-3.848l-27.3 14.8-36.445.155a52.081 52.081 0 0 1 -22.661-4.891l-5.039-2.317a86.851 86.851 0 0 0 -90.347 9.262c-.131.1-.257.229-.38.339l-12.1 10.879a41.634 41.634 0 0 1 -15.157 8.674l-6.843-22.08a5.975 5.975 0 0 0 -5.757-4.2l-58.748.251a5.96 5.96 0 0 0 -5.928 6.713l20.266 160.727a6.206 6.206 0 0 0 5.979 5.478l88.122-.376a6.237 6.237 0 0 0 4.81-2.686zm222.7-168.9c6.23-3.149 14.047-.786 19.286 3.849l-47.332 25.8-2.271 1.21a42.222 42.222 0 0 0 -6.129-11.017zm-49.323-1.15c.048-.026.1-.053.142-.08a27.27 27.27 0 0 1 26.924-.318l-23.26 12.662a42.1 42.1 0 0 0 -14.207-6.549zm-192.1 26.49 11.915-10.7a74.893 74.893 0 0 1 77.718-7.8l5.04 2.211a64.165 64.165 0 0 0 27.891 6.066l48.79-.208a30.5 30.5 0 0 1 29.717 24.042l-34.691-1.321a212.141 212.141 0 0 0 -38.573 2 6.019 6.019 0 0 0 1.7 11.917 200.344 200.344 0 0 1 36.386-1.83l41.625 1.709c.091 0 .181.007.272.007a6 6 0 0 0 5.974-6.025c0-.781-.032-1.556-.077-2.327l5.392-2.872 60.146-32.78a23.369 23.369 0 0 1 27.7 3.943l-120.935 83.789a83.371 83.371 0 0 1 -51.09 7.308l-73.2-13.157a33.141 33.141 0 0 0 -24.134 3.381c-.094.053-.186.109-.277.166l-32.972 21.042-23.944-77.35a53.628 53.628 0 0 0 19.62-11.211zm-68.941 134.6-18.761-148.922 47.529-.2 45.933 148.806z" fill="#1ae5be"/><path d="m92.532 469.13a17.75 17.75 0 1 0 17.674-17.83 17.769 17.769 0 0 0 -17.674 17.83zm17.725-5.826a5.75 5.75 0 1 1 -5.725 5.774 5.757 5.757 0 0 1 5.725-5.778z" fill="#1ae5be"/></svg>