<svg id="Layer_1" height="512" viewBox="0 0 512 512" width="512" xmlns="http://www.w3.org/2000/svg" data-name="Layer 1"><path d="m478.867 335.011v-.571q-5.6-2.457-11.116-5.079 5.517 2.904 11.116 5.65z" fill="#d4e1f4"/><path d="m373.131 474.971c-26.74-19.572-40.3-44.277-40.3-73.428v-59.1a428.521 428.521 0 0 0 78.735-45.114q-6.951-4.692-13.718-9.65a428.562 428.562 0 0 1 -81.017 46.764v59.1c0 29.151 13.558 53.856 40.3 73.428a151.884 151.884 0 0 0 29.271 16.6 142.907 142.907 0 0 1 -13.271-8.6z" fill="#d4e1f4"/><g fill="#0635c9"><path d="m21.133 418.29a6 6 0 0 0 6 6h287.048a6 6 0 0 0 0-12h-281.048v-164.65h358.717v32.565a6 6 0 1 0 12 0v-38.574c0-.195-.011-.39-.03-.583v-.023c-.017-.167-.045-.331-.076-.494a5.919 5.919 0 0 0 -.556-1.624c-.017-.033-.031-.067-.048-.1-.056-.1-.12-.2-.182-.306-.041-.066-.078-.134-.121-.2s-.1-.129-.143-.194c-.068-.093-.134-.188-.207-.277-.029-.035-.06-.066-.089-.1-.1-.113-.2-.226-.3-.333l-.018-.016a5.927 5.927 0 0 0 -.907-.74 6.055 6.055 0 0 0 -1.028-.547l-179.527-73.994v-13.625a30.88 30.88 0 0 0 -2.126-60.083v-14.341h6.44a6 6 0 0 0 5.821-4.545l12.44-49.761a6 6 0 0 0 -5.821-7.455h-49.761a6 6 0 0 0 -5.82 7.455l12.44 49.761a6 6 0 0 0 5.821 4.545h6.44v19.756a6 6 0 0 0 6 6 18.88 18.88 0 1 1 -18.881 18.881 6 6 0 1 0 -12 0 30.92 30.92 0 0 0 27.007 30.628v12.75l-183.727 74.008-.028.013c-.136.056-.267.12-.4.184-.051.026-.1.048-.154.074-.1.056-.2.12-.3.181-.071.044-.145.084-.214.13s-.109.081-.164.121a5.9 5.9 0 0 0 -2.313 3.422c-.017.069-.038.135-.053.2s-.026.161-.039.242c-.021.118-.042.236-.055.356-.006.054-.006.109-.011.164-.011.147-.021.3-.022.444v.031zm174.167-394h34.392l-9.441 37.761h-15.515zm19.3 148.306 152.949 63.044h-309.463z"/><path d="m74.626 280.205v99.521a6 6 0 0 0 12 0v-99.521a6 6 0 0 0 -12 0z"/><path d="m140.559 280.205v99.521a6 6 0 0 0 12 0v-99.521a6 6 0 0 0 -12 0z"/><path d="m206.492 280.205v99.521a6 6 0 0 0 12 0v-99.521a6 6 0 0 0 -12 0z"/><path d="m272.425 280.205v99.521a6 6 0 0 0 12 0v-99.521a6 6 0 0 0 -12 0z"/><path d="m338.357 280.205v9.521a6 6 0 0 0 12 0v-9.521a6 6 0 0 0 -12 0z"/></g><path d="m487.231 324.988-.565-.242a416.436 416.436 0 0 1 -85.216-49.346 6 6 0 0 0 -7.2 0 416.42 416.42 0 0 1 -85.209 49.338l-.572.245a6 6 0 0 0 -3.636 5.515v63.04c0 32.724 15.634 61.463 45.21 83.111a159.358 159.358 0 0 0 44.614 22.815 6 6 0 0 0 3.315.015 167.066 167.066 0 0 0 46.1-22.772c30.616-21.646 46.8-50.4 46.8-83.169v-63.038a6 6 0 0 0 -3.641-5.512zm-8.364 68.555c0 29.009-13.947 53.628-41.452 73.175a160.29 160.29 0 0 1 -41.046 20.7 151.748 151.748 0 0 1 -39.238-20.449c-26.74-19.572-40.3-44.277-40.3-73.428v-59.1a428.562 428.562 0 0 0 81.017-46.764 428.537 428.537 0 0 0 81.017 46.764z" fill="#1ae5be"/><path d="m364.583 377.235a6 6 0 0 0 -8.821 8.135l26.038 28.238a6 6 0 0 0 8.464.358l49.316-45.166a6 6 0 0 0 -8.1-8.85l-44.9 41.129z" fill="#1ae5be"/></svg>