<svg id="Layer_1" height="512" viewBox="0 0 512 512" width="512" xmlns="http://www.w3.org/2000/svg" data-name="Layer 1"><path d="m244.569 210.792c-24.269-17.868-36.569-40.38-36.569-66.91v-72.475a394.413 394.413 0 0 0 65.463-36.633q-8.892-5.802-17.463-12.074a394.291 394.291 0 0 1 -74 42.71v72.475c0 26.53 12.3 49.042 36.569 66.91a139.779 139.779 0 0 0 36.077 18.886c1.442-.471 3.757-1.27 6.693-2.423a133.418 133.418 0 0 1 -16.77-10.466z" fill="#d4e1f4"/><g fill="#0635c9"><path d="m489 57.021h-92.838a58.7 58.7 0 0 0 -58.084 49.206l-7.326 43.951a6 6 0 0 0 5.918 6.987h45.541a35.431 35.431 0 0 0 34.862-29.381h1.865a35.434 35.434 0 0 0 34.862-29.384h5.819a35.421 35.421 0 0 0 35.381-35.379 6 6 0 0 0 -6-6zm-29.381 29.379h-41.134a6 6 0 0 0 0 12h23.05a23.422 23.422 0 0 1 -22.6 17.382h-41.135a6 6 0 0 0 0 12h27a23.42 23.42 0 0 1 -22.6 17.381h-38.447l6.162-36.966a46.738 46.738 0 0 1 46.247-39.178h86.058a23.423 23.423 0 0 1 -22.601 17.381z"/><path d="m52.381 98.4h5.819a35.432 35.432 0 0 0 34.862 29.382h1.865a35.431 35.431 0 0 0 34.862 29.381h45.541a6 6 0 0 0 5.918-6.987l-7.326-43.951a58.7 58.7 0 0 0 -58.084-49.206h-92.838a6 6 0 0 0 -6 6 35.421 35.421 0 0 0 35.381 35.381zm63.457-29.381a46.738 46.738 0 0 1 46.247 39.181l6.162 36.966h-38.458a23.42 23.42 0 0 1 -22.6-17.381h27a6 6 0 0 0 0-12h-41.127a23.42 23.42 0 0 1 -22.597-17.385h23.05a6 6 0 0 0 0-12h-41.134a23.423 23.423 0 0 1 -22.6-17.381z"/><path d="m251.893 272.042a6 6 0 0 0 -6 6v18.992a6 6 0 0 0 12 0v-18.992a6 6 0 0 0 -6-6z"/><path d="m258.5 319.157a6 6 0 0 0 -12 0v7.614a6 6 0 0 0 12 0z"/><path d="m252.5 463.511a6 6 0 0 0 -6 6v27.26a6 6 0 0 0 12 0v-27.26a6 6 0 0 0 -6-6z"/><path d="m258.5 349.157a6 6 0 0 0 -12 0v98.807a6 6 0 0 0 12 0z"/><path d="m200.715 239.542a6 6 0 0 0 -6 6v81.492a6 6 0 0 0 12 0v-81.492a6 6 0 0 0 -6-6z"/><path d="m207.321 349.157a6 6 0 0 0 -12 0v17.614a6 6 0 0 0 12 0z"/><path d="m201.321 383.157a6 6 0 0 0 -6 6v57.614a6 6 0 0 0 12 0v-57.614a6 6 0 0 0 -6-6z"/><path d="m149.538 233.034a6 6 0 0 0 6-6v-21.492a6 6 0 0 0 -12 0v21.492a6 6 0 0 0 6 6z"/><path d="m156.144 249.157a6 6 0 0 0 -12 0v117.614a6 6 0 0 0 12 0z"/><path d="m150.144 412.771a6 6 0 0 0 6-6v-17.614a6 6 0 1 0 -12 0v17.614a6 6 0 0 0 6 6z"/><path d="m303.07 239.542a6 6 0 0 0 -6 6v11.492a6 6 0 0 0 12 0v-11.492a6 6 0 0 0 -6-6z"/><path d="m309.676 279.157a6 6 0 0 0 -12 0v87.614a6 6 0 0 0 12 0z"/><path d="m303.676 383.157a6 6 0 0 0 -6 6v57.614a6 6 0 0 0 12 0v-57.614a6 6 0 0 0 -6-6z"/><path d="m354.248 199.542a6 6 0 0 0 -6 6v111.492a6 6 0 0 0 12 0v-111.492a6 6 0 0 0 -6-6z"/><path d="m360.854 339.157a6 6 0 0 0 -12 0v27.614a6 6 0 0 0 12 0z"/><path d="m354.854 383.157a6 6 0 0 0 -6 6v17.614a6 6 0 0 0 12 0v-17.614a6 6 0 0 0 -6-6z"/></g><path d="m173.63 55.96a6 6 0 0 0 -3.63 5.512v76.41c0 30.245 14.441 56.8 41.763 76.8a146.954 146.954 0 0 0 41.166 21.048 5.989 5.989 0 0 0 3.315.016 154.182 154.182 0 0 0 42.526-21.007c28.281-19.994 43.23-46.571 43.23-76.857v-76.41a6 6 0 0 0 -3.63-5.512l-.525-.226a382.349 382.349 0 0 1 -78.245-45.304 6 6 0 0 0 -7.2 0 382.369 382.369 0 0 1 -78.244 45.3zm8.37 9.447a394.291 394.291 0 0 0 74-42.707 394.314 394.314 0 0 0 74 42.71v72.475c0 26.5-12.746 48.992-37.883 66.864a146.981 146.981 0 0 1 -37.471 18.932 139.779 139.779 0 0 1 -36.077-18.886c-24.269-17.871-36.569-40.383-36.569-66.913z" fill="#1ae5be"/><path d="m236.744 151.592a6 6 0 0 0 8.485 0l49.5-49.5a6 6 0 1 0 -8.485-8.485l-45.255 45.255-15.229-15.229a6 6 0 0 0 -8.485 8.486z" fill="#1ae5be"/></svg>