<svg id="Layer_1" height="512" viewBox="0 0 512 512" width="512" xmlns="http://www.w3.org/2000/svg" data-name="Layer 1"><path d="m127.615 95.75h-30a32.012 32.012 0 0 0 -31.976 31.976v202.345h30v-202.345a32.012 32.012 0 0 1 31.976-31.976z" fill="#d4e1f4"/><path d="m95.639 369.605v-27.534h-30v27.534a32.013 32.013 0 0 0 31.976 31.977h30a32.013 32.013 0 0 1 -31.976-31.977z" fill="#d4e1f4"/><path d="m414.385 83.75h-38.456v-30.039a36.753 36.753 0 0 0 -36.712-36.711h-119.492a6.036 6.036 0 0 0 -1 .091l-.1.016a5.9 5.9 0 0 0 -.931.257l-.116.042a5.974 5.974 0 0 0 -.857.411c-.04.023-.078.048-.117.072a6.023 6.023 0 0 0 -.768.555c-.014.012-.03.02-.044.032l-74.933 65.274h-43.244a44.026 44.026 0 0 0 -43.976 43.976v241.879a44.027 44.027 0 0 0 43.976 43.977h152.385v69.418h-72.446a6 6 0 1 0 0 12h161.434a6 6 0 1 0 0-12h-76.988v-69.418h152.385a44.027 44.027 0 0 0 43.976-43.977v-241.879a44.026 44.026 0 0 0 -43.976-43.976zm-50.456-30.039v276.36h-215.858v-233.418h40.942a36.753 36.753 0 0 0 36.712-36.711v-30.942h113.492a24.739 24.739 0 0 1 24.712 24.711zm-205.837 30.942 55.633-48.467v23.756a24.739 24.739 0 0 1 -24.712 24.711zm-60.477 11.097h38.456v234.321h-70.432v-202.345a32.012 32.012 0 0 1 31.976-31.976zm316.77 305.832h-316.77a32.013 32.013 0 0 1 -31.976-31.977v-27.534h380.722v27.534a32.013 32.013 0 0 1 -31.976 31.977zm31.976-71.511h-70.432v-234.321h38.456a32.012 32.012 0 0 1 31.976 31.976z" fill="#0635c9"/><g fill="#1ae5be"><path d="m335.959 165h10.041a6 6 0 0 0 0-12h-10.041a6 6 0 0 0 0 12z"/><path d="m290.657 165h21.593a6 6 0 0 0 0-12h-21.593a6 6 0 0 0 0 12z"/><path d="m290.657 208.333h55.343a6 6 0 0 0 0-12h-55.343a6 6 0 0 0 0 12z"/><path d="m168 251.666h78a6 6 0 0 0 0-12h-78a6 6 0 0 0 0 12z"/><path d="m269 251.666h36.75a6 6 0 0 0 0-12h-36.75a6 6 0 0 0 0 12z"/><path d="m346 239.666h-17a6 6 0 0 0 0 12h17a6 6 0 0 0 0-12z"/><path d="m196 283h-28a6 6 0 0 0 0 12h28a6 6 0 0 0 0-12z"/><path d="m305.75 283h-87a6 6 0 0 0 0 12h87a6 6 0 0 0 0-12z"/><path d="m346 283h-17a6 6 0 0 0 0 12h17a6 6 0 0 0 0-12z"/><path d="m217.423 112.56a6 6 0 0 0 -5.279 0l-40 19.57a6 6 0 0 0 -3.364 5.39v37.44a35.761 35.761 0 0 0 3.588 14.8c2.991 6.438 7.5 12.032 12.367 15.35l26.665 18.169a6 6 0 0 0 6.757 0l26.666-18.168c8.947-6.1 15.955-19.339 15.955-30.151v-37.387a6 6 0 0 0 -3.357-5.387zm31.357 62.4c0 6.891-5 16.346-10.712 20.233l-23.288 15.867-23.288-15.867c-3.086-2.1-6.167-6.023-8.242-10.488a24.164 24.164 0 0 1 -2.47-9.745v-33.7l34-16.633 34 16.684z"/><path d="m202.044 162.669a6 6 0 1 0 -8.379 8.59l12.083 11.784a6 6 0 0 0 8.378 0l21.769-21.23a6 6 0 1 0 -8.379-8.59l-17.579 17.145z"/></g></svg>