<svg id="Layer_1" height="512" viewBox="0 0 512 512" width="512" xmlns="http://www.w3.org/2000/svg" data-name="Layer 1"><path d="m251.676 430.44c-4.053-9.26-6.284-18.764-6.284-26.759v-85.858l81.578-42.389-17.215-8.447-84.363 41.278v80.846c0 7.529 2.231 16.478 6.284 25.2 5.316 11.44 13.049 21.192 21.216 26.754l7.962 5.425a84.652 84.652 0 0 1 -9.178-16.05z" fill="#d4e1f4"/><path d="m256.176 78.914v-16.042a46.1 46.1 0 0 0 -92.2 0v16.042a46.1 46.1 0 0 0 92.2 0zm-80.2 0v-16.042a34.139 34.139 0 0 1 34.1-34.1 34.14 34.14 0 0 1 34.1 34.1v16.042a34.1 34.1 0 0 1 -68.2 0z" fill="#0635c9"/><path d="m274.224 132.464c-1.122-.113-13.474-.195-36.711-.243h-.013a6 6 0 0 0 -5.2 3.014l-20.685 36.057-19.588-35.943a6 6 0 0 0 -5.268-3.129h-33.218a47.722 47.722 0 0 0 -47.667 47.662c0 1.394.2 98.451.212 102.571a28.119 28.119 0 0 0 28.114 28.112h.323a27.529 27.529 0 0 0 16.364-5.644l5.156 170.829a19.889 19.889 0 0 0 19.993 19.48h71.774a20.022 20.022 0 0 0 20-20v-19.687a6 6 0 0 0 -12 0v19.686a8.009 8.009 0 0 1 -8 8h-71.771a7.961 7.961 0 0 1 -8-7.817l-5.584-185.042-.131-8.633a6 6 0 0 0 -6-5.909h-.047a6 6 0 0 0 -5.954 6c0 9.128-7.148 16.637-15.939 16.736h-.18a16.12 16.12 0 0 1 -16.12-16.127c0-1.011-.212-101.174-.212-102.555a35.708 35.708 0 0 1 35.671-35.663h29.646l23.017 42.235a6 6 0 0 0 10.473.114l24.29-42.34c12.7.031 30.164.1 32.15.185a35.7 35.7 0 0 1 31.781 39.066q-.03.3-.03.606v75.452a6 6 0 0 0 12 0v-75.159a47.716 47.716 0 0 0 -42.646-51.914z" fill="#0635c9"/><g fill="#1ae5be"><path d="m402.769 299.26-90.369-44.341a6 6 0 0 0 -5.279 0l-90.367 44.215a6 6 0 0 0 -3.363 5.39v84.59c0 9.373 2.559 19.835 7.4 30.254 6.2 13.347 15.439 24.87 25.343 31.616l60.245 41.046a6 6 0 0 0 6.756 0l60.245-41.046c18.361-12.506 32.744-39.683 32.744-61.87v-84.468a6 6 0 0 0 -3.355-5.386zm-8.643 89.851c0 18.008-12.594 41.8-27.5 51.952l-56.867 38.746-56.867-38.746c-8.167-5.562-15.9-15.314-21.216-26.754-4.053-8.72-6.284-17.669-6.284-25.2v-80.844l84.363-41.278 84.371 41.4z"/><path d="m275.711 366.752a6 6 0 0 0 -8.379 8.59l27.3 26.623a6 6 0 0 0 8.379 0l49.175-47.965a6 6 0 0 0 -8.379-8.59l-44.989 43.879z"/></g></svg>