<svg id="Layer_1" height="512" viewBox="0 0 512 512" width="512" xmlns="http://www.w3.org/2000/svg" data-name="Layer 1"><path d="m236.35 382.961a107.183 107.183 0 0 1 97.039-106.568c-3.294-.307-6.628-.471-10-.471a107.039 107.039 0 0 0 0 214.078c3.372 0 6.706-.164 10-.471a107.183 107.183 0 0 1 -97.039-106.568z" fill="#d4e1f4"/><g fill="#0635c9"><path d="m291.036 72.984v-12.036a36.09 36.09 0 0 0 -72.18 0v12.036a36.09 36.09 0 0 0 72.18 0zm-60.18 0v-12.036a24.09 24.09 0 1 1 48.18 0v12.036a24.09 24.09 0 0 1 -48.18 0z"/><path d="m275.537 111.484h-.013a6 6 0 0 0 -5.2 3.015l-14.187 24.73-13.415-24.617a6 6 0 0 0 -5.269-3.129h-24.926a37.307 37.307 0 0 0 -37.263 37.261c0 1.048.152 73.874.159 76.963a22.6 22.6 0 0 0 22.6 22.591h.256a22.035 22.035 0 0 0 10.688-2.905l1.824 99.564 12-.221-2.073-113.111-.1-6.478a6 6 0 0 0 -6-5.908h-.047a6 6 0 0 0 -5.954 6 10.872 10.872 0 0 1 -10.457 11.061h-.139a10.6 10.6 0 0 1 -10.6-10.606c0-.758-.159-75.913-.159-76.947a25.293 25.293 0 0 1 25.266-25.262h21.356l16.844 30.91a6 6 0 0 0 5.2 3.128 5.941 5.941 0 0 0 5.269-3.014l17.803-31.016c9.305.024 21.5.073 23.152.133a25.291 25.291 0 0 1 22.458 27.667q-.03.3-.03.6v73.8a10.614 10.614 0 0 1 -21.221.4l-.007-.494a6 6 0 0 0 -6-5.9h-.05a6 6 0 0 0 -5.951 6c0 .233 0 .466.01.7l.087 5.308-.89 40.648 12 .262.592-27.061a22.607 22.607 0 0 0 33.43-19.855v-73.513a37.306 37.306 0 0 0 -33.346-40.514c-.372-.037-1.347-.136-27.697-.19z"/><path d="m415.762 85.188a32.364 32.364 0 0 0 32.328-32.328v-10.532a32.328 32.328 0 1 0 -64.656 0v10.532a32.364 32.364 0 0 0 32.328 32.328zm-20.328-42.86a20.328 20.328 0 1 1 40.656 0v10.532a20.328 20.328 0 1 1 -40.656 0z"/><path d="m351.444 201a20.388 20.388 0 0 0 14.506 6.007h.236a20 20 0 0 0 8.568-2.035l1.215 81.966 12-.177-1.494-100.771a6 6 0 0 0 -6-5.91h-.046a6 6 0 0 0 -5.955 6 8.764 8.764 0 0 1 -8.414 8.928h-.108a8.522 8.522 0 0 1 -8.523-8.531c0-.665-.14-66.424-.14-67.328a21.381 21.381 0 0 1 21.357-21.349h18.242l14.526 26.655a6 6 0 0 0 5.2 3.128 5.886 5.886 0 0 0 5.27-3.014l15.351-26.76c8.021.021 18.261.064 19.773.114a21.352 21.352 0 0 1 18.956 23.385 5.822 5.822 0 0 0 -.03.6v64.57a8.537 8.537 0 0 1 -17.068.326l-.007-.423a6 6 0 0 0 -6-5.9h-.05a6 6 0 0 0 -5.951 6c0 .21 0 .418.01.626l.075 4.611-3.63 131.6a2.164 2.164 0 0 1 -2.146 1.827h-17.4v12h17.4a14.118 14.118 0 0 0 14.109-12.82c.013-.135.022-.271.026-.408l3.278-118.884a20.535 20.535 0 0 0 29.352-18.548v-64.285a33.353 33.353 0 0 0 -29.852-36.23c-.362-.037-1.211-.123-24.305-.17h-.012a6 6 0 0 0 -5.2 3.014l-11.747 20.477-11.1-20.363a6 6 0 0 0 -5.269-3.129h-21.802a33.4 33.4 0 0 0 -33.356 33.353c0 .917.134 64.642.14 67.343a20.383 20.383 0 0 0 6.015 14.505z"/><path d="m62.066 42.328v10.532a32.329 32.329 0 0 0 64.657 0v-10.532a32.329 32.329 0 0 0 -64.657 0zm52.657 0v10.532a20.329 20.329 0 0 1 -40.657 0v-10.532a20.329 20.329 0 0 1 40.657 0z"/><path d="m30.077 201a20.387 20.387 0 0 0 14.506 6.007h.234a20.01 20.01 0 0 0 8.76-2.13l3.523 119.063c0 .137.012.273.025.409a14.125 14.125 0 0 0 14.104 12.791h48.571a14.119 14.119 0 0 0 14.11-12.82c.013-.135.022-.271.025-.408l3.279-118.884a20.535 20.535 0 0 0 29.351-18.548v-64.28a33.352 33.352 0 0 0 -29.851-36.23c-.363-.037-1.211-.123-24.3-.17h-.014a6 6 0 0 0 -5.2 3.014l-11.751 20.475-11.1-20.363a6 6 0 0 0 -5.265-3.126h-21.808a33.355 33.355 0 0 0 -33.354 33.35c0 .917.134 64.642.14 67.343a20.378 20.378 0 0 0 6.015 14.507zm12.1-96.952a21.211 21.211 0 0 1 15.1-6.254h18.244l14.526 26.655a6 6 0 0 0 5.2 3.128 5.921 5.921 0 0 0 5.27-3.014l15.351-26.76c8.021.021 18.261.064 19.773.114a21.354 21.354 0 0 1 18.959 23.388 5.823 5.823 0 0 0 -.031.6v64.57a8.537 8.537 0 0 1 -17.067.326l-.007-.423a6 6 0 0 0 -6-5.9h-.05a6 6 0 0 0 -5.951 6c0 .21 0 .418.01.626l.075 4.611-3.63 131.6a2.165 2.165 0 0 1 -2.147 1.827h-48.573a2.167 2.167 0 0 1 -2.147-1.823l-3.892-131.66-.086-5.668a6 6 0 0 0 -6-5.909h-.044a6 6 0 0 0 -5.955 6 8.763 8.763 0 0 1 -8.412 8.928h-.108a8.522 8.522 0 0 1 -8.523-8.531c0-.665-.14-66.424-.14-67.328a21.218 21.218 0 0 1 6.257-15.1z"/></g><path d="m323.389 263.922a119.039 119.039 0 1 0 119.039 119.039 119.173 119.173 0 0 0 -119.039-119.039zm0 226.078a107.039 107.039 0 1 1 107.039-107.039 107.16 107.16 0 0 1 -107.039 107.039z" fill="#1ae5be"/><path d="m323.439 300.325h-.154a83.489 83.489 0 0 0 -83.34 83.449 6 6 0 0 0 11.8 1.525c.7-2.645 2.449-7.306 4.056-9.134a13.983 13.983 0 0 1 9.532-3.821h.066a13.434 13.434 0 0 1 9.385 3.791 13.981 13.981 0 0 1 3.881 9.57 6 6 0 0 0 12 0 13.115 13.115 0 0 1 13.39-13.361h.066a13.429 13.429 0 0 1 9.385 3.792 13.976 13.976 0 0 1 3.881 9.569v57.078a10.814 10.814 0 1 1 -21.627 0v-6.942a6 6 0 0 0 -12 0v6.942a22.814 22.814 0 1 0 45.627 0v-57.078a13.114 13.114 0 0 1 13.388-13.359h.066a13.423 13.423 0 0 1 9.386 3.792 13.974 13.974 0 0 1 3.881 9.568 6 6 0 0 0 12 0 13.113 13.113 0 0 1 13.389-13.36h.065a13.423 13.423 0 0 1 9.374 3.781c1.6 1.78 3.382 6.5 4.091 9.171a6 6 0 0 0 11.8-1.527v-.105a83.394 83.394 0 0 0 -83.393-83.341zm58.161 60.021h-.124a25.722 25.722 0 0 0 -17.879 7.223q-.134.124-.258.258-.641.678-1.224 1.386-.585-.708-1.224-1.387c-.054-.056-.109-.113-.164-.168a25.338 25.338 0 0 0 -17.849-7.312h-.124a25.723 25.723 0 0 0 -17.879 7.223c-.089.082-.174.168-.257.256q-.639.68-1.223 1.386-.585-.707-1.225-1.386c-.054-.057-.108-.114-.165-.169a25.341 25.341 0 0 0 -17.849-7.312h-.123a25.722 25.722 0 0 0 -17.88 7.223c-.087.083-.173.169-.256.257q-.641.679-1.225 1.387-.585-.708-1.224-1.386c-.053-.057-.108-.114-.165-.169a25.338 25.338 0 0 0 -17.848-7.312h-.123a25.366 25.366 0 0 0 -10.151 2.087 71.513 71.513 0 0 1 68.133-50.106h.1a.2.2 0 0 0 .049 0 71.526 71.526 0 0 1 68.136 50.051 25.371 25.371 0 0 0 -9.979-2.03z" fill="#1ae5be"/></svg>