<svg id="Layer_1" height="512" viewBox="0 0 512 512" width="512" xmlns="http://www.w3.org/2000/svg" data-name="Layer 1"><path d="m390.113 94.234-32.919-20.949v-31.259a6 6 0 0 0 -12 0v23.623l-85.972-54.71a6 6 0 0 0 -6.444 0l-130.891 83.295a6 6 0 0 0 3.221 11.061h29.7v168.919a6 6 0 0 0 6 6h190.386a6 6 0 0 0 6-6v-168.914h29.7a6 6 0 0 0 3.221-11.061zm-191.507 127.866a6 6 0 0 0 -5.991-5.668h-6.116l-.01-22.818a16.768 16.768 0 0 1 16.707-16.692l22.532-.015h.011a16.749 16.749 0 0 1 13.852 7.377c.013.018.023.038.036.057a18.411 18.411 0 0 0 -1.1 6.246 18.6 18.6 0 0 0 18.587 18.551h.013a18.588 18.588 0 0 0 18.508-17.295c.06-.049.113-.106.174-.155a16.5 16.5 0 0 1 10.431-3.688l22.531-.016h.012a16.719 16.719 0 0 1 16.717 16.665l.01 17.281h-6.118a6 6 0 0 0 -5.987 5.664l-2.276 40.615h-36.077l.743-8.194h6.488a6 6 0 0 0 6-6.005l-.012-16.017a28.448 28.448 0 0 0 -28.446-28.373h-.025l-5.451.015a28.478 28.478 0 0 0 -28.413 28.414l.012 16.019a6 6 0 0 0 6 6h6.514l.791 8.155h-38.1zm58.5-38.085a6.564 6.564 0 1 1 0 13.128 6.564 6.564 0 1 1 0-13.128zm-7.22 69.463a6 6 0 0 0 -5.972-5.421h-5.964l-.007-10.018a16.479 16.479 0 0 1 16.434-16.4l5.451-.015h.013a16.433 16.433 0 0 1 16.426 16.376l.007 10.018h-5.963a6 6 0 0 0 -5.972 5.458l-1.339 14.738h-11.686zm101.308-160.178a6 6 0 0 0 -6 6v168.914h-22.045l1.922-34.283 6.448-.005a6 6 0 0 0 6-6l-.013-23.281a28.733 28.733 0 0 0 -28.726-28.659h-.013l-22.535.014a28.736 28.736 0 0 0 -14.077 3.726 18.564 18.564 0 0 0 -15.048-7.712h-.013a18.46 18.46 0 0 0 -9.709 2.774 28.7 28.7 0 0 0 -21.649-9.877h-.021l-22.53.015a28.768 28.768 0 0 0 -28.7 28.7l.013 28.818a6 6 0 0 0 6 6h6.436l2.2 39.78h-22.328v-168.924a6 6 0 0 0 -6-6h-15.093l110.287-70.187 91.181 58.024a6 6 0 0 0 1.714 1.091l17.392 11.072z" fill="#1ae5be"/><path d="m256 54.027a23.849 23.849 0 1 0 23.849 23.849 23.877 23.877 0 0 0 -23.849-23.849zm0 35.7a11.849 11.849 0 1 1 11.849-11.849 11.862 11.862 0 0 1 -11.849 11.847z" fill="#1ae5be"/><path d="m214.337 116.346h-.017a23.01 23.01 0 1 0 .015 46.019h.018a23.01 23.01 0 1 0 -.016-46.019zm7.815 30.785a10.981 10.981 0 0 1 -7.807 3.234h-.009a11.038 11.038 0 0 1 -11.039-11 11.026 11.026 0 0 1 11.031-11.018v-6l.008 6a11.038 11.038 0 0 1 11.039 11 10.922 10.922 0 0 1 -3.223 7.784z" fill="#1ae5be"/><path d="m318.108 132.506h-6.3a22.948 22.948 0 0 0 -14.425-5.087h-.017a23.01 23.01 0 1 0 .016 46.019h.016a22.9 22.9 0 0 0 19.746-11.215h.962a14.859 14.859 0 1 0 0-29.717zm-12.908 25.7a10.986 10.986 0 0 1 -7.811 3.233 11.038 11.038 0 0 1 -11.039-11 11.024 11.024 0 0 1 11.031-11.018h.009a11.038 11.038 0 0 1 11.039 11 10.926 10.926 0 0 1 -3.229 7.784zm15.181-9.126a22.831 22.831 0 0 0 -.6-4.019 2.822 2.822 0 0 1 .6 4.019z" fill="#1ae5be"/><g fill="#d4e1f4"><path d="m146.063 319.421a6 6 0 0 1 .2 6.948c.075.1.153.195.228.294a6 6 0 0 0 9.568-7.242 153.22 153.22 0 0 0 -18.769-20.589l-16.541-15.107a19.819 19.819 0 0 1 3.853-1.421 19.975 19.975 0 0 0 -13.853 1.421l16.541 15.107a153.22 153.22 0 0 1 18.773 20.589z"/><path d="m175.508 392.467c-.025-.1-.051-.209-.08-.314a25.348 25.348 0 0 0 -11.245-14.807l-43.628-30.058a57.742 57.742 0 0 1 -21.527-28.388l-17.09-91.971a14.941 14.941 0 0 0 -11.65-8.885l18.74 100.856a57.742 57.742 0 0 0 21.527 28.391l43.628 30.058a25.348 25.348 0 0 1 11.245 14.807c.029.1.055.209.08.314l6.653 29.524 8.529-6.527z"/><path d="m174 443.592 59-45.2v-7.662l-69 52.862v37.152l10-6.614z"/><path d="m279 390.73v7.662l59 45.2v30.538l10 6.614v-37.152z"/><path d="m391.247 283.725-16.541 15.108a153.152 153.152 0 0 0 -18.769 20.588 6 6 0 0 0 9.568 7.242c.075-.1.153-.195.228-.294a6 6 0 0 1 .2-6.948 153.152 153.152 0 0 1 18.769-20.588l16.541-15.108a19.969 19.969 0 0 0 -13.843-1.425 19.777 19.777 0 0 1 3.847 1.425z"/><path d="m430.061 226.926-17.089 91.974a57.728 57.728 0 0 1 -21.513 28.381l-43.642 30.068a25.348 25.348 0 0 0 -11.245 14.807c-.029.1-.055.209-.08.314l-5.182 23 8.529 6.527 6.653-29.524c.025-.1.051-.209.08-.314a25.348 25.348 0 0 1 11.245-14.807l43.642-30.068a57.728 57.728 0 0 0 21.513-28.384l18.74-100.856a14.941 14.941 0 0 0 -11.651 8.882z"/></g><path d="m241.535 372.179a6.109 6.109 0 0 0 -6.365.615l-7.9 6.024a28.151 28.151 0 0 1 -.369-3.062l-.679-11.581c-.01-.164-.031-.328-.053-.491a63.656 63.656 0 0 0 -42.269-51.418l-3.766-1.312a35.559 35.559 0 0 1 -13.382-8.392l-18.077-18.072-6.165-20.862a29.736 29.736 0 0 0 -24.81-21.708l-.793-2.647c-.013-.047-.029-.1-.045-.144-3-9.148-12.7-15.152-22.78-14.915l-.027-.091a26.933 26.933 0 0 0 -32.336-18.449 6 6 0 0 0 -4.453 6.919l20.049 107.9a6.156 6.156 0 0 0 .214.824 69.833 69.833 0 0 0 26.208 34.815l43.784 30.168c.106.073.214.142.325.208a13.4 13.4 0 0 1 5.994 7.74l7.327 32.517a5.969 5.969 0 0 0 .839 1.967l-7.813 6.1a5.855 5.855 0 0 0 -2.193 4.768v51.271a5.856 5.856 0 0 0 3 5.284 5.683 5.683 0 0 0 2.762.716 5.872 5.872 0 0 0 3.267-.994l81.179-53.568a6.1 6.1 0 0 0 2.792-5.003v-59.747a6.115 6.115 0 0 0 -3.465-5.38zm-110.599-105.379c.013.053.028.1.043.157l1.262 4.27a31.507 31.507 0 0 0 -6.359-1.989l-4.1-13.686a17.707 17.707 0 0 1 9.154 11.248zm-25.5-24 7.921 26.428a31.6 31.6 0 0 0 -5.343 1.565l-10.237-34.209c3.563.867 6.623 3.162 7.656 6.216zm60.075 148.639c-.025-.1-.051-.209-.08-.313a25.353 25.353 0 0 0 -11.245-14.808l-43.628-30.058a57.744 57.744 0 0 1 -21.527-28.39l-18.743-100.854a14.949 14.949 0 0 1 12.265 10.545l14.017 46.858.959 3.1c-.154.148-.312.291-.464.442a6 6 0 0 0 .2 8.672l21.935 20.034a140.975 140.975 0 0 1 17.3 18.971 6 6 0 0 0 9.568-7.242 153.068 153.068 0 0 0 -18.769-20.589l-16.548-15.115a19.91 19.91 0 0 1 22.908 3.748l24.607 24.608a47.642 47.642 0 0 0 17.923 11.239l3.765 1.312a51.7 51.7 0 0 1 34.3 41.524l.657 11.329a39.778 39.778 0 0 0 1.982 10.288l-44.724 34.226zm67.489 42.639-69 45.641v-37.153l69-52.861z" fill="#0635c9"/><path d="m450.286 205.674a26.925 26.925 0 0 0 -32.335 18.447l-.028.094c-10.086-.236-19.785 5.764-22.78 14.914-.016.048-.032.1-.045.144l-.793 2.647a29.736 29.736 0 0 0 -24.815 21.708l-6.165 20.862-18.07 18.072a35.581 35.581 0 0 1 -13.384 8.393l-3.764 1.31a63.657 63.657 0 0 0 -42.27 51.419c-.023.163-.039.327-.049.491l-.672 11.58a27.871 27.871 0 0 1 -.353 3.063l-7.872-6.024a6.213 6.213 0 0 0 -6.426-.615 6.115 6.115 0 0 0 -3.465 5.38v59.747a6.122 6.122 0 0 0 2.814 5.006l81.138 53.568a6.1 6.1 0 0 0 3.338.994 5.447 5.447 0 0 0 2.7-.716 5.869 5.869 0 0 0 3.01-5.284v-51.274a5.855 5.855 0 0 0 -2.193-4.765l-7.893-6.1a6.043 6.043 0 0 0 .879-1.967l7.347-32.517a13.415 13.415 0 0 1 6-7.74c.111-.066.224-.135.33-.208l43.805-30.181a69.81 69.81 0 0 0 26.195-34.805 6.163 6.163 0 0 0 .216-.824l20.049-107.9a6 6 0 0 0 -4.449-6.919zm-43.719 37.126c1.032-3.056 4.094-5.352 7.657-6.219l-10.235 34.219a31.6 31.6 0 0 0 -5.343-1.565zm-25.5 24a17.707 17.707 0 0 1 9.157-11.248l-4.1 13.687a31.568 31.568 0 0 0 -6.359 1.988l1.262-4.27c.009-.057.024-.107.037-.157zm-33.067 212.919-69-45.641v-44.373l69 52.861zm74.972-161.847a57.73 57.73 0 0 1 -21.513 28.38l-43.642 30.068a25.353 25.353 0 0 0 -11.245 14.808c-.029.1-.055.209-.08.313l-6.653 29.525-44.724-34.226a39.793 39.793 0 0 0 1.982-10.289l.657-11.328a51.7 51.7 0 0 1 34.3-41.525l3.763-1.31a47.655 47.655 0 0 0 17.925-11.241l24.605-24.606a19.91 19.91 0 0 1 22.909-3.749l-16.548 15.116a153 153 0 0 0 -18.771 20.592 6 6 0 0 0 9.568 7.242 140.975 140.975 0 0 1 17.3-18.971l21.938-20.038a6 6 0 0 0 .2-8.672c-.152-.151-.31-.294-.464-.442l.975-3.151 14-46.8a14.945 14.945 0 0 1 12.264-10.543z" fill="#0635c9"/></svg>