<svg id="Layer_1" height="512" viewBox="0 0 512 512" width="512" xmlns="http://www.w3.org/2000/svg" data-name="Layer 1"><path d="m168.431 100.486c.459 0 .916.015 1.372.033a110.821 110.821 0 0 1 96.022-78.074c-3.281-.29-6.591-.445-9.925-.445h-.227a110.8 110.8 0 0 0 -107.566 84.741 35.275 35.275 0 0 1 20.151-6.255z" fill="#d4e1f4"/><path d="m241.151 375.578a6 6 0 0 0 -6.3.615l-8.112 6.208a28.7 28.7 0 0 1 -.386-3.269l-.683-11.757c-.009-.165-.026-.329-.049-.492a64.533 64.533 0 0 0 -42.853-52.129l-3.822-1.33a36.163 36.163 0 0 1 -13.621-8.543l-18.362-18.36-6.267-21.206a30.1 30.1 0 0 0 -25.175-21.981l-.822-2.744c-.015-.048-.03-.095-.046-.143-3.035-9.275-12.88-15.353-23.108-15.081l-.047-.157a27.252 27.252 0 0 0 -32.719-18.668 6 6 0 0 0 -4.452 6.919l20.35 109.546a6.025 6.025 0 0 0 .215.825 70.784 70.784 0 0 0 26.572 35.3l44.457 30.63c.105.073.213.143.323.208a13.688 13.688 0 0 1 6.127 7.914l7.441 33.015a5.935 5.935 0 0 0 .89 2.035l-8.167 6.25a6 6 0 0 0 -2.354 4.765v52.052a6 6 0 0 0 9.308 5.006l82.311-54.385a6 6 0 0 0 2.693-5.006v-60.657a6 6 0 0 0 -3.342-5.38zm-112.033-107.094c.014.053.028.105.044.157l1.343 4.545a32.251 32.251 0 0 0 -6.67-2.1l-4.248-14.171a18.071 18.071 0 0 1 9.531 11.569zm-25.893-24.365 8.077 26.949a32.269 32.269 0 0 0 -5.6 1.634l-10.467-34.99c3.711.86 6.92 3.231 7.99 6.407zm60.814 150.953c-.024-.105-.05-.209-.08-.313a25.639 25.639 0 0 0 -11.377-14.981l-44.295-30.519a58.7 58.7 0 0 1 -21.887-28.875l-19.055-102.524a15.27 15.27 0 0 1 12.655 10.787l14.231 47.571.99 3.2c-.169.163-.343.318-.51.485a6 6 0 0 0 .2 8.672l22.272 20.343a143.31 143.31 0 0 1 17.569 19.273 6 6 0 0 0 9.569-7.242 155.271 155.271 0 0 0 -19.045-20.89l-16.891-15.429a20.3 20.3 0 0 1 23.475 3.758l24.981 24.98a48.257 48.257 0 0 0 18.159 11.39l3.822 1.33a52.574 52.574 0 0 1 34.878 42.235l.668 11.5a40.318 40.318 0 0 0 2.027 10.484l-45.571 34.874zm68.455 43.315-70.313 46.458v-37.934l70.313-53.811z" fill="#0635c9"/><path d="m453.225 206.541a27.252 27.252 0 0 0 -32.719 18.667l-.048.16c-10.226-.269-20.073 5.806-23.107 15.079-.016.048-.031.095-.046.143l-.822 2.744a30.1 30.1 0 0 0 -25.175 21.981l-6.267 21.2-18.362 18.362a36.173 36.173 0 0 1 -13.621 8.542l-3.822 1.33a64.533 64.533 0 0 0 -42.853 52.129c-.023.163-.04.327-.049.492l-.683 11.757a28.7 28.7 0 0 1 -.386 3.269l-8.112-6.208a6 6 0 0 0 -9.647 4.765v60.657a6 6 0 0 0 2.693 5.006l82.312 54.385a6 6 0 0 0 9.308-5.001v-52.053a6 6 0 0 0 -2.354-4.765l-8.167-6.25a5.935 5.935 0 0 0 .89-2.035l7.441-33.015a13.688 13.688 0 0 1 6.127-7.914c.11-.065.218-.135.323-.208l44.471-30.639a70.776 70.776 0 0 0 26.558-35.29 6.025 6.025 0 0 0 .215-.825l20.354-109.546a6 6 0 0 0 -4.452-6.919zm-36.46 31.171-10.456 34.957-.01.033a32.218 32.218 0 0 0 -5.6-1.634l8.077-26.949c1.069-3.175 4.278-5.547 7.989-6.407zm-33.883 30.772a18.071 18.071 0 0 1 9.531-11.569l-4.248 14.172a32.188 32.188 0 0 0 -6.67 2.1l1.343-4.545c.016-.053.03-.105.044-.158zm-33.063 216.361-70.313-46.457v-45.288l70.313 53.807zm75.781-164.461a58.7 58.7 0 0 1 -21.876 28.866l-44.31 30.528a25.639 25.639 0 0 0 -11.377 14.981c-.03.1-.056.208-.08.313l-6.786 30.114-45.571-34.874a40.318 40.318 0 0 0 2.027-10.484l.668-11.5a52.574 52.574 0 0 1 34.881-42.235l3.821-1.33a48.263 48.263 0 0 0 18.164-11.39l24.981-24.982a20.3 20.3 0 0 1 23.475-3.757l-16.892 15.429a155.33 155.33 0 0 0 -19.044 20.89 6 6 0 0 0 9.569 7.242 143.31 143.31 0 0 1 17.569-19.273l22.281-20.348a6 6 0 0 0 .2-8.672c-.167-.167-.341-.322-.51-.485l1.007-3.253 14.203-47.519a15.266 15.266 0 0 1 12.652-10.785z" fill="#0635c9"/><path d="m255.9 10h-.232a122.681 122.681 0 0 0 -122.6 122.762 6 6 0 0 0 11.8 1.529c1.1-4.156 3.93-11.875 6.888-15.139a23.977 23.977 0 0 1 16.529-6.666 23.426 23.426 0 0 1 16.439 6.631 23.968 23.968 0 0 1 6.721 16.557 6 6 0 0 0 12 0 22.814 22.814 0 0 1 23.332-23.188 23.271 23.271 0 0 1 16.325 6.63 23.974 23.974 0 0 1 6.72 16.558v74.5a21.141 21.141 0 1 1 -42.282 0v-12.839a6 6 0 0 0 -12 0v12.838a33.141 33.141 0 1 0 66.282 0v-74.5a22.81 22.81 0 0 1 23.217-23.186 23.243 23.243 0 0 1 16.44 6.631 23.969 23.969 0 0 1 6.721 16.558 6 6 0 1 0 12 0 22.81 22.81 0 0 1 23.216-23.189h.113a23.274 23.274 0 0 1 16.322 6.625c2.973 3.236 5.82 11 6.925 15.173a6 6 0 0 0 11.8-1.528v-.157a122.681 122.681 0 0 0 -122.676-122.6zm87.658 90.488a35.7 35.7 0 0 0 -25.037 10.063c-.088.083-.173.169-.256.257a39.145 39.145 0 0 0 -4.064 5.1 39.052 39.052 0 0 0 -4.063-5.1c-.054-.057-.109-.113-.164-.168a35.187 35.187 0 0 0 -24.793-10.152h-.169a35.775 35.775 0 0 0 -24.868 10.063c-.088.083-.174.168-.256.256a38.986 38.986 0 0 0 -4.064 5.1 39 39 0 0 0 -4.064-5.1c-.053-.056-.109-.113-.165-.168a35.179 35.179 0 0 0 -24.787-10.151 35.764 35.764 0 0 0 -25.041 10.062c-.089.083-.175.169-.258.257a39.052 39.052 0 0 0 -4.063 5.1 39.145 39.145 0 0 0 -4.064-5.1c-.053-.056-.108-.113-.164-.168a35.179 35.179 0 0 0 -24.788-10.151h-.173a35.275 35.275 0 0 0 -20.151 6.255 110.8 110.8 0 0 1 107.567-84.743h.227a110.8 110.8 0 0 1 107.621 84.658 35.135 35.135 0 0 0 -19.962-6.17z" fill="#1ae5be"/></svg>