<svg id="Layer_1" height="512" viewBox="0 0 512 512" width="512" xmlns="http://www.w3.org/2000/svg" data-name="Layer 1"><g fill="#d4e1f4"><path d="m114.56 132.283a6 6 0 0 0 -4.518-3.283l-24.8-3.6 17.945-17.492a6 6 0 0 0 1.725-5.311l-2.68-15.623-11.555-6.074 4.236 24.7a6 6 0 0 1 -1.725 5.311l-17.945 17.489 24.8 3.6a6 6 0 0 1 4.518 3.283l11.09 22.471 5.74-11.631z"/><path d="m141.258 129a6 6 0 0 0 -3.738 2.091l18.538-2.694-1.381-1.346z"/><path d="m254.909 79.356a6 6 0 0 0 -4.517-3.282l-24.8-3.6 17.945-17.492a6 6 0 0 0 1.725-5.311l-2.862-16.726-11.368-5.977 4.236 24.7a6 6 0 0 1 -1.725 5.311l-17.95 17.491 24.8 3.6a6 6 0 0 1 4.517 3.282l11.09 22.476 5.494-11.128z"/><path d="m281.608 76.074a5.972 5.972 0 0 0 -2.36.89l17.159-2.494-.488-.476z"/><path d="m396.259 132.283a6 6 0 0 0 -4.517-3.283l-24.8-3.6 17.945-17.492a6 6 0 0 0 1.726-5.311l-2.581-15.046-12.656-6.651 4.237 24.7a6 6 0 0 1 -1.726 5.311l-17.945 17.489 24.8 3.6a6 6 0 0 1 4.517 3.283l11.091 22.471 6.24-12.644z"/><path d="m422.958 129a5.994 5.994 0 0 0 -3.584 1.923l17.383-2.526-1.251-1.22z"/></g><path d="m104.4 358.866a6 6 0 0 0 4.24 1.755l17.968-.013 7.513 135.724a6 6 0 0 0 5.993 5.668h70.21a6 6 0 0 0 5.992-5.691l3.813-73.971h6.833l7.2 74.246a6 6 0 0 0 5.974 5.416h36.572a6 6 0 0 0 5.975-5.458l6.737-74.277h2.187l4.609 74.109a6 6 0 0 0 5.984 5.626h70.21a6 6 0 0 0 5.991-5.664l7.006-124.991 17.981-.012a6 6 0 0 0 6-6l-.024-45.44a50.362 50.362 0 0 0 -50.344-50.233h-.037l-43.973.031a50.434 50.434 0 0 0 -29.316 9.5 30.605 30.605 0 0 0 -27.533-17.273c-.007 0-.025 0-.022 0a30.353 30.353 0 0 0 -20.074 7.534 50.365 50.365 0 0 0 -41.134-21.4h-.037l-43.974.032a50.434 50.434 0 0 0 -50.307 50.3l.024 56.246a6 6 0 0 0 1.763 4.236zm179.538 51.4a6 6 0 0 0 -5.972 5.458l-6.739 74.276h-25.645l-7.2-74.25a6 6 0 0 0 -5.972-5.421l-17.351.012-.02-25.263a37.875 37.875 0 0 1 37.77-37.733l10.654-.032h.027a37.79 37.79 0 0 1 37.783 37.681l.02 25.263zm-25.79-136.352h.013a18.563 18.563 0 0 1 18.565 18.508 18.544 18.544 0 0 1 -18.552 18.534h-.013a18.564 18.564 0 0 1 -18.561-18.508 18.543 18.543 0 0 1 18.551-18.534zm-132.29-2.566a38.106 38.106 0 0 1 27.071-11.268l43.973-.032h.029a38.4 38.4 0 0 1 31.76 16.9c.6.888 1.156 1.811 1.683 2.746a30.534 30.534 0 0 0 27.787 43.257h.022a30.544 30.544 0 0 0 30.543-30.542c0-.062 0-.123 0-.185.759-.719 1.539-1.419 2.349-2.07a37.886 37.886 0 0 1 23.949-8.468l43.973-.031h.028a38.35 38.35 0 0 1 38.338 38.245l.021 39.441-17.651.012a6 6 0 0 0 -5.986 5.664l-7.006 124.983h-58.9l-4.214-67.745h3.666a6 6 0 0 0 6-6l-.025-31.264a49.8 49.8 0 0 0 -49.8-49.671h-.036l-10.654.032a49.874 49.874 0 0 0 -49.748 49.742l.025 31.264a6 6 0 0 0 5.059 5.914l-3.489 67.728h-58.834l-7.513-135.728a6 6 0 0 0 -5.991-5.668l-17.648.013-.022-50.245a37.946 37.946 0 0 1 11.241-27.024z" fill="#0635c9"/><path d="m174.682 231.661h.028a39.2 39.2 0 1 0 -.028-78.4h-.028a39.2 39.2 0 1 0 .028 78.4zm-19.291-58.413a27.1 27.1 0 0 1 19.272-7.984h.019a27.258 27.258 0 0 1 27.257 27.179 27.227 27.227 0 0 1 -27.239 27.218h-.02a27.261 27.261 0 0 1 -27.257-27.18 26.987 26.987 0 0 1 7.968-19.233z" fill="#0635c9"/><path d="m336.772 253.273h.029a39.3 39.3 0 0 0 35.2-21.889h5.217a23.29 23.29 0 0 0 0-46.579h-14.37a39.127 39.127 0 0 0 -26.075-9.929h-.028a39.2 39.2 0 1 0 .027 78.4zm51.739-45.173a11.3 11.3 0 0 1 -11.289 11.289h-1.556a39.7 39.7 0 0 0 .364-5.338 38.909 38.909 0 0 0 -4.03-17.246h5.218a11.3 11.3 0 0 1 11.293 11.295zm-71.03-13.235a27.11 27.11 0 0 1 19.272-7.984h.02a27.239 27.239 0 0 1 21 9.876v.053h.043a27.191 27.191 0 0 1 -21.022 44.468h-.02a27.186 27.186 0 0 1 -19.291-46.413z" fill="#0635c9"/><path d="m201.836 84.6 33.708 4.9 15.076 30.546a6 6 0 0 0 10.76 0l15.076-30.546 33.708-4.9a6 6 0 0 0 3.325-10.234l-24.389-23.779 5.758-33.573a6 6 0 0 0 -8.705-6.325l-30.153 15.851-30.15-15.851a6 6 0 0 0 -8.7 6.325l5.75 33.573-24.389 23.776a6 6 0 0 0 3.325 10.237zm31.7-27.619a6 6 0 0 0 1.725-5.311l-4.236-24.7 22.181 11.661a6 6 0 0 0 5.584 0l22.181-11.661-4.236 24.7a6 6 0 0 0 1.725 5.311l17.947 17.489-24.8 3.6a6 6 0 0 0 -4.517 3.282l-11.09 22.476-11.091-22.472a6 6 0 0 0 -4.517-3.282l-24.8-3.6z" fill="#1ae5be"/><path d="m110.27 173.967a6 6 0 0 0 10.76 0l15.07-30.545 33.709-4.9a6 6 0 0 0 3.325-10.234l-24.391-23.776 5.758-33.573a6 6 0 0 0 -8.706-6.325l-30.145 15.853-30.15-15.851a6 6 0 0 0 -8.706 6.325l5.759 33.573-24.392 23.776a6 6 0 0 0 3.325 10.234l33.709 4.9zm-17.082-63.062a6 6 0 0 0 1.725-5.311l-4.236-24.694 22.181 11.661a6 6 0 0 0 5.584 0l22.182-11.661-4.237 24.7a6 6 0 0 0 1.726 5.311l17.945 17.489-24.8 3.6a6 6 0 0 0 -4.517 3.283l-11.091 22.471-11.09-22.471a6 6 0 0 0 -4.518-3.283l-24.8-3.6z" fill="#1ae5be"/><path d="m429.447 104.514 5.759-33.573a6 6 0 0 0 -8.706-6.325l-30.15 15.851-30.15-15.851a6 6 0 0 0 -8.706 6.325l5.758 33.573-24.391 23.776a6 6 0 0 0 3.325 10.234l33.709 4.9 15.075 30.545a6 6 0 0 0 10.76 0l15.075-30.545 33.709-4.9a6 6 0 0 0 3.325-10.234zm-17.489 27.486a6 6 0 0 0 -4.518 3.283l-11.09 22.471-11.091-22.471a6 6 0 0 0 -4.517-3.283l-24.8-3.6 17.945-17.492a6 6 0 0 0 1.726-5.311l-4.237-24.7 22.182 11.661a6 6 0 0 0 5.584 0l22.181-11.658-4.236 24.7a6 6 0 0 0 1.725 5.311l17.945 17.489z" fill="#1ae5be"/></svg>