<svg id="Layer_1" height="512" viewBox="0 0 512 512" width="512" xmlns="http://www.w3.org/2000/svg" data-name="Layer 1"><path d="m55.639 378.605v-268.879a32.012 32.012 0 0 1 31.976-31.976h-30a32.012 32.012 0 0 0 -31.976 31.976v268.879a32.013 32.013 0 0 0 31.976 31.977h30a32.013 32.013 0 0 1 -31.976-31.977z" fill="#d4e1f4"/><path d="m56.887 421.474h147.544v-12h-147.544a28.4 28.4 0 0 1 -28.37-28.37v-273.625a28.4 28.4 0 0 1 28.37-28.37h40.4v19.656a6 6 0 0 0 6 6h111.213a6 6 0 0 0 6-6v-19.656h40.4a28.4 28.4 0 0 1 28.37 28.37v78.808h12v-78.808a40.416 40.416 0 0 0 -40.37-40.37h-40.4v-11.109a6 6 0 0 0 -6-6h-111.213a6 6 0 0 0 -6 6v11.109h-40.4a40.416 40.416 0 0 0 -40.37 40.37v273.621a40.416 40.416 0 0 0 40.37 40.374zm52.4-359.474h99.213v30.765h-99.213z" fill="#0635c9"/><path d="m161.536 155.069a6 6 0 0 0 -5.28 0l-60 29.357a6 6 0 0 0 -3.363 5.389v56.166a50.64 50.64 0 0 0 5.107 20.933c4.266 9.182 10.652 17.131 17.519 21.808l40 27.253a6 6 0 0 0 6.757 0l40-27.252c12.686-8.64 22.623-27.416 22.623-42.745v-56.078a6 6 0 0 0 -3.357-5.386zm51.357 90.909c0 11.377-7.958 26.411-17.379 32.827l-36.621 24.952-36.622-24.952c-5.056-3.444-10.063-9.779-13.394-16.948a39.243 39.243 0 0 1 -3.984-15.879v-52.421l54-26.419 54 26.5z" fill="#0635c9"/><path d="m137.694 229.688a6 6 0 1 0 -8.379 8.59l18.124 17.677a6 6 0 0 0 8.379 0l32.652-31.847a6 6 0 1 0 -8.379-8.589l-28.463 27.76z" fill="#0635c9"/><g fill="#1ae5be"><path d="m283.221 326.048h.03a6.894 6.894 0 0 1 6.858 6.917 6 6 0 0 0 5.975 6.025h.026a6 6 0 0 0 6-5.974 18.908 18.908 0 0 0 -12.81-17.949l.009-2.076a6 6 0 0 0 -5.975-6.025h-.026a6 6 0 0 0 -6 5.974l-.009 2.074a18.881 18.881 0 0 0 5.843 36.809 6.886 6.886 0 0 1 .05 13.772c-.037 0-.072-.006-.109-.006s-.072 0-.108 0a6.88 6.88 0 0 1 -6.75-6.911 6 6 0 0 0 -5.974-6.026h-.026a6 6 0 0 0 -6 5.975 18.855 18.855 0 0 0 12.811 17.954l-.011 2.655a6 6 0 0 0 5.975 6.03h.025a6 6 0 0 0 6-5.975l.011-2.653a18.883 18.883 0 0 0 -5.843-36.815 6.888 6.888 0 0 1 .029-13.775z"/><path d="m405.791 240.391-12.37-.053h-.021a6 6 0 0 0 -.025 12l12.369.053h.026a6 6 0 0 0 .025-12z"/><path d="m268.771 251.992 103.24.255h.015a6 6 0 0 0 .014-12l-103.24-.255h-.015a6 6 0 0 0 -.014 12z"/><path d="m405.925 208.919-12.37-.053h-.026a6 6 0 0 0 -.025 12l12.37.053h.026a6 6 0 0 0 .025-12z"/><path d="m268.9 220.521 103.24.254h.015a6 6 0 0 0 .014-12l-103.239-.254h-.016a6 6 0 0 0 -.014 12z"/><path d="m405.657 271.862-12.37-.052h-.026a6 6 0 0 0 -.025 12l12.37.052h.026a6 6 0 0 0 .025-12z"/><path d="m268.637 283.464 103.239.255h.016a6 6 0 0 0 .014-12l-103.24-.255h-.015a6 6 0 0 0 -.014 12z"/><path d="m383.876 369.672-63.608-.086h-.008a6 6 0 0 0 -.009 12l63.608.086h.009a6 6 0 0 0 .008-12z"/><path d="m403.784 369.757-2.461-.011h-.023a6 6 0 0 0 -.025 12l2.46.011h.027a6 6 0 0 0 .026-12z"/><path d="m320.447 336.988a6 6 0 0 0 -.374 11.994l2.753.086h.191a6 6 0 0 0 .183-12z"/><path d="m403.758 337.156-63.315-.01a6 6 0 0 0 0 12l63.315.01a6 6 0 0 0 0-12z"/><path d="m459.705 179.818h-.142l-182.5-.592h-.157a35.793 35.793 0 0 0 -35.789 35.644l-.668 181.586h-36.129a6 6 0 0 0 -6 6v20.944a38.644 38.644 0 0 0 38.6 38.6h157.1a41 41 0 0 0 40.927-40.794l.468-142.676 53.7 1.085a6 6 0 0 0 6.121-5.973l.246-57.74a35.973 35.973 0 0 0 -35.777-36.084zm-222.784 270.182a26.631 26.631 0 0 1 -26.6-26.6v-14.944h142.771v12.616a40.808 40.808 0 0 0 12 28.928zm186.517-178.432a6.063 6.063 0 0 0 -.057.718 6.135 6.135 0 0 0 .052.924l-.485 147.957a28.928 28.928 0 0 1 -57.856-.095v-18.616a6 6 0 0 0 -6-6h-106.643l.668-181.538a23.793 23.793 0 0 1 23.8-23.692h.1l155.84.506a35.79 35.79 0 0 0 -9.236 23.871zm59.825-4.074-47.808-.966.167-50.881a23.958 23.958 0 0 1 23.929-23.829h.1a23.958 23.958 0 0 1 23.829 24.034z"/></g></svg>