<svg id="Layer_1" height="512" viewBox="0 0 512 512" width="512" xmlns="http://www.w3.org/2000/svg" data-name="Layer 1"><path d="m370.452 310.958a64.6 64.6 0 0 1 54.776-64 64.774 64.774 0 1 0 0 128 64.874 64.874 0 0 1 -54.776-64z" fill="#d4e1f4"/><g fill="#0635c9"><path d="m61.081 484.132a18.5 18.5 0 1 0 -18.1-18.5 18.323 18.323 0 0 0 18.1 18.5zm0-25a6.514 6.514 0 1 1 -6.1 6.5 6.316 6.316 0 0 1 6.1-6.501z"/><path d="m314.846 9.464a6 6 0 0 0 -4.246-1.757h-128a27.57 27.57 0 0 0 -27.539 27.54v136.107l-96.944 77.333a6.177 6.177 0 0 0 -.538.486 38.045 38.045 0 0 0 -10.966 26.81v149.373h-10.613a16.019 16.019 0 0 0 -16 16v46.937a16.019 16.019 0 0 0 16 16h153.391a16.019 16.019 0 0 0 16-16v-46.937a16.019 16.019 0 0 0 -16-16h-4.969v-11.873a38.319 38.319 0 0 0 32.259-37.783v-34.126h132.173v-12h-166.254a15.556 15.556 0 0 1 -15.539-15.54v-14.227l18-18a30.231 30.231 0 0 0 0-42.7l-5.7-5.7a6 6 0 0 0 -7.968-.461l-4.328 3.427v-201.126a15.556 15.556 0 0 1 15.535-15.54h122v58.62a27.571 27.571 0 0 0 27.54 27.54h58.62v136.749h12v-142.749a6 6 0 0 0 -1.758-4.243zm-121.455 431.892v46.937a4 4 0 0 1 -4 4h-153.391a4 4 0 0 1 -4-4v-46.937a4 4 0 0 1 4-4h153.391a4 4 0 0 1 4 4zm-99.482-147.068a6 6 0 0 0 7.449 9.408l73.286-58.027 1.924 1.924a18.217 18.217 0 0 1 0 25.731l-34.214 34.215a6 6 0 0 0 -1.749 3.9l-.432 7.461c-.007.116-.01.231-.01.347a38.085 38.085 0 0 0 3.763 16.275 37.818 37.818 0 0 1 -2.755 36.85 6 6 0 0 0 -1.008 3.328v16.129a6 6 0 1 0 12 0v-14.382a49.9 49.9 0 0 0 2.624-47.033 26.223 26.223 0 0 1 -2.623-11.008l.289-5 2.6-2.6v2.227a27.57 27.57 0 0 0 27.539 27.54h22.086v34.127a26.288 26.288 0 0 1 -26.259 26.258 6 6 0 0 0 -6 6v17.4h-113.806v-149.375a26.106 26.106 0 0 1 7.287-18.153l89.157-71.125v59.167zm222.691-215.961v-50.135l65.674 65.675h-50.13a15.557 15.557 0 0 1 -15.544-15.54z"/><path d="m339.682 259.662a6 6 0 0 0 -6-6h-110.682a6 6 0 1 0 0 12h110.682a6 6 0 0 0 6-6z"/><path d="m223 289.2a6 6 0 0 0 0 12h62.958a6 6 0 0 0 0-12z"/><path d="m344.755 175.278a75.954 75.954 0 0 0 -75.955-75.907h-.141a76.041 76.041 0 0 0 -75.905 76.005 6 6 0 0 0 11.8 1.532c.624-2.34 2.155-6.43 3.521-8a12.066 12.066 0 0 1 8.207-3.282h.057a11.566 11.566 0 0 1 8.071 3.254 12.065 12.065 0 0 1 3.344 8.246 6 6 0 0 0 12 0 11.279 11.279 0 0 1 11.528-11.5h.057a11.566 11.566 0 0 1 8.071 3.254 12.065 12.065 0 0 1 3.344 8.246v42.592a9.2 9.2 0 0 1 -18.4 0 6 6 0 0 0 -12 0 21.2 21.2 0 0 0 42.4 0v-42.597a11.279 11.279 0 0 1 11.528-11.5h.057a11.567 11.567 0 0 1 8.071 3.255 12.063 12.063 0 0 1 3.344 8.246 6 6 0 0 0 12 0 11.279 11.279 0 0 1 11.528-11.5h.057a11.561 11.561 0 0 1 8.058 3.243c1.376 1.543 2.928 5.682 3.554 8.034a5.967 5.967 0 0 0 6.574 4.378 6.044 6.044 0 0 0 5.23-5.999zm-23.5-21.656a23.82 23.82 0 0 0 -16.557 6.686c-.088.084-.174.169-.257.257q-.351.375-.686.758-.335-.382-.687-.758-.079-.085-.165-.168a23.474 23.474 0 0 0 -16.534-6.775h-.114a24.132 24.132 0 0 0 -16.557 6.687c-.088.083-.173.168-.256.255q-.351.374-.686.759-.334-.384-.688-.759-.079-.085-.165-.168a23.475 23.475 0 0 0 -16.534-6.776h-.114a23.82 23.82 0 0 0 -16.557 6.686c-.088.083-.174.169-.257.257q-.351.374-.686.758-.334-.384-.687-.758-.08-.085-.165-.168a23.475 23.475 0 0 0 -16.534-6.776 23.93 23.93 0 0 0 -8.329 1.456 64.062 64.062 0 0 1 60.624-43.7h.091a.169.169 0 0 1 .045 0 64.046 64.046 0 0 1 60.686 43.686 23.753 23.753 0 0 0 -8.231-1.439z"/></g><path d="m492 310.958a76.774 76.774 0 1 0 -76.774 76.773 76.86 76.86 0 0 0 76.774-76.773zm-141.548 0a64.774 64.774 0 1 1 64.774 64.773 64.863 64.863 0 0 1 -64.774-64.773z" fill="#1ae5be"/><path d="m421.226 355.36v-5.06a23.262 23.262 0 0 0 -6-45.737 11.263 11.263 0 1 1 11.262-11.263 6 6 0 0 0 12 0 23.3 23.3 0 0 0 -17.262-22.474v-4.273a6 6 0 1 0 -12 0v4.273a23.261 23.261 0 0 0 6 45.736 11.26 11.26 0 0 1 .116 22.52c-.039 0-.077-.006-.116-.006s-.078.005-.117.006a11.272 11.272 0 0 1 -11.146-11.257 6 6 0 0 0 -12 0 23.3 23.3 0 0 0 17.263 22.475v5.059a6 6 0 0 0 12 0z" fill="#1ae5be"/></svg>