<svg id="Layer_1" height="512" viewBox="0 0 512 512" width="512" xmlns="http://www.w3.org/2000/svg" data-name="Layer 1"><path d="m171.984 414.158c-33.678-22.963-61.078-74.78-61.078-115.509v-175.316l175.256-85.833-30.162-14.817-185.09 90.65v175.316c0 40.729 27.4 92.546 61.078 115.509l124.012 84.58 12.669-8.64z" fill="#d4e1f4"/><path d="m334.633 341a5.854 5.854 0 0 0 -.647-.277l-28.444-10.264v-10.18a6.2 6.2 0 0 0 -.051-.748c-.008-.057-.018-.113-.027-.17a5.8 5.8 0 0 0 -.118-.569c-.015-.059-.029-.119-.046-.177a5.9 5.9 0 0 0 -.236-.669c-.017-.041-.038-.08-.057-.12a5.7 5.7 0 0 0 -.27-.528c-.034-.059-.068-.117-.1-.174a6.022 6.022 0 0 0 -.363-.523c-.017-.022-.032-.045-.049-.066a5.923 5.923 0 0 0 -.5-.543c-.036-.035-.073-.067-.11-.1a5.852 5.852 0 0 0 -.466-.389c-.046-.035-.091-.07-.138-.1a5.994 5.994 0 0 0 -.637-.4h-.006a5.945 5.945 0 0 0 -.541-.255l-15.973-6.578v-.72a76.908 76.908 0 0 0 46.6-66.217 24.047 24.047 0 0 0 14.288-27.986 19.364 19.364 0 0 0 -11.585-13.46l1.335-19.357a80.864 80.864 0 1 0 -161.344 0l1.333 19.335a19.359 19.359 0 0 0 -11.633 13.481 24.053 24.053 0 0 0 14.329 28 76.914 76.914 0 0 0 47.029 66.385v.438l-16.035 6.6a6 6 0 0 0 -3.713 5.585v.035 10.172l-28.444 10.263a5.854 5.854 0 0 0 -.647.277 44.008 44.008 0 0 0 -24.03 35.494c-.013.166-.02.332-.02.5v53.148a6 6 0 0 0 12 0v-52.887a31.941 31.941 0 0 1 17.116-25.367l27.811-10.035 19.185 25.58a6 6 0 0 0 8.128 1.393l3.1-2.067-11.726 63.116a6 6 0 0 0 1.1 4.7l21.769 29.024a6 6 0 0 0 9.6 0l21.772-29.028a6 6 0 0 0 1.1-4.695l-11.54-62.191 1.712 1.141a6 6 0 0 0 8.128-1.393l19.185-25.58 27.811 10.035a31.943 31.943 0 0 1 17.116 25.367v52.888a6 6 0 0 0 12 0v-53.144c0-.166-.007-.332-.02-.5a44.008 44.008 0 0 0 -24.031-35.5zm-47.794-19.45-.985.657v-1.062zm-30.839 20.56-17.792-11.862v-18.716a76.584 76.584 0 0 0 35.633-.091 5.972 5.972 0 0 0 .013 1.541v17.225zm-50.52-214.235a68.863 68.863 0 0 1 119.042 51.725l-1.354 19.635-7.778-32.065a6.135 6.135 0 0 0 -.31-.935 35.6 35.6 0 0 0 -31.028-21.515l-6.911-.305a6.023 6.023 0 0 0 -5.154 2.518 62.48 62.48 0 0 1 -57.534 25.884l-11.619-1.249a8.9 8.9 0 0 0 -9.826 8.142l-1.922 24.027c-.775-.288-1.575-.594-2.362-.905l-1.6-23.232a68.177 68.177 0 0 1 18.356-51.725zm-14.427 108.945v-.108a6 6 0 0 0 -4.965-5.91 12.039 12.039 0 0 1 -9.583-14.7 7.287 7.287 0 0 1 3.675-4.817 11.723 11.723 0 0 0 2.988 2.228c.166.086.336.163.509.233 11.3 4.528 13.433 4.352 15.912 2.814a6.162 6.162 0 0 0 2.889-4.727l2.238-27.988 8.454.91a74.436 74.436 0 0 0 66.617-28.206l3.736.165a23.544 23.544 0 0 1 20.329 13.8l10.938 45.086a6 6 0 0 0 9.925 2.972l5.957-5.562a13.277 13.277 0 0 0 1.275-1.391 7.267 7.267 0 0 1 3.142 4.483 12.034 12.034 0 0 1 -9.554 14.7 6 6 0 0 0 -4.954 5.909v.113a64.764 64.764 0 1 1 -129.528 0zm35.155 85.428-1.114-.742 1.114-.459zm9.416 33.446-17.166-22.888v-1.3l9.616 6.412a6.023 6.023 0 0 0 1.733 1.155l14.974 9.983a6.018 6.018 0 0 0 -.693 1zm36.369 73.784-15.393 20.522-15.392-20.521 13.378-72.006 1.413-.941 2.8 1.868zm21.549-96.672-17.166 22.888-6.789-4.526a5.96 5.96 0 0 0 -1.638-2.6l14.844-9.9a6.007 6.007 0 0 0 .72-.48l10.029-6.687z" fill="#0635c9"/><path d="m449.739 104.471-191.094-93.856a6 6 0 0 0 -5.284 0l-191.094 93.585a6 6 0 0 0 -3.361 5.388v179.061c0 44.226 29.75 100.491 66.317 125.423l127.4 86.886a6.006 6.006 0 0 0 6.762 0l127.4-86.886c17.816-12.147 34.5-31.818 46.965-55.388 12.48-23.59 19.353-48.462 19.353-70.035v-178.792a6 6 0 0 0 -3.364-5.386zm-8.645 184.178c0 40.729-27.4 92.546-61.079 115.509l-124.015 84.58-124.016-84.58c-33.678-22.958-61.078-74.78-61.078-115.509v-175.316l185.094-90.65 185.1 90.911z" fill="#1ae5be"/></svg>