<svg id="Layer_1" height="512" viewBox="0 0 512 512" width="512" xmlns="http://www.w3.org/2000/svg" data-name="Layer 1"><path d="m226.621 252.238c-32.29-23.634-48.663-53.491-48.663-88.741v-56.417a511.1 511.1 0 0 0 95.177-54.526q-8.689-5.863-17.135-12.079a511.116 511.116 0 0 1 -98.042 56.605v56.42c0 35.25 16.373 65.107 48.663 88.741a182.978 182.978 0 0 0 35.6 20.134 171.334 171.334 0 0 1 -15.6-10.137z" fill="#d4e1f4"/><path d="m85.439 327.094 49.17 33.878c.106.073.214.142.324.208a15.773 15.773 0 0 1 7.067 9.138l8.234 36.536a5.947 5.947 0 0 0 1.253 2.511l-9.535 7.3a6 6 0 0 0 -2.354 4.765v57.57a6 6 0 0 0 9.308 5.006l91.04-60.152a6 6 0 0 0 2.692-5.006v-67.089a6 6 0 0 0 -9.646-4.765l-9.793 7.494a32.227 32.227 0 0 1 -.629-4.712l-.755-13c-.009-.164-.025-.328-.048-.491a70.739 70.739 0 0 0 -46.976-57.143l-4.228-1.473a40.675 40.675 0 0 1 -15.306-9.6l-20.424-20.424-6.979-23.616a32.671 32.671 0 0 0 -27.73-23.929l-1.024-3.409c-.015-.047-.03-.1-.046-.143-3.318-10.141-14.2-16.723-25.421-16.218l-.195-.652a29.5 29.5 0 0 0 -35.425-20.211 6 6 0 0 0 -4.453 6.919l22.517 121.161a5.867 5.867 0 0 0 .214.824 77.657 77.657 0 0 0 29.148 38.723zm145.2 88.527-79.039 52.224v-43.454l79.04-60.486zm-114.36-188.421c.014.052.029.1.044.157l1.883 6.373a34.919 34.919 0 0 0 -8.884-2.935l-5.208-17.379a20.635 20.635 0 0 1 12.165 13.784zm-28.647-26.981 9.142 30.5a34.97 34.97 0 0 0 -7.413 2.151l-.2-.641-11.882-39.724c4.752.771 9.006 3.695 10.353 7.714zm-41.072-29.573a17.524 17.524 0 0 1 15.384 12.47l15.739 52.61 1.211 3.915c-.281.263-.564.522-.838.8a6 6 0 0 0 .2 8.672l24.634 22.5a159.052 159.052 0 0 1 19.511 21.4 6 6 0 0 0 9.568-7.242 171.012 171.012 0 0 0 -20.986-23.018l-19.352-17.675a23.093 23.093 0 0 1 27.51 3.844l27.63 27.63a52.74 52.74 0 0 0 19.847 12.448l4.227 1.473a58.785 58.785 0 0 1 39 47.249l.74 12.751a43.976 43.976 0 0 0 2.351 11.865l-51.55 39.448-7.724-34.275c-.023-.105-.05-.209-.079-.313a27.729 27.729 0 0 0 -12.319-16.209l-49.002-33.766a65.583 65.583 0 0 1 -24.467-32.3z" fill="#0635c9"/><path d="m473.984 159.467a29.5 29.5 0 0 0 -35.425 20.209l-.2.655c-11.216-.5-22.1 6.078-25.42 16.217-.016.047-.031.1-.046.143l-1.021 3.409a32.671 32.671 0 0 0 -27.729 23.927l-6.979 23.616-20.424 20.424a40.685 40.685 0 0 1 -15.307 9.6l-4.227 1.471a70.742 70.742 0 0 0 -46.976 57.144c-.023.163-.039.327-.048.491l-.755 13a32.227 32.227 0 0 1 -.629 4.712l-9.793-7.494a6 6 0 0 0 -9.646 4.765v67.089a6 6 0 0 0 2.692 5.006l91.04 60.152a6 6 0 0 0 9.309-5.003v-57.573a6 6 0 0 0 -2.354-4.765l-9.535-7.3a5.947 5.947 0 0 0 1.253-2.511l8.236-36.533a15.773 15.773 0 0 1 7.066-9.138c.11-.066.218-.135.324-.208l49.184-33.888a77.642 77.642 0 0 0 29.134-38.713 5.867 5.867 0 0 0 .214-.824l22.514-121.161a6 6 0 0 0 -4.452-6.919zm-49.616 40.752c1.347-4.015 5.6-6.942 10.353-7.713l-11.867 39.672-.215.695a35.088 35.088 0 0 0 -7.413-2.151zm-28.647 26.981a20.635 20.635 0 0 1 12.165-13.784l-5.209 17.379a34.971 34.971 0 0 0 -8.884 2.935l1.884-6.373c.015-.057.03-.108.044-.157zm-35.321 240.645-79.04-52.224v-51.716l79.04 60.486zm83.8-182.918a65.569 65.569 0 0 1 -24.453 32.286l-49.021 33.775a27.729 27.729 0 0 0 -12.314 16.212c-.029.1-.056.208-.079.313l-7.724 34.275-51.55-39.448a43.976 43.976 0 0 0 2.351-11.865l.74-12.751a58.788 58.788 0 0 1 39-47.25l4.231-1.474a52.751 52.751 0 0 0 19.848-12.448l27.63-27.63a23.1 23.1 0 0 1 27.51-3.844l-19.348 17.673a171.08 171.08 0 0 0 -20.986 23.019 6 6 0 1 0 9.568 7.242 159.052 159.052 0 0 1 19.511-21.4l24.634-22.5a6 6 0 0 0 .2-8.672c-.274-.275-.557-.534-.838-.8l1.228-3.97 15.722-52.557a17.522 17.522 0 0 1 15.384-12.468z" fill="#0635c9"/><g fill="#1ae5be"><path d="m235.542 102.53v30.144h-30.142a6 6 0 0 0 -6 6v28.914a6 6 0 0 0 6 6h30.143v30.143a6 6 0 0 0 6 6h28.916a6 6 0 0 0 6-6v-30.143h30.141a6 6 0 0 0 6-6v-28.914a6 6 0 0 0 -6-6h-30.142v-30.144a6 6 0 0 0 -6-6h-28.916a6 6 0 0 0 -6 6zm12 36.144v-30.144h16.916v30.144a6 6 0 0 0 6 6h30.142v16.914h-30.142a6 6 0 0 0 -6 6v30.143h-16.916v-30.143a6 6 0 0 0 -6-6h-30.142v-16.914h30.143a6 6 0 0 0 5.999-6z"/><path d="m362.416 87.629-.687-.3a499.027 499.027 0 0 1 -102.129-59.129 6 6 0 0 0 -7.2 0 499.019 499.019 0 0 1 -102.132 59.135l-.684.294a6 6 0 0 0 -3.626 5.511v60.36c0 38.736 18.526 72.772 53.575 98.425a189.228 189.228 0 0 0 52.979 27.1 6 6 0 0 0 3.315.015 198.514 198.514 0 0 0 54.756-27.057c36.281-25.65 55.459-59.705 55.459-98.482v-60.361a6 6 0 0 0 -3.626-5.511zm-8.374 65.871c0 35.107-16.859 64.878-50.11 88.488a192.536 192.536 0 0 1 -49.708 24.991 182.442 182.442 0 0 1 -47.6-24.738c-32.29-23.634-48.663-53.491-48.663-88.741v-56.42a511.116 511.116 0 0 0 98.039-56.605 511.154 511.154 0 0 0 98.042 56.605z"/></g></svg>