<svg id="Layer_1" height="512" viewBox="0 0 512 512" width="512" xmlns="http://www.w3.org/2000/svg" data-name="Layer 1"><path d="m341.247 338.668-56.622-36.425c-8.131-5.229-15.829-14.395-21.121-25.149-4.035-8.2-6.257-16.609-6.257-23.684v-76.01l84-38.8 3.986 1.846-13.986-6.861-84 41.1v80.5c0 7.494 2.222 16.4 6.257 25.085 5.292 11.389 12.99 21.1 21.121 26.636l56.622 38.578 10-6.813z" fill="#d4e1f4"/><path d="m138.753 478h144a54.061 54.061 0 0 0 54-54v-73.258h-12v19.258h-228v-267.6h228v26.5h12v-40.9a54.061 54.061 0 0 0 -54-54h-144a54.061 54.061 0 0 0 -54 54v336a54.061 54.061 0 0 0 54 54zm0-432h144a42.047 42.047 0 0 1 42 42v2.4h-228v-2.4a42.047 42.047 0 0 1 42-42zm-42 336h228v42a42.047 42.047 0 0 1 -42 42h-144a42.047 42.047 0 0 1 -42-42z" fill="#0635c9"/><path d="m188.553 430h44.4a6 6 0 0 0 0-12h-44.4a6 6 0 0 0 0 12z" fill="#0635c9"/><g fill="#1ae5be"><path d="m267.869 316.82 60 40.88a6 6 0 0 0 6.756 0l60-40.879c18.293-12.46 32.622-39.535 32.622-61.639v-84.121a6 6 0 0 0 -3.357-5.387l-90-44.16a6 6 0 0 0 -5.28 0l-90 44.035a6 6 0 0 0 -3.363 5.39v84.246c0 9.338 2.55 19.76 7.374 30.141 6.179 13.293 15.379 24.774 25.248 31.494zm-20.622-142.14 84-41.1 84 41.217v80.382c0 17.928-12.537 41.613-27.378 51.721l-56.622 38.578-56.622-38.578c-8.131-5.538-15.829-15.247-21.121-26.636-4.035-8.683-6.257-17.591-6.257-25.085z"/><path d="m318.076 263.8a6 6 0 0 0 8.379 0l40.372-39.375a6 6 0 1 0 -8.379-8.591l-36.182 35.289-18.219-17.769a6 6 0 0 0 -8.379 8.591z"/></g></svg>