<svg id="Layer_1" height="512" viewBox="0 0 512 512" width="512" xmlns="http://www.w3.org/2000/svg" data-name="Layer 1"><path d="m329.668 337.829v-.5q-3.638-1.6-7.237-3.286 3.599 1.929 7.237 3.786z" fill="#d4e1f4"/><path d="m202.332 389.608v-42.281a392.83 392.83 0 0 0 70.956-40.561q-8.8-5.747-17.288-11.957a392.818 392.818 0 0 1 -73.668 42.518v42.281c0 51.271 47.611 75.6 66.439 83.212-21.034-12.687-46.439-35.761-46.439-73.212z" fill="#d4e1f4"/><path d="m112.069 427.828a16.214 16.214 0 0 0 16.213 16.147 54.522 54.522 0 0 0 38.83-16.085l.107-.106a27.817 27.817 0 0 1 16.987-8.027 6 6 0 1 0 -1.151-11.945 39.828 39.828 0 0 0 -24.315 11.481l-.1.1a42.617 42.617 0 0 1 -30.355 12.579 4.147 4.147 0 0 1 -4.212-4.163 42.828 42.828 0 0 1 6.331-22.506 11.606 11.606 0 0 0 -.748-13.2c-29.3-37.558-38.943-85.26-26.455-130.876 12.621-46.1 45.885-83.941 89.178-101.623 19.018 5.331 45.011 7.115 63.681 7.115a304.127 304.127 0 0 0 42.428-2.827 106.283 106.283 0 0 0 -14.8 35.943 6 6 0 1 0 11.741 2.479 94.464 94.464 0 0 1 16.4-36.643l2.418 3.506.132.223a195.42 195.42 0 0 1 22.014 56.116 6 6 0 0 0 5.845 4.67 6.068 6.068 0 0 0 1.336-.15 6 6 0 0 0 4.52-7.182 207.377 207.377 0 0 0 -23.376-59.544l-.254-.43c-.069-.116-.143-.231-.22-.343l-1-1.454c41.761 18.337 73.6 55.594 85.741 100.751 12.37 46.017 2.324 93.977-27.566 131.6l-.049.06a12.3 12.3 0 0 0 -1.2 13.611 42.915 42.915 0 0 1 5.285 20.774 4.19 4.19 0 0 1 -4.258 4.093 42.619 42.619 0 0 1 -30.3-12.576l-.489-.49a38.658 38.658 0 0 0 -21.494-10.856 6 6 0 0 0 -1.779 11.867 26.567 26.567 0 0 1 14.776 7.463l.491.492a54.546 54.546 0 0 0 38.779 16.1h.02a16.208 16.208 0 0 0 16.259-16.058 54.951 54.951 0 0 0 -6.772-26.595.342.342 0 0 1 .066-.343l.037-.046c32.3-40.626 43.156-92.458 29.784-142.208-12.375-46.036-43.781-84.478-85.295-105.252 6.33-3.679 9.457-8.008 9.457-13.085v-13.785c0-.076-.009-.15-.012-.226 0-.106.012-.211.012-.318 0-5.774-4.532-11.519-33.979-15.142a62.082 62.082 0 0 0 12.622-16.885l18.2-35.607a6 6 0 0 0 -8.216-8c-9.551 5.211-21.778-.308-30.353-5.856a60.063 60.063 0 0 0 -55.423-5.518c-14.4 5.929-21.506 15.35-24.09 19.539-27.012 12.117-42.259-5.821-42.956-6.67a6 6 0 0 0 -10.209 6.069l13.077 31.566a61.88 61.88 0 0 0 15.116 21.738c-26.963 3.664-31.141 9.209-31.141 14.762 0 .107.008.212.011.318 0 .076-.011.15-.011.226v13.79c0 5.284 3.606 9.582 9.518 13.056-41.359 20.671-72.758 58.884-85.279 104.621-13.48 49.238-3.112 100.714 28.4 141.21a54.81 54.81 0 0 0 -7.955 28.555zm89.392-278.313c-16.327-3.69-21.47-7.955-22.077-9.272v-3.312a115.981 115.981 0 0 0 17.345 3.607c15.894 2.324 36.963 3.6 59.327 3.6s43.432-1.28 59.325-3.6a115.988 115.988 0 0 0 17.347-3.607v3.3c-.261.464-2.465 3.7-14.376 7.28-.06.018-.12.032-.178.051-15.245 4.554-37.869 7.165-62.118 7.165-20.342-.002-39.73-1.852-54.595-5.212zm95.031-94.871c10.22 6.611 19.839 9.924 28.493 9.878l-12.285 24.046a49.714 49.714 0 0 1 -20.684 21.2 5.9 5.9 0 0 0 -1.059.556 49.639 49.639 0 0 1 -15.281 4.861l9.861-51.8a6 6 0 0 0 -2.151-5.811c-.634-.506-11.616-8.985-30.846-7.565a48.074 48.074 0 0 1 43.952 4.635zm-102 30.317-5.448-13.161c9.223 3.532 23.24 5.417 40.74-2.888a6.037 6.037 0 0 0 1.01-.475c21.868-10.478 36.317-6.074 42.171-3.212l-9.612 50.5h-22.816a49.848 49.848 0 0 1 -22.366-5.278 5.923 5.923 0 0 0 -.87-.442 49.723 49.723 0 0 1 -22.801-25.044zm19.322 36.725a61.86 61.86 0 0 0 26.72 6.037h27.781a61.865 61.865 0 0 0 27.216-6.27c15.934 1.288 25.844 3.094 31.572 4.618-10.957 2.86-34.832 6.071-71.05 6.071s-60.078-3.209-71.04-6.068c5.387-1.432 14.471-3.118 28.804-4.388z" fill="#0635c9"/><g fill="#1ae5be"><path d="m254.619 477.316a6.032 6.032 0 0 0 1.631-.225 153.561 153.561 0 0 0 42.357-20.924c28.171-19.916 43.061-46.39 43.061-76.559v-46.216a6 6 0 0 0 -3.634-5.514l-.519-.223a380.726 380.726 0 0 1 -77.915-45.114 6 6 0 0 0 -7.2 0 380.7 380.7 0 0 1 -77.911 45.112l-.523.225a6 6 0 0 0 -3.634 5.514v46.216c0 30.129 14.385 56.582 41.6 76.5a146.4 146.4 0 0 0 41 20.966 5.982 5.982 0 0 0 1.687.242zm-72.287-97.708v-42.281a392.818 392.818 0 0 0 73.668-42.518 392.888 392.888 0 0 0 73.668 42.518v42.281c0 26.377-12.689 48.773-37.714 66.567a146.269 146.269 0 0 1 -37.3 18.846c-10.94-3.721-72.322-27.201-72.322-85.413z"/><path d="m288.913 355.17a6 6 0 0 0 -8.485 0l-35.592 35.591-13.264-13.261a6 6 0 0 0 -8.485 8.484l17.507 17.507a6 6 0 0 0 8.485 0l39.834-39.834a6 6 0 0 0 0-8.487z"/></g></svg>