<svg id="Layer_1" height="512" viewBox="0 0 512 512" width="512" xmlns="http://www.w3.org/2000/svg" data-name="Layer 1"><path d="m281 19.607q-7.524-.6-15.157-.608c-.044 0-.085 0-.126 0h-.247c-90.828.059-166.548 64.6-182.107 149.363q.178-.192.359-.38c.085-.088.172-.174.262-.257a55.688 55.688 0 0 1 33.461-14.979c20.193-72.405 85.025-126.904 163.555-133.139z" fill="#d4e1f4"/><g fill="#0635c9"><path d="m128.5 458.545a56.137 56.137 0 1 0 -56.137-56.136 56.2 56.2 0 0 0 56.137 56.136zm0-102.273a46.137 46.137 0 1 1 -46.137 46.137 46.191 46.191 0 0 1 46.137-46.137z"/><path d="m128.558 421.189c-.02 0-.038 0-.058 0s-.038 0-.058 0a7.034 7.034 0 0 1 -6.97-7.025 5 5 0 0 0 -10 0 17.055 17.055 0 0 0 12.028 16.276v2.909a5 5 0 0 0 10 0v-2.909a17.028 17.028 0 0 0 -5-33.305 7.029 7.029 0 1 1 7.028-7.029 5 5 0 0 0 10 0 17.056 17.056 0 0 0 -12.028-16.276v-2.361a5 5 0 0 0 -10 0v2.361a17.028 17.028 0 0 0 5 33.305 7.027 7.027 0 0 1 .058 14.054z"/><path d="m81.136 484.818h93.416a17.083 17.083 0 0 1 12.177 5.053l.338.338a38.255 38.255 0 0 0 27.2 11.291h.015a11.994 11.994 0 0 0 12.028-11.889 38.556 38.556 0 0 0 -4.526-18.239 110.37 110.37 0 0 0 20.333-97.923 114.65 114.65 0 0 0 -57.495-71.949c3.091-2.115 5.563-5 5.563-8.9v-9.45c0-.057-.016-.111-.018-.168s.018-.133.018-.2c0-6.315-8.305-8.276-12.3-9.219-2.805-.663-6.174-1.263-10-1.786a43.445 43.445 0 0 0 7.571-10.534l12.47-24.4a5 5 0 0 0 -6.847-6.665c-6.159 3.357-14.216-.309-19.89-3.978a42.045 42.045 0 0 0 -38.8-3.857 35.822 35.822 0 0 0 -16.776 13.511c-17.685 7.781-27.661-3.86-28.138-4.435a5 5 0 0 0 -8.5 5.063l8.961 21.628a43.334 43.334 0 0 0 9.25 13.925c-16.5 2.443-20.3 6.119-20.3 10.744 0 .071.014.135.017.2s-.017.111-.017.168v9.45c0 3.422 1.856 6.368 5.586 8.888a114.806 114.806 0 0 0 -57.465 71.508 110.173 110.173 0 0 0 19.243 97.056 38.44 38.44 0 0 0 -5.265 19.5 12 12 0 0 0 12 11.952 38.3 38.3 0 0 0 27.315-11.355 18.017 18.017 0 0 1 12.836-5.328zm99.049-193.4v.806c-.584.722-3.026 2.542-9.235 4.407-10.365 3.115-25.824 4.9-42.412 4.9-19.3 0-33.916-2.359-42.645-4.958-.046-.012-.09-.032-.137-.042-4.957-1.488-7.994-3.051-8.864-4.292v-.822a86.628 86.628 0 0 0 10.868 2.162 296.743 296.743 0 0 0 40.778 2.479 296.743 296.743 0 0 0 40.778-2.479 86.683 86.683 0 0 0 10.869-2.162zm-24.422-56.824c6.594 4.265 12.856 6.568 18.569 6.878l-7.776 15.215a33.18 33.18 0 0 1 -14.025 14.261c-.139.067-.278.131-.409.211a33.05 33.05 0 0 1 -9.029 3.066l6.515-34.225a5 5 0 0 0 -1.793-4.843c-.373-.3-5.846-4.532-15.508-5.35a32.442 32.442 0 0 1 23.456 4.786zm-71.563 12.499c6.421 2 15.513 2.6 26.58-2.609a4.97 4.97 0 0 0 .846-.387c13.935-6.671 23.321-4.332 27.494-2.486l-6.318 33.2h-14.9a33.159 33.159 0 0 1 -30.726-20.53zm15.236 33.6a43.3 43.3 0 0 0 18.468 4.117h19.036a43.256 43.256 0 0 0 18.781-4.285 156.962 156.962 0 0 1 17.477 2.254c-8.529 1.667-23.569 3.281-44.66 3.281-21.12 0-36.172-1.618-44.7-3.287a151.889 151.889 0 0 1 15.599-2.082zm-58.448 210.807a1.962 1.962 0 0 1 -2-1.965 28.448 28.448 0 0 1 4.212-14.954 8.826 8.826 0 0 0 -.524-10l-.045-.059a100.272 100.272 0 0 1 -17.971-88.893c8.548-31.229 31.033-56.87 60.31-68.929.751.207 1.52.409 2.319.606 11.078 2.724 25.728 4.225 41.249 4.225a212.716 212.716 0 0 0 27.327-1.687 73.685 73.685 0 0 0 -9.268 23.305 5 5 0 0 0 3.859 5.926 5.058 5.058 0 0 0 1.038.109 5 5 0 0 0 4.888-3.968 63.792 63.792 0 0 1 10.364-23.731l.91 1.32.075.126a133.039 133.039 0 0 1 14.984 38.2 5 5 0 1 0 9.75-2.219 143.222 143.222 0 0 0 -15.577-40.092 104.449 104.449 0 0 1 55.572 67.229 100.481 100.481 0 0 1 -18.741 89.4l-.016.02a9.31 9.31 0 0 0 -.9 10.307 28.523 28.523 0 0 1 3.511 13.8 1.981 1.981 0 0 1 -2.029 1.917 28.324 28.324 0 0 1 -20.133-8.354l-.335-.336a27.018 27.018 0 0 0 -19.259-7.992h-93.422a28 28 0 0 0 -19.978 8.325 28.323 28.323 0 0 1 -20.17 8.364z"/><path d="m383.5 346.272a56.137 56.137 0 1 0 56.137 56.137 56.2 56.2 0 0 0 -56.137-56.137zm0 102.273a46.137 46.137 0 1 1 46.137-46.136 46.189 46.189 0 0 1 -46.137 46.136z"/><path d="m383.5 383.078a7.036 7.036 0 0 1 7.028 7.028 5 5 0 0 0 10 0 17.056 17.056 0 0 0 -12.028-16.276v-2.361a5 5 0 0 0 -10 0v2.361a17.028 17.028 0 0 0 5 33.305 7.027 7.027 0 0 1 .058 14.054c-.02 0-.038 0-.058 0s-.038 0-.058 0a7.034 7.034 0 0 1 -6.97-7.025 5 5 0 0 0 -10 0 17.055 17.055 0 0 0 12.028 16.276v2.909a5 5 0 0 0 10 0v-2.909a17.028 17.028 0 0 0 -5-33.305 7.029 7.029 0 0 1 0-14.057z"/><path d="m497.117 373.449a114.65 114.65 0 0 0 -57.495-71.949c3.091-2.115 5.563-5 5.563-8.9v-9.45c0-.057-.016-.111-.018-.168s.018-.133.018-.2c0-6.315-8.305-8.276-12.3-9.219-2.805-.663-6.174-1.263-10-1.786a43.445 43.445 0 0 0 7.571-10.534l12.47-24.4a5 5 0 0 0 -6.847-6.665c-6.159 3.357-14.216-.309-19.89-3.978a42.045 42.045 0 0 0 -38.8-3.857 35.822 35.822 0 0 0 -16.776 13.511c-17.684 7.78-27.662-3.86-28.138-4.435a5 5 0 0 0 -8.5 5.063l8.961 21.628a43.334 43.334 0 0 0 9.25 13.925c-16.5 2.443-20.3 6.119-20.3 10.744 0 .071.014.135.017.2s-.017.111-.017.168v9.45c0 3.422 1.856 6.368 5.586 8.888a114.806 114.806 0 0 0 -57.465 71.508 110.173 110.173 0 0 0 19.243 97.056 38.44 38.44 0 0 0 -5.265 19.5 12 12 0 0 0 12 11.952 38.3 38.3 0 0 0 27.315-11.355 18.017 18.017 0 0 1 12.84-5.328h93.416a17.083 17.083 0 0 1 12.177 5.053l.338.338a38.255 38.255 0 0 0 27.2 11.291h.015a11.994 11.994 0 0 0 12.028-11.889 38.556 38.556 0 0 0 -4.526-18.239 110.37 110.37 0 0 0 20.329-97.923zm-61.932-82.032v.806c-.584.722-3.026 2.542-9.235 4.407-10.365 3.115-25.824 4.9-42.412 4.9-19.3 0-33.916-2.359-42.645-4.958-.046-.012-.09-.032-.137-.042-4.957-1.488-7.994-3.051-8.864-4.292v-.822a86.628 86.628 0 0 0 10.868 2.162 296.743 296.743 0 0 0 40.778 2.479 296.743 296.743 0 0 0 40.778-2.479 86.683 86.683 0 0 0 10.869-2.161zm-24.422-56.824c6.594 4.265 12.856 6.568 18.569 6.878l-7.776 15.215a33.177 33.177 0 0 1 -14.017 14.256c-.144.07-.288.137-.423.219a33.083 33.083 0 0 1 -9.023 3.063l6.515-34.224a5 5 0 0 0 -1.793-4.843c-.373-.3-5.845-4.532-15.508-5.35a32.441 32.441 0 0 1 23.456 4.786zm-71.562 12.5c6.421 2 15.513 2.6 26.58-2.609a4.97 4.97 0 0 0 .846-.387c13.935-6.671 23.321-4.332 27.494-2.486l-6.318 33.2h-14.9a33.159 33.159 0 0 1 -30.726-20.53zm15.236 33.6a43.3 43.3 0 0 0 18.468 4.117h19.035a43.256 43.256 0 0 0 18.781-4.285 156.962 156.962 0 0 1 17.477 2.254c-8.529 1.667-23.569 3.281-44.66 3.281-21.12 0-36.172-1.618-44.695-3.287a151.889 151.889 0 0 1 15.594-2.082zm114.282 184.756-.016.02a9.31 9.31 0 0 0 -.9 10.307 28.523 28.523 0 0 1 3.511 13.8 1.981 1.981 0 0 1 -2.029 1.917 28.324 28.324 0 0 1 -20.133-8.354l-.335-.336a27.018 27.018 0 0 0 -19.259-7.992h-93.422a28 28 0 0 0 -19.978 8.325 28.323 28.323 0 0 1 -20.17 8.357 1.962 1.962 0 0 1 -2-1.965 28.448 28.448 0 0 1 4.206-14.954 8.826 8.826 0 0 0 -.524-10l-.045-.059a100.272 100.272 0 0 1 -17.971-88.893c8.551-31.23 31.036-56.875 60.313-68.934.751.207 1.52.409 2.319.606 11.078 2.724 25.728 4.225 41.249 4.225a212.716 212.716 0 0 0 27.327-1.687 73.685 73.685 0 0 0 -9.268 23.305 5 5 0 0 0 3.859 5.926 5.058 5.058 0 0 0 1.038.109 5 5 0 0 0 4.888-3.968 63.792 63.792 0 0 1 10.364-23.731l.91 1.32.075.126a133.039 133.039 0 0 1 14.984 38.2 5 5 0 1 0 9.75-2.219 143.222 143.222 0 0 0 -15.577-40.092 104.449 104.449 0 0 1 55.572 67.229 100.481 100.481 0 0 1 -18.738 89.412z"/></g><path d="m256.114 10.5h-.346c-100.622.066-182.431 81.983-182.368 182.605a6 6 0 0 0 11.8 1.527c1.256-4.751 5.7-18.3 11.2-24.277a39.3 39.3 0 0 1 27.172-10.993 38.345 38.345 0 0 1 27.078 10.954 39.285 39.285 0 0 1 11.042 27.2 6 6 0 0 0 12 0 37.573 37.573 0 0 1 38.179-38.151h.187a38.256 38.256 0 0 1 26.89 10.954 39.289 39.289 0 0 1 11.052 27.194v153.759a6 6 0 0 0 12 0v-153.759a37.572 37.572 0 0 1 38.177-38.147h.187a38.259 38.259 0 0 1 26.891 10.954 39.3 39.3 0 0 1 11.044 27.2 6 6 0 1 0 12 0 37.578 37.578 0 0 1 38.364-38.152 38.265 38.265 0 0 1 26.887 10.949c5.523 5.952 9.986 19.556 11.244 24.315a6 6 0 0 0 11.8-1.45v-.31a182.486 182.486 0 0 0 -182.48-182.372zm132.333 136.866a51.1 51.1 0 0 0 -35.507 14.386c-.087.083-.173.169-.256.257a54.661 54.661 0 0 0 -8.385 11.57 54.666 54.666 0 0 0 -8.386-11.57c-.054-.057-.108-.113-.164-.168a50.166 50.166 0 0 0 -35.355-14.476h-.246a51.092 51.092 0 0 0 -35.505 14.386c-.088.083-.173.168-.256.256a54.578 54.578 0 0 0 -8.387 11.568 54.65 54.65 0 0 0 -8.386-11.57c-.053-.058-.108-.113-.164-.168a50.168 50.168 0 0 0 -35.35-14.476h-.245a51.1 51.1 0 0 0 -35.508 14.386c-.088.083-.174.169-.257.257a54.65 54.65 0 0 0 -8.386 11.57 54.61 54.61 0 0 0 -8.385-11.57c-.053-.057-.108-.113-.164-.168a50.167 50.167 0 0 0 -35.355-14.475h-.245a51.055 51.055 0 0 0 -35.234 14.13c14.809-78.964 84.246-138.936 167.45-138.991h.229c.028.015.075 0 .114 0a170.6 170.6 0 0 1 167.6 139.019 50.017 50.017 0 0 0 -35.267-14.153z" fill="#1ae5be"/></svg>