<svg id="Layer_1" height="512" viewBox="0 0 512 512" width="512" xmlns="http://www.w3.org/2000/svg" data-name="Layer 1"><path d="m282.731 366.838a111.282 111.282 0 0 1 101.135-110.68c-3.295-.3-6.629-.455-10-.455a111.135 111.135 0 1 0 0 222.269c3.371 0 6.705-.16 10-.455a111.283 111.283 0 0 1 -101.135-110.679z" fill="#d4e1f4"/><g fill="#0635c9"><path d="m313.836 129.121h-14.451v-30.47a6 6 0 0 0 -6-6h-23.108v-13.783a6 6 0 0 0 -12 0v13.783h-23.655a6 6 0 0 0 -6 6v30.47h-18.022v-38.663a6 6 0 0 0 -6-6h-26.133v-30.967a6 6 0 0 0 -6-6h-54.739v-19.463a6 6 0 0 0 -12 0v19.463h-52.6a6 6 0 0 0 -6 6v30.967h-26.128a6 6 0 0 0 -6 6v330.376a6 6 0 0 0 6 6h251.086v-12h-61.486v-273.713h97.24v128.1h12v-134.1a6 6 0 0 0 -6.004-6zm-254.707-69.63h107.338v24.967h-107.338zm84.389 355.343h-25.79v-61.11h25.79zm-37.79 0h-23.649v-61.11h23.649zm92.868 0h-43.078v-67.11a6 6 0 0 0 -6-6h-73.439a6 6 0 0 0 -6 6v67.11h-43.079v-318.376h171.6zm42.026-310.183h46.763v24.47h-46.763z"/><path d="m58.267 191.136h109.1a6 6 0 0 0 0-12h-109.1a6 6 0 1 0 0 12z"/><path d="m58.267 241.323h109.1a6 6 0 0 0 0-12h-109.1a6 6 0 0 0 0 12z"/><path d="m58.267 291.511h109.1a6 6 0 0 0 0-12h-109.1a6 6 0 1 0 0 12z"/><path d="m58.267 140.949h109.1a6 6 0 0 0 0-12h-109.1a6 6 0 1 0 0 12z"/><path d="m283.88 278.42h-48.866a6 6 0 1 0 0 12h48.866a6 6 0 0 0 0-12z"/><path d="m269.381 325.879a6 6 0 0 0 -6-6h-28.367a6 6 0 0 0 0 12h28.367a6 6 0 0 0 6-6z"/><path d="m235.014 364.61a6 6 0 0 0 0 12h20.558a6 6 0 0 0 0-12z"/><path d="m235.014 245.688h46.914a6 6 0 0 0 0-12h-46.914a6 6 0 0 0 0 12z"/><path d="m235.014 202.046h46.914a6 6 0 0 0 0-12h-46.914a6 6 0 0 0 0 12z"/></g><path d="m373.866 243.7a123.135 123.135 0 1 0 123.134 123.138 123.275 123.275 0 0 0 -123.134-123.138zm0 234.269a111.135 111.135 0 1 1 111.134-111.131 111.261 111.261 0 0 1 -111.134 111.134z" fill="#1ae5be"/><path d="m373.918 279.482h-.162a88.264 88.264 0 0 0 -88.1 88.219 6 6 0 0 0 11.8 1.525c.75-2.848 2.649-7.88 4.4-9.862a15.046 15.046 0 0 1 10.455-4.167 14.618 14.618 0 0 1 10.225 4.137 15.209 15.209 0 0 1 4.226 10.416 6 6 0 0 0 12 0 14.289 14.289 0 0 1 14.58-14.55h.072a14.62 14.62 0 0 1 10.226 4.137 15.2 15.2 0 0 1 4.226 10.416v60.593a11.849 11.849 0 0 1 -23.7 0v-7.369a6 6 0 0 0 -12 0v7.369a23.849 23.849 0 0 0 47.7 0v-60.596a14.291 14.291 0 0 1 14.582-14.55 14.637 14.637 0 0 1 10.3 4.137 15.2 15.2 0 0 1 4.226 10.416 6 6 0 0 0 12 0 14.289 14.289 0 0 1 14.58-14.553h.072a14.624 14.624 0 0 1 10.217 4.127c1.761 1.95 3.646 6.94 4.432 9.9a6 6 0 0 0 11.8-1.528v-.11a88.26 88.26 0 0 0 -88.157-88.107zm61.606 63.718a26.937 26.937 0 0 0 -18.727 7.569c-.088.083-.174.169-.257.256q-.828.88-1.568 1.8-.74-.924-1.569-1.8-.079-.086-.165-.168a26.529 26.529 0 0 0 -18.687-7.657 27.144 27.144 0 0 0 -18.86 7.569q-.13.125-.255.255-.828.88-1.57 1.8-.741-.923-1.569-1.805c-.054-.056-.109-.113-.164-.168a26.53 26.53 0 0 0 -18.689-7.657h-.132a26.937 26.937 0 0 0 -18.727 7.569c-.088.083-.174.169-.258.257q-.828.879-1.567 1.8-.74-.923-1.568-1.8c-.054-.057-.109-.114-.166-.169a26.939 26.939 0 0 0 -30.151-5.155 76.3 76.3 0 0 1 72.885-54.217h.106a.3.3 0 0 0 .052 0 76.309 76.309 0 0 1 72.925 54.171 26.87 26.87 0 0 0 -11.319-2.45z" fill="#1ae5be"/></svg>