<svg id="Layer_1" height="512" viewBox="0 0 512 512" width="512" xmlns="http://www.w3.org/2000/svg" data-name="Layer 1"><path d="m276.865 20.109c-4.186-.327-8.4-.5-12.65-.5h-.315c-75.8.049-138.993 53.342-151.978 123.343.1-.106.2-.21.3-.314.071-.072.144-.144.219-.212a46.712 46.712 0 0 1 27.926-12.37c16.855-59.793 70.96-104.798 136.498-109.947z" fill="#d4e1f4"/><path d="m169.4 284.51a6 6 0 0 0 -6 6 8.083 8.083 0 0 1 -16.165 0 6 6 0 0 0 -12 0 20.083 20.083 0 0 0 40.165 0 6 6 0 0 0 -6-6z" fill="#0635c9"/><path d="m333.209 368.865a96.825 96.825 0 0 0 7.388-37.229c0-.636-.014-1.268-.027-1.9a30.013 30.013 0 0 0 24.909-29.536 6 6 0 0 0 -12 0 17.99 17.99 0 0 1 -13.893 17.486c-7.521-51.818-56.345-91.939-115.269-91.939a140.006 140.006 0 0 0 -20.184 1.479 55.666 55.666 0 0 0 -45.718-23.937 6 6 0 0 0 -5.737 7.757l1.219 3.979a65.4 65.4 0 0 1 2.771 23.229 115.214 115.214 0 0 0 -53.3 44.7l-4.39 6.946h-12.743a14.3 14.3 0 0 0 -14.283 14.285v52.593a14.3 14.3 0 0 0 14.283 14.285h12.895a97.16 97.16 0 0 0 13.985 19.9 65.693 65.693 0 0 1 16.823 44.163 18.235 18.235 0 0 0 18.215 18.214h16.99a18.234 18.234 0 0 0 18.214-18.214 6.222 6.222 0 0 1 6.215-6.215h16.309c-.056.592-.091 1.189-.091 1.8a18.884 18.884 0 0 0 5.192 13 18.885 18.885 0 0 0 .147 26.164 18.949 18.949 0 0 0 13.632 32.125h77.827a18.948 18.948 0 0 0 13.657-32.107 18.9 18.9 0 0 0 2.191-2.76c.379.034.761.062 1.143.087.18.012.358.031.538.041.928.052 1.862.084 2.8.084 1.513 0 3.007-.079 4.486-.212a18.815 18.815 0 0 0 1.9 2.433 18.94 18.94 0 0 0 13.949 31.786h77.827a18.94 18.94 0 0 0 13.921-31.81 18.868 18.868 0 0 0 -.148-25.84 18.944 18.944 0 0 0 -13.779-31.973h-48.729a49.886 49.886 0 0 0 -39.135-42.864zm89.442 94.624c-.52-.043-1.043-.08-1.574-.08h-77.827c-.36 0-.711.034-1.065.054a50.007 50.007 0 0 0 18.681-13.732h60.211a6.969 6.969 0 0 1 1.574 13.758zm-61.951-45.923a37.815 37.815 0 0 1 -36.81 37.754 6 6 0 0 0 5.032-5.915v-2.39a18.367 18.367 0 0 0 -6-35.73 6.378 6.378 0 1 1 6.378-6.378 6 6 0 0 0 12 0 18.394 18.394 0 0 0 -12.378-17.352v-1.826a6 6 0 0 0 -5.032-5.915 37.814 37.814 0 0 1 36.81 37.752zm-142.91-64.812a6.98 6.98 0 0 1 6.971-6.972h77.827a6.972 6.972 0 1 1 0 13.943h-77.827a6.979 6.979 0 0 1 -6.971-6.971zm55.71 58.916h-48.739a6.971 6.971 0 1 1 0-13.942h52.517a49.342 49.342 0 0 0 -3.778 13.942zm11.24-26h-59.979a6.971 6.971 0 0 1 0-13.942h77.827a6.762 6.762 0 0 1 .8.063 50.024 50.024 0 0 0 -18.645 13.876zm-59.982 38.062h48.758a49.142 49.142 0 0 0 3.851 13.943h-52.606a6.972 6.972 0 0 1 0-13.943zm0 26h60.174c.849 1 1.746 1.951 2.667 2.875.109.11.219.218.329.327.46.454.925.9 1.4 1.336.229.211.467.413.7.619.386.339.767.682 1.163 1.008a49.852 49.852 0 0 0 12.673 7.652 7.033 7.033 0 0 1 -1.281.127h-77.822a6.972 6.972 0 0 1 0-13.944zm95.163 5.484c-.362-.028-.724-.056-1.083-.094-.418-.045-.833-.1-1.247-.159-.216-.03-.431-.06-.646-.094-.515-.082-1.027-.172-1.535-.275l-.2-.04a37.864 37.864 0 0 1 -29.857-32.96c-.014-.125-.026-.25-.038-.375-.045-.466-.079-.934-.107-1.405-.009-.152-.02-.3-.027-.457-.028-.594-.045-1.189-.045-1.79a37.814 37.814 0 0 1 36.809-37.752 6 6 0 0 0 -5.032 5.915v1.826a18.367 18.367 0 0 0 6 35.73 6.376 6.376 0 0 1 .087 12.752c-.029 0-.057 0-.087 0s-.057 0-.086 0a6.383 6.383 0 0 1 -6.291-6.374 6 6 0 0 0 -12 0 18.394 18.394 0 0 0 12.377 17.352v2.39a6 6 0 0 0 5.006 5.911c-.362-.009-.725-.012-1.085-.031-.301-.018-.605-.047-.91-.071zm-148.564-20.095a6.22 6.22 0 0 1 -6.214 6.214h-16.99a6.221 6.221 0 0 1 -6.215-6.214 77.673 77.673 0 0 0 -19.917-52.206 83.852 83.852 0 0 1 -13.748-20.409 6 6 0 0 0 -5.429-3.445h-16.609a2.286 2.286 0 0 1 -2.283-2.285v-52.593a2.286 2.286 0 0 1 2.283-2.285h16.046a6 6 0 0 0 5.07-2.791l6.161-9.734a103.1 103.1 0 0 1 50.71-41.193 6 6 0 0 0 4.057-5.009 77.343 77.343 0 0 0 -1.661-27.109 43.778 43.778 0 0 1 35.5 42.931 6 6 0 0 0 12 0 55.4 55.4 0 0 0 -3.911-20.463 129.666 129.666 0 0 1 14.11-.782c57.5 0 104.28 42.118 104.28 93.888a85.1 85.1 0 0 1 -8.051 36.213c-.768.036-1.531.1-2.29.166a18.748 18.748 0 0 0 -1.849-2.3 18.942 18.942 0 0 0 -13.819-31.929h-77.827a18.943 18.943 0 0 0 -13.806 31.943 18.87 18.87 0 0 0 .028 25.972 18.886 18.886 0 0 0 -.722 25.209h-20.689a18.235 18.235 0 0 0 -18.215 18.211zm131.231 54.879h-77.827a6.971 6.971 0 1 1 0-13.942h77.827a6.971 6.971 0 1 1 0 13.942zm118.489-.648h-77.827a6.968 6.968 0 0 1 -1.613-13.747c.533.045 1.071.07 1.613.07h77.827c.531 0 1.054-.037 1.574-.08a6.968 6.968 0 0 1 -1.574 13.757zm6.971-58.651a6.979 6.979 0 0 1 -6.971 6.971h-52.636a49.372 49.372 0 0 0 3.861-13.943h48.775a6.98 6.98 0 0 1 6.971 6.971z" fill="#0635c9"/><path d="m106.858 170.328a6 6 0 0 0 6.571-4.423c.961-3.65 4.691-15.076 9.167-19.963a32.116 32.116 0 0 1 22.3-8.953 31.193 31.193 0 0 1 21.909 8.914 32.071 32.071 0 0 1 9 22.18 6 6 0 0 0 12 0 30.614 30.614 0 0 1 31.273-31.094 31.191 31.191 0 0 1 21.922 8.911 32.067 32.067 0 0 1 9 22.18v33.284a6 6 0 0 0 12 0v-33.281a30.609 30.609 0 0 1 31.122-31.09h.153a31.189 31.189 0 0 1 21.907 8.915 32.063 32.063 0 0 1 9 22.179 6 6 0 0 0 12 0 30.609 30.609 0 0 1 31.121-31.093h.153a31.19 31.19 0 0 1 21.9 8.91c4.5 4.858 8.168 16.073 9.207 20a6 6 0 0 0 11.8-1.527v-.2a154.28 154.28 0 0 0 -154.263-154.177h-.3a154.28 154.28 0 0 0 -154.174 154.381 6 6 0 0 0 5.232 5.947zm48.374-106.589a141.348 141.348 0 0 1 100.576-41.739h.192.1a142.4 142.4 0 0 1 139.32 113.2 43.207 43.207 0 0 0 -28.137-10.207 43.871 43.871 0 0 0 -30.489 12.347c-.088.083-.174.169-.257.257a47.233 47.233 0 0 0 -6.347 8.422 47.281 47.281 0 0 0 -6.347-8.422q-.081-.086-.165-.168a43.1 43.1 0 0 0 -30.378-12.437h-.211a43.867 43.867 0 0 0 -30.489 12.348c-.088.083-.173.168-.256.256a47.274 47.274 0 0 0 -6.348 8.42 47.276 47.276 0 0 0 -6.347-8.423c-.054-.057-.109-.113-.164-.168a43.1 43.1 0 0 0 -30.374-12.436 43.9 43.9 0 0 0 -30.7 12.347c-.088.083-.174.169-.257.258a47.346 47.346 0 0 0 -6.347 8.421 47.3 47.3 0 0 0 -6.347-8.421c-.053-.057-.108-.114-.164-.169a43.1 43.1 0 0 0 -30.373-12.436 43.753 43.753 0 0 0 -28.361 10.282 141.292 141.292 0 0 1 38.67-71.532z" fill="#1ae5be"/></svg>