<svg id="Layer_1" height="512" viewBox="0 0 512 512" width="512" xmlns="http://www.w3.org/2000/svg" data-name="Layer 1"><path d="m339.429 446.919h3.871a6.023 6.023 0 0 1 -1.443-.181 18.259 18.259 0 0 1 -2.428.181z" fill="#d4e1f4"/><path d="m100 476v-416a14.016 14.016 0 0 1 14-14h-30a14.016 14.016 0 0 0 -14 14v416a14.015 14.015 0 0 0 14 14h30a14.015 14.015 0 0 1 -14-14z" fill="#d4e1f4"/><path d="m428 34h-134.061a41.987 41.987 0 0 0 -75.878 0h-134.061a26.029 26.029 0 0 0 -26 26v416a26.029 26.029 0 0 0 26 26h344a26.029 26.029 0 0 0 26-26v-416a26.029 26.029 0 0 0 -26-26zm-172-12a30.034 30.034 0 0 1 30 30v18a6 6 0 0 0 6 6h60v36h-192v-36h60a6 6 0 0 0 6-6v-18a30.034 30.034 0 0 1 30-30zm139.616 355.454h-32.316a26.029 26.029 0 0 0 -26 26v31.465h-216.916a4 4 0 0 1 -4-4v-325.838a4 4 0 0 1 4-4h27.616v16.919a6 6 0 0 0 6 6h204a6 6 0 0 0 6-6v-16.919h27.616a4 4 0 0 1 4 4zm-8.235 12-38.081 38.08v-24.08a14.015 14.015 0 0 1 14-14zm54.619 86.546a14.015 14.015 0 0 1 -14 14h-344a14.015 14.015 0 0 1 -14-14v-416a14.016 14.016 0 0 1 14-14h130.436a41.962 41.962 0 0 0 -.436 6v12h-60a6 6 0 0 0 -6 6v19.081h-27.616a16.018 16.018 0 0 0 -16 16v325.838a16.018 16.018 0 0 0 16 16h219.045a18.259 18.259 0 0 0 2.428-.181 5.954 5.954 0 0 0 5.976-1.9 18.071 18.071 0 0 0 4.323-3.195l50.189-50.189a17.882 17.882 0 0 0 5.271-12.726v-273.647a16.018 16.018 0 0 0 -16-16h-27.616v-19.081a6 6 0 0 0 -6-6h-60v-12a41.962 41.962 0 0 0 -.436-6h130.436a14.016 14.016 0 0 1 14 14z" fill="#0635c9"/><g fill="#1ae5be"><path d="m358 296.379h-19.272a6 6 0 1 0 0 12h19.272a6 6 0 0 0 0-12z"/><path d="m241.5 296.379a6 6 0 1 0 0 12h74.513a6 6 0 0 0 0-12z"/><path d="m218.684 296.379h-64.684a6 6 0 0 0 0 12h64.684a6 6 0 0 0 0-12z"/><path d="m358 339.321h-125.074a6 6 0 0 0 0 12h125.074a6 6 0 0 0 0-12z"/><path d="m210.113 339.321h-23.376a6 6 0 1 0 0 12h23.376a6 6 0 0 0 0-12z"/><path d="m163.382 339.321h-9.382a6 6 0 0 0 0 12h9.382a6 6 0 0 0 0-12z"/><path d="m329.1 260.45v-8.7a13.525 13.525 0 0 0 8.3-12.01l4.553-34.447a6.068 6.068 0 0 0 .052-.786c0-10.015-6.672-18.387-15.5-20.293l-13.22-24.354c-4.688-8.408-11.613-18.06-23.639-18.06h-66.661c-9.707 0-18.2 6.443-23.924 18.147l-13.647 24.181c-8.891 1.841-15.414 10.128-15.414 20.379a5.94 5.94 0 0 0 .048.754l4.362 34.46a13.52 13.52 0 0 0 8.49 12.1v8.629a9.761 9.761 0 0 0 9.75 9.75h11.387a9.761 9.761 0 0 0 9.75-9.75v-7.661h84.426v7.661a9.761 9.761 0 0 0 9.75 9.75h11.387a9.761 9.761 0 0 0 9.75-9.75zm-119.5-94.763c.06-.109.119-.22.172-.331 2.093-4.316 6.592-11.556 13.212-11.556h66.661c4.57 0 8.5 3.56 13.125 11.843l9.85 18.157h-5.213a21.516 21.516 0 0 0 -41.627 0h-66.4zm84.8 18.113h-15.608a9.525 9.525 0 0 1 15.605 0zm-105.747 11.971c.15.011.3.029.45.029h133.497.077c4.4 0 7.166 4.273 7.314 8.357l-4.537 34.343a6.1 6.1 0 0 0 -.052.787 1.52 1.52 0 0 1 -1.5 1.5h-136a1.52 1.52 0 0 1 -1.5-1.5 5.762 5.762 0 0 0 -.048-.754l-4.349-34.364c.13-4.033 2.588-8.082 6.648-8.398zm13.134 62.429h-6.887v-5.411h6.887zm108.426 0v-5.411h6.887v5.411z"/><path d="m233.48 231.236h45.041a6 6 0 0 0 0-12h-45.041a6 6 0 0 0 0 12z"/><path d="m202.337 237.032a15.834 15.834 0 1 0 -15.837-15.832 15.853 15.853 0 0 0 15.837 15.832zm0-19.668a3.834 3.834 0 1 1 -3.837 3.836 3.839 3.839 0 0 1 3.837-3.836z"/><path d="m309.663 237.032a15.834 15.834 0 1 0 -15.834-15.832 15.852 15.852 0 0 0 15.834 15.832zm0-19.668a3.834 3.834 0 1 1 -3.834 3.834 3.838 3.838 0 0 1 3.834-3.834z"/></g></svg>