<svg id="Layer_1" height="512" viewBox="0 0 512 512" width="512" xmlns="http://www.w3.org/2000/svg" data-name="Layer 1"><path d="m271.042 59.078c-4.936-.4-9.911-.61-14.918-.61-.043 0-.084 0-.124 0h-.243c-89.4.059-163.931 64.811-179.246 149.863.118-.129.235-.256.354-.382.083-.088.169-.175.258-.258a54.337 54.337 0 0 1 32.935-15.029c19.876-72.647 83.689-127.328 160.984-133.584z" fill="#d4e1f4"/><path d="m256.124 46.468h-.371c-107.111.071-194.194 87.269-194.123 194.379a6 6 0 0 0 11.8 1.528c1.348-5.1 6.124-19.646 12.055-26.077a42.309 42.309 0 0 1 29.265-11.843h.2a41.2 41.2 0 0 1 28.971 11.8 42.3 42.3 0 0 1 11.894 29.29 6 6 0 0 0 12 0 40.483 40.483 0 0 1 41.32-41.094 41.206 41.206 0 0 1 28.972 11.8 42.3 42.3 0 0 1 11.893 29.297v16.264h12v-16.264a40.474 40.474 0 0 1 41.121-41.089h.2a41.2 41.2 0 0 1 28.969 11.8 42.306 42.306 0 0 1 11.893 29.29 6 6 0 0 0 12 0 40.482 40.482 0 0 1 41.324-41.094 41.209 41.209 0 0 1 28.965 11.8c5.952 6.407 10.745 21.008 12.094 26.113a6 6 0 0 0 11.8-1.528v-.24a194.252 194.252 0 0 0 -194.242-194.132zm179.011 161.484c-.054-.057-.109-.114-.165-.168a53.147 53.147 0 0 0 -37.693-15.325 54.113 54.113 0 0 0 -37.6 15.236c-.088.083-.174.169-.257.257a57.691 57.691 0 0 0 -9.236 12.924 57.659 57.659 0 0 0 -9.236-12.924c-.053-.057-.108-.114-.164-.168a53.111 53.111 0 0 0 -37.432-15.326c-14.129-.075-27.206 5.208-37.861 15.237-.087.083-.173.168-.256.256a57.635 57.635 0 0 0 -9.235 12.922 57.642 57.642 0 0 0 -9.236-12.925c-.053-.057-.108-.114-.164-.168a53.248 53.248 0 0 0 -37.692-15.325 54.113 54.113 0 0 0 -37.6 15.236c-.088.083-.173.169-.256.257a57.642 57.642 0 0 0 -9.236 12.925 57.674 57.674 0 0 0 -9.236-12.925c-.054-.057-.108-.114-.164-.168a53.246 53.246 0 0 0 -37.692-15.325 54.109 54.109 0 0 0 -37.6 15.236c-.089.083-.175.17-.258.258-.119.126-.236.253-.354.382 15.315-85.052 89.845-149.8 179.246-149.863h.242.124a182.368 182.368 0 0 1 179.4 149.909c-.124-.144-.257-.285-.389-.425z" fill="#0635c9"/><path d="m256 378.015a6 6 0 0 0 -6 6v31.728a37.79 37.79 0 0 1 -75.579 0v-20.713a6 6 0 0 0 -12 0v20.713a49.79 49.79 0 0 0 99.579 0v-31.728a6 6 0 0 0 -6-6z" fill="#0635c9"/><g fill="#1ae5be"><path d="m255.211 256.54a66 66 0 1 0 66 66 66.074 66.074 0 0 0 -66-66zm0 120a54 54 0 1 1 54-54 54.061 54.061 0 0 1 -54 54z"/><path d="m275.146 298.414h.066a6 6 0 0 0 .063-12l-28.293-.3-11.341-.122a6 6 0 0 0 -.129 12l11.342.122a10.93 10.93 0 0 1 7.747 3.306 11.068 11.068 0 0 1 1.423 1.8l-20.567-.22h-.065a6 6 0 0 0 -.063 12l20.558.22a11 11 0 0 1 -9.15 4.908h-.12l-11.342-.128a6 6 0 0 0 -4.232 10.316l28.06 27.092a6 6 0 1 0 8.335-8.633l-17.48-16.875a23.067 23.067 0 0 0 18.914-16.544l6.092.065h.066a6 6 0 0 0 .063-12l-6.1-.065a22.692 22.692 0 0 0 -1.937-5.027z"/></g></svg>