<svg id="Layer_1" height="512" viewBox="0 0 512 512" width="512" xmlns="http://www.w3.org/2000/svg" data-name="Layer 1"><path d="m330.607 369.274a85.777 85.777 0 0 1 75.947-85.407 86 86 0 1 0 .053 170.807 86.112 86.112 0 0 1 -76-85.4z" fill="#d4e1f4"/><path d="m471.834 131.125-197.856-82.381c-12.907-5.373-33.124-5.373-46.032 0l-197.855 82.381c-10.647 4.433-12.236 10.776-12.236 14.162s1.59 9.729 12.236 14.161l18.251 7.6v165.435a37.187 37.187 0 1 0 12-.093v-160.346l42.1 17.528v141.244a6 6 0 0 0 6 6h12.315c37.364 0 75.624 35.082 100.94 58.3 16.6 15.217 24.216 21.945 30.961 21.945 6.867 0 14.528-6.726 31.2-21.939 6.583-6.006 14.043-12.814 22.125-19.582a6 6 0 0 0 -7.706-9.2c-8.277 6.932-15.837 13.831-22.507 19.918-8.7 7.941-19.488 17.783-23.086 18.764-3.561-1.041-14.249-10.842-22.874-18.75-26.688-24.472-67.017-61.453-109.051-61.453h-6.315v-130.251l113.508 47.261c6.453 2.687 14.736 4.03 23.016 4.03s16.562-1.343 23.016-4.03l116.629-48.561v84.006a6 6 0 0 0 12 0v-89l69.227-28.824c10.645-4.432 12.235-10.775 12.235-14.161s-1.595-9.731-12.241-14.164zm-392.021 238.15a25.21 25.21 0 1 1 -25.213-25.331 25.3 25.3 0 0 1 25.213 25.331zm387.408-220.9-197.857 82.376c-9.974 4.152-26.83 4.153-36.8 0l-197.864-82.381c-3.07-1.278-4.38-2.526-4.763-3.083.383-.558 1.693-1.806 4.763-3.084l197.86-82.381c9.976-4.153 26.832-4.152 36.8 0l197.861 82.378c3.07 1.278 4.38 2.526 4.762 3.084-.383.56-1.692 1.808-4.762 3.086z" fill="#0635c9"/><g fill="#1ae5be"><path d="m396.607 271.274a98 98 0 1 0 98 98 98.239 98.239 0 0 0 -98-98zm0 184a86 86 0 1 1 86-86 86.1 86.1 0 0 1 -86 86z"/><path d="m396.646 303.9h-.121a65.963 65.963 0 0 0 -65.918 66.006 6 6 0 0 0 11.8 1.533 21.936 21.936 0 0 1 2.806-6.484 9.5 9.5 0 0 1 6.423-2.555h.045a9.053 9.053 0 0 1 6.3 2.534 9.485 9.485 0 0 1 2.622 6.466 6 6 0 0 0 12 0 8.816 8.816 0 0 1 9.029-9h.045a9.053 9.053 0 0 1 6.3 2.534 9.485 9.485 0 0 1 2.622 6.466v44.223a7.027 7.027 0 0 1 -14.053 0v-5.379a6 6 0 0 0 -12 0v5.379a19.027 19.027 0 0 0 38.053 0v-44.223a8.813 8.813 0 0 1 9.029-9h.045a9.052 9.052 0 0 1 6.3 2.533 9.488 9.488 0 0 1 2.622 6.467 6 6 0 0 0 12 0 8.813 8.813 0 0 1 9.029-9h.045a9.059 9.059 0 0 1 6.288 2.516c.937 1.077 2.235 4.258 2.836 6.511a5.969 5.969 0 0 0 6.574 4.384 6.038 6.038 0 0 0 5.228-5.993 66.035 66.035 0 0 0 -65.949-65.918zm44.961 46.5a21.544 21.544 0 0 0 -14.779 5.964q-.112.106-.222.219l-.127-.129a20.968 20.968 0 0 0 -14.769-6.054h-.1a21.535 21.535 0 0 0 -14.779 5.965c-.075.071-.149.143-.221.218-.042-.044-.085-.088-.128-.131a21 21 0 0 0 -14.872-6.054 21.548 21.548 0 0 0 -14.778 5.964c-.076.072-.15.145-.223.22-.042-.044-.085-.087-.127-.13a21.209 21.209 0 0 0 -20.569-5.265 54.07 54.07 0 0 1 50.616-35.287h.078c.017.007.025 0 .039 0a54.04 54.04 0 0 1 50.6 35.237 21.568 21.568 0 0 0 -5.639-.737z"/></g></svg>