<svg id="Layer_1" height="512" viewBox="0 0 512 512" width="512" xmlns="http://www.w3.org/2000/svg" data-name="Layer 1"><path d="m271.042 23.078c-4.936-.4-9.911-.61-14.918-.61-.043 0-.084 0-.124 0h-.243c-89.4.059-163.931 64.811-179.246 149.863.118-.129.235-.256.354-.382.083-.088.169-.175.258-.258a54.337 54.337 0 0 1 32.935-15.029c19.876-72.647 83.689-127.328 160.984-133.584z" fill="#d4e1f4"/><path d="m66.859 210.323a6 6 0 0 0 6.572-4.418c1.348-5.1 6.124-19.645 12.055-26.075a42.506 42.506 0 0 1 29.468-11.844 41.2 41.2 0 0 1 28.968 11.8 42.3 42.3 0 0 1 11.893 29.29 6 6 0 0 0 12 0 40.472 40.472 0 0 1 41.122-41.093h.2a41.2 41.2 0 0 1 28.968 11.8 42.3 42.3 0 0 1 11.895 29.297v33.983a6 6 0 0 0 12 0v-33.983a40.474 40.474 0 0 1 41.12-41.089h.2a41.206 41.206 0 0 1 28.97 11.8 42.3 42.3 0 0 1 11.893 29.29 6 6 0 0 0 12 0 40.474 40.474 0 0 1 41.121-41.093 41.184 41.184 0 0 1 29.168 11.8c5.952 6.406 10.745 21.007 12.094 26.111a6 6 0 0 0 11.8-1.526v-.248c-.066-107.069-87.188-194.125-194.245-194.125h-.368a194.25 194.25 0 0 0 -194.123 194.378 6 6 0 0 0 5.229 5.945zm60.066-134.858a181.057 181.057 0 0 1 128.832-53.465h.243a.813.813 0 0 0 .121 0c89.427 0 164.044 64.766 179.368 149.867-.117-.13-.235-.257-.354-.384-.054-.057-.109-.112-.165-.168a53.114 53.114 0 0 0 -37.693-15.324 54.108 54.108 0 0 0 -37.6 15.236c-.088.083-.174.169-.257.256a57.719 57.719 0 0 0 -9.236 12.925 57.664 57.664 0 0 0 -9.236-12.925c-.053-.056-.108-.112-.164-.168a53.114 53.114 0 0 0 -37.434-15.325h-.258a54.107 54.107 0 0 0 -37.6 15.236c-.087.083-.173.168-.255.255a57.63 57.63 0 0 0 -9.237 12.919 57.642 57.642 0 0 0 -9.236-12.925c-.053-.057-.108-.113-.164-.168a53.112 53.112 0 0 0 -37.432-15.325h-.26a54.113 54.113 0 0 0 -37.6 15.235c-.088.083-.173.169-.256.257a57.642 57.642 0 0 0 -9.236 12.925 57.674 57.674 0 0 0 -9.236-12.925c-.054-.057-.108-.113-.164-.168a53.112 53.112 0 0 0 -37.432-15.325 54.262 54.262 0 0 0 -37.86 15.236q-.133.126-.258.258c-.132.14-.262.281-.392.424a180.936 180.936 0 0 1 50.451-96.434z" fill="#0635c9"/><g fill="#1ae5be"><path d="m198.475 300.505a6 6 0 0 0 -6 6 7.6 7.6 0 1 1 -15.19 0 6 6 0 0 0 -12 0 19.6 19.6 0 1 0 39.19 0 6 6 0 0 0 -6-6z"/><path d="m404.183 381.908-.417-.179a298.461 298.461 0 0 1 -40.875-21.484 94.549 94.549 0 0 0 1.064-14.037c0-.556-.014-1.109-.023-1.662a29.182 29.182 0 0 0 24.044-28.685 6 6 0 0 0 -12 0 17.155 17.155 0 0 1 -13.034 16.622c-7.386-50.014-54.547-88.705-111.45-88.705a135.513 135.513 0 0 0 -19.389 1.411 53.947 53.947 0 0 0 -44.232-23.089 6 6 0 0 0 -5.736 7.757l1.176 3.841a62.944 62.944 0 0 1 2.675 22.222 111.438 111.438 0 0 0 -51.428 43.18l-4.181 6.606h-12.187a14.013 14.013 0 0 0 -14 14v50.774a14.013 14.013 0 0 0 14 14h12.323a94.008 94.008 0 0 0 13.473 19.139 63.219 63.219 0 0 1 16.187 42.5 17.811 17.811 0 0 0 17.791 17.781h16.4a17.811 17.811 0 0 0 17.792-17.791 5.8 5.8 0 0 1 5.792-5.792h30.613a5.8 5.8 0 0 1 5.791 5.792 17.812 17.812 0 0 0 17.794 17.791h10.617a87.851 87.851 0 0 0 20.878 21.157 116.756 116.756 0 0 0 32.675 16.7 6 6 0 0 0 3.315.015 122.275 122.275 0 0 0 33.736-16.658c22.531-15.928 34.44-37.131 34.44-61.313v-36.383a6 6 0 0 0 -3.624-5.51zm-132.037 69.992a5.8 5.8 0 0 1 -5.792-5.791 17.812 17.812 0 0 0 -17.791-17.792h-30.613a17.813 17.813 0 0 0 -17.792 17.792 5.8 5.8 0 0 1 -5.792 5.791h-16.4a5.8 5.8 0 0 1 -5.791-5.791 75.193 75.193 0 0 0 -19.282-50.539 80.736 80.736 0 0 1 -13.238-19.651 6 6 0 0 0 -5.429-3.445h-16.036a2 2 0 0 1 -2-2v-50.769a2 2 0 0 1 2-2h15.49a6 6 0 0 0 5.07-2.791l5.948-9.4a99.318 99.318 0 0 1 48.875-39.693 6 6 0 0 0 4.028-5 74.881 74.881 0 0 0 -1.534-25.929 42.052 42.052 0 0 1 33.787 41.179 6 6 0 0 0 12 0 53.672 53.672 0 0 0 -3.69-19.576 124.838 124.838 0 0 1 13.328-.725c55.4 0 100.463 40.567 100.463 90.43 0 2.21-.108 4.421-.285 6.625q-4.55-3.155-8.982-6.469a6 6 0 0 0 -7.2 0 298.442 298.442 0 0 1 -61.088 35.374l-.413.178a6 6 0 0 0 -3.623 5.51v36.382a70.076 70.076 0 0 0 5.745 28.1zm123.661-28.1c0 20.306-9.789 37.573-29.1 51.322a114.123 114.123 0 0 1 -28.673 14.578 108.486 108.486 0 0 1 -27.585-14.527c-18.633-13.744-28.08-31.026-28.08-51.368v-32.458a310.49 310.49 0 0 0 56.719-32.724 310.508 310.508 0 0 0 56.719 32.724z"/><path d="m324.058 417.569a6 6 0 0 0 -8.822 8.135l13.437 14.57a6 6 0 0 0 8.463.358l25.445-23.306a6 6 0 1 0 -8.105-8.849l-21.035 19.267z"/></g></svg>