<svg id="Layer_1" height="512" viewBox="0 0 512 512" width="512" xmlns="http://www.w3.org/2000/svg" data-name="Layer 1"><path d="m355.793 257.546a11 11 0 0 1 10.985-10.985h-20a10.986 10.986 0 0 0 0 21.971h20a11 11 0 0 1 -10.985-10.986z" fill="#d4e1f4"/><path d="m303.79 473.872v-193.729a16.146 16.146 0 0 1 16.129-16.128h-20a16.146 16.146 0 0 0 -16.129 16.128v193.729a16.146 16.146 0 0 0 16.129 16.128h20a16.146 16.146 0 0 1 -16.129-16.128z" fill="#d4e1f4"/><path d="m243.219 391.231a192.284 192.284 0 0 0 35.088-3.224 6 6 0 0 0 -2.2-11.8 180.209 180.209 0 0 1 -32.892 3.022c-98.485.002-178.615-80.129-178.615-178.614s80.13-178.615 178.619-178.615 178.615 80.126 178.615 178.615a178.456 178.456 0 0 1 -8.8 55.538 6 6 0 1 0 11.406 3.728 190.436 190.436 0 0 0 9.395-59.266c-.001-105.105-85.511-190.615-190.616-190.615s-190.619 85.51-190.619 190.615 85.513 190.616 190.619 190.616z" fill="#0635c9"/><path d="m188.3 280.978a6 6 0 0 0 -6 6v11.338a33.46 33.46 0 0 0 66.92 0v-93.216a25.212 25.212 0 0 1 25.773-25.618 25.713 25.713 0 0 1 18.044 7.333 26.465 26.465 0 0 1 7.423 18.288 6 6 0 0 0 12 0 25.212 25.212 0 0 1 25.773-25.621 25.709 25.709 0 0 1 18.038 7.327c3.287 3.571 6.418 12.093 7.626 16.659a6 6 0 0 0 11.8-1.527v-.168c-.047-72.978-59.43-132.316-132.4-132.316h-.248a132.4 132.4 0 0 0 -132.31 132.484 6 6 0 0 0 11.8 1.528c1.206-4.552 4.317-13.026 7.589-16.622a26.462 26.462 0 0 1 18.259-7.371h.125a25.707 25.707 0 0 1 18.043 7.334 26.462 26.462 0 0 1 7.423 18.287 6 6 0 0 0 12 0 25.212 25.212 0 0 1 25.774-25.621 25.709 25.709 0 0 1 18.048 7.334 26.466 26.466 0 0 1 7.423 18.287v93.219a21.46 21.46 0 0 1 -42.92 0v-11.338a6 6 0 0 0 -6.003-6zm23.482-113.5h-.182a38.276 38.276 0 0 0 -26.6 10.764c-.088.083-.174.169-.257.257a41.635 41.635 0 0 0 -4.765 6.092 41.764 41.764 0 0 0 -4.766-6.092c-.054-.057-.109-.113-.164-.167a37.614 37.614 0 0 0 -26.508-10.856h-.182a37.8 37.8 0 0 0 -22.615 7.447 120.518 120.518 0 0 1 117.313-93.469h.163.081a120.615 120.615 0 0 1 117.337 93.356 37.569 37.569 0 0 0 -22.375-7.331h-.183a38.274 38.274 0 0 0 -26.6 10.766c-.087.083-.173.169-.256.257a41.461 41.461 0 0 0 -4.766 6.093 41.461 41.461 0 0 0 -4.766-6.093c-.053-.057-.108-.113-.164-.169a37.623 37.623 0 0 0 -26.508-10.854h-.182a38.274 38.274 0 0 0 -26.6 10.766c-.088.082-.173.168-.256.256a41.634 41.634 0 0 0 -4.766 6.091 41.582 41.582 0 0 0 -4.766-6.093c-.054-.057-.108-.113-.164-.168a37.621 37.621 0 0 0 -26.504-10.855z" fill="#0635c9"/><g fill="#1ae5be"><path d="m431.269 252.015h-24.552a23.023 23.023 0 0 0 -22.309-17.454h-37.63a23.024 23.024 0 0 0 -22.308 17.454h-24.551a28.16 28.16 0 0 0 -28.129 28.128v193.729a28.16 28.16 0 0 0 28.129 28.128h131.35a28.159 28.159 0 0 0 28.131-28.128v-193.729a28.159 28.159 0 0 0 -28.131-28.128zm-84.491-5.454h37.63a10.986 10.986 0 1 1 0 21.971h-37.63a10.986 10.986 0 0 1 0-21.971zm100.622 227.311a16.146 16.146 0 0 1 -16.131 16.128h-131.35a16.146 16.146 0 0 1 -16.129-16.128v-193.729a16.146 16.146 0 0 1 16.129-16.128h24.807a23.021 23.021 0 0 0 22.052 16.517h37.63a23.024 23.024 0 0 0 22.054-16.517h24.807a16.146 16.146 0 0 1 16.131 16.128z"/><path d="m307.644 347.325h7.024a6 6 0 0 0 0-12h-1.024v-19.609h19.794a6 6 0 0 0 11.815-1.485v-4.515a6 6 0 0 0 -6-6h-31.609a6 6 0 0 0 -6 6v31.609a6 6 0 0 0 6 6z"/><path d="m307.644 408.787h31.609a6 6 0 0 0 6-6v-31.609a6 6 0 0 0 -6-6h-31.609a6 6 0 0 0 -6 6v31.609a6 6 0 0 0 6 6zm6-31.609h19.609v19.609h-19.609z"/><path d="m314.669 458.249h-1.025v-19.609h19.609v.466a6 6 0 0 0 12 0v-6.466a6 6 0 0 0 -6-6h-31.609a6 6 0 0 0 -6 6v31.609a6 6 0 0 0 6 6h7.025a6 6 0 0 0 0-12z"/><path d="m355.205 311.713-20.156 20.155-6.481-6.48a6 6 0 0 0 -8.484 8.486l10.723 10.726a6 6 0 0 0 8.484 0l24.4-24.4a6 6 0 1 0 -8.484-8.485z"/><path d="m355.205 435.608-20.156 20.156-6.481-6.48a6 6 0 0 0 -8.484 8.485l10.723 10.723a6 6 0 0 0 8.484 0l24.4-24.4a6 6 0 1 0 -8.484-8.486z"/><path d="m423.543 319.521h-42.143a6 6 0 0 0 0 12h42.145a6 6 0 0 0 0-12z"/><path d="m423.543 380.982h-42.143a6 6 0 0 0 0 12h42.145a6 6 0 0 0 0-12z"/><path d="m423.543 442.445h-42.143a6 6 0 0 0 0 12h42.145a6 6 0 0 0 0-12z"/></g></svg>