<svg id="Layer_1" height="512" viewBox="0 0 512 512" width="512" xmlns="http://www.w3.org/2000/svg" data-name="Layer 1"><path d="m205.931 187.118a98.181 98.181 0 0 1 59.953-28.52c-3.231-.32-6.5-.5-9.816-.5a.188.188 0 0 1 -.068 0h-.136a99.051 99.051 0 0 0 -95.78 74.26 32.259 32.259 0 0 1 17.166-4.885h.155a32.763 32.763 0 0 1 4 .254 98.443 98.443 0 0 1 24.526-40.609z" fill="#d4e1f4"/><path d="m447.249 197.572a6 6 0 0 0 -10.035 0l-53.769 81.983a6 6 0 0 0 5.018 9.291h45.867a188.8 188.8 0 0 1 -64.314 117.639c-33.183 28.453-74.868 44.771-114.366 44.771-25.76 0-52.695-6.944-77.89-20.081a193.585 193.585 0 0 1 -66.346-56.908 6 6 0 0 0 -9.682 7.089 205.621 205.621 0 0 0 70.48 60.459c26.9 14.027 55.754 21.441 83.438 21.441 42.321 0 86.852-17.372 122.176-47.661a200.774 200.774 0 0 0 68.606-126.749h49.568a6 6 0 0 0 5.018-9.291zm-47.676 79.274 42.658-65.046 42.659 65.043z" fill="#0635c9"/><path d="m128.816 226.3a6 6 0 0 0 -5.279-3.149h-45.867a188.8 188.8 0 0 1 64.314-117.64c33.183-28.453 74.868-44.771 114.366-44.771 25.76 0 52.694 6.944 77.89 20.081a193.577 193.577 0 0 1 66.346 56.909 6 6 0 0 0 9.682-7.091 205.629 205.629 0 0 0 -70.48-60.458c-26.9-14.027-55.754-21.441-83.438-21.441-42.321 0-86.852 17.372-122.176 47.661a200.771 200.771 0 0 0 -68.606 126.75h-49.568a6 6 0 0 0 -5.018 9.29l53.769 81.984a6 6 0 0 0 10.035 0l53.769-81.984a6 6 0 0 0 .261-6.141zm-59.047 73.9-42.659-65.045h85.317z" fill="#0635c9"/><path d="m262 337.108v-77.388a19.911 19.911 0 0 1 20.278-20.248h.1a20.331 20.331 0 0 1 14.25 5.782 21.064 21.064 0 0 1 5.872 14.469 6 6 0 0 0 12 0 19.911 19.911 0 0 1 20.278-20.251h.1a20.33 20.33 0 0 1 14.242 5.775c2.594 2.834 5.1 9.69 6.077 13.378a6 6 0 0 0 11.803-1.525v-.14a111.057 111.057 0 0 0 -110.932-110.86h-.208a110.935 110.935 0 0 0 -110.86 111 6 6 0 0 0 11.8 1.523c.813-3.093 3.344-10.35 6.038-13.338a21.066 21.066 0 0 1 14.437-5.817h.1a20.336 20.336 0 0 1 14.251 5.782 21.061 21.061 0 0 1 5.874 14.47 6 6 0 0 0 12 0 19.909 19.909 0 0 1 20.278-20.25h.1a20.336 20.336 0 0 1 14.251 5.782 21.061 21.061 0 0 1 5.871 14.468v77.388a16.8 16.8 0 1 1 -33.593 0v-9.408a6 6 0 0 0 -12 0v9.412a28.8 28.8 0 1 0 57.593 0zm-32.095-109.639h-.155a32.778 32.778 0 0 0 -22.779 9.214c-.088.083-.174.169-.257.257a35.987 35.987 0 0 0 -3.214 3.929 35.987 35.987 0 0 0 -3.214-3.929c-.054-.057-.108-.113-.164-.168a32.244 32.244 0 0 0 -22.717-9.3h-.155a32.259 32.259 0 0 0 -17.166 4.885 99.051 99.051 0 0 1 95.78-74.26h.136a.188.188 0 0 0 .068 0 99.113 99.113 0 0 1 95.793 74.163 32.206 32.206 0 0 0 -16.954-4.786h-.157a32.778 32.778 0 0 0 -22.779 9.214c-.088.084-.174.169-.257.258a35.892 35.892 0 0 0 -3.214 3.929 36.124 36.124 0 0 0 -3.215-3.93c-.054-.057-.108-.112-.164-.168a32.24 32.24 0 0 0 -22.714-9.3h-.157a32.772 32.772 0 0 0 -22.779 9.215c-.088.083-.174.168-.256.256a36.009 36.009 0 0 0 -3.215 3.923 36 36 0 0 0 -3.214-3.93c-.054-.057-.108-.113-.164-.168a32.244 32.244 0 0 0 -22.717-9.304z" fill="#1ae5be"/></svg>