<svg id="Layer_1" height="512" viewBox="0 0 512 512" width="512" xmlns="http://www.w3.org/2000/svg" data-name="Layer 1"><path d="m302.132 309.34a106.659 106.659 0 0 1 91.5-105.439 106.5 106.5 0 1 0 0 210.878 106.659 106.659 0 0 1 -91.5-105.439z" fill="#d4e1f4"/><g fill="#0635c9"><path d="m272.132 315.642a6 6 0 0 0 -6-6h-239.264v-29.342h244.216a6 6 0 0 0 0-12h-222.605a169.437 169.437 0 0 1 32.576-95.6 155.773 155.773 0 0 1 45.27-41.22v9.925a102.894 102.894 0 0 0 71.233 98.086l2.213.721a6 6 0 0 0 3.81-.031 103.177 103.177 0 0 0 69.594-97.538v-11.143c27.685 16.542 50.471 42.343 64.012 73.588a6 6 0 0 0 11.011-4.772 174.992 174.992 0 0 0 -43.7-60.753 160.186 160.186 0 0 0 -59.762-33.737l1.564-15.047a6 6 0 0 0 -5.967-6.619h-81.165a6 6 0 0 0 -5.967 6.619l1.561 15.048c-32.637 9.887-62.084 30.951-83.358 59.742a181.534 181.534 0 0 0 -34.93 102.731h-15.606a6 6 0 0 0 -6 6v41.338a6 6 0 0 0 6 6h245.264a6 6 0 0 0 6-5.996zm-109.34-199.623a6 6 0 0 0 4.426-6.418l-1.395-13.441h67.854l-1.395 13.44a6 6 0 0 0 4.426 6.418 140.444 140.444 0 0 1 24.467 9.038v17.586a91.177 91.177 0 0 1 -59.632 85.526l-.27-.089a90.924 90.924 0 0 1 -62.948-86.675v-16.352a140.688 140.688 0 0 1 24.467-9.033z"/><path d="m182.463 181.54h38.337a6 6 0 0 0 0-12h-38.337a6 6 0 0 0 0 12z"/><path d="m182.463 146.2h38.337a6 6 0 0 0 0-12h-38.337a6 6 0 0 0 0 12z"/></g><path d="m378.632 190.84a118.5 118.5 0 1 0 118.5 118.5 118.634 118.634 0 0 0 -118.5-118.5zm0 225a106.5 106.5 0 1 1 106.5-106.5 106.621 106.621 0 0 1 -106.5 106.5z" fill="#1ae5be"/><path d="m441.275 258.112-60-29.439a5.994 5.994 0 0 0 -5.28 0l-60 29.356a6 6 0 0 0 -3.363 5.39v56.161a50.652 50.652 0 0 0 5.1 20.938c4.266 9.181 10.652 17.13 17.519 21.807l40 27.253a6 6 0 0 0 6.757 0l40-27.252c12.685-8.64 22.622-27.417 22.622-42.746v-56.08a6 6 0 0 0 -3.355-5.388zm-8.643 61.468c0 11.378-7.958 26.412-17.379 32.828l-36.621 24.952-36.622-24.952c-5.055-3.443-10.062-9.778-13.393-16.947a39.238 39.238 0 0 1 -3.985-15.881v-52.42l54-26.419 54 26.5z" fill="#1ae5be"/><path d="m357.434 303.291a6 6 0 1 0 -8.379 8.59l18.123 17.677a6 6 0 0 0 8.379 0l32.652-31.847a6 6 0 0 0 -8.378-8.59l-28.463 27.761z" fill="#1ae5be"/></svg>