<svg id="Layer_1" height="512" viewBox="0 0 512 512" width="512" xmlns="http://www.w3.org/2000/svg" data-name="Layer 1"><path d="m463.892 357.048a6.048 6.048 0 0 0 .581.305v-.333c-1.361-.6-2.715-1.221-4.068-1.842 1.161.622 2.319 1.257 3.487 1.87z" fill="#d4e1f4"/><path d="m357.9 413.282v-46.261a342.413 342.413 0 0 0 60.672-34.666q-8.872-5.655-17.385-11.855a342.444 342.444 0 0 1 -63.287 36.521v46.261c0 45.465 43.578 66.332 58.684 72.2-17.85-11.093-38.684-30.766-38.684-62.2z" fill="#d4e1f4"/><path d="m237.207 496v-41.087a6 6 0 0 0 -6-6h-64.75v-376.701h114.982v16.316a6 6 0 0 0 6 6h27.475v7.9a22.733 22.733 0 0 0 0 43.856v6.622a23.4 23.4 0 0 0 11.451 20.064 10.748 10.748 0 0 1 5.274 9.769 10.932 10.932 0 0 1 -10.21 10.21 10.738 10.738 0 0 1 -11.253-10.724 6 6 0 0 0 -12 0 22.71 22.71 0 0 0 17.021 22v18.522h12v-18.7a22.713 22.713 0 0 0 5.273-41.4 11.355 11.355 0 0 1 -5.556-9.734v-6.622a22.733 22.733 0 0 0 0-43.856v-7.9h27.474a6 6 0 0 0 6-6v-16.323h16.88a6 6 0 0 0 6-6v-22.312a6 6 0 0 0 -6-6h-210.811v-21.9a6 6 0 0 0 -6-6h-73.106-.033c-.151 0-.3.01-.451.022-.052.005-.105.006-.158.011-.126.014-.251.036-.376.058-.074.012-.149.021-.222.037-.088.018-.174.044-.262.067-.1.027-.21.051-.313.084-.048.015-.094.035-.142.052-.136.047-.272.094-.4.15-.03.013-.057.029-.087.042-.145.065-.289.132-.428.209-.082.044-.16.1-.239.145s-.167.1-.247.15a5.985 5.985 0 0 0 -1.249 1.133l-.021.023c-.084.1-.161.211-.239.319-.038.053-.079.1-.116.159-.051.076-.095.156-.143.235-.057.094-.116.188-.168.285-.03.057-.055.117-.084.174-.061.125-.121.251-.174.38-.005.012-.011.023-.016.034-.018.046-.03.092-.047.137-.048.129-.095.259-.134.392-.024.08-.041.159-.062.239-.027.109-.055.216-.076.327s-.035.22-.05.331c-.011.081-.024.162-.032.245-.013.138-.017.275-.021.412 0 .049-.007.1-.007.146v21.902h-39.827a6 6 0 0 0 -6 6v22.312a6 6 0 0 0 6 6h39.824v376.7h-39.824a6 6 0 0 0 -6 6v41.088a6 6 0 0 0 6 6h189.68a6 6 0 0 0 6-6zm94.444-371.641a10.738 10.738 0 1 1 -10.737-10.737 10.75 10.75 0 0 1 10.737 10.737zm-238.3-99.5 53.286 21.314-53.286 30.2zm0 201.5 53.286 21.315-53.286 30.2zm7.819-9.8 53.287-30.2v51.511zm-7.819-9.361v-51.498l53.286 21.314zm61.106-39.993-51.338-20.535 51.338-21.715zm-61.106-29.424v-42.25l51.337 20.535zm0 159.253 53.286 21.315-53.286 30.2zm7.819-9.8 53.287-30.2v51.511zm53.287-180.188-53.287-21.312 53.287-30.2zm-61.106 260.654 53.286 21.315-53.286 30.2zm7.819-9.8 53.287-30.2v51.51zm247.218-275.372h-54.949v-10.316h54.949zm22.88-32.628v10.312h-204.811v-10.312zm-216.811-13.52-35.95-14.38h35.95zm-106.93 23.832v-10.312h33.824v10.312zm45.824 372.793 61.106-34.626v50.534h-61.106zm131.856 57h-177.68v-29.092h177.68z" fill="#0635c9"/><g fill="#1ae5be"><path d="m267.2 299.837a6 6 0 0 0 -6 6v85.438a6 6 0 0 0 12 0v-85.438a6 6 0 0 0 -6-6z"/><path d="m231.207 299.837a6 6 0 0 0 -6 6v85.438a6 6 0 0 0 12 0v-85.438a6 6 0 0 0 -6-6z"/><path d="m339.2 331.275a6 6 0 0 0 6-6v-19.438a6 6 0 0 0 -12 0v19.438a6 6 0 0 0 6 6z"/><path d="m375.191 317.275a6 6 0 0 0 6-6v-5.438a6 6 0 0 0 -12 0v5.438a6 6 0 0 0 6 6z"/><path d="m303.2 299.837a6 6 0 0 0 -6 6v85.438a6 6 0 0 0 12 0v-85.438a6 6 0 0 0 -6-6z"/><path d="m472.838 347.574-.45-.193q-9.745-4.192-19.2-9.013v-60.385a6 6 0 0 0 -3.591-5.493l-.051-.022-.037-.016-125.9-55.2a5.991 5.991 0 0 0 -4.817 0l-126.992 55.648.051.114a6 6 0 0 0 -2.642 4.973v141.142a6 6 0 0 0 6 6h133.761c5.075 17.426 16.38 32.837 33.43 45.316a128.189 128.189 0 0 0 35.9 18.355 6 6 0 0 0 3.315.015 134.407 134.407 0 0 0 37.076-18.31c24.716-17.474 37.78-40.718 37.78-67.221v-50.196a6 6 0 0 0 -3.633-5.514zm-151.638-118.274 97.36 42.686h-194.779zm-119.989 183.829v-129.146h239.972v47.97a330.223 330.223 0 0 1 -31.01-19.77 5.97 5.97 0 0 0 7.014-5.908v-.438a6 6 0 0 0 -12 0v.438a5.963 5.963 0 0 0 .675 2.758c-.357-.266-.718-.526-1.075-.794a6 6 0 0 0 -7.2 0 330.36 330.36 0 0 1 -67.595 39.14l-.456.195a6 6 0 0 0 -3.634 5.514v50.194a80.208 80.208 0 0 0 .6 9.847zm263.262-9.847c0 22.658-10.912 41.913-32.434 57.229a126.56 126.56 0 0 1 -32.02 16.229c-10.019-3.44-62.119-23.75-62.119-73.458v-46.261a342.444 342.444 0 0 0 63.287-36.521 342.453 342.453 0 0 0 42.7 26.546 6.068 6.068 0 0 0 1.038.545c6.417 3.339 12.927 6.5 19.543 9.427z"/><path d="m427.135 375.632-34.856 31.926-16.679-18.089a6 6 0 1 0 -8.822 8.135l20.735 22.485a6 6 0 0 0 8.464.357l39.265-35.965a6 6 0 0 0 -8.105-8.849z"/></g></svg>