<svg id="Layer_1" height="512" viewBox="0 0 512 512" width="512" xmlns="http://www.w3.org/2000/svg" data-name="Layer 1"><path d="m380.416 185.524c-7.134-4.859-13.9-13.4-18.555-23.419-3.548-7.635-5.5-15.458-5.5-22.026v-71.179l75.032-38.221-19-8-74.034 36.221v71.176c0 6.568 1.954 14.391 5.5 22.026 4.658 10.024 11.421 18.56 18.555 23.419l49.986 34.055 1.661-1.132z" fill="#d4e1f4"/><g fill="#0635c9"><path d="m187.854 502a130.491 130.491 0 0 0 125.806-95.173 37.184 37.184 0 0 0 0-71.041 129.928 129.928 0 0 0 -9.113-23.363 5.988 5.988 0 0 0 .684-2.773v-65.64l32.985-12.692v54.859a18.7 18.7 0 1 0 12-.717v-58.76l3.155-1.214c7.716-2.967 8.868-7.717 8.868-10.284s-1.152-7.316-8.868-10.284l-151.137-58.148c-8.036-3.092-20.626-3.092-28.661 0l-151.135 58.149c-7.716 2.968-8.868 7.718-8.868 10.284s1.152 7.317 8.868 10.284l46.26 17.8v66.363a6 6 0 0 0 1.741 4.226 130.013 130.013 0 0 0 -8.395 21.948 37.177 37.177 0 0 0 0 70.965 130.477 130.477 0 0 0 125.81 95.211zm157.428-191.747a6.739 6.739 0 1 1 6.691-6.739 6.723 6.723 0 0 1 -6.691 6.739zm-167.4-152.284c5.338-2.053 14.7-2.053 20.043 0l148.758 57.231-148.758 57.238c-5.338 2.053-14.7 2.053-20.042 0l-148.758-57.238zm-4.308 125.669a45.453 45.453 0 0 0 28.66 0l91-35.012v56.674c-67.734 21.65-144.853 21.674-212.534-.011v-57.389zm-125.612 87.669a25.216 25.216 0 0 1 20.161-24.668 6 6 0 0 0 4.635-4.418 117.893 117.893 0 0 1 8.949-24.053 362.894 362.894 0 0 0 105.224 15.364 363.514 363.514 0 0 0 106.84-15.832 117.9 117.9 0 0 1 9.18 24.494 6 6 0 0 0 4.653 4.42 25.178 25.178 0 0 1 0 49.379 6 6 0 0 0 -4.653 4.42 118.726 118.726 0 0 1 -230.194-.023 6 6 0 0 0 -4.634-4.418 25.219 25.219 0 0 1 -20.161-24.665z"/><path d="m249.564 386.933a18.892 18.892 0 1 0 -18.891-18.892 18.913 18.913 0 0 0 18.891 18.892zm0-25.784a6.892 6.892 0 1 1 -6.891 6.892 6.9 6.9 0 0 1 6.891-6.892z"/><path d="m126.244 382.683a18.892 18.892 0 1 0 -18.891-18.892 18.913 18.913 0 0 0 18.891 18.892zm0-25.783a6.892 6.892 0 1 1 -6.891 6.891 6.9 6.9 0 0 1 6.891-6.891z"/><path d="m134.19 402.906a6 6 0 0 0 -6 6 59.714 59.714 0 0 0 119.427 0 6 6 0 0 0 -12 0 47.714 47.714 0 0 1 -95.427 0 6 6 0 0 0 -6-6z"/></g><path d="m495.074 49.884-80.036-39.271a6 6 0 0 0 -5.28 0l-80.035 39.157a6 6 0 0 0 -3.364 5.389v74.92c0 8.4 2.289 17.764 6.62 27.083 5.542 11.929 13.81 22.237 22.681 28.279l53.357 36.359a6 6 0 0 0 6.756 0l53.357-36.354c16.43-11.192 29.3-35.51 29.3-55.363v-74.812a6 6 0 0 0 -3.356-5.387zm-8.643 80.2c0 15.751-11.017 36.563-24.057 45.445l-49.974 34.047-49.979-34.052c-7.134-4.859-13.9-13.4-18.555-23.419-3.548-7.635-5.5-15.458-5.5-22.026v-71.179l74.032-36.221 74.04 36.328z" fill="#1ae5be"/><path d="m382.719 109.784a6 6 0 1 0 -8.379 8.59l24.176 23.58a6 6 0 0 0 8.379 0l43.555-42.481a6 6 0 1 0 -8.379-8.59l-39.366 38.395z" fill="#1ae5be"/></svg>