<svg id="Layer_1" height="512" viewBox="0 0 512 512" width="512" xmlns="http://www.w3.org/2000/svg" data-name="Layer 1"><path d="m351.706 106.682v-42.474a394.491 394.491 0 0 0 64-35.633q-5.054-3.463-10-7.077a394.464 394.464 0 0 1 -74 42.71v42.474c0 58.488 61.684 82.071 72.646 85.8 1.977-.646 5.594-1.907 10.2-3.856-20.842-9.185-62.846-33.678-62.846-81.944z" fill="#d4e1f4"/><g fill="#0635c9"><path d="m25.958 157.384h43.655a17.747 17.747 0 0 1 17.748 17.748v225.353a43.449 43.449 0 0 0 43.339 43.457h265.752a6 6 0 0 0 0-12h-265.752a31.435 31.435 0 0 1 -31.342-31.457v-225.353a29.749 29.749 0 0 0 -29.748-29.748h-43.652a6 6 0 0 0 0 12z"/><path d="m139.64 477.271a24.671 24.671 0 1 0 24.671-24.728 24.728 24.728 0 0 0 -24.671 24.728zm37.342 0a12.671 12.671 0 1 1 -12.671-12.728 12.715 12.715 0 0 1 12.671 12.728z"/><path d="m326.35 477.271a24.671 24.671 0 1 0 24.671-24.728 24.728 24.728 0 0 0 -24.671 24.728zm37.341 0a12.671 12.671 0 1 1 -12.67-12.728 12.714 12.714 0 0 1 12.67 12.728z"/><path d="m306.121 205.5a17.475 17.475 0 0 0 -17.382-17.527h-56.906a17.474 17.474 0 0 0 -17.38 17.527v16.191h-44.974a29.037 29.037 0 0 0 -29 29v128.643a29.053 29.053 0 0 0 21.909 28.123v9.843a6 6 0 0 0 12 0v-8.964h182.187v8.964a6 6 0 0 0 12 0v-9.615a29.05 29.05 0 0 0 22.9-28.353v-128.632a29.037 29.037 0 0 0 -29-29h-56.354zm-79.668 0a5.462 5.462 0 0 1 5.38-5.527h56.906a5.462 5.462 0 0 1 5.382 5.527v16.191h-67.668zm136.022 190.838h-193a17.023 17.023 0 0 1 -17-17v-13.795h227v13.791a17.023 17.023 0 0 1 -17 17.004zm17-145.643v102.848h-227v-102.843a17.023 17.023 0 0 1 17-17h94.728l26.678 27.145v23.755a6 6 0 0 0 1.73 4.215l37.389 37.86a6 6 0 0 0 8.539 0l24.919-25.241a6 6 0 0 0 0-8.432l-37.379-37.86a6 6 0 0 0 -4.27-1.785h-21.449l-19.328-19.666h81.443a17.023 17.023 0 0 1 17.004 17.009zm-76.594 31.44v-16.778h16.419l31.456 31.861-16.488 16.7z"/></g><path d="m362.305 184.769a146.385 146.385 0 0 0 41 20.965 5.989 5.989 0 0 0 3.315.016 153.608 153.608 0 0 0 42.357-20.923c28.171-19.916 43.062-46.39 43.062-76.559v-46.217a6 6 0 0 0 -3.63-5.512l-.523-.225a380.726 380.726 0 0 1 -77.912-45.114 6 6 0 0 0 -7.2 0 380.68 380.68 0 0 1 -77.914 45.114l-.524.225a6 6 0 0 0 -3.629 5.512v46.217c-.001 30.132 14.383 56.582 41.598 76.501zm-29.6-118.783a392.89 392.89 0 0 0 73.668-42.518 392.818 392.818 0 0 0 73.668 42.518v42.282c0 26.377-12.689 48.773-37.715 66.565a146.3 146.3 0 0 1 -37.3 18.848 139.137 139.137 0 0 1 -35.913-18.8c-24.157-17.788-36.4-40.2-36.4-66.611z" fill="#1ae5be"/><path d="m390.967 132.147a6 6 0 0 0 8.486 0l39.834-39.834a6 6 0 0 0 -8.486-8.485l-35.591 35.591-13.264-13.264a6 6 0 1 0 -8.486 8.486z" fill="#1ae5be"/></svg>