<svg id="Layer_1" height="512" viewBox="0 0 512 512" width="512" xmlns="http://www.w3.org/2000/svg" data-name="Layer 1"><path d="m279.4 369.166a97.549 97.549 0 0 1 87.411-96.9 97.412 97.412 0 1 0 0 193.8 97.549 97.549 0 0 1 -87.411-96.9z" fill="#d4e1f4"/><path d="m97.435 328.911a22.489 22.489 0 1 0 22.49-22.488 22.514 22.514 0 0 0 -22.49 22.488zm32.978 0a10.489 10.489 0 1 1 -10.488-10.488 10.5 10.5 0 0 1 10.488 10.488z" fill="#0635c9"/><path d="m375.774 154.423h-12.546v-39.046a46.024 46.024 0 0 0 -45.971-45.971h-53.92v-23.984h19.183a6 6 0 0 0 0-12h-131.385a6 6 0 0 0 0 12h19.183v23.984h-53.918a46.024 46.024 0 0 0 -45.971 45.971v39.046h-12.655a12.013 12.013 0 0 0 -12 12v25.757a12.013 12.013 0 0 0 12 12h12.653v153.808a46.024 46.024 0 0 0 45.973 45.971h29.824l-46.446 61.861a6 6 0 0 0 9.6 7.2l10.963-14.6h175.136v-12h-166.13l31.881-42.464h96.243v-12h-141.071a34.01 34.01 0 0 1 -33.971-33.971v-94.768h268.8v2.538h12v-61.575h12.546a12.013 12.013 0 0 0 12-12v-25.757a12.013 12.013 0 0 0 -12.001-12zm-193.456-109h69.019v23.983h-69.019zm-124.544 146.757v-25.757h12.653v25.757zm24.653-60.38h128.6v119.417h-128.6zm268.537 119.417h-127.933v-119.417h127.933zm-133.933-131.417h-134.604v-4.421a34.01 34.01 0 0 1 33.973-33.973h200.857a34.009 34.009 0 0 1 33.971 33.971v4.423zm158.743 72.38h-12.546v-25.757h12.546z" fill="#0635c9"/><g fill="#1ae5be"><path d="m356.815 259.755a109.412 109.412 0 1 0 109.411 109.411 109.535 109.535 0 0 0 -109.411-109.411zm0 206.823a97.412 97.412 0 1 1 97.411-97.412 97.522 97.522 0 0 1 -97.411 97.412z"/><path d="m419.458 317.939-60-29.439a5.994 5.994 0 0 0 -5.28 0l-60 29.356a6 6 0 0 0 -3.363 5.39v56.164a50.637 50.637 0 0 0 5.1 20.937c4.267 9.182 10.652 17.131 17.52 21.808l40 27.253a6 6 0 0 0 6.756 0l40-27.252c12.685-8.642 22.622-27.418 22.622-42.746v-56.084a6 6 0 0 0 -3.355-5.387zm-8.643 61.468c0 11.378-7.958 26.411-17.378 32.828l-36.622 24.952-36.622-24.952c-5.055-3.444-10.062-9.778-13.393-16.947a39.238 39.238 0 0 1 -3.985-15.881v-52.42l54-26.419 54 26.5z"/><path d="m335.616 363.118a6 6 0 1 0 -8.379 8.59l18.124 17.677a6 6 0 0 0 8.379 0l32.653-31.847a6 6 0 1 0 -8.379-8.59l-28.463 27.76z"/></g></svg>