<svg id="Layer_1" height="512" viewBox="0 0 512 512" width="512" xmlns="http://www.w3.org/2000/svg" data-name="Layer 1"><path d="m271.042 84.078c-4.936-.4-9.911-.61-14.918-.61-.043 0-.084 0-.124 0h-.243c-89.4.059-163.931 64.811-179.246 149.863.118-.129.235-.256.354-.382.083-.088.169-.175.258-.258a54.337 54.337 0 0 1 32.935-15.029c19.876-72.647 83.689-127.328 160.984-133.584z" fill="#d4e1f4"/><path d="m256 264.548a6 6 0 0 0 -6 6v120.2a37.79 37.79 0 0 1 -75.579 0v-20.718a6 6 0 0 0 -12 0v20.713a49.79 49.79 0 0 0 99.579 0v-120.195a6 6 0 0 0 -6-6z" fill="#1ae5be"/><path d="m256.124 71.468h-.372c-107.109.071-194.192 87.269-194.122 194.379a6 6 0 0 0 11.8 1.527c1.348-5.1 6.124-19.645 12.055-26.076a42.216 42.216 0 0 1 29.464-11.844 41.2 41.2 0 0 1 28.971 11.8 42.3 42.3 0 0 1 11.894 29.29 6 6 0 0 0 12 0 40.476 40.476 0 0 1 41.121-41.093h.2a41.206 41.206 0 0 1 28.972 11.8 42.3 42.3 0 0 1 11.893 29.297 6 6 0 0 0 12 0 40.474 40.474 0 0 1 41.121-41.089 41.143 41.143 0 0 1 29.171 11.8 42.306 42.306 0 0 1 11.893 29.29 6 6 0 0 0 12 0 40.474 40.474 0 0 1 41.121-41.093 41.363 41.363 0 0 1 29.168 11.8c5.952 6.407 10.745 21.008 12.094 26.113a6 6 0 0 0 11.8-1.528v-.241a194.252 194.252 0 0 0 -194.244-194.132zm179.011 161.484c-.054-.057-.109-.114-.165-.168a53.111 53.111 0 0 0 -37.432-15.326h-.261a54.113 54.113 0 0 0 -37.6 15.236c-.088.083-.174.169-.257.257a57.691 57.691 0 0 0 -9.236 12.924 57.686 57.686 0 0 0 -9.235-12.924c-.054-.057-.109-.114-.165-.168a53.111 53.111 0 0 0 -37.432-15.326 54.08 54.08 0 0 0 -37.86 15.237c-.088.083-.174.168-.256.256a57.608 57.608 0 0 0 -9.236 12.923 57.674 57.674 0 0 0 -9.236-12.925c-.054-.057-.108-.114-.164-.168a53.113 53.113 0 0 0 -37.436-15.326c-14.107-.09-27.2 5.208-37.857 15.237-.088.083-.174.169-.257.257a57.669 57.669 0 0 0 -9.235 12.925 57.674 57.674 0 0 0 -9.236-12.925c-.054-.057-.108-.114-.164-.168a53.113 53.113 0 0 0 -37.436-15.326c-14.117-.09-27.2 5.208-37.857 15.237-.088.083-.175.17-.258.258-.118.126-.236.253-.352.382 15.314-85.053 89.844-149.8 179.244-149.863h.244c.043.02.081 0 .124 0a182.368 182.368 0 0 1 179.4 149.909c-.124-.144-.257-.285-.389-.425z" fill="#0635c9"/></svg>