<svg id="Layer_1" height="512" viewBox="0 0 512 512" width="512" xmlns="http://www.w3.org/2000/svg" data-name="Layer 1"><path d="m274.906 61.378h-131.725a20.536 20.536 0 0 0 -20.514 20.513v121.183a20.537 20.537 0 0 0 20.514 20.514h12.724a31.395 31.395 0 0 0 61.634 0h84.217a31.395 31.395 0 0 0 61.634 0h6.01a20.537 20.537 0 0 0 20.513-20.514v-51.574a5.953 5.953 0 0 0 -.062-.818c-.007-.051-.015-.1-.023-.151a5.965 5.965 0 0 0 -.246-.983c-.016-.046-.033-.092-.05-.138a6.027 6.027 0 0 0 -.439-.929c-.025-.043-.052-.085-.078-.128a6.084 6.084 0 0 0 -.635-.85c-.017-.019-.028-.041-.046-.061l-37.384-40.73a20.558 20.558 0 0 0 -15.113-6.644h-40.418v-18.177a20.536 20.536 0 0 0 -20.513-20.513zm-140.239 141.7v-121.187a8.524 8.524 0 0 1 8.514-8.513h131.725a8.523 8.523 0 0 1 8.513 8.513v129.7h-65.88a31.395 31.395 0 0 0 -61.634 0h-12.724a8.524 8.524 0 0 1 -8.514-8.517zm52.055 33.913a19.4 19.4 0 1 1 19.4-19.4 19.42 19.42 0 0 1 -19.4 19.396zm145.851 0a19.4 19.4 0 1 1 19.4-19.4 19.421 19.421 0 0 1 -19.4 19.396zm45.342-33.913a8.523 8.523 0 0 1 -8.513 8.514h-6.012a31.395 31.395 0 0 0 -61.634 0h-6.337v-54.092h82.5zm-42.078-91.006a8.535 8.535 0 0 1 6.272 2.757l28.155 30.671h-74.845v-33.432z" fill="#0635c9"/><path d="m95.355 299.518 42.85 138.819 13.04-.056-45.933-148.805-47.529.202 1.259 9.995z" fill="#d4e1f4"/><path d="m135.9 325.169a53.628 53.628 0 0 0 19.623-11.211l11.915-10.7a74.89 74.89 0 0 1 77.718-7.8l5.04 2.211a64.165 64.165 0 0 0 27.891 6.066l48.79-.208a29.8 29.8 0 0 1 15.732 4.415 30.3 30.3 0 0 0 -25.774-14.372l-48.79.208a64.18 64.18 0 0 1 -27.892-6.066l-5.04-2.212a74.893 74.893 0 0 0 -77.718 7.8l-11.917 10.7a53.608 53.608 0 0 1 -19.622 11.21l23.944 77.352 5.812-3.709z" fill="#d4e1f4"/><g fill="#1ae5be"><path d="m164.209 447.561a6.248 6.248 0 0 0 .894-5.442l-11.624-37.611 35.6-22.751a21.193 21.193 0 0 1 15.421-2.071c.124.031.249.05.375.073l73.4 13.189a95.461 95.461 0 0 0 58.942-8.58 6 6 0 0 0 .732-.435l126.482-87.64a6 6 0 0 0 1.71-8.049 35.348 35.348 0 0 0 -47.19-12.69l-1.776.968c-8.975-10.494-24.207-14.451-35.8-8.511l-.133.07-4.774 2.6a39.325 39.325 0 0 0 -44.732-3.849l-27.3 14.8-36.445.155a52.113 52.113 0 0 1 -22.661-4.891l-5.041-2.311a86.851 86.851 0 0 0 -90.346 9.261c-.131.1-.258.23-.38.34l-12.1 10.879a41.613 41.613 0 0 1 -15.156 8.673l-6.844-22.079a5.973 5.973 0 0 0 -5.757-4.2l-58.748.25a5.959 5.959 0 0 0 -5.927 6.713l20.269 160.723a6.2 6.2 0 0 0 5.979 5.477l88.122-.375a6.237 6.237 0 0 0 4.808-2.686zm222.7-168.9c6.23-3.148 14.047-.785 19.286 3.85l-47.331 25.8-2.272 1.21a42.206 42.206 0 0 0 -6.132-11.021zm-49.323-1.149c.048-.026.095-.053.142-.08a27.272 27.272 0 0 1 26.925-.319l-23.264 12.663a42.1 42.1 0 0 0 -14.207-6.549zm-192.108 26.488 11.915-10.7a74.9 74.9 0 0 1 77.718-7.8l5.04 2.212a64.18 64.18 0 0 0 27.892 6.066l48.789-.208a30.506 30.506 0 0 1 29.718 24.042l-34.692-1.322a212.231 212.231 0 0 0 -38.573 2 6.019 6.019 0 0 0 1.7 11.917 200.26 200.26 0 0 1 36.387-1.83l41.624 1.709c.091 0 .181.007.272.006a6 6 0 0 0 5.974-6.024c0-.781-.032-1.556-.077-2.327l5.392-2.872 60.143-32.779a23.367 23.367 0 0 1 27.7 3.943l-120.925 83.788a83.372 83.372 0 0 1 -51.09 7.309l-73.2-13.157a33.142 33.142 0 0 0 -24.134 3.381c-.093.053-.186.108-.276.166l-32.975 21.042-23.943-77.351a53.608 53.608 0 0 0 19.621-11.211zm-68.94 134.6-18.755-148.922 47.529-.2 45.934 148.805z"/><path d="m92.824 415.962a17.75 17.75 0 1 0 17.676-17.825 17.769 17.769 0 0 0 -17.676 17.825zm17.725-5.825a5.75 5.75 0 1 1 -5.725 5.774 5.756 5.756 0 0 1 5.725-5.774z"/></g></svg>