<?xml version="1.0" encoding="UTF-8"?>
<svg xmlns="http://www.w3.org/2000/svg" xmlns:xlink="http://www.w3.org/1999/xlink" width="595pt" height="842pt" viewBox="0 0 595 842" version="1.1">
<g id="surface1">
<path style=" stroke:none;fill-rule:nonzero;fill:rgb(100%,100%,100%);fill-opacity:1;" d="M 0 342 L 0 842 L 500 842 L 500 342 L 0 342 "/>
<path style=" stroke:none;fill-rule:nonzero;fill:rgb(92.457581%,87.434387%,94.795227%);fill-opacity:1;" d="M 39.175781 661.292969 C 45.886719 641.621094 64.140625 628.207031 84.859375 621.910156 C 90.246094 620.269531 96.03125 619.527344 100.878906 616.730469 C 112.46875 610.046875 116 595.199219 116.328125 582.195312 C 118.164062 509.441406 190.746094 499.605469 204.679688 500.894531 C 259.953125 506.003906 252.511719 548.933594 284.808594 572.898438 C 305.675781 588.382812 338.394531 563.8125 361.480469 575.867188 C 381.070312 586.097656 381.003906 615.0625 398.914062 627.820312 C 411.769531 636.976562 421.699219 624.34375 443.582031 643.847656 C 471.742188 668.945312 479.328125 738.152344 440.320312 777.765625 L 77.175781 779.320312 C 63.804688 777.0625 12.808594 738.617188 39.175781 661.292969 "/>
<path style=" stroke:none;fill-rule:nonzero;fill:rgb(81.671143%,72.044373%,88.214111%);fill-opacity:1;" d="M 352.917969 745.5625 C 364.089844 726.765625 376.996094 708.992188 391.421875 692.558594 C 393.589844 699.527344 397.273438 706.019531 402.148438 711.449219 C 404.253906 704.875 395.480469 695.050781 398.492188 688.839844 C 399.757812 686.238281 444.441406 661.292969 478.71875 655.394531 C 476.679688 680.480469 471.699219 704.613281 460.414062 729.785156 C 455.984375 727.203125 448.34375 727.902344 443.914062 725.320312 C 446.980469 732.273438 452.785156 735.28125 454.945312 739.394531 C 437.570312 758.890625 412.421875 779.652344 404.242188 782.632812 C 387.140625 788.867188 368.597656 784.648438 351.941406 779.074219 C 343.054688 776.101562 340.859375 775.527344 343.546875 766.242188 C 345.636719 759.023438 349.09375 752 352.917969 745.5625 "/>
<path style=" stroke:none;fill-rule:nonzero;fill:rgb(97.000122%,94.512939%,97.727966%);fill-opacity:1;" d="M 364.867188 781.3125 C 390.066406 740.277344 422.671875 704.121094 460.921875 674.863281 C 461.929688 674.089844 460.933594 672.351562 459.910156 673.136719 C 421.378906 702.609375 388.53125 738.960938 363.140625 780.300781 C 362.464844 781.402344 364.191406 782.40625 364.867188 781.3125 "/>
<path style=" stroke:none;fill-rule:nonzero;fill:rgb(97.000122%,94.512939%,97.727966%);fill-opacity:1;" d="M 365.933594 741 C 370.765625 746.761719 373.464844 753.519531 373.949219 761.023438 C 373.980469 761.511719 374.386719 762.097656 374.949219 762.023438 C 387.789062 760.378906 400.679688 759.964844 413.601562 760.785156 C 414.886719 760.867188 414.882812 758.867188 413.601562 758.785156 C 401.863281 758.039062 390.488281 758.917969 378.792969 759.550781 C 376.160156 759.691406 376.253906 759.929688 375.621094 757.519531 C 374.996094 755.132812 374.683594 752.777344 373.8125 750.441406 C 372.320312 746.421875 370.09375 742.859375 367.347656 739.585938 C 366.519531 738.597656 365.109375 740.019531 365.933594 741 "/>
<path style=" stroke:none;fill-rule:nonzero;fill:rgb(97.000122%,94.512939%,97.727966%);fill-opacity:1;" d="M 386.429688 715.84375 C 390.390625 722.636719 392.867188 729.910156 393.8125 737.71875 C 393.878906 738.246094 394.222656 738.726562 394.8125 738.71875 C 405.34375 738.503906 415.835938 738.96875 426.304688 740.113281 C 427.585938 740.253906 427.574219 738.253906 426.304688 738.113281 C 421.078125 737.542969 415.839844 737.105469 410.585938 736.871094 C 407.957031 736.753906 405.328125 736.683594 402.699219 736.65625 C 401.089844 736.644531 397.511719 737.335938 396.195312 736.351562 C 394.355469 734.976562 394.066406 728.292969 393.242188 725.847656 C 391.949219 721.992188 390.203125 718.34375 388.15625 714.832031 C 387.507812 713.722656 385.777344 714.726562 386.429688 715.84375 "/>
<path style=" stroke:none;fill-rule:nonzero;fill:rgb(97.000122%,94.512939%,97.727966%);fill-opacity:1;" d="M 412.777344 691.71875 C 415.390625 697.625 417.019531 703.726562 417.695312 710.144531 C 417.761719 710.773438 418.28125 711.308594 418.960938 711.109375 C 430.707031 707.699219 442.617188 705.027344 454.691406 703.09375 C 455.960938 702.890625 455.421875 700.964844 454.160156 701.164062 C 442.085938 703.097656 430.175781 705.769531 418.429688 709.183594 C 418.851562 709.503906 419.273438 709.824219 419.695312 710.144531 C 418.980469 703.359375 417.265625 696.949219 414.507812 690.710938 C 413.984375 689.535156 412.261719 690.550781 412.777344 691.71875 "/>
<path style=" stroke:none;fill-rule:nonzero;fill:rgb(71.955872%,61.387634%,83.479309%);fill-opacity:1;" d="M 317.632812 615.003906 C 318.894531 601.160156 320.835938 587.027344 327.304688 574.722656 C 333.773438 562.414062 345.640625 552.125 359.503906 551.097656 C 373.125 550.09375 388.535156 558.429688 395.746094 570.027344 C 402.960938 581.625 402.597656 595.9375 401.105469 609.511719 C 399.527344 623.910156 394.519531 637.679688 389.554688 651.285156 C 374.914062 691.394531 361.394531 720.480469 336.746094 755.34375 C 311.382812 791.226562 282.253906 786.296875 296.433594 768.027344 C 324.628906 719.996094 312.753906 668.480469 317.632812 615.003906 "/>
<path style=" stroke:none;fill-rule:nonzero;fill:rgb(97.000122%,94.512939%,97.727966%);fill-opacity:1;" d="M 305.617188 784.738281 C 320.277344 762.953125 330.207031 737.6875 339.0625 713.105469 C 350.261719 682.015625 359.347656 649.949219 365.019531 617.375 C 367.746094 601.75 369.6875 585.914062 369.738281 570.03125 C 369.746094 568.746094 367.746094 568.742188 367.738281 570.03125 C 367.644531 600.277344 361.300781 630.515625 353.621094 659.640625 C 345.648438 689.863281 335.621094 719.753906 322.824219 748.289062 C 317.347656 760.496094 311.371094 772.609375 303.890625 783.726562 C 303.171875 784.800781 304.902344 785.800781 305.617188 784.738281 "/>
<path style=" stroke:none;fill-rule:nonzero;fill:rgb(97.000122%,94.512939%,97.727966%);fill-opacity:1;" d="M 339.753906 575.933594 C 347.125 589.160156 353.992188 602.828125 364.382812 614.011719 C 364.683594 614.339844 365.21875 614.382812 365.59375 614.167969 C 376.023438 608.257812 387.511719 604.570312 397.367188 597.550781 C 398.40625 596.808594 397.410156 595.074219 396.359375 595.820312 C 391.308594 599.417969 385.761719 602.265625 380.203125 604.980469 C 375.875 607.09375 371.019531 610.234375 366.375 611.503906 C 364.652344 611.976562 365.941406 612.140625 364.640625 611.351562 C 363.558594 610.699219 362.113281 608.4375 361.328125 607.460938 C 358.515625 603.9375 355.996094 600.183594 353.621094 596.351562 C 349.292969 589.375 345.476562 582.09375 341.480469 574.925781 C 340.855469 573.800781 339.128906 574.808594 339.753906 575.933594 "/>
<path style=" stroke:none;fill-rule:nonzero;fill:rgb(97.000122%,94.512939%,97.727966%);fill-opacity:1;" d="M 325.539062 617.289062 C 336.308594 625.636719 344.960938 636.675781 354.460938 646.367188 C 355.125 647.042969 356.167969 648.5625 357.164062 648.820312 C 359.539062 649.4375 364.582031 645.449219 366.597656 644.324219 C 375.796875 639.1875 384.273438 633.070312 391.773438 625.65625 C 392.691406 624.75 391.277344 623.335938 390.359375 624.242188 C 383.386719 631.140625 375.550781 636.902344 367.042969 641.773438 C 364.988281 642.949219 359.089844 647.175781 357.371094 646.453125 C 355.957031 645.855469 354.261719 643.269531 353.226562 642.171875 C 344.800781 633.257812 336.683594 623.417969 326.953125 615.878906 C 325.949219 615.097656 324.523438 616.503906 325.539062 617.289062 "/>
<path style=" stroke:none;fill-rule:nonzero;fill:rgb(71.955872%,61.387634%,83.479309%);fill-opacity:1;" d="M 98.972656 768.148438 C 85.390625 762.910156 56.71875 750.65625 64.945312 741.917969 C 68.699219 739.476562 73.375 738.492188 77.796875 739.203125 C 80.195312 736.242188 75.59375 732.734375 72 731.460938 C 62.410156 728.070312 25.632812 716.464844 35.496094 706.023438 C 38.730469 702.144531 51.917969 703.386719 51.292969 702.816406 C 40.488281 693.019531 34.4375 686.996094 25.984375 674 C 20.625 665.761719 16.03125 649.386719 25.371094 646.492188 C 31.359375 646.359375 36.15625 651.328125 39.542969 656.269531 C 42.929688 661.210938 48.535156 670.117188 54.574219 675.8125 C 54.296875 671.382812 52.039062 647.914062 64.746094 653.269531 C 72.6875 656.617188 76.261719 680.027344 82.992188 688.640625 C 83.890625 689.789062 85.347656 691.039062 86.625 690.328125 C 87.414062 689.890625 87.667969 688.902344 88.050781 688.085938 C 90.359375 683.179688 98.320312 684.261719 101.558594 688.613281 C 104.796875 692.964844 104.902344 698.785156 105.582031 704.164062 C 106.265625 709.546875 108.214844 715.542969 113.1875 717.703125 C 113.902344 714.59375 114.6875 711.332031 116.84375 708.976562 C 118.996094 706.625 122.992188 705.628906 125.390625 707.730469 C 126.550781 708.742188 127.125 710.246094 127.640625 711.695312 C 136.046875 735.34375 153.171875 765.210938 162.929688 787.402344 C 161.015625 785.925781 109.589844 772.25 98.972656 768.148438 "/>
<path style=" stroke:none;fill-rule:nonzero;fill:rgb(97.000122%,94.512939%,97.727966%);fill-opacity:1;" d="M 30.667969 665.351562 C 67.914062 712.761719 115.257812 750.839844 162.222656 788.109375 C 163.222656 788.902344 164.644531 787.496094 163.636719 786.695312 C 116.671875 749.425781 69.328125 711.347656 32.082031 663.9375 C 31.285156 662.925781 29.882812 664.347656 30.667969 665.351562 "/>
<path style=" stroke:none;fill-rule:nonzero;fill:rgb(97.000122%,94.512939%,97.727966%);fill-opacity:1;" d="M 45.796875 712.640625 C 56.269531 715.074219 67.164062 716.308594 77.921875 716.335938 C 78.515625 716.339844 79.125 715.6875 78.886719 715.070312 C 73.960938 702.402344 68.464844 689.042969 66.46875 675.546875 C 66.28125 674.277344 64.355469 674.816406 64.539062 676.078125 C 66.535156 689.574219 72.03125 702.933594 76.957031 715.601562 C 77.277344 715.179688 77.597656 714.757812 77.921875 714.335938 C 67.335938 714.308594 56.632812 713.109375 46.332031 710.710938 C 45.078125 710.417969 44.542969 712.347656 45.796875 712.640625 "/>
<path style=" stroke:none;fill-rule:nonzero;fill:rgb(97.000122%,94.512939%,97.727966%);fill-opacity:1;" d="M 76.011719 748.796875 C 82.804688 749.523438 89.5625 750.507812 96.394531 750.839844 C 102.355469 751.128906 109.191406 751.429688 114.675781 748.660156 C 115.164062 748.414062 115.285156 747.742188 115.035156 747.292969 C 106.824219 732.523438 102.816406 715.636719 96.089844 700.175781 C 95.578125 698.996094 93.855469 700.015625 94.363281 701.183594 C 101.09375 716.652344 105.085938 733.519531 113.308594 748.300781 C 113.425781 747.847656 113.546875 747.390625 113.667969 746.933594 C 107.839844 749.875 100.105469 749.113281 93.808594 748.683594 C 87.851562 748.273438 81.945312 747.433594 76.011719 746.796875 C 74.730469 746.660156 74.742188 748.660156 76.011719 748.796875 "/>
<path style=" stroke:none;fill-rule:nonzero;fill:rgb(81.671143%,72.044373%,88.214111%);fill-opacity:1;" d="M 186.183594 741.957031 C 175.164062 734.980469 164.3125 729.910156 153.296875 722.933594 C 138.628906 713.644531 47.175781 661.292969 54.117188 584.132812 C 55.347656 570.46875 63.054688 554.160156 76.351562 550.769531 C 115.679688 540.734375 115.601562 590.460938 117.671875 601.195312 C 122.414062 625.777344 135.257812 648.207031 151.121094 667.574219 C 166.984375 686.941406 185.871094 703.566406 204.5625 720.222656 C 208.640625 723.855469 213.078125 728.367188 212.539062 733.804688 C 212.34375 735.785156 211.480469 737.632812 210.625 739.4375 C 205.730469 749.796875 193.789062 746.777344 186.183594 741.957031 "/>
<path style=" stroke:none;fill-rule:nonzero;fill:rgb(97.000122%,94.512939%,97.727966%);fill-opacity:1;" d="M 77.828125 563.484375 C 76.652344 578.570312 78.449219 592.289062 83.699219 606.425781 C 87.972656 617.933594 93.210938 629.082031 99.316406 639.730469 C 113.488281 664.464844 132.230469 686.445312 153.945312 704.871094 C 167.941406 716.746094 183.128906 727.105469 199.089844 736.144531 C 200.210938 736.78125 201.222656 735.054688 200.101562 734.421875 C 150.664062 706.429688 108.980469 664.316406 87.632812 611.097656 C 85.136719 604.867188 82.589844 598.433594 81.136719 591.867188 C 79.085938 582.605469 79.09375 572.902344 79.828125 563.484375 C 79.929688 562.203125 77.929688 562.210938 77.828125 563.484375 "/>
<path style=" stroke:none;fill-rule:nonzero;fill:rgb(97.000122%,94.512939%,97.727966%);fill-opacity:1;" d="M 59.851562 582.675781 C 66.769531 589.550781 73.859375 595.878906 82.222656 600.964844 C 82.789062 601.308594 83.503906 600.972656 83.691406 600.367188 C 86.664062 590.773438 91.359375 581.277344 97.855469 573.574219 C 98.679688 572.597656 97.273438 571.175781 96.441406 572.160156 C 89.710938 580.144531 84.847656 589.882812 81.765625 599.835938 C 82.253906 599.636719 82.742188 599.4375 83.230469 599.238281 C 75.023438 594.246094 68.050781 588.007812 61.265625 581.261719 C 60.351562 580.351562 58.933594 581.765625 59.851562 582.675781 "/>
<path style=" stroke:none;fill-rule:nonzero;fill:rgb(97.000122%,94.512939%,97.727966%);fill-opacity:1;" d="M 64.75 617.832031 C 70.953125 620.847656 77.074219 624.035156 83.257812 627.085938 C 86.164062 628.519531 89.074219 629.964844 92.042969 631.265625 C 93.164062 631.753906 94.742188 632.765625 96.011719 632.613281 C 96.445312 632.5625 96.867188 632.34375 96.976562 631.882812 C 99.464844 621.535156 102.113281 611.097656 105.863281 601.128906 C 106.316406 599.921875 104.386719 599.398438 103.933594 600.597656 C 101.421875 607.277344 99.507812 614.179688 97.667969 621.070312 C 96.957031 623.734375 96.269531 626.402344 95.605469 629.078125 C 95.449219 629.710938 95.296875 630.347656 95.136719 630.980469 C 95.097656 631.132812 96.203125 631.105469 95.277344 630.441406 C 93.738281 629.335938 91.269531 628.734375 89.53125 627.914062 C 86.726562 626.585938 83.949219 625.203125 81.167969 623.820312 C 76.027344 621.257812 70.925781 618.613281 65.757812 616.105469 C 64.605469 615.546875 63.589844 617.269531 64.75 617.832031 "/>
<path style=" stroke:none;fill-rule:nonzero;fill:rgb(97.000122%,94.512939%,97.727966%);fill-opacity:1;" d="M 78.773438 650.246094 C 89.871094 655.042969 101.316406 659.429688 113.089844 662.257812 C 113.613281 662.382812 114.175781 662.09375 114.320312 661.558594 C 116.972656 651.648438 118.101562 641.476562 118.765625 631.261719 C 118.851562 629.980469 116.847656 629.984375 116.765625 631.261719 C 116.113281 641.300781 114.996094 651.289062 112.390625 661.027344 C 112.800781 660.792969 113.210938 660.5625 113.621094 660.328125 C 102.023438 657.539062 90.71875 653.246094 79.785156 648.519531 C 78.613281 648.015625 77.59375 649.738281 78.773438 650.246094 "/>
<path style=" stroke:none;fill-rule:nonzero;fill:rgb(20.256042%,22.515869%,55.111694%);fill-opacity:1;" d="M 73.621094 695.832031 C 71.746094 685.3125 71.28125 673.625 77.371094 664.847656 C 82.433594 657.550781 91.238281 653.617188 100.011719 652.234375 C 106.703125 651.179688 187.375 644.628906 190.328125 647.566406 C 193.0625 650.285156 201.53125 655.289062 204.921875 669.382812 C 208.988281 686.296875 221.316406 758.4375 217.84375 773.542969 C 208.214844 775.941406 116.191406 776.40625 101.875 776.535156 C 101.289062 771.179688 76.675781 712.972656 73.621094 695.832031 "/>
<path style=" stroke:none;fill-rule:nonzero;fill:rgb(84.9823%,38.056946%,11.375427%);fill-opacity:1;" d="M 230.277344 624.664062 C 252.613281 629.746094 261.394531 676.515625 264.792969 687.875 C 268.507812 700.296875 273.824219 712.234375 280.570312 723.304688 C 283.964844 728.875 287.804688 735.820312 284.496094 741.441406 C 282.40625 744.992188 278.027344 746.574219 273.914062 746.765625 C 265.726562 747.148438 257.820312 743.027344 251.976562 737.28125 C 246.132812 731.53125 242.050781 724.257812 238.277344 716.980469 C 227.105469 695.433594 220.546875 679.125 215.445312 655.394531 C 215.164062 654.09375 213.050781 620.742188 230.277344 624.664062 "/>
<path style=" stroke:none;fill-rule:nonzero;fill:rgb(97.703552%,68.443298%,49.462891%);fill-opacity:1;" d="M 278.859375 751.644531 C 281.714844 754.554688 293.890625 756.039062 294.890625 755.34375 C 293.832031 749.003906 287.601562 752.605469 286.828125 747.714844 C 288.726562 746.390625 290.972656 746.792969 292.832031 746.792969 C 294.449219 746.789062 295.964844 748.230469 296.652344 749.972656 C 297.6875 752.605469 297.304688 753.421875 297.707031 756.226562 C 298.105469 758.988281 300.910156 761.007812 300.914062 759.246094 C 300.917969 756.011719 300.921875 751.015625 300.925781 747.78125 C 301.722656 750.65625 302.289062 759.746094 306.164062 758.890625 C 307.109375 754.539062 305.097656 750.707031 305.078125 746.257812 C 306.179688 750.035156 306.164062 758.890625 310.039062 757.636719 C 310.195312 753.574219 308.691406 749.472656 308.851562 745.410156 C 309.722656 748.992188 311.097656 756.753906 313.238281 755.503906 C 313.886719 751.597656 312.820312 747.460938 311.976562 743.59375 C 311.464844 741.238281 311.589844 738.960938 309.878906 737.265625 C 308.828125 736.222656 293.992188 733.347656 287.835938 733.707031 C 283.953125 733.9375 279.015625 733.339844 276.570312 735.28125 C 267.058594 742.839844 275.660156 748.386719 278.859375 751.644531 "/>
<path style=" stroke:none;fill-rule:nonzero;fill:rgb(92.752075%,41.923523%,11.71875%);fill-opacity:1;" d="M 128.953125 670.085938 C 134.035156 694.796875 150.808594 697.957031 153.933594 722.988281 C 156.019531 739.691406 149.03125 760.386719 144.28125 776.535156 C 182.882812 777.890625 221.964844 777.1875 250.492188 775.953125 C 249.445312 752.5625 240.105469 721.496094 242.269531 698.183594 C 243.511719 684.8125 246.460938 672.410156 244.566406 659.117188 C 242.675781 645.828125 236.9375 626.578125 230.277344 624.664062 C 217.335938 620.945312 206.460938 617.59375 191.550781 615.972656 C 185.039062 615.265625 165.925781 613.273438 149.429688 615.597656 C 139.066406 617.058594 130.289062 618.996094 126.570312 620.503906 C 101.964844 630.484375 124.558594 648.710938 128.953125 670.085938 "/>
<path style=" stroke:none;fill-rule:nonzero;fill:rgb(91.833496%,58.680725%,41.386414%);fill-opacity:1;" d="M 192.78125 643.3125 C 195.21875 643.132812 205.679688 624.4375 204.882812 622.125 C 202.074219 615.699219 196.878906 622.183594 195.203125 617.421875 C 193.863281 613.613281 200.472656 596.28125 196.757812 591.839844 C 194.542969 589.1875 172.394531 580.976562 168.464844 588.46875 C 166.613281 592 159.664062 607.839844 159.664062 611.957031 C 159.664062 614.355469 185.949219 643.816406 192.78125 643.3125 "/>
<path style=" stroke:none;fill-rule:nonzero;fill:rgb(97.703552%,68.443298%,49.462891%);fill-opacity:1;" d="M 212.628906 735.28125 C 214.046875 736.949219 216.597656 742.644531 218.183594 747.453125 C 218.710938 749.042969 219.460938 754.109375 219.460938 754.109375 C 215.445312 756.046875 214.015625 746.289062 212.628906 743.542969 C 212.21875 746.5625 212.804688 757.8125 211.746094 757.714844 C 207.871094 756.753906 208.289062 748.296875 208.574219 744.246094 C 208.226562 746.9375 207.476562 749.371094 206.6875 751.96875 C 205.878906 754.617188 204.925781 757.105469 203.664062 758.398438 C 201.175781 757.988281 202.84375 750.207031 203.289062 746.734375 C 201.871094 752.707031 198.226562 758.890625 198.226562 758.890625 C 195.71875 758.890625 195.9375 755.277344 196.742188 753.230469 C 197.546875 751.171875 199.53125 748.664062 198.359375 746.789062 C 198.605469 748.59375 194.945312 751.1875 193.195312 751.671875 C 191.445312 752.160156 186.542969 750.460938 184.796875 749.964844 C 176.449219 747.589844 157.113281 748.4375 159.695312 739.140625 C 161.464844 732.769531 169.597656 727.503906 175.460938 728.394531 C 180.609375 729.175781 187.796875 735.28125 193.601562 735.28125 C 203.996094 735.28125 208.464844 733.691406 212.628906 735.28125 "/>
<path style=" stroke:none;fill-rule:nonzero;fill:rgb(84.9823%,38.056946%,11.375427%);fill-opacity:1;" d="M 185.5 730.453125 C 175.035156 724.527344 131.449219 705.398438 131.070312 704.4375 C 129.613281 700.753906 150.339844 665.992188 151.644531 655.738281 C 152.949219 645.480469 152.75 636.503906 145.414062 629.21875 C 135.65625 619.53125 126.570312 620.503906 126.570312 620.503906 C 119.796875 622.878906 118.003906 625.113281 114.539062 628.472656 C 109.628906 633.230469 106.796875 639.683594 104.078125 645.957031 C 96.070312 664.476562 88.019531 683.109375 83.28125 702.726562 C 81.984375 708.089844 80.96875 713.863281 82.941406 719.015625 C 84.269531 722.480469 86.851562 725.332031 89.710938 727.699219 C 101.25 737.253906 116.976562 739.550781 131.832031 741.480469 C 147.238281 743.488281 163.222656 747.960938 178.628906 749.964844 C 181.800781 750.378906 188.820312 732.332031 185.5 730.453125 "/>
<path style=" stroke:none;fill-rule:nonzero;fill:rgb(84.9823%,38.056946%,11.375427%);fill-opacity:1;" d="M 149.363281 616.722656 C 149.351562 620.816406 152.605469 624.707031 154.316406 628.429688 C 157.207031 634.726562 160.097656 641.019531 162.988281 647.3125 C 166.691406 642.472656 170.394531 637.628906 174.09375 632.785156 C 179.335938 638.574219 185.914062 643.148438 193.167969 646.046875 C 196.609375 641.597656 200.054688 637.144531 203.496094 632.695312 C 204.894531 636.886719 206.753906 640.925781 209.027344 644.71875 C 211.035156 634.890625 212.761719 623.6875 206.742188 615.664062 C 203.886719 611.859375 199.449219 609.28125 194.730469 608.683594 C 192.925781 614.683594 196.996094 620.878906 196.953125 627.140625 C 196.914062 632.230469 194.1875 636.859375 191.539062 641.207031 C 188.089844 639.027344 184.769531 636.644531 181.597656 634.082031 C 180.011719 632.800781 178.414062 631.402344 177.597656 629.535156 C 176.898438 627.9375 176.820312 626.082031 175.898438 624.605469 C 174.945312 623.082031 173.265625 622.210938 171.890625 621.050781 C 166.253906 616.285156 162.660156 607.023438 162.660156 601.789062 C 158.292969 601.789062 149.386719 608.871094 149.363281 616.722656 "/>
<path style=" stroke:none;fill-rule:nonzero;fill:rgb(84.9823%,38.056946%,11.375427%);fill-opacity:1;" d="M 193.160156 650.765625 C 198.710938 676.785156 203.890625 703.238281 202.335938 729.976562 C 202.261719 731.265625 204.261719 731.261719 204.335938 729.976562 C 205.898438 703.070312 200.671875 676.417969 195.089844 650.230469 C 194.820312 648.972656 192.894531 649.507812 193.160156 650.765625 "/>
<path style=" stroke:none;fill-rule:nonzero;fill:rgb(31.143188%,32.646179%,68.051147%);fill-opacity:1;" d="M 203.664062 574.289062 C 202.996094 578.425781 203.21875 582.921875 205.515625 586.425781 C 207.8125 589.925781 212.636719 591.972656 216.398438 590.128906 C 221.234375 587.761719 221.703125 581.121094 221.113281 575.769531 C 220.738281 572.390625 220.15625 568.871094 218.109375 566.15625 C 211.28125 557.101562 204.761719 567.457031 203.664062 574.289062 "/>
<path style=" stroke:none;fill-rule:nonzero;fill:rgb(97.703552%,68.443298%,49.462891%);fill-opacity:1;" d="M 171.257812 592.25 C 175.429688 600.769531 183.554688 607.5625 192.945312 608.921875 C 196.667969 609.460938 200.6875 609.09375 203.789062 606.96875 C 205.863281 605.546875 207.375 603.453125 208.71875 601.324219 C 214.707031 591.84375 218.179688 580.789062 218.6875 569.589844 C 219.089844 560.75 217.039062 550.800781 209.699219 545.859375 C 204.121094 542.105469 196.902344 542.171875 190.179688 542.375 C 186.71875 542.480469 183.125 542.617188 180.042969 544.195312 C 176.839844 545.839844 174.585938 548.839844 172.464844 551.75 C 164.765625 562.3125 165.53125 580.5625 171.257812 592.25 "/>
<path style=" stroke:none;fill-rule:nonzero;fill:rgb(88.227844%,49.769592%,30.632019%);fill-opacity:1;" d="M 192.039062 595.859375 C 194.914062 598.5625 199.046875 599.421875 202.726562 597.921875 C 203.902344 597.441406 203.386719 595.507812 202.195312 595.992188 C 199.164062 597.226562 195.859375 596.703125 193.453125 594.445312 C 192.515625 593.5625 191.097656 594.976562 192.039062 595.859375 "/>
<path style=" stroke:none;fill-rule:nonzero;fill:rgb(13.417053%,12.402344%,22.25647%);fill-opacity:1;" d="M 187.59375 556.328125 C 188.164062 557.425781 188.179688 558.714844 188.519531 559.898438 C 189.246094 562.449219 191.597656 564.457031 194.234375 564.765625 C 196.867188 565.078125 199.625 563.679688 200.925781 561.367188 C 201.382812 560.554688 201.695312 559.621094 202.40625 559.019531 C 204.007812 557.667969 206.511719 558.816406 207.898438 560.386719 C 209.285156 561.953125 210.171875 564.410156 212.214844 564.859375 C 218.109375 566.15625 219.460938 562.035156 220.378906 558.230469 C 221.269531 560.90625 227.460938 559.917969 229.34375 557.820312 C 231.230469 555.71875 230.929688 552.289062 229.308594 549.984375 C 227.683594 547.675781 225.046875 546.300781 222.402344 545.316406 C 221.433594 544.957031 220.421875 544.621094 219.65625 543.921875 C 216.90625 541.414062 219.238281 536.8125 218.40625 533.1875 C 217.480469 529.132812 212.058594 527.164062 208.410156 529.160156 C 205.6875 530.648438 203.949219 533.726562 201 534.691406 C 200.910156 534.011719 191.421875 530.328125 191.3125 532.863281 C 191.3125 532.863281 187.261719 530.046875 180.886719 531.652344 C 177.785156 532.433594 174.910156 535.261719 174.890625 538.457031 C 171.996094 537.847656 171.421875 537.902344 168.585938 538.746094 C 165.75 539.585938 163.183594 541.917969 162.882812 544.859375 C 162.777344 545.914062 162.957031 547 162.710938 548.03125 C 162.078125 550.695312 158.796875 551.628906 158.007812 553.984375 C 156.855469 557.417969 158.363281 560.546875 158.84375 564.179688 C 159.628906 570.121094 158.398438 575.304688 166.011719 574.835938 C 171.0625 574.523438 175.078125 577.003906 176.78125 572.867188 C 177.589844 570.902344 182.296875 546.105469 187.59375 556.328125 "/>
<path style=" stroke:none;fill-rule:nonzero;fill:rgb(31.143188%,32.646179%,68.051147%);fill-opacity:1;" d="M 155.785156 571.441406 C 155.121094 575.578125 155.667969 581.070312 157.96875 584.574219 C 160.265625 588.074219 165.089844 590.121094 168.851562 588.277344 C 173.6875 585.910156 174.152344 579.269531 173.5625 573.917969 C 173.191406 570.539062 172.605469 567.019531 170.5625 564.308594 C 163.734375 555.253906 156.886719 564.609375 155.785156 571.441406 "/>
<path style=" stroke:none;fill-rule:nonzero;fill:rgb(31.143188%,32.646179%,68.051147%);fill-opacity:1;" d="M 166.890625 564.332031 C 167.03125 555.808594 168.988281 546.140625 176.296875 540.808594 C 181.441406 537.054688 191.488281 533.394531 201 534.691406 C 201 534.691406 198.394531 532.28125 195.710938 531.847656 C 187.933594 530.578125 180.019531 532.820312 173.710938 537.460938 C 165.351562 543.609375 162.828125 554.476562 162.660156 564.332031 C 162.617188 567.050781 166.84375 567.054688 166.890625 564.332031 "/>
<path style=" stroke:none;fill-rule:nonzero;fill:rgb(31.143188%,32.646179%,68.051147%);fill-opacity:1;" d="M 164.628906 581.042969 C 166.3125 591.582031 175.257812 600.878906 186.039062 601.863281 C 187.320312 601.980469 187.3125 599.976562 186.039062 599.863281 C 176.101562 598.957031 168.089844 590.105469 166.558594 580.511719 C 166.355469 579.246094 164.429688 579.78125 164.628906 581.042969 "/>
<path style=" stroke:none;fill-rule:nonzero;fill:rgb(31.143188%,32.646179%,68.051147%);fill-opacity:1;" d="M 194.113281 600.101562 C 194.113281 602.695312 192.007812 604.800781 189.410156 604.800781 C 186.816406 604.800781 184.710938 602.695312 184.710938 600.101562 C 184.710938 597.503906 186.816406 595.398438 189.410156 595.398438 C 192.007812 595.398438 194.113281 597.503906 194.113281 600.101562 "/>
<path style=" stroke:none;fill-rule:nonzero;fill:rgb(88.227844%,49.769592%,30.632019%);fill-opacity:1;" d="M 203.933594 584.640625 C 204.179688 586.570312 205.101562 588.417969 206.539062 589.851562 C 206.972656 590.28125 207.484375 590.761719 207.425781 591.34375 C 207.328125 592.34375 205.808594 592.523438 204.726562 592.339844 C 202.53125 591.96875 200.402344 591.273438 198.445312 590.292969 C 198.269531 590.207031 198.097656 590.117188 197.964844 589.984375 C 197.738281 589.769531 197.644531 589.464844 197.597656 589.167969 C 197.308594 587.4375 198.210938 585.753906 198.773438 584.078125 C 199.40625 582.191406 199.210938 572.855469 202.429688 573.550781 C 206.054688 574.332031 203.660156 582.496094 203.933594 584.640625 "/>
<path style=" stroke:none;fill-rule:nonzero;fill:rgb(41.903687%,41.964722%,73.892212%);fill-opacity:1;" d="M 157.707031 578.089844 C 157.742188 580.222656 157.972656 582.59375 159.5625 584.019531 C 161.382812 585.648438 164.675781 585.089844 165.855469 582.949219 C 166.421875 581.917969 166.519531 580.699219 166.589844 579.523438 C 166.777344 576.464844 166.890625 573.355469 166.226562 570.359375 C 165.671875 567.859375 164.160156 565.152344 161.621094 564.828125 C 157.585938 564.3125 157.667969 575.703125 157.707031 578.089844 "/>
<path style=" stroke:none;fill-rule:nonzero;fill:rgb(13.417053%,12.402344%,22.25647%);fill-opacity:1;" d="M 195.277344 575.898438 C 195.277344 577.570312 194.449219 578.929688 193.425781 578.929688 C 192.40625 578.929688 191.578125 577.570312 191.578125 575.898438 C 191.578125 574.226562 192.40625 572.867188 193.425781 572.867188 C 194.449219 572.867188 195.277344 574.226562 195.277344 575.898438 "/>
<path style=" stroke:none;fill-rule:nonzero;fill:rgb(13.417053%,12.402344%,22.25647%);fill-opacity:1;" d="M 212.746094 576.71875 C 212.746094 578.390625 211.917969 579.746094 210.898438 579.746094 C 209.875 579.746094 209.046875 578.390625 209.046875 576.71875 C 209.046875 575.042969 209.875 573.6875 210.898438 573.6875 C 211.917969 573.6875 212.746094 575.042969 212.746094 576.71875 "/>
<path style=" stroke:none;fill-rule:nonzero;fill:rgb(13.417053%,12.402344%,22.25647%);fill-opacity:1;" d="M 188.507812 569.789062 C 190.039062 568.226562 192.175781 567.777344 194.226562 568.515625 C 195.4375 568.949219 195.960938 567.019531 194.757812 566.585938 C 192.066406 565.617188 189.085938 566.34375 187.09375 568.375 C 186.195312 569.296875 187.605469 570.710938 188.507812 569.789062 "/>
<path style=" stroke:none;fill-rule:nonzero;fill:rgb(13.417053%,12.402344%,22.25647%);fill-opacity:1;" d="M 209.8125 569.285156 C 211.351562 569.4375 212.742188 570.003906 214 570.890625 C 215.054688 571.632812 216.054688 569.898438 215.011719 569.164062 C 213.453125 568.066406 211.699219 567.46875 209.8125 567.285156 C 208.535156 567.160156 208.542969 569.160156 209.8125 569.285156 "/>
<path style=" stroke:none;fill-rule:nonzero;fill:rgb(71.955872%,61.387634%,83.479309%);fill-opacity:1;" d="M 454.710938 786.347656 L 57.027344 786.347656 C 52.242188 786.347656 48.363281 782.46875 48.363281 777.679688 L 48.363281 776.695312 C 48.363281 771.90625 52.242188 768.027344 57.027344 768.027344 L 454.710938 768.027344 C 459.496094 768.027344 463.375 771.90625 463.375 776.695312 L 463.375 777.679688 C 463.375 782.46875 459.496094 786.347656 454.710938 786.347656 "/>
<path style=" stroke:none;fill-rule:nonzero;fill:rgb(81.671143%,72.044373%,88.214111%);fill-opacity:1;" d="M 442.542969 786.347656 L 69.195312 786.347656 L 69.195312 787.039062 C 69.195312 793.773438 74.652344 799.226562 81.382812 799.226562 L 430.355469 799.226562 C 437.085938 799.226562 442.542969 793.773438 442.542969 787.039062 L 442.542969 786.347656 "/>
<path style=" stroke:none;fill-rule:nonzero;fill:rgb(31.143188%,32.646179%,68.051147%);fill-opacity:1;" d="M 383.878906 729.976562 L 243.792969 729.976562 C 238.34375 729.976562 234.09375 725.253906 234.671875 719.832031 L 243.28125 639.179688 C 243.78125 634.519531 247.714844 630.980469 252.402344 630.980469 L 392.492188 630.980469 C 397.941406 630.980469 402.191406 635.707031 401.609375 641.128906 L 393 721.78125 C 392.503906 726.441406 388.570312 729.976562 383.878906 729.976562 "/>
<path style=" stroke:none;fill-rule:nonzero;fill:rgb(20.256042%,22.515869%,55.111694%);fill-opacity:1;" d="M 389.164062 729.976562 L 249.078125 729.976562 C 243.625 729.976562 239.378906 725.253906 239.957031 719.832031 L 248.566406 639.179688 C 249.066406 634.519531 253 630.980469 257.6875 630.980469 L 397.773438 630.980469 C 403.226562 630.980469 407.476562 635.707031 406.894531 641.128906 L 398.285156 721.78125 C 397.789062 726.441406 393.855469 729.976562 389.164062 729.976562 "/>
<path style=" stroke:none;fill-rule:nonzero;fill:rgb(31.143188%,32.646179%,68.051147%);fill-opacity:1;" d="M 325.578125 688.839844 L 316.339844 688.839844 C 312.859375 688.839844 310.039062 691.660156 310.039062 695.140625 L 310.039062 762.390625 L 331.882812 762.390625 L 331.882812 695.140625 C 331.882812 691.660156 329.0625 688.839844 325.578125 688.839844 "/>
<path style=" stroke:none;fill-rule:nonzero;fill:rgb(20.256042%,22.515869%,55.111694%);fill-opacity:1;" d="M 355.132812 762.390625 L 284.671875 762.390625 L 284.671875 768.027344 L 355.132812 768.027344 L 355.132812 762.390625 "/>
<path style=" stroke:none;fill-rule:nonzero;fill:rgb(31.143188%,32.646179%,68.051147%);fill-opacity:1;" d="M 293.832031 762.390625 L 210.898438 762.390625 L 210.898438 768.027344 L 293.832031 768.027344 L 293.832031 762.390625 "/>
<path style=" stroke:none;fill-rule:nonzero;fill:rgb(31.143188%,32.646179%,68.051147%);fill-opacity:1;" d="M 177.179688 755.34375 L 169.339844 755.34375 C 164.011719 755.34375 159.695312 759.660156 159.695312 764.988281 C 159.695312 766.667969 161.058594 768.027344 162.734375 768.027344 L 183.785156 768.027344 C 185.464844 768.027344 186.824219 766.667969 186.824219 764.988281 C 186.824219 759.660156 182.507812 755.34375 177.179688 755.34375 "/>
<path style=" stroke:none;fill-rule:nonzero;fill:rgb(81.671143%,72.044373%,88.214111%);fill-opacity:1;" d="M 310.992188 453.820312 C 310.164062 448.308594 306.738281 443.511719 305.457031 438.085938 C 302.9375 427.421875 309.046875 416.386719 307.71875 405.507812 C 305.894531 390.535156 288.761719 380.261719 274.058594 383.648438 C 267.949219 385.054688 264.128906 386.363281 258.277344 385.101562 C 241.074219 381.390625 228.433594 389.53125 224.996094 398.867188 C 216.722656 421.335938 229.265625 424.914062 232.496094 443.738281 C 233.859375 451.675781 221.5 464.683594 237.1875 483.207031 C 242.476562 489.453125 250.671875 493.113281 258.84375 494.542969 C 257.09375 498.480469 254.632812 503.007812 251.820312 505.230469 C 251.820312 505.230469 263.015625 502.121094 269.851562 495.484375 C 289.460938 495.777344 316.285156 489.050781 310.992188 453.820312 "/>
<path style=" stroke:none;fill-rule:nonzero;fill:rgb(31.143188%,32.646179%,68.051147%);fill-opacity:1;" d="M 283.324219 458.191406 L 278.042969 451.632812 C 276.546875 449.769531 273.820312 449.472656 271.957031 450.972656 L 270.363281 452.253906 C 269.433594 453.003906 268.066406 452.855469 267.316406 451.925781 L 260.765625 443.785156 L 259.980469 442.8125 L 253.429688 434.671875 C 252.679688 433.738281 252.828125 432.375 253.761719 431.621094 L 255.351562 430.34375 C 257.214844 428.84375 257.507812 426.117188 256.011719 424.257812 L 250.726562 417.695312 C 249.230469 415.832031 246.503906 415.535156 244.640625 417.035156 L 242.90625 418.433594 C 238.378906 422.078125 237.660156 428.703125 241.304688 433.230469 L 245.417969 438.339844 L 253.328125 448.167969 L 254.109375 449.140625 L 262.023438 458.96875 L 266.132812 464.078125 C 269.777344 468.605469 276.402344 469.320312 280.933594 465.675781 L 282.667969 464.28125 C 284.53125 462.78125 284.824219 460.054688 283.324219 458.191406 "/>
<path style=" stroke:none;fill-rule:nonzero;fill:rgb(100%,100%,100%);fill-opacity:1;" d="M 277.191406 443.230469 C 277.136719 443.230469 277.074219 443.226562 277.015625 443.214844 C 276.472656 443.117188 276.109375 442.597656 276.207031 442.054688 C 276.941406 437.914062 276.316406 434.582031 274.351562 432.148438 C 270.992188 427.996094 264.742188 427.730469 264.683594 427.726562 C 264.128906 427.710938 263.695312 427.246094 263.714844 426.695312 C 263.734375 426.144531 264.246094 425.703125 264.746094 425.730469 C 265.039062 425.738281 271.949219 426.015625 275.894531 430.878906 C 278.253906 433.785156 279.019531 437.660156 278.175781 442.402344 C 278.089844 442.890625 277.667969 443.230469 277.191406 443.230469 "/>
<path style=" stroke:none;fill-rule:nonzero;fill:rgb(100%,100%,100%);fill-opacity:1;" d="M 283.480469 442.898438 C 283.449219 442.898438 283.421875 442.894531 283.386719 442.894531 C 282.839844 442.839844 282.433594 442.355469 282.484375 441.804688 C 284.171875 423.945312 267 421.734375 266.269531 421.648438 C 265.71875 421.585938 265.324219 421.089844 265.390625 420.539062 C 265.453125 419.992188 265.957031 419.601562 266.496094 419.660156 C 266.695312 419.683594 286.347656 422.164062 284.476562 441.992188 C 284.429688 442.507812 283.992188 442.898438 283.480469 442.898438 "/>
<path style=" stroke:none;fill-rule:nonzero;fill:rgb(100%,100%,100%);fill-opacity:1;" d="M 289.710938 441.828125 C 289.160156 441.828125 288.714844 441.382812 288.710938 440.835938 C 288.574219 420.417969 269.363281 415.953125 268.546875 415.773438 C 268.007812 415.65625 267.664062 415.121094 267.78125 414.585938 C 267.902344 414.046875 268.4375 413.703125 268.972656 413.820312 C 269.1875 413.867188 290.566406 418.785156 290.710938 440.820312 C 290.714844 441.371094 290.269531 441.824219 289.71875 441.828125 C 289.714844 441.828125 289.710938 441.828125 289.710938 441.828125 "/>
<path style=" stroke:none;fill-rule:nonzero;fill:rgb(98.074341%,72.860718%,38.467407%);fill-opacity:1;" d="M 466.261719 457.0625 C 460.613281 451.054688 451.9375 449.277344 444.5 445.71875 C 433.625 440.511719 425.238281 431.328125 417.519531 422.066406 C 409.117188 411.976562 398.527344 399.15625 384.273438 398.957031 C 369.382812 398.75 354.332031 407.9375 344.921875 418.882812 C 334.285156 431.25 328.585938 447.28125 326.390625 463.445312 C 324.765625 475.398438 325.046875 488.042969 330.324219 498.890625 C 331.667969 501.644531 333.394531 504.253906 335.414062 506.605469 C 333.082031 510.773438 329.605469 515.824219 325.515625 518.105469 C 325.515625 518.105469 336.449219 517.800781 343.460938 513.503906 C 348.09375 516.363281 353.367188 517.992188 358.828125 517.730469 C 367.875 517.296875 376.863281 511.980469 385.535156 514.601562 C 389.863281 515.90625 393.359375 519.03125 397.003906 521.710938 C 410.789062 531.863281 429.78125 536.273438 445.410156 529.292969 C 463.734375 521.105469 472.902344 499.558594 473.042969 479.488281 C 473.101562 471.480469 471.742188 462.894531 466.261719 457.0625 "/>
<path style=" stroke:none;fill-rule:nonzero;fill:rgb(100%,100%,100%);fill-opacity:1;" d="M 432.566406 503.046875 L 357.183594 503.046875 L 357.183594 448.265625 L 432.566406 448.265625 L 432.566406 503.046875 "/>
<path style=" stroke:none;fill-rule:nonzero;fill:rgb(31.143188%,32.646179%,68.051147%);fill-opacity:1;" d="M 363.464844 454.046875 C 362.636719 454.046875 361.964844 453.375 361.964844 452.546875 L 361.964844 445.269531 C 361.964844 444.441406 362.636719 443.769531 363.464844 443.769531 C 364.292969 443.769531 364.964844 444.441406 364.964844 445.269531 L 364.964844 452.546875 C 364.964844 453.375 364.292969 454.046875 363.464844 454.046875 "/>
<path style=" stroke:none;fill-rule:nonzero;fill:rgb(31.143188%,32.646179%,68.051147%);fill-opacity:1;" d="M 372.4375 454.046875 C 371.609375 454.046875 370.9375 453.375 370.9375 452.546875 L 370.9375 445.269531 C 370.9375 444.441406 371.609375 443.769531 372.4375 443.769531 C 373.269531 443.769531 373.9375 444.441406 373.9375 445.269531 L 373.9375 452.546875 C 373.9375 453.375 373.269531 454.046875 372.4375 454.046875 "/>
<path style=" stroke:none;fill-rule:nonzero;fill:rgb(31.143188%,32.646179%,68.051147%);fill-opacity:1;" d="M 381.414062 454.046875 C 380.585938 454.046875 379.914062 453.375 379.914062 452.546875 L 379.914062 445.269531 C 379.914062 444.441406 380.585938 443.769531 381.414062 443.769531 C 382.242188 443.769531 382.914062 444.441406 382.914062 445.269531 L 382.914062 452.546875 C 382.914062 453.375 382.242188 454.046875 381.414062 454.046875 "/>
<path style=" stroke:none;fill-rule:nonzero;fill:rgb(31.143188%,32.646179%,68.051147%);fill-opacity:1;" d="M 390.390625 454.046875 C 389.5625 454.046875 388.890625 453.375 388.890625 452.546875 L 388.890625 445.269531 C 388.890625 444.441406 389.5625 443.769531 390.390625 443.769531 C 391.21875 443.769531 391.890625 444.441406 391.890625 445.269531 L 391.890625 452.546875 C 391.890625 453.375 391.21875 454.046875 390.390625 454.046875 "/>
<path style=" stroke:none;fill-rule:nonzero;fill:rgb(31.143188%,32.646179%,68.051147%);fill-opacity:1;" d="M 399.363281 454.046875 C 398.535156 454.046875 397.863281 453.375 397.863281 452.546875 L 397.863281 445.269531 C 397.863281 444.441406 398.535156 443.769531 399.363281 443.769531 C 400.191406 443.769531 400.863281 444.441406 400.863281 445.269531 L 400.863281 452.546875 C 400.863281 453.375 400.191406 454.046875 399.363281 454.046875 "/>
<path style=" stroke:none;fill-rule:nonzero;fill:rgb(31.143188%,32.646179%,68.051147%);fill-opacity:1;" d="M 408.335938 454.046875 C 407.507812 454.046875 406.835938 453.375 406.835938 452.546875 L 406.835938 445.269531 C 406.835938 444.441406 407.507812 443.769531 408.335938 443.769531 C 409.164062 443.769531 409.835938 444.441406 409.835938 445.269531 L 409.835938 452.546875 C 409.835938 453.375 409.164062 454.046875 408.335938 454.046875 "/>
<path style=" stroke:none;fill-rule:nonzero;fill:rgb(31.143188%,32.646179%,68.051147%);fill-opacity:1;" d="M 417.3125 454.046875 C 416.484375 454.046875 415.8125 453.375 415.8125 452.546875 L 415.8125 445.269531 C 415.8125 444.441406 416.484375 443.769531 417.3125 443.769531 C 418.140625 443.769531 418.8125 444.441406 418.8125 445.269531 L 418.8125 452.546875 C 418.8125 453.375 418.140625 454.046875 417.3125 454.046875 "/>
<path style=" stroke:none;fill-rule:nonzero;fill:rgb(31.143188%,32.646179%,68.051147%);fill-opacity:1;" d="M 426.285156 454.046875 C 425.457031 454.046875 424.785156 453.375 424.785156 452.546875 L 424.785156 445.269531 C 424.785156 444.441406 425.457031 443.769531 426.285156 443.769531 C 427.113281 443.769531 427.785156 444.441406 427.785156 445.269531 L 427.785156 452.546875 C 427.785156 453.375 427.113281 454.046875 426.285156 454.046875 "/>
<path style=" stroke:none;fill-rule:nonzero;fill:rgb(81.671143%,72.044373%,88.214111%);fill-opacity:1;" d="M 386.316406 468.441406 L 378.65625 468.441406 L 378.65625 460.785156 L 386.316406 460.785156 L 386.316406 468.441406 "/>
<path style=" stroke:none;fill-rule:nonzero;fill:rgb(81.671143%,72.044373%,88.214111%);fill-opacity:1;" d="M 398.320312 468.441406 L 390.664062 468.441406 L 390.664062 460.785156 L 398.320312 460.785156 L 398.320312 468.441406 "/>
<path style=" stroke:none;fill-rule:nonzero;fill:rgb(81.671143%,72.044373%,88.214111%);fill-opacity:1;" d="M 410.328125 468.441406 L 402.671875 468.441406 L 402.671875 460.785156 L 410.328125 460.785156 L 410.328125 468.441406 "/>
<path style=" stroke:none;fill-rule:nonzero;fill:rgb(98.074341%,72.860718%,38.467407%);fill-opacity:1;" d="M 422.335938 468.441406 L 414.675781 468.441406 L 414.675781 460.785156 L 422.335938 460.785156 L 422.335938 468.441406 "/>
<path style=" stroke:none;fill-rule:nonzero;fill:rgb(98.074341%,72.860718%,38.467407%);fill-opacity:1;" d="M 374.308594 479.484375 L 366.652344 479.484375 L 366.652344 471.824219 L 374.308594 471.824219 L 374.308594 479.484375 "/>
<path style=" stroke:none;fill-rule:nonzero;fill:rgb(81.671143%,72.044373%,88.214111%);fill-opacity:1;" d="M 386.316406 479.484375 L 378.65625 479.484375 L 378.65625 471.824219 L 386.316406 471.824219 L 386.316406 479.484375 "/>
<path style=" stroke:none;fill-rule:nonzero;fill:rgb(81.671143%,72.044373%,88.214111%);fill-opacity:1;" d="M 398.320312 479.484375 L 390.664062 479.484375 L 390.664062 471.824219 L 398.320312 471.824219 L 398.320312 479.484375 "/>
<path style=" stroke:none;fill-rule:nonzero;fill:rgb(81.671143%,72.044373%,88.214111%);fill-opacity:1;" d="M 410.328125 479.484375 L 402.671875 479.484375 L 402.671875 471.824219 L 410.328125 471.824219 L 410.328125 479.484375 "/>
<path style=" stroke:none;fill-rule:nonzero;fill:rgb(98.074341%,72.860718%,38.467407%);fill-opacity:1;" d="M 422.335938 479.484375 L 414.675781 479.484375 L 414.675781 471.824219 L 422.335938 471.824219 L 422.335938 479.484375 "/>
<path style=" stroke:none;fill-rule:nonzero;fill:rgb(98.074341%,72.860718%,38.467407%);fill-opacity:1;" d="M 374.308594 490.523438 L 366.652344 490.523438 L 366.652344 482.867188 L 374.308594 482.867188 L 374.308594 490.523438 "/>
<path style=" stroke:none;fill-rule:nonzero;fill:rgb(81.671143%,72.044373%,88.214111%);fill-opacity:1;" d="M 386.316406 490.523438 L 378.65625 490.523438 L 378.65625 482.867188 L 386.316406 482.867188 L 386.316406 490.523438 "/>
<path style=" stroke:none;fill-rule:nonzero;fill:rgb(81.671143%,72.044373%,88.214111%);fill-opacity:1;" d="M 398.320312 490.523438 L 390.664062 490.523438 L 390.664062 482.867188 L 398.320312 482.867188 L 398.320312 490.523438 "/>
<path style=" stroke:none;fill-rule:nonzero;fill:rgb(81.671143%,72.044373%,88.214111%);fill-opacity:1;" d="M 410.328125 490.523438 L 402.671875 490.523438 L 402.671875 482.867188 L 410.328125 482.867188 L 410.328125 490.523438 "/>
<path style=" stroke:none;fill-rule:nonzero;fill:rgb(97.502136%,65.797424%,44.20166%);fill-opacity:1;" d="M 84.542969 443.4375 C 64.460938 458.0625 39.867188 443.335938 26.660156 471.6875 C 21.210938 483.382812 23.371094 494.769531 28.851562 507.273438 C 35.21875 521.804688 44.265625 527.527344 57.34375 528.1875 C 64.898438 528.566406 71.242188 525.285156 78.585938 520.78125 C 83.925781 524.042969 91.140625 527.492188 97.816406 527.527344 C 97.816406 527.527344 91.976562 523.300781 90.113281 513.714844 C 92.894531 512.097656 95.875 510.480469 99.132812 508.933594 C 119.542969 499.238281 126.824219 507.980469 139.140625 493.066406 C 159.273438 468.6875 126.390625 412.96875 84.542969 443.4375 "/>
<path style=" stroke:none;fill-rule:nonzero;fill:rgb(100%,100%,100%);fill-opacity:1;" d="M 106.421875 457.117188 L 114.257812 484.960938 C 114.597656 486.175781 114.335938 487.402344 113.664062 488.367188 C 113.148438 489.089844 112.394531 489.652344 111.480469 489.910156 L 61.128906 504.078125 C 60.214844 504.335938 59.277344 504.261719 58.460938 503.898438 C 57.386719 503.441406 56.519531 502.515625 56.179688 501.300781 L 48.34375 473.457031 C 48.003906 472.242188 48.257812 471.003906 48.933594 470.054688 C 49.449219 469.332031 50.210938 468.777344 51.125 468.523438 L 101.476562 454.355469 C 102.390625 454.097656 103.328125 454.183594 104.140625 454.519531 C 105.21875 454.992188 106.078125 455.902344 106.421875 457.117188 "/>
<path style=" stroke:none;fill-rule:nonzero;fill:rgb(67.09137%,65.306091%,85.687256%);fill-opacity:1;" d="M 89.789062 476.820312 L 113.664062 488.367188 C 113.148438 489.089844 112.394531 489.652344 111.480469 489.910156 L 108.960938 490.617188 L 87.5625 480.277344 L 84.390625 485.210938 C 84.101562 485.644531 83.695312 485.941406 83.222656 486.074219 C 82.769531 486.203125 82.25 486.164062 81.792969 485.941406 L 76.5 483.390625 L 63.648438 503.367188 L 58.460938 503.898438 L 72.8125 481.597656 L 48.933594 470.054688 C 49.449219 469.332031 50.210938 468.777344 51.125 468.523438 L 53.640625 467.8125 L 81.9375 481.496094 L 98.957031 455.0625 L 101.476562 454.355469 C 102.390625 454.097656 103.328125 454.183594 104.140625 454.519531 L 89.789062 476.820312 "/>
<path style=" stroke:none;fill-rule:nonzero;fill:rgb(67.09137%,65.306091%,85.687256%);fill-opacity:1;" d="M 208.480469 437.96875 C 206.375 434.460938 202.851562 431.5625 202.316406 427.507812 C 202.058594 425.542969 202.070312 423.433594 202.851562 421.613281 C 207.707031 410.296875 204.242188 397.503906 194.117188 389.929688 C 186.066406 383.902344 175.234375 382.484375 166.347656 386.566406 C 152.898438 392.75 145.1875 404.65625 151.863281 423.757812 C 153.730469 429.101562 156.222656 434.429688 156.238281 440.089844 C 156.25 444.460938 153.148438 455.183594 162.402344 464.980469 C 167.976562 470.882812 175.015625 473.324219 182.335938 472.898438 C 183.230469 475.59375 184.125 480.285156 183.128906 487.179688 C 183.128906 487.179688 192.046875 479.714844 192.746094 470.5 C 214.503906 463 211.726562 443.371094 208.480469 437.96875 "/>
<path style=" stroke:none;fill-rule:nonzero;fill:rgb(100%,100%,100%);fill-opacity:1;" d="M 176.335938 445.230469 C 174.363281 445.230469 172.765625 446.828125 172.765625 448.800781 C 172.765625 450.769531 174.363281 452.371094 176.335938 452.371094 C 178.304688 452.371094 179.90625 450.769531 179.90625 448.800781 C 179.90625 446.828125 178.304688 445.230469 176.335938 445.230469 "/>
<path style=" stroke:none;fill-rule:nonzero;fill:rgb(100%,100%,100%);fill-opacity:1;" d="M 185.953125 412.816406 C 183.53125 410.390625 180.269531 409.179688 176.167969 409.179688 C 172.273438 409.179688 169.125 410.378906 166.730469 412.773438 C 165.589844 413.914062 164.699219 415.171875 164.058594 416.546875 C 162.972656 418.878906 164.359375 421.730469 166.671875 422.054688 C 168.125 422.257812 169.535156 421.371094 170.140625 419.863281 C 170.597656 418.714844 171.191406 417.789062 171.925781 417.089844 C 173.144531 415.917969 174.660156 415.335938 176.472656 415.335938 C 178.355469 415.335938 179.851562 415.894531 180.960938 417.015625 C 182.070312 418.136719 182.625 419.484375 182.625 421.058594 C 182.625 422.1875 182.3125 423.222656 181.683594 424.164062 C 181.277344 424.757812 180.03125 426.015625 177.949219 427.929688 C 175.863281 429.847656 174.476562 431.574219 173.78125 433.109375 C 173.476562 433.777344 173.246094 435.34375 173.078125 436.898438 C 172.855469 439.03125 174.339844 440.902344 176.234375 440.902344 C 177.800781 440.902344 179.148438 439.605469 179.367188 437.855469 C 179.453125 437.1875 179.574219 436.660156 179.738281 436.273438 C 180.105469 435.410156 181.039062 434.269531 182.546875 432.851562 C 185.460938 430.105469 187.363281 427.941406 188.253906 426.351562 C 189.144531 424.757812 189.585938 423.070312 189.585938 421.285156 C 189.585938 418.066406 188.375 415.242188 185.953125 412.816406 "/>
</g>
</svg>
